<?xml version="1.0" encoding="UTF-8"?>
<svg width="954px" height="363px" viewBox="0 0 954 363" version="1.1" xmlns="http://www.w3.org/2000/svg" xmlns:xlink="http://www.w3.org/1999/xlink">
    <!-- Generator: Sketch 40.3 (33839) - http://www.bohemiancoding.com/sketch -->
    <title>2015-light-blue</title>
    <desc>Created with Sketch.</desc>
    <defs>
        <polygon id="path-1" points="0.7701 363 248.765578 363 248.765578 0.354406864 0.7701 0.354406864 0.7701 363"></polygon>
        <polygon id="path-3" points="201.513 141.5918 201.513 0.7828 0.7904 0.7828 0.7904 141.5918 201.513 141.5918"></polygon>
    </defs>
    <g id="Page-1" stroke="none" stroke-width="1" fill="none" fill-rule="evenodd">
        <g id="Artboard-3" transform="translate(-130.000000, -1064.000000)">
            <g id="2015-dark-blue" transform="translate(130.000000, 1063.000000)">
                <g id="Group-3" transform="translate(265.000000, 0.646000)">
                    <mask id="mask-2" fill="white">
                        <use xlink:href="#path-1"></use>
                    </mask>
                    <g id="Clip-2"></g>
                    <path d="M183.0101,285.5544 C168.3881,310.1114 148.6211,322.3814 123.7081,322.3814 C101.3181,322.3814 82.5481,309.8404 67.3841,284.7424 C52.2201,259.6524 44.6371,224.8984 44.6371,180.4894 C44.6371,136.0804 52.3971,101.6894 67.9251,77.3184 C82.0241,55.1804 98.6711,43.1254 117.8411,41.1024 C120.3361,40.8384 122.2261,38.7384 122.2261,36.2294 L122.2261,5.2864 C122.2261,2.4364 119.8101,0.2034 116.9631,0.3624 C83.2431,2.2364 55.7821,18.3074 34.6191,48.6154 C12.0501,80.9324 0.7701,124.8934 0.7701,180.4894 C0.7701,235.7294 11.9581,279.9614 34.3481,313.1754 C56.7301,346.3974 86.5171,363.0004 123.7081,363.0004 C163.7841,363.0004 194.6551,346.3974 216.3181,313.1754 C237.2321,281.1094 248.0431,238.7674 248.7651,186.1714 C248.8031,183.4334 246.5691,181.1874 243.8301,181.1874 L209.8131,181.1874 C207.1121,181.1874 204.9371,183.3784 204.9001,186.0784 C204.3201,228.8564 197.0271,262.0224 183.0101,285.5544" id="Fill-1" fill="#000034" mask="url(#mask-2)"></path>
                </g>
                <path d="M212.7024,107.8296 C212.7024,73.8966 201.8714,47.5406 180.2074,29.1266 C162.3314,13.9316 140.6784,4.9646 115.8064,2.2886 C116.1964,3.0206 116.4384,3.8406 116.4384,4.7226 L116.4384,40.7686 C116.4384,41.9206 116.0524,42.9806 115.4154,43.8516 C128.5564,46.4736 139.6914,51.8426 148.5594,60.0926 C161.5584,72.1936 167.9724,89.4316 167.9724,111.8136 C167.9724,167.8086 111.6884,237.7186 1.9454,321.5446 C0.7284,322.4746 0.0004,323.9256 0.0004,325.4566 L0.0004,355.6286 C0.0004,358.3486 2.2044,360.5536 4.9244,360.5536 L219.8294,360.5536 C222.5494,360.5536 224.7534,358.3486 224.7534,355.6286 L224.7534,327.5676 C224.7534,324.8476 222.5494,322.6426 219.8294,322.6426 L73.7224,322.6426 C69.0584,322.6426 67.0314,316.7586 70.6844,313.8586 C165.3584,238.7136 212.7024,169.3456 212.7024,107.8296" id="Fill-4" fill="#000034"></path>
                <g id="Group-14" transform="translate(752.000000, 110.646000)">
                    <mask id="mask-4" fill="white">
                        <use xlink:href="#path-3"></use>
                    </mask>
                    <g id="Clip-13"></g>
                    <path d="M169.8794,61.2828 C148.7584,42.1488 119.9464,32.5788 83.8474,32.5788 C73.3914,32.5788 61.1174,33.9738 47.2894,36.7508 C44.2514,37.3608 41.4084,35.0278 41.4084,31.9278 L41.4084,5.7068 C41.4084,2.9878 39.2034,0.7828 36.4834,0.7828 L5.7144,0.7828 C2.9944,0.7828 0.7904,2.9878 0.7904,5.7068 L0.7904,82.9538 C0.7904,86.4648 4.3704,88.8648 7.6004,87.4888 C32.4984,76.8798 57.7974,71.5718 81.9514,71.5718 C104.3334,71.5718 122.2604,77.2588 136.3394,88.6328 C150.4214,100.0048 157.3084,115.9808 157.3084,136.5608 L157.3084,136.6128 C157.3074,139.3538 159.4904,141.5918 162.2324,141.5918 L201.4424,141.5918 C201.4674,140.4578 201.5134,139.3368 201.5134,138.1858 C201.5134,106.0558 191.0034,80.4248 169.8794,61.2828" id="Fill-12" fill="#000034" mask="url(#mask-4)"></path>
                </g>
                <path d="M818.0507,323.5699 C788.3577,323.5699 763.4587,317.9719 740.9517,306.7639 C737.6757,305.1329 733.8347,307.4889 733.8347,311.1489 L733.8347,342.1339 C733.8347,344.0279 734.8997,345.7779 736.6097,346.5909 C760.5467,357.9629 790.6147,363.6459 825.0157,363.6459 C864.7267,363.6459 896.1417,353.2719 919.0737,332.5049 C936.7997,316.4559 947.6777,296.1259 951.7087,271.5449 C952.2027,268.5319 949.8927,265.7779 946.8397,265.7779 L911.7607,265.7779 C909.4967,265.7779 907.4847,267.3139 906.9847,269.5219 C898.8217,305.5479 869.0767,323.5699 818.0507,323.5699" id="Fill-17" fill="#000034"></path>
                <path d="M541.5755,58.8301 L541.5755,93.2181 C541.5755,97.0781 545.8145,99.4371 549.0945,97.4031 L615.2925,56.3611 C618.5735,54.3271 622.8115,56.6861 622.8115,60.5461 L622.8115,250.0221 C622.8115,252.7411 625.0165,254.9461 627.7365,254.9461 L661.2135,254.9461 C663.9335,254.9461 666.1375,252.7411 666.1375,250.0221 L666.1375,10.7461 C666.1375,8.0261 663.9335,5.8211 661.2135,5.8211 L627.2665,5.8211 C626.3795,5.8211 625.5095,6.0611 624.7475,6.5141 L543.9805,54.5991 C542.4895,55.4871 541.5755,57.0941 541.5755,58.8301" id="Fill-19" fill="#000034"></path>
            </g>
        </g>
    </g>
</svg>