<?xml version="1.0" encoding="UTF-8"?>
<svg width="954px" height="363px" viewBox="0 0 954 363" version="1.1" xmlns="http://www.w3.org/2000/svg" xmlns:xlink="http://www.w3.org/1999/xlink">
    <!-- Generator: Sketch 40.3 (33839) - http://www.bohemiancoding.com/sketch -->
    <title>2015-dark-blue</title>
    <desc>Created with Sketch.</desc>
    <defs></defs>
    <g id="Page-1" stroke="none" stroke-width="1" fill="none" fill-rule="evenodd">
        <g id="Artboard-3" transform="translate(-130.000000, -1064.000000)" fill="#2384C6">
            <g id="2015-light-blue" transform="translate(130.000000, 1064.000000)">
                <path d="M104.9179,42.465 C104.7319,41.928 104.6069,41.365 104.6069,40.769 L104.6069,4.723 C104.6069,3.55 105.0099,2.476 105.6679,1.596 C103.3289,1.49 100.9729,1.42 98.5819,1.42 C66.2049,1.42 38.3599,10.772 11.8999,29.624 C10.6019,30.549 9.8319,32.066 9.8319,33.661 L9.8319,64.542 C9.8319,68.475 14.2169,70.792 17.4929,68.616 C44.2419,50.841 68.7329,41.951 94.7909,41.951 C98.2879,41.951 101.6379,42.16 104.9179,42.465" id="Fill-6"></path>
                <path d="M797.3323,43.7317 L922.8773,43.7317 C925.5973,43.7317 927.8023,41.5267 927.8023,38.8077 L927.8023,10.7457 C927.8023,8.0257 925.5973,5.8217 922.8773,5.8217 L756.7143,5.8217 C753.9943,5.8217 751.7903,8.0257 751.7903,10.7457 L751.7903,95.6727 C751.7903,98.3927 753.9943,100.5967 756.7143,100.5967 L787.4833,100.5967 C790.2033,100.5967 792.4083,98.3927 792.4083,95.6727 L792.4083,48.6557 C792.4083,45.9367 794.6123,43.7317 797.3323,43.7317" id="Fill-8"></path>
                <path d="M445.9272,77.4242 C459.5322,98.7212 467.0942,128.3372 468.6342,166.2402 C468.7412,168.8882 470.8932,171.0022 473.5422,171.0022 L507.5782,171.0022 C510.3672,171.0022 512.6252,168.6712 512.5162,165.8852 C510.6072,117.4412 499.4192,78.5642 478.9642,49.2612 C459.4102,21.2692 433.9432,5.4342 402.6032,1.6982 C399.6612,1.3472 397.0582,3.6362 397.0582,6.5992 L397.0582,37.9962 C397.0582,40.2922 398.6402,42.3052 400.8862,42.7822 C418.5352,46.5322 433.5512,58.0702 445.9272,77.4242" id="Fill-10"></path>
                <path d="M626.7361,360.5534 L660.2131,360.5534 C662.9331,360.5534 665.1381,358.3484 665.1381,355.6294 L665.1381,270.7024 C665.1381,267.9824 662.9331,265.7774 660.2131,265.7774 L626.7361,265.7774 C624.0161,265.7774 621.8121,267.9824 621.8121,270.7024 L621.8121,355.6294 C621.8121,358.3484 624.0161,360.5534 626.7361,360.5534" id="Fill-15"></path>
            </g>
        </g>
    </g>
</svg>