<svg xmlns="http://www.w3.org/2000/svg" width="673.64" height="238.74" viewBox="0 0 673.64 238.74"><title>2015</title><g id="f4f7fbbe-858e-4f67-8a9d-c3aee8095cd9" data-name="Ebene 2"><g id="f9f3ac88-1b83-4646-99fa-d1b85a859be6" data-name="Layer 9"><rect x="597.32" y="3.63" width="68.01" height="26.09" rx="5.44" ry="5.44" style="fill:#2383c5"/><path d="M299.5,40.77a66.49,66.49,0,0,1,9.13,17.94,134.62,134.62,0,0,1,5.22,20.71,201.93,201.93,0,0,1,2.45,21c.14,2.27.26,4.58.35,6.75a5.43,5.43,0,0,0,5.43,5.19h16.49a5.44,5.44,0,0,0,5.44-5.72,280.76,280.76,0,0,0-2.92-28.07A128.54,128.54,0,0,0,329,39.93a79.67,79.67,0,0,0-23.82-28.69C297.7,5.68,288.44,2.19,278,.76a5.44,5.44,0,0,0-6.16,5.4v13a5.47,5.47,0,0,0,4.34,5.32,33.15,33.15,0,0,1,9.66,3.74A44.48,44.48,0,0,1,299.5,40.77Z" style="fill:#2383c5"/><rect x="439.21" y="152.57" width="27.18" height="82.62" rx="5.44" ry="5.44" style="fill:#2383c5"/><path d="M30.44,208.73l71.12-66.86q8.8-8.15,16.81-16.47a137.5,137.5,0,0,0,14.36-17.61,83,83,0,0,0,10.11-20.38,77.13,77.13,0,0,0,3.75-24.79q0-15.33-5.71-27.07A57,57,0,0,0,125.55,16a67.86,67.86,0,0,0-22.34-11.9A88.25,88.25,0,0,0,76.14,0,87.57,87.57,0,0,0,50.05,3.75,71.49,71.49,0,0,0,28.36,14.68a59.8,59.8,0,0,0-16,18.1A69.34,69.34,0,0,0,5,51.6a5.44,5.44,0,0,0,4.82,6.66l18.95,1.67A5.4,5.4,0,0,0,34.43,56,45.25,45.25,0,0,1,48.1,33.59q11.41-10.11,29-10.11a48.14,48.14,0,0,1,16.47,2.77A41,41,0,0,1,107,34.08a36.16,36.16,0,0,1,9,12.23,39.06,39.06,0,0,1,3.26,16.31,55.73,55.73,0,0,1-2,15.33,49.8,49.8,0,0,1-6,13.21,94.55,94.55,0,0,1-10.27,13c-4.13,4.46-8.67,9.29-14.1,14.51L3.66,199.94A12.14,12.14,0,0,0,0,208.63v21.13a5.44,5.44,0,0,0,5.44,5.44H50a5.44,5.44,0,0,0,5.44-5.44V214.54A5.44,5.44,0,0,0,50,209.1H30.44Z" style="fill:#000034"/><rect x="66.32" y="209.1" width="81.54" height="26.09" rx="5.44" ry="5.44" style="fill:#2383c5"/><path d="M653.42,107.79a68.67,68.67,0,0,0-23.32-16,77,77,0,0,0-30.17-5.71,107.66,107.66,0,0,0-15.17,1.14,47.47,47.47,0,0,0-14.51,4.59l1-62.11H581a5.44,5.44,0,0,0,5.44-5.44V9.07A5.44,5.44,0,0,0,581,3.63H549.82A5.44,5.44,0,0,0,544.38,9l-2,103.82a6.53,6.53,0,0,0,9.32,6,124.93,124.93,0,0,1,13.3-5.21,77,77,0,0,1,24.13-4,71.82,71.82,0,0,1,22.5,3.44,51.78,51.78,0,0,1,18.1,10.12,47.34,47.34,0,0,1,12.07,16.48,54.34,54.34,0,0,1,4.4,22.51,58.38,58.38,0,0,1-3.91,21.85,52.09,52.09,0,0,1-10.6,16.8,45.78,45.78,0,0,1-15.66,10.76,49.77,49.77,0,0,1-19.41,3.75,43.62,43.62,0,0,1-25.93-8,50.25,50.25,0,0,1-15-16.87A5.41,5.41,0,0,0,549,188l-17,6.49a5.45,5.45,0,0,0-2.77,7.82,78.12,78.12,0,0,0,22.6,25q16.14,11.41,42.56,11.42a87.52,87.52,0,0,0,31.47-5.55A75.69,75.69,0,0,0,651,217.7a70.5,70.5,0,0,0,16.63-24.13,79.65,79.65,0,0,0,6-31.47,85.06,85.06,0,0,0-5.22-30.17A70.72,70.72,0,0,0,653.42,107.79Z" style="fill:#000034"/><path d="M316.29,138.24a202.79,202.79,0,0,1-2.45,21.06A134.43,134.43,0,0,1,308.63,180,66.46,66.46,0,0,1,299.5,198a45,45,0,0,1-13.86,12.56q-8.16,4.73-19.57,4.73t-19.57-4.73A44.79,44.79,0,0,1,232.64,198,66.25,66.25,0,0,1,223.51,180a133.81,133.81,0,0,1-5.22-20.71,200.09,200.09,0,0,1-2.45-21q-.66-10.43-.65-18.92t.65-18.92a200.47,200.47,0,0,1,2.45-21,134.13,134.13,0,0,1,5.22-20.71,66.31,66.31,0,0,1,9.13-17.94,45.36,45.36,0,0,1,14-12.56,33.65,33.65,0,0,1,10-3.76,5.43,5.43,0,0,0,4.3-5.31V6.1A5.44,5.44,0,0,0,254.82.7c-11.17,1.4-20,4.92-27.58,10.55a80.3,80.3,0,0,0-24,28.7,128.54,128.54,0,0,0-12.1,38.65,268.08,268.08,0,0,0-3.28,40.77,267.88,267.88,0,0,0,3.25,40.77,128.4,128.4,0,0,0,12.06,38.65,80.05,80.05,0,0,0,24,28.7q15.17,11.25,39,11.25t39-11.25a80,80,0,0,0,24-28.7,128.86,128.86,0,0,0,12.07-38.69,276.44,276.44,0,0,0,3.06-31.22,5.44,5.44,0,0,0-5.44-5.65H322.2a5.43,5.43,0,0,0-5.43,5.24C316.66,131.54,316.5,134.87,316.29,138.24Z" style="fill:#000034"/><path d="M384.17,58.22l9.42,11.64a5.44,5.44,0,0,0,7.71.75l37.18-31.1h.72v96.76a5.44,5.44,0,0,0,5.44,5.44H461a5.44,5.44,0,0,0,5.44-5.44V9.07A5.44,5.44,0,0,0,461,3.63H448.52a16.31,16.31,0,0,0-10.29,3.65L385,50.58A5.44,5.44,0,0,0,384.17,58.22Z" style="fill:#000034"/></g></g></svg>