<?xml version="1.0" encoding="UTF-8"?>
<svg width="801px" height="261px" viewBox="0 0 801 261" version="1.1" xmlns="http://www.w3.org/2000/svg" xmlns:xlink="http://www.w3.org/1999/xlink">
    <!-- Generator: Sketch 40.3 (33839) - http://www.bohemiancoding.com/sketch -->
    <title>2015-blue</title>
    <desc>Created with Sketch.</desc>
    <defs>
        <polygon id="path-1" points="0 0.2474 0 99.3994 165.3027 99.3994 165.3027 0.2474 2.71050543e-20 0.2474"></polygon>
    </defs>
    <g id="Page-1" stroke="none" stroke-width="1" fill="none" fill-rule="evenodd">
        <g id="Artboard-3" transform="translate(-206.000000, -688.000000)">
            <g id="2015-blue" transform="translate(206.000000, 688.000000)">
                <g id="Group-3" transform="translate(0.000000, 155.601000)">
                    <mask id="mask-2" fill="white">
                        <use xlink:href="#path-1"></use>
                    </mask>
                    <g id="Clip-2"></g>
                    <path d="M157.4047,75.3994 L58.0227,75.3994 C53.8747,75.3994 52.7907,72.6164 55.6127,69.5764 L107.1557,13.9284 C107.2817,13.7924 107.4277,13.5594 107.5607,13.4154 C106.3527,10.8374 103.3577,7.3244 100.2437,5.0204 C96.9437,2.5784 92.8647,0.9884 88.1197,0.3294 L87.5977,0.2474 C87.0727,0.8204 86.5667,1.3664 86.1157,1.8534 L1.5657,93.5454 C-1.2513,96.5904 -0.1623,99.3994 3.9857,99.3994 L157.4047,99.3994 C161.5527,99.3994 165.3027,95.3644 165.3027,91.2164 L165.3027,82.3494 C165.3027,78.2014 161.5527,75.3994 157.4047,75.3994" id="Fill-1" fill="#000034" mask="url(#mask-2)"></path>
                </g>
                <path d="M9.8904,83.0004 L18.5874,83.0004 C22.7364,83.0004 26.8574,80.1014 27.7464,76.0494 C27.7464,76.0494 33.5784,49.6664 44.0944,39.0964 C54.6064,28.5274 67.7924,23.3454 83.6474,23.3454 C96.1364,23.3454 107.0174,26.8684 116.3014,33.7884 C120.4164,32.3344 123.8394,30.2434 126.4664,27.4984 C129.5914,24.2314 132.3014,19.4234 132.5094,16.7634 L132.6384,15.0984 C119.7284,5.0404 103.8534,0.0004 84.9974,0.0004 C61.9444,0.0004 42.5754,7.8584 26.8904,23.5684 C11.2034,39.2814 3.8184,76.0184 3.8184,76.0184 C3.0094,80.0874 5.7424,83.0004 9.8904,83.0004" id="Fill-4" fill="#000034"></path>
                <path d="M130.6703,49.5595 C135.1813,57.0655 137.4533,65.4075 137.4533,74.5985 C137.4533,85.6275 134.5563,96.1225 128.7673,106.0825 C124.6173,113.2165 109.7233,130.7445 101.6053,140.1165 C103.5273,143.7785 105.9723,146.7275 108.8963,148.8905 C112.5283,151.5785 117.6203,153.6625 120.3193,153.5315 L121.1573,153.4915 C129.0183,144.1685 146.3323,123.2455 151.4803,113.8225 C158.2073,101.5045 161.5733,88.3135 161.5733,74.2515 C161.5733,58.1245 156.9873,43.7175 147.8353,31.0215 L147.4493,31.0685 C144.7993,31.3935 140.1033,34.3145 136.9783,37.5795 C134.1403,40.5475 132.0673,44.3955 130.8163,49.0185 L130.6703,49.5595 Z" id="Fill-6" fill="#2384C6"></path>
                <path d="M339.4635,24.8591 C353.6135,26.5241 367.1565,31.0531 380.0875,38.4731 C396.7545,48.0411 409.6795,60.7831 418.8585,76.7071 C425.3075,87.8961 429.4835,100.0201 431.4015,113.0701 L432.9165,113.8891 C437.1305,116.1651 441.2745,117.3181 445.4535,117.2941 C449.9715,117.2761 455.3215,115.8811 457.3835,114.1851 C454.1635,84.4791 441.8215,58.9451 420.2905,37.6181 C397.6625,15.2061 370.1195,2.8391 337.6955,0.4581 C335.9555,4.1411 335.0815,7.8151 335.0975,11.4041 C335.1145,15.9241 336.5095,21.2761 338.2065,23.3351 L339.4635,24.8591 Z" id="Fill-8" fill="#2384C6"></path>
                <path d="M773.125,156.3018 L775.592,157.6338 C779.805,159.9108 784.044,161.0678 788.129,161.0398 C792.251,161.0228 797.036,159.8568 799.414,158.3658 C796.868,141.5098 789.927,127.1998 778.548,115.4588 C763.891,100.3368 745.271,92.7728 722.692,92.7728 C714.042,92.7728 700.892,95.8158 700.892,95.8158 C696.851,96.7518 694.157,94.1788 694.905,90.0978 L704.598,37.3478 C705.346,33.2678 709.353,30.0008 713.502,30.0008 L786.586,30.0008 C790.734,30.0008 793.303,26.4648 793.303,22.3168 L793.303,13.7868 C793.303,9.6388 790.734,6.0008 786.586,6.0008 L694.226,6.0008 C690.078,6.0008 686.063,9.4588 685.304,13.5378 L665.124,122.0668 C664.365,126.1448 666.952,128.4028 670.872,127.0458 C670.872,127.0458 702.257,116.2028 716.875,116.2028 C734.529,116.2028 748.641,121.4338 759.212,131.8758 C766.096,138.6768 770.725,146.8308 773.125,156.3018" id="Fill-10" fill="#000034"></path>
                <path d="M445.5127,131.8416 C441.4067,131.8576 437.1967,133.0376 432.9997,135.3466 L432.4957,135.6246 C431.7187,153.2796 427.1807,169.4596 418.8587,184.1536 C409.6797,200.3586 396.8967,213.1296 380.5107,222.4706 C364.1217,231.8106 346.2987,236.4806 327.0407,236.4806 C298.2057,236.4806 273.5667,226.3266 253.1257,206.0116 C232.6847,185.6996 222.4647,160.7996 222.4647,131.3146 C222.4647,111.3956 227.0817,93.3346 236.3167,77.1286 C245.5507,60.9256 258.3927,48.0406 274.8367,38.4736 C288.1067,30.7526 302.0037,26.1516 316.5227,24.6626 L317.5337,23.4166 C319.2157,21.3446 320.5677,15.9826 320.5487,11.4626 C320.5337,7.7826 319.5787,4.0186 317.7177,0.2556 C297.6457,1.4666 278.8387,7.1426 261.2987,17.2926 C241.3827,28.8206 225.6587,44.7596 214.1257,65.1106 C202.5927,85.4646 196.8267,107.5606 196.8267,131.3986 C196.8267,167.1576 209.4847,197.6306 234.8017,222.8186 C260.1177,248.0086 291.1747,260.6006 327.9687,260.6006 C364.3117,260.6006 395.1127,247.9496 420.3737,222.6496 C444.4187,198.5666 456.9947,169.4826 458.1527,135.4136 L457.4667,134.8576 C455.3957,133.1766 450.0577,131.8096 445.5127,131.8416" id="Fill-12" fill="#000034"></path>
                <path d="M691.6598,232.0109 C684.0688,228.3579 677.9968,223.5509 673.4438,217.5889 C668.8888,211.6309 665.8918,201.8869 665.8918,201.8869 C664.7108,197.9109 660.3498,195.0009 656.2018,195.0009 L645.8178,195.0009 C641.6698,195.0009 639.2768,197.8999 640.5008,201.8639 C640.5008,201.8639 649.2388,229.9899 663.0698,242.3029 C675.2258,253.1249 689.8158,259.1019 706.8368,260.4119 C708.9368,256.3659 710.0038,252.2769 709.9868,248.3349 C709.9698,244.1139 708.7488,239.1819 707.2058,236.8689 C701.8648,236.0499 696.6808,234.4289 691.6598,232.0109" id="Fill-14" fill="#000034"></path>
                <path d="M800.1426,178.6032 C798.0696,176.9212 792.6796,175.5572 788.1886,175.5872 C784.0826,175.6032 779.8726,176.7832 775.6756,179.0922 L774.7786,179.5862 C773.4766,195.0642 767.7266,208.1912 757.5256,218.9652 C748.8116,228.1672 738.8186,233.9352 727.5486,236.2822 C725.8676,238.3572 724.5156,243.7152 724.5356,248.2332 C724.5496,252.0122 725.5616,255.8782 727.5216,259.7412 C738.9276,258.2902 749.3036,254.9692 758.6216,249.7212 C771.4966,242.4682 781.7006,232.0392 789.2356,218.4332 C795.9526,206.3002 799.6676,193.0892 800.3946,178.8082 L800.1426,178.6032 Z" id="Fill-16" fill="#2384C6"></path>
                <path d="M557.9628,6.0004 L524.3018,6.0004 C520.1538,6.0004 514.9898,9.0184 512.8268,12.5584 L505.8498,23.7694 C503.6868,27.3094 505.3108,30.0004 509.4588,30.0004 L533.3368,30.0004 C537.4848,30.0004 540.3028,33.9274 540.3028,38.0754 L540.3028,82.3214 C545.3028,84.5204 548.8718,85.6404 552.9108,85.6164 C557.4298,85.5984 563.3258,84.2024 565.3858,82.5044 L566.3028,82.1964 L566.3028,13.7874 C566.3028,9.6394 562.1108,6.0004 557.9628,6.0004" id="Fill-18" fill="#2384C6"></path>
                <path d="M552.9695,100.1638 C548.9075,100.1798 545.3025,101.3398 540.3025,103.5998 L540.3025,246.8168 C540.3025,250.9658 544.2735,255.0008 548.4215,255.0008 L557.9625,255.0008 C562.1115,255.0008 566.3025,250.9658 566.3025,246.8168 L566.3025,103.4178 L565.4665,103.1798 C563.3945,101.4988 557.4285,100.1408 552.9695,100.1638" id="Fill-20" fill="#000034"></path>
            </g>
        </g>
    </g>
</svg>