<?xml version="1.0" encoding="UTF-8"?>
<svg width="984px" height="113px" viewBox="0 0 984 113" version="1.1" xmlns="http://www.w3.org/2000/svg" xmlns:xlink="http://www.w3.org/1999/xlink">
    <!-- Generator: Sketch 40.3 (33839) - http://www.bohemiancoding.com/sketch -->
    <title>a-look-back</title>
    <desc>Created with Sketch.</desc>
    <defs>
        <polygon id="path-1" points="0 0.299884268 0 22.2715 18.6941 22.2715 18.6941 0.299884268 2.03287907e-20 0.299884268"></polygon>
    </defs>
    <g id="Page-1" stroke="none" stroke-width="1" fill="none" fill-rule="evenodd">
        <g id="Artboard-4" transform="translate(-344.000000, -706.000000)">
            <g id="a-look-back" transform="translate(344.000000, 706.000000)">
                <path d="M52.2769,6.2601 C51.5409,4.6811 50.3619,3.3891 49.6569,3.3891 C48.9529,3.3891 47.7669,4.6781 47.0229,6.2531 L33.6219,34.6341 L33.7629,34.8201 C35.0409,36.5101 36.5359,37.7491 38.2049,38.5021 C39.7559,39.2021 41.6749,39.5941 42.9879,39.5251 L48.2609,28.4121 C49.0069,26.8381 50.2249,26.8781 50.9669,28.4541 L66.1159,60.3411 C66.8589,61.9181 66.0409,62.9381 64.2979,62.9381 L52.9449,62.9381 C52.1009,64.9381 51.6689,66.7691 51.6689,68.4381 C51.6689,70.2861 52.1779,71.9381 52.8629,73.9381 L68.8229,73.9381 C70.5649,73.9381 72.6049,75.0651 73.3569,76.6371 L87.0869,105.7201 C87.8379,107.2921 89.8789,108.9381 91.6209,108.9381 L96.5839,108.9381 C98.3259,108.9381 99.1489,107.2071 98.4129,105.6281 L52.2769,6.2601 Z" id="Fill-1" fill="#000034"></path>
                <g id="Group-5" transform="translate(0.000000, 86.666000)">
                    <mask id="mask-2" fill="white">
                        <use xlink:href="#path-1"></use>
                    </mask>
                    <g id="Clip-4"></g>
                    <path d="M14.6701,1.2365 C13.0011,0.4835 11.0821,0.1815 8.9691,0.3415 L8.8911,0.3475 L0.2751,18.9685 C-0.4689,20.5445 0.3481,22.2715 2.0901,22.2715 L7.4241,22.2715 C9.1661,22.2715 11.2021,20.5445 11.9471,18.9705 L18.6941,4.4475 C17.9061,3.3925 16.2781,1.9625 14.6701,1.2365" id="Fill-3" fill="#000034" mask="url(#mask-2)"></path>
                </g>
                <path d="M495.4181,52.6622 C494.2251,51.3922 494.2911,49.3792 495.5641,48.1902 L541.2071,5.3262 C542.4801,4.1362 542.0961,2.9382 540.3541,2.9382 L532.6351,2.9382 C530.8931,2.9382 528.4281,4.1392 527.1571,5.3322 L489.7521,40.3872 C488.4821,41.5802 487.2571,41.2432 487.2571,39.5002 L487.2571,6.5572 C487.2571,4.8152 486.2021,2.9382 484.4601,2.9382 L480.1221,2.9382 C478.3801,2.9382 477.2571,4.8152 477.2571,6.5572 L477.2571,75.8322 C478.2571,76.3442 480.1501,76.6962 481.6881,76.6962 C483.5201,76.6962 485.3251,76.1822 487.1861,75.1672 L487.2571,75.0922 L487.2571,62.4742 C487.2571,60.7322 488.4201,60.3442 489.6141,61.6132 L503.4121,76.2442 C504.6621,75.8382 506.3221,74.7992 507.5171,73.6032 C508.8071,72.3142 509.7711,70.6352 510.3711,68.6142 L495.4181,52.6622 Z" id="Fill-6" fill="#000034"></path>
                <path d="M203.8882,97.938 L169.9492,97.938 C168.2072,97.938 167.2572,96.531 167.2572,94.789 L167.2572,35.928 C165.2572,35.084 163.6192,34.652 161.9502,34.652 C159.8932,34.652 157.5182,35.28 156.5372,36.082 L156.2572,36.315 L156.2572,104.893 C156.2572,106.635 157.7472,108.938 159.4892,108.938 L203.8882,108.938 C205.6302,108.938 207.2572,106.635 207.2572,104.893 L207.2572,101.125 C207.2572,99.382 205.6302,97.938 203.8882,97.938" id="Fill-8" fill="#000034"></path>
                <path d="M400.6997,112.666 C416.1757,112.666 429.2937,107.279 440.0507,96.505 C450.8077,85.73 456.1877,72.611 456.1877,57.143 C456.1877,48.197 454.4077,40.065 450.8667,32.738 C449.0517,32.863 447.4237,33.326 446.0217,34.123 C444.2317,35.138 442.4727,36.859 442.0167,38.041 L441.6797,38.911 C444.0687,44.487 445.2697,50.551 445.2697,57.107 C445.2697,65.542 443.3147,73.21 439.4057,80.111 C435.4967,87.012 430.0527,92.451 423.0747,96.428 C416.0957,100.406 408.5057,102.395 400.3047,102.395 C388.0247,102.395 377.5327,98.07 368.8277,89.42 C360.1237,80.77 355.7707,70.166 355.7707,57.609 C355.7707,49.127 357.7377,41.436 361.6697,34.535 C365.6027,27.635 371.0707,22.148 378.0737,18.074 C384.3367,14.43 390.9277,12.421 397.8427,12.036 C398.6577,10.367 399.0737,8.694 399.0737,7.055 C399.0737,5.303 398.5977,3.515 397.6697,1.735 C388.6197,2.07 380.1657,4.507 372.3087,9.053 C363.8277,13.963 357.1317,20.75 352.2197,29.417 C347.3077,38.085 344.8527,47.494 344.8527,57.646 C344.8527,72.873 350.2427,85.851 361.0247,96.576 C371.8057,107.304 385.0307,112.666 400.6997,112.666" id="Fill-10" fill="#000034"></path>
                <path d="M274.6457,111.82 C290.1217,111.82 303.2397,106.433 313.9967,95.659 C324.7537,84.884 330.1337,71.765 330.1337,56.297 C330.1337,47.351 328.3537,39.219 324.8127,31.892 C322.9977,32.017 321.3697,32.48 319.9677,33.277 C318.1777,34.292 316.4187,36.013 315.9617,37.195 L315.6257,38.065 C318.0147,43.641 319.2157,49.705 319.2157,56.261 C319.2157,64.696 317.2607,72.364 313.3517,79.265 C309.4427,86.166 303.9987,91.605 297.0207,95.582 C290.0417,99.56 282.4517,101.549 274.2507,101.549 C261.9707,101.549 251.4787,97.224 242.7737,88.574 C234.0697,79.924 229.7167,69.32 229.7167,56.763 C229.7167,48.281 231.6837,40.59 235.6157,33.689 C239.5487,26.789 245.0167,21.302 252.0197,17.228 C258.2827,13.584 264.8737,11.575 271.7887,11.19 C272.6037,9.521 273.0197,7.848 273.0197,6.209 C273.0197,4.457 272.5437,2.669 271.6157,0.889 C262.5657,1.224 254.1117,3.661 246.2547,8.207 C237.7737,13.117 231.0777,19.904 226.1657,28.571 C221.2537,37.239 218.7987,46.648 218.7987,56.8 C218.7987,72.027 224.1887,85.005 234.9707,95.73 C245.7517,106.458 258.9767,111.82 274.6457,111.82" id="Fill-12" fill="#000034"></path>
                <path d="M750.8857,45.5204 L750.7077,45.4754 C749.4817,45.1604 747.0577,45.5934 745.1927,46.4604 C743.6657,47.1694 742.2937,48.2914 741.1037,49.7894 L746.9247,61.8334 C747.2697,62.5654 746.8897,62.9384 746.0807,62.9384 L712.8997,62.9384 C712.0907,62.9384 711.7127,62.5464 712.0577,61.8154 L717.9787,49.4614 C716.8157,48.0374 715.4827,47.0564 714.0057,46.3704 C712.1407,45.5034 709.7197,45.1154 708.4907,45.4304 L707.9567,45.5894 L678.9887,107.2864 C678.6427,108.0174 679.0227,108.9384 679.8317,108.9384 L688.6687,108.9384 C689.4787,108.9384 690.4237,108.0284 690.7697,107.2984 L705.9707,75.2294 C706.3177,74.4984 707.2627,73.9384 708.0717,73.9384 L750.6467,73.9384 C751.4557,73.9384 752.4037,74.3424 752.7527,75.0714 L768.1017,107.3964 C768.4507,108.1264 769.3987,108.9384 770.2077,108.9384 L778.6707,108.9384 C779.4797,108.9384 779.8617,108.0274 779.5197,107.2944 L750.8857,45.5204 Z" id="Fill-14" fill="#000034"></path>
                <path d="M847.3466,10.4141 C855.0556,10.4141 862.1306,11.9581 868.5716,15.0471 C875.0126,18.1361 884.1086,27.5981 884.1086,27.5981 C884.6696,28.1811 885.6536,28.2561 886.2956,27.7631 L892.2936,23.1611 C892.9356,22.6691 893.0106,21.7801 892.4606,21.1871 C892.4606,21.1871 881.8716,9.7571 873.9236,5.8531 C865.9876,1.9581 857.0986,0.0071 847.2556,0.0001 L847.0206,0.4321 C846.0056,2.2921 845.4916,4.1641 845.4916,5.9961 C845.4916,7.4561 845.8236,8.9421 846.4706,10.4271 C846.7626,10.4221 847.0536,10.4141 847.3466,10.4141" id="Fill-16" fill="#000034"></path>
                <path d="M892.4225,90.9705 C892.9935,90.3975 892.9335,89.5285 892.2885,89.0395 L886.3005,84.4965 C885.6555,84.0075 884.6065,84.0135 883.9675,84.5105 C883.9675,84.5105 862.7895,100.9905 847.9925,100.9905 C834.5365,100.9905 823.3915,96.6805 814.5565,88.0605 C806.0535,79.7645 801.6545,69.4895 801.3355,57.2445 L801.0425,57.0845 C799.1825,56.0705 797.3095,55.5555 795.4785,55.5555 C793.5105,55.5555 791.2605,56.1325 790.2095,56.8855 C790.6025,70.7215 795.0595,82.6015 803.6035,92.5145 C814.2815,104.8215 828.8625,110.9735 847.3465,110.9735 C857.0665,110.9735 865.8655,109.1425 873.7435,105.4795 C881.6205,101.8165 892.4225,90.9705 892.4225,90.9705" id="Fill-18" fill="#000034"></path>
                <path d="M932.6697,53.5082 C931.4767,52.2382 931.5427,50.2252 932.8157,49.0362 L948.0797,34.8202 C947.4807,33.2332 946.6417,31.8852 945.5677,30.8112 C944.3277,29.5712 942.6027,28.4942 941.3387,28.1242 L927.3777,41.4102 C926.1077,42.6022 925.2577,42.0892 925.2577,40.3462 L925.2577,30.2622 C924.2577,29.4182 921.6227,28.9862 919.9537,28.9862 C917.8957,28.9862 915.5197,29.6142 914.5387,30.4162 L914.2577,30.6492 L914.2577,105.7392 C914.2577,107.4812 915.6317,109.9382 917.3737,109.9382 L921.7117,109.9382 C923.4537,109.9382 925.2577,107.4812 925.2577,105.7392 L925.2577,63.3202 C925.2577,61.5782 926.0457,61.1902 927.2397,62.4592 L968.6787,107.1152 C969.8727,108.3842 972.1807,109.9382 973.9227,109.9382 L981.5187,109.9382 C983.2607,109.9382 983.7107,108.3832 982.5187,107.1132 L932.6697,53.5082 Z" id="Fill-20" fill="#000034"></path>
                <path d="M34.849,62.938 C33.107,62.938 32.291,61.939 33.037,60.364 L40.052,45.647 C39.212,44.645 37.707,43.558 36.213,42.883 C34.543,42.13 32.627,41.845 30.512,42.005 L30.121,42.042 L12.267,79.86 C13.535,81.519 15.013,82.742 16.663,83.486 C18.324,84.236 20.414,84.639 21.721,84.494 L25.542,76.674 C26.288,75.099 28.324,73.938 30.066,73.938 L45.632,73.938 C46.317,71.938 46.826,70.287 46.826,68.438 C46.826,66.769 46.394,64.938 45.55,62.938 L34.849,62.938 Z" id="Fill-22" fill="#2384C6"></path>
                <path d="M515.6816,74.2689 C513.7806,74.8719 512.1896,75.7959 510.9576,77.0279 C509.6906,78.2949 508.5886,80.0719 508.2416,81.3419 L531.2716,106.1919 C532.4656,107.4609 534.9286,108.9379 536.6716,108.9379 L544.2676,108.9379 C546.0096,108.9379 546.4596,107.4599 545.2666,106.1899 L515.6816,74.2689 Z" id="Fill-24" fill="#2384C6"></path>
                <path d="M481.6882,81.5389 C480.1502,81.5389 478.2572,81.8899 477.2572,82.4029 L477.2572,104.8929 C477.2572,106.6349 478.3802,108.9379 480.1222,108.9379 L484.4602,108.9379 C486.2022,108.9379 487.2572,106.6349 487.2572,104.8929 L487.2572,83.1429 L487.1862,83.0679 C485.3252,82.0529 483.5202,81.5389 481.6882,81.5389" id="Fill-26" fill="#2384C6"></path>
                <path d="M159.4894,2.938 C157.7474,2.938 156.2574,4.815 156.2574,6.557 L156.2574,28.146 L156.4184,28.379 C157.3994,29.181 159.9554,29.809 162.0124,29.809 C163.6814,29.809 165.2574,29.377 167.2574,28.533 L167.2574,6.557 C167.2574,4.815 165.3554,2.938 163.6134,2.938 L159.4894,2.938 Z" id="Fill-28" fill="#2384C6"></path>
                <path d="M422.8948,18.0737 C428.8548,21.4947 433.6868,25.8727 437.3978,31.2027 L438.2138,31.3417 C439.4598,31.5557 441.8408,30.9267 443.6308,29.9107 C445.0248,29.1197 446.2528,27.9687 447.2868,26.4857 C445.2198,23.3967 442.8008,20.4687 440.0148,17.7087 C430.4698,8.2547 418.8718,2.9937 405.2308,1.9107 C404.3628,3.6317 403.9168,5.3607 403.9168,7.0547 C403.9168,8.7607 404.3688,10.5017 405.2498,12.2357 C411.4008,12.9107 417.2838,14.8527 422.8948,18.0737" id="Fill-30" fill="#2384C6"></path>
                <path d="M296.8408,17.2276 C302.8008,20.6486 307.6328,25.0266 311.3438,30.3566 L312.1598,30.4956 C313.4058,30.7096 315.7868,30.0806 317.5768,29.0646 C318.9708,28.2736 320.1988,27.1226 321.2328,25.6396 C319.1658,22.5506 316.7468,19.6226 313.9608,16.8626 C304.4158,7.4086 292.8178,2.1476 279.1768,1.0646 C278.3088,2.7856 277.8628,4.5146 277.8628,6.2086 C277.8628,7.9146 278.3148,9.6556 279.1958,11.3896 C285.3468,12.0646 291.2298,14.0066 296.8408,17.2276" id="Fill-32" fill="#2384C6"></path>
                <path d="M716.0467,42.0681 C717.5377,42.7601 719.2317,43.0881 721.0917,43.0501 L728.9047,26.5101 C729.2507,25.7791 729.8167,25.7421 730.1607,26.4741 L737.9377,43.0431 C739.8617,43.1051 741.6177,42.7811 743.1517,42.0681 C745.0177,41.2011 746.9117,39.6291 747.4627,38.4891 L747.5337,38.3421 L731.4887,3.9901 C731.1467,3.2571 730.2857,2.6571 729.5747,2.6571 C728.8627,2.6571 727.9987,3.2551 727.6527,3.9871 L711.5297,38.0621 L711.7357,38.4891 C712.2867,39.6291 714.1807,41.2011 716.0467,42.0681" id="Fill-34" fill="#2384C6"></path>
                <path d="M801.0427,49.1844 L801.7847,48.7794 C802.5867,43.0134 804.3977,37.6814 807.2307,32.7894 C811.1807,25.9654 816.7477,20.5304 823.9307,16.4834 C828.7947,13.7444 833.9447,11.9344 839.3797,11.0494 C840.2187,9.3574 840.6487,7.6594 840.6487,5.9964 C840.6487,4.1764 840.1397,2.3164 839.1367,0.4674 C826.3497,1.9544 815.4467,7.0694 806.4407,15.8374 C796.8717,25.1524 791.5307,36.3804 790.4037,49.5154 C791.5217,50.2024 793.6257,50.7134 795.4777,50.7134 C797.3097,50.7134 799.1817,50.1984 801.0427,49.1844" id="Fill-36" fill="#2384C6"></path>
                <path d="M921.7117,3.938 L917.3737,3.938 C915.6317,3.938 914.2577,5.661 914.2577,7.403 L914.2577,22.48 L914.4207,22.713 C915.4017,23.515 917.9567,24.144 920.0137,24.144 C921.6827,24.144 924.2577,23.711 925.2577,22.868 L925.2577,7.403 C925.2577,5.661 923.4537,3.938 921.7117,3.938" id="Fill-38" fill="#2384C6"></path>
                <path d="M969.8868,3.938 C968.1448,3.938 965.6798,5.062 964.4088,6.255 L946.3858,23.262 C946.8138,24.498 947.8288,26.155 948.9918,27.318 C950.1238,28.45 951.5568,29.361 953.2568,29.963 L978.4588,6.232 C979.7318,5.042 979.3478,3.938 977.6058,3.938 L969.8868,3.938 Z" id="Fill-40" fill="#2384C6"></path>
                <path d="M627.8547,95.982 C626.4287,96.065 624.8867,95.938 623.7867,95.938 L617.1487,95.938 C615.4067,95.938 613.2577,94.684 613.2577,92.942 L613.2577,80.855 C612.2577,80.256 610.2997,79.917 608.6807,79.917 C606.9177,79.917 605.2577,80.315 603.2577,81.018 L603.2577,103.188 C603.2577,104.931 605.1597,106.938 606.9027,106.938 L628.5667,106.938 C629.2147,104.938 629.5477,103.737 629.5477,102.276 C629.5477,100.445 629.0337,98.356 628.0187,96.495 L627.8547,95.982 Z" id="Fill-42" fill="#2384C6"></path>
                <path d="M636.0152,43.4227 C632.5922,44.7747 623.1342,45.2787 623.1342,45.2787 C621.3942,45.3717 618.2612,45.4477 616.6142,45.4477 C614.9672,45.4477 613.2572,44.0207 613.2572,42.2777 L613.2572,15.0997 C613.2572,13.3567 615.4072,11.9377 617.1492,11.9377 L622.9352,11.9377 C624.6772,11.9377 627.5212,12.0877 629.2532,12.2737 C629.2532,12.2737 638.7622,13.2967 642.1132,16.0247 C645.4642,18.7537 647.1402,22.5107 647.1402,27.3027 C647.1402,30.8607 646.1412,34.0967 644.1452,37.0147 C642.1482,39.9317 639.4372,42.0707 636.0152,43.4227 M663.9752,64.8447 C662.3432,61.3107 660.0622,58.2897 657.1302,55.7997 C654.1972,53.3087 647.4962,50.5097 647.4962,50.5097 C645.8892,49.8377 645.7362,48.4647 647.1582,47.4577 C647.1582,47.4577 652.2912,43.8217 654.5572,40.0027 C656.8232,36.1847 657.9562,31.9507 657.9562,27.3007 C657.9562,22.3207 656.8802,17.6447 654.0782,13.7107 C648.9452,6.5007 643.8202,0.9377 621.2022,0.9377 L606.9022,0.9377 C605.1602,0.9377 603.2572,3.1107 603.2572,4.8527 L603.2572,74.5577 C605.2572,75.2597 606.9172,75.6587 608.6802,75.6587 C610.2992,75.6587 612.2572,75.3187 613.2572,74.7207 L613.2572,59.1457 C613.2572,57.4027 614.9512,55.9777 616.5782,55.9777 C618.2062,55.9777 621.1432,56.0177 622.8852,56.0677 C622.8852,56.0677 634.8552,56.4047 638.4212,57.2577 C643.7402,58.5387 647.9632,60.9117 651.0032,64.3737 C654.0432,67.8367 655.5852,71.8927 655.5852,76.5417 C655.5852,80.2417 654.5122,83.6817 652.3512,86.8597 C650.1882,90.0387 647.3332,92.3747 643.7692,93.8687 C642.1642,94.5417 639.2392,95.0497 636.5032,95.4067 L635.9182,96.4847 C634.9032,98.3447 634.3902,100.2167 634.3902,102.0487 C634.3902,103.3137 634.9562,104.6277 635.6362,105.9267 C636.1572,105.8427 651.1722,103.3817 657.2092,97.6717 C663.3512,91.8607 666.4232,84.7407 666.4232,76.3447 C666.4232,72.2177 665.6082,68.3787 663.9752,64.8447" id="Fill-44" fill="#000034"></path>
            </g>
        </g>
    </g>
</svg>