<svg xmlns="http://www.w3.org/2000/svg" width="972.1" height="108.62" viewBox="0 0 972.1 108.62"><title>alookback</title><g id="12a22a30-52fb-433d-94d3-7ba3719c9ca6" data-name="Ebene 2"><g id="f0464980-3745-4865-a7d2-3c6a2558dff3" data-name="Layer 9"><rect x="152.67" y="3.37" width="12.18" height="36.05" rx="1.95" ry="1.95" style="fill:#2383c5"/><path d="M697.76,104.88l6.53-15.63A2.44,2.44,0,0,0,703,86.09L696.23,83A2.44,2.44,0,0,0,693,84.26L686.1,100a2.44,2.44,0,0,0,1.29,3.23l7.19,3A2.44,2.44,0,0,0,697.76,104.88Z" style="fill:#2383c5"/><path d="M11.87,104.39l6.53-15.63a2.44,2.44,0,0,0-1.25-3.16l-6.82-3.07a2.44,2.44,0,0,0-3.23,1.24L.21,99.47A2.44,2.44,0,0,0,1.5,102.7l7.19,3A2.44,2.44,0,0,0,11.87,104.39Z" style="fill:#2383c5"/><path d="M871.1,22.49l6.71-4.87a2.44,2.44,0,0,0,.4-3.58A36.93,36.93,0,0,0,863.59,3.69,54,54,0,0,0,847,0a2.44,2.44,0,0,0-2.61,2.43V9.06a2.42,2.42,0,0,0,2.21,2.4,35,35,0,0,1,11.05,3,29.28,29.28,0,0,1,10.15,7.68A2.43,2.43,0,0,0,871.1,22.49Z" style="fill:#2383c5"/><path d="M303,23.86a42.12,42.12,0,0,1,8.4,13.66,45.29,45.29,0,0,1,2.81,12.32,2.44,2.44,0,0,0,2.42,2.24H325a2.43,2.43,0,0,0,2.43-2.6,56.2,56.2,0,0,0-3.84-16.93A50.91,50.91,0,0,0,312.3,15.31,52.17,52.17,0,0,0,295.2,4a54.68,54.68,0,0,0-17.69-4,2.43,2.43,0,0,0-2.57,2.43V9a2.45,2.45,0,0,0,2.27,2.43A39.09,39.09,0,0,1,303,23.86Z" style="fill:#2383c5"/><path d="M234.7,93.2a52.12,52.12,0,0,0,17.1,11.33,59.6,59.6,0,0,0,43.4,0A52.13,52.13,0,0,0,312.3,93.2,50.88,50.88,0,0,0,323.55,76a56,56,0,0,0,3.8-16.38A2.43,2.43,0,0,0,324.92,57H316.6a2.44,2.44,0,0,0-2.42,2.22A45.1,45.1,0,0,1,311.42,71,42.07,42.07,0,0,1,303,84.65a39.14,39.14,0,0,1-12.93,9.21,42.61,42.61,0,0,1-33.17,0A39.09,39.09,0,0,1,244,84.65,42,42,0,0,1,235.57,71a46.34,46.34,0,0,1-3-16.73,46.36,46.36,0,0,1,3-16.73A42,42,0,0,1,244,23.86a39.16,39.16,0,0,1,12.93-9.21,37.54,37.54,0,0,1,11-3,2.42,2.42,0,0,0,2.12-2.41V2.61A2.43,2.43,0,0,0,267.43.18,55.14,55.14,0,0,0,251.8,4a52.16,52.16,0,0,0-17.1,11.33,50.88,50.88,0,0,0-11.25,17.24,57.69,57.69,0,0,0-4,21.7,57.67,57.67,0,0,0,4,21.7A50.86,50.86,0,0,0,234.7,93.2Z" style="fill:#000034"/><path d="M424.8,23.86a42.12,42.12,0,0,1,8.4,13.66A45.29,45.29,0,0,1,436,49.84a2.44,2.44,0,0,0,2.42,2.24h8.31a2.43,2.43,0,0,0,2.43-2.6,56.2,56.2,0,0,0-3.84-16.93,50.91,50.91,0,0,0-11.25-17.24A52.17,52.17,0,0,0,417,4,54.68,54.68,0,0,0,399.3,0a2.43,2.43,0,0,0-2.57,2.43V9A2.45,2.45,0,0,0,399,11.45a39.09,39.09,0,0,1,25.8,12.41Z" style="fill:#2383c5"/><path d="M356.48,93.2a52.12,52.12,0,0,0,17.1,11.33,59.6,59.6,0,0,0,43.4,0,52.13,52.13,0,0,0,17.1-11.33A50.88,50.88,0,0,0,445.33,76a56,56,0,0,0,3.8-16.38A2.43,2.43,0,0,0,446.71,57h-8.33A2.44,2.44,0,0,0,436,59.17,45.1,45.1,0,0,1,433.21,71a42.07,42.07,0,0,1-8.4,13.66,39.14,39.14,0,0,1-12.93,9.21,42.61,42.61,0,0,1-33.17,0,39.09,39.09,0,0,1-12.93-9.21A42,42,0,0,1,357.36,71a46.34,46.34,0,0,1-3-16.73,46.36,46.36,0,0,1,3-16.73,42,42,0,0,1,8.4-13.66,39.16,39.16,0,0,1,12.93-9.21,37.54,37.54,0,0,1,11-3,2.42,2.42,0,0,0,2.12-2.41V2.61A2.43,2.43,0,0,0,389.21.18,55.14,55.14,0,0,0,373.58,4a52.16,52.16,0,0,0-17.1,11.33,50.88,50.88,0,0,0-11.25,17.24,57.69,57.69,0,0,0-4,21.7,57.67,57.67,0,0,0,4,21.7A50.86,50.86,0,0,0,356.48,93.2Z" style="fill:#000034"/><path d="M154.62,107.13h56a2,2,0,0,0,1.95-1.95V97.39a2,2,0,0,0-1.95-1.95H166.8a2,2,0,0,1-1.95-1.95V46.24a2,2,0,0,0-1.95-1.95h-8.28a2,2,0,0,0-1.95,1.95v58.94A2,2,0,0,0,154.62,107.13Z" style="fill:#000034"/><path d="M781,99.42,740.71,4.86a2.43,2.43,0,0,0-2.24-1.47h-8.35a2.43,2.43,0,0,0-2.23,1.44l-31,70.32a2.43,2.43,0,0,0,1.24,3.2l7.77,3.54c.55.24,1.26,0,1.26-.58v.08h52l9.57,23.43a2.43,2.43,0,0,0,3.26,1.28l7.67-3.5A2.45,2.45,0,0,0,781,99.42Zm-68.65-30,21.48-50h.29l20.46,50Z" style="fill:#000034"/><path d="M95.07,98.93,54.82,4.62a2.23,2.23,0,0,0-2.24-1.23H44.24A2.23,2.23,0,0,0,42,4.59L11,74.79a2.36,2.36,0,0,0,1.24,3.14L20,81.44a.81.81,0,0,0,1.2-.61v.57H73.34l9.57,23.19a2.38,2.38,0,0,0,3.26,1.16l7.67-3.56A2.52,2.52,0,0,0,95.07,98.93ZM26.43,69.39l21.48-51h.29l20.46,51Z" style="fill:#000034"/><path d="M508.79,80.68,531,104.47a2.44,2.44,0,0,0,3.34.21l6.26-5.2a2.44,2.44,0,0,0,.21-3.55L518.08,72.06a2.44,2.44,0,0,0-3.41-.11l-5.74,5.28A2.44,2.44,0,0,0,508.79,80.68Z" style="fill:#2383c5"/><path d="M612,73.64h-7.79a2.44,2.44,0,0,0-2.44,2.44v27.64a2.44,2.44,0,0,0,2.44,2.44H612a2.44,2.44,0,0,0,2.44-2.44V94.46h0V76.08A2.44,2.44,0,0,0,612,73.64Z" style="fill:#2383c5"/><path d="M805.87,93.2a51.05,51.05,0,0,0,16.73,11.33,52.61,52.61,0,0,0,20.75,4.09,54.33,54.33,0,0,0,22.29-4.38A41.94,41.94,0,0,0,881,92.38a2.43,2.43,0,0,0-.32-3.4l-5.53-4.66a2.45,2.45,0,0,0-3.41.27,37.82,37.82,0,0,1-11.46,8.9,40.11,40.11,0,0,1-33,.37,38,38,0,0,1-12.42-9.13,42.16,42.16,0,0,1-8.11-13.59,47.78,47.78,0,0,1-2.92-16.88A46.13,46.13,0,0,1,806.82,38,43.26,43.26,0,0,1,815,24.22a39.73,39.73,0,0,1,12.49-9.43,34,34,0,0,1,9.93-3.07,2.45,2.45,0,0,0,2.11-2.41V2.66A2.43,2.43,0,0,0,836.87.24a49.49,49.49,0,0,0-14.71,3.89,51,51,0,0,0-27.55,28.79,58.23,58.23,0,0,0-3.87,21.34,57.52,57.52,0,0,0,4,21.78A52.14,52.14,0,0,0,805.87,93.2Z" style="fill:#000034"/><path d="M671.4,67.48a25.32,25.32,0,0,0-12.13-13.3,26.81,26.81,0,0,0-9.06-2.56v-.29a24,24,0,0,0,13-8.4C666.47,39,668,34,668,27.95a22.34,22.34,0,0,0-3.05-12,24.08,24.08,0,0,0-7.85-7.82,34.35,34.35,0,0,0-11-4.38,60,60,0,0,0-12.58-1.38H604.25c-1.35,0-2.05,1.09-2.05,2.44V66.34a1.83,1.83,0,0,0,2.05,2.05H612a1.91,1.91,0,0,0,2.15-2.05V58.39h21.1a47.26,47.26,0,0,1,9.13.56,22.47,22.47,0,0,1,7.89,2.91,16.62,16.62,0,0,1,5.55,5.77,17.68,17.68,0,0,1,2.12,9A15.23,15.23,0,0,1,657.8,85,17,17,0,0,1,652,90.58a26.36,26.36,0,0,1-8,3,42.83,42.83,0,0,1-9,.85H621.79a2.63,2.63,0,0,0-2.59,2.51v6.82a2.78,2.78,0,0,0,2.59,2.67h11a80.7,80.7,0,0,0,14.39-1.52,40.94,40.94,0,0,0,13-4.7,26.82,26.82,0,0,0,9.35-8.89c2.39-3.7,3.58-8.45,3.58-14.2A26,26,0,0,0,671.4,67.48ZM639.76,45.29a62.19,62.19,0,0,1-8.55.1h-17v-31h18.32a50,50,0,0,1,8.11.42,21.72,21.72,0,0,1,7.16,2.29,13.75,13.75,0,0,1,5,4.69,14.31,14.31,0,0,1,1.9,7.79,16.24,16.24,0,0,1-2,8.68,13.71,13.71,0,0,1-5.41,4.86A21.76,21.76,0,0,1,639.76,45.29Z" style="fill:#000034"/><path d="M497.85,48.79l39.88-36.85a2.44,2.44,0,0,0-.12-3.68L532,3.74a2.44,2.44,0,0,0-3.21.13l-45.14,43a1.27,1.27,0,0,1-.88.35h0a1.27,1.27,0,0,1-1.27-1.27V4.83a2.44,2.44,0,0,0-2.44-2.44h-7.31a2.44,2.44,0,0,0-2.44,2.44v98.89a2.44,2.44,0,0,0,2.44,2.44h7.31a2.44,2.44,0,0,0,2.44-2.44V54.81a1.27,1.27,0,0,1,1.27-1.27h0a1.27,1.27,0,0,1,.93.4l18.44,19.62a2.44,2.44,0,0,0,3.43.11l5.71-5.31a2.44,2.44,0,0,0,.11-3.46L497.79,50.59A1.27,1.27,0,0,1,497.85,48.79Z" style="fill:#000034"/><path d="M939.42,80.68l22.2,23.79a2.44,2.44,0,0,0,3.34.21l6.26-5.2a2.44,2.44,0,0,0,.21-3.55L948.71,72.06A2.44,2.44,0,0,0,945.3,72l-5.74,5.28A2.44,2.44,0,0,0,939.42,80.68Z" style="fill:#2383c5"/><path d="M928.48,48.79l39.88-36.85a2.44,2.44,0,0,0-.12-3.68l-5.57-4.51a2.44,2.44,0,0,0-3.21.13l-45.14,43a1.27,1.27,0,0,1-.88.35h0a1.27,1.27,0,0,1-1.27-1.27V4.83a2.44,2.44,0,0,0-2.44-2.44h-7.31a2.44,2.44,0,0,0-2.44,2.44v98.89a2.44,2.44,0,0,0,2.44,2.44h7.31a2.44,2.44,0,0,0,2.44-2.44V54.81a1.27,1.27,0,0,1,1.27-1.27h0a1.27,1.27,0,0,1,.93.4l18.44,19.62a2.44,2.44,0,0,0,3.43.11l5.71-5.31a2.44,2.44,0,0,0,.11-3.46L928.42,50.59A1.27,1.27,0,0,1,928.48,48.79Z" style="fill:#000034"/></g></g></svg>