<?xml version="1.0" encoding="UTF-8"?>
<svg width="1106px" height="860px" viewBox="0 0 1106 860" version="1.1" xmlns="http://www.w3.org/2000/svg" xmlns:xlink="http://www.w3.org/1999/xlink">
    <!-- Generator: Sketch 40.3 (33839) - http://www.bohemiancoding.com/sketch -->
    <title>Artboard 7</title>
    <desc>Created with Sketch.</desc>
    <defs></defs>
    <g id="Page-1" stroke="none" stroke-width="1" fill="none" fill-rule="evenodd">
        <g id="Artboard-7" fill="#000000">
            <path d="M1084.77102,629.849602 C1091.75154,613.935753 1084.18809,595.202004 1068.41269,588.323491 L1067.85891,588.170473 L593.860832,384.022893 L593.467357,383.862589 C577.524362,376.940356 558.848906,384.445514 551.708076,400.279211 L524.441765,464.349942 C517.621544,480.343943 525.04655,499.150557 540.749089,506.029071 L541.324727,506.211235 L1015.40296,710.278662 L1015.69442,710.460826 C1031.84144,717.179035 1050.54604,709.805036 1057.52657,693.760028 L1084.77102,629.849602 Z" id="Path" opacity="0.0645380435"></path>
            <path d="M578.511645,766.518563 C585.492171,750.604714 577.92872,731.870966 562.153316,724.992452 L561.599537,724.839434 L87.6014573,520.691855 L87.207983,520.531551 C71.2649875,513.609318 52.5895317,521.114475 45.4487019,536.948172 L18.1823907,601.018903 C11.3621696,617.012905 18.7871752,635.819519 34.4897142,642.698032 L35.0653525,642.880196 L509.143584,846.947624 L509.435047,847.129788 C525.582066,853.847997 544.286668,846.473997 551.267194,830.42899 L578.511645,766.518563 Z" id="Path" opacity="0.0645380435"></path>
            <path d="M821.28726,847.828796 C833.534751,852.799642 847.479515,847.022316 852.593328,834.84081 L852.688639,834.55121 L938.135143,628.902601 L938.413745,628.623999 C943.329605,616.482817 937.607266,602.43541 925.411096,597.42424 L876.875693,577.225594 C864.86648,572.177765 850.738425,577.980752 845.701594,590.08161 L845.650273,590.400536 L760.068134,796.019819 L759.950828,796.379069 C755.034968,808.505588 760.705986,822.55666 772.858165,827.593492 L821.28726,847.828796 Z" id="Path" opacity="0.0357223732"></path>
            <path d="M386.386012,418.590904 C400.390996,424.275058 416.336808,417.668696 422.184444,403.739165 L422.293432,403.408009 L520.001355,168.249196 L520.319936,167.930615 C525.941212,154.047195 519.397728,137.984011 505.45143,132.253746 L449.951284,109.156631 C436.218771,103.384449 420.063366,110.020153 414.303759,123.857463 L414.245073,124.222154 L316.382051,359.347432 L316.247912,359.758234 C310.626636,373.624887 317.111434,389.692263 331.00743,395.45187 L386.386012,418.590904 Z" id="Path" opacity="0.0357223732"></path>
            <path d="M804.227422,311.519042 C818.232406,317.203196 834.178219,310.596834 840.025855,296.667304 L840.134843,296.336147 L937.842766,61.1773345 L938.161347,60.8587536 C943.782623,46.9753334 937.239139,30.9121492 923.292841,25.1818849 L867.792695,2.08476984 C854.060182,-3.687413 837.904777,2.94829175 832.14517,16.7856015 L832.086484,17.1502928 L734.223462,252.275571 L734.089323,252.686373 C728.468047,266.553025 734.952845,282.620401 748.84884,288.380009 L804.227422,311.519042 Z" id="Path" opacity="0.0357223732"></path>
            <path d="M370.716959,311.519042 C384.721943,317.203196 400.667755,310.596834 406.515391,296.667304 L406.624379,296.336147 L504.332302,61.1773345 L504.650883,60.8587536 C510.272159,46.9753334 503.728675,30.9121492 489.782377,25.1818849 L434.282231,2.08476984 C420.549718,-3.687413 404.394313,2.94829175 398.634706,16.7856015 L398.57602,17.1502928 L300.712998,252.275571 L300.578859,252.686373 C294.957583,266.553025 301.442381,282.620401 315.338377,288.380009 L370.716959,311.519042 Z" id="Path" opacity="0.0212862319"></path>
            <path d="M830.342511,418.590904 C844.347495,424.275058 860.293307,417.668696 866.140943,403.739165 L866.249931,403.408009 L963.957854,168.249196 L964.276435,167.930615 C969.897711,154.047195 963.354227,137.984011 949.407929,132.253746 L893.907783,109.156631 C880.17527,103.384449 864.019865,110.020153 858.260258,123.857463 L858.201572,124.222154 L760.33855,359.347432 L760.204411,359.758234 C754.583135,373.624887 761.067933,389.692263 774.963929,395.45187 L830.342511,418.590904 Z" id="Path" opacity="0.0212862319"></path>
        </g>
    </g>
</svg>