<?xml version="1.0" encoding="UTF-8"?>
<svg width="1106px" height="522px" viewBox="0 0 1106 522" version="1.1" xmlns="http://www.w3.org/2000/svg" xmlns:xlink="http://www.w3.org/1999/xlink">
    <!-- Generator: Sketch 40.3 (33839) - http://www.bohemiancoding.com/sketch -->
    <title>background-blue</title>
    <desc>Created with Sketch.</desc>
    <defs>
        <polygon id="path-1" points="0.142321202 520.719 689.746201 520.719 689.746201 0.116 0.142321202 0.116 0.142321202 520.719"></polygon>
        <path d="M0.271012616,520.719 L1074.202,520.719 C1080.41,520.719 1085.442,515.687 1085.442,509.479 L1085.442,11.356 C1085.442,5.148 1080.41,0.116 1074.202,0.116 L0.271012616,0.116 L0.271012616,520.719 L0.271012616,520.719 Z" id="path-3"></path>
        <polygon id="path-5" points="0.916058464 520.719 1060.30778 520.719 1060.30778 0.116 0.916058464 0.116"></polygon>
        <polygon id="path-7" points="0.527107133 520.719 1039.25431 520.719 1039.25431 0.116 0.527107133 0.116 0.527107133 520.719"></polygon>
    </defs>
    <g id="Page-1" stroke="none" stroke-width="1" fill="none" fill-rule="evenodd">
        <g id="Artboard-2" transform="translate(0.000000, -278.000000)">
            <g id="background-blue" transform="translate(-2.000000, 278.000000)">
                <g id="Group-3" transform="translate(297.000000, 0.640000)">
                    <mask id="mask-2" fill="white">
                        <use xlink:href="#path-1"></use>
                    </mask>
                    <g id="Clip-2"></g>
                    <path d="M293.2667,668.5002 C294.4597,665.7702 293.2017,662.5522 290.4687,661.3412 L177.2757,611.9712 C174.5407,610.8002 171.3067,612.0472 170.0977,614.8172 L165.3387,625.7432 C164.1407,628.4692 165.3987,631.6902 168.1447,632.8652 L281.3537,682.2572 C284.0837,683.4392 287.3087,682.1782 288.5127,679.4592 L293.2667,668.5002 Z M689.4827,82.3432 L686.4237,89.6832 C685.6717,91.5232 683.5057,92.4022 681.6877,91.6322 L603.3637,59.0162 C601.5237,58.2602 600.6647,56.1412 601.4187,54.3052 L604.4957,46.9432 C605.2517,45.0992 607.3667,44.2352 609.2177,45.0162 L687.5377,77.6002 C689.3347,78.3622 690.2277,80.4882 689.4827,82.3432 L689.4827,82.3432 Z M674.9737,216.6852 L671.8637,224.0432 C671.1367,225.8692 668.9937,226.7482 667.1527,225.9852 L588.8477,193.3912 C587.0257,192.6422 586.1467,190.4842 586.9137,188.6622 L589.9607,181.3222 C590.7347,179.4742 592.8427,178.5822 594.6867,179.3622 L673.0207,211.9422 C674.8067,212.7012 675.7367,214.8452 674.9737,216.6852 L674.9737,216.6852 Z M555.0817,257.0172 L476.7407,224.4122 C474.9257,223.6452 472.8107,224.5312 472.0367,226.3642 L468.9487,233.7152 C468.1937,235.5622 469.0867,237.7102 470.9307,238.4662 L549.2467,271.0632 C551.0657,271.8152 553.2057,270.9372 553.9537,269.1042 L557.0417,261.7532 C557.7937,259.9022 556.9157,257.7512 555.0817,257.0172 L555.0817,257.0172 Z M430.9787,242.6522 C429.3557,241.9262 427.4137,242.6742 426.7167,244.3262 L399.4367,306.4442 C398.7177,308.0852 399.5057,310.0162 401.1287,310.7472 L407.6877,313.5952 C409.3077,314.3222 411.2707,313.5952 411.9757,311.9472 L439.2367,249.8152 C439.9387,248.1732 439.1967,246.2352 437.5517,245.5452 L430.9787,242.6522 Z M104.0217,-256.4308 C102.8427,-253.6878 104.1087,-250.4698 106.8367,-249.2648 L106.9017,-249.2568 L220.8577,-199.6888 L220.9257,-199.6698 C223.6757,-198.4898 226.8977,-199.6958 228.0847,-202.4738 L232.8567,-213.4018 C234.0407,-216.1438 232.7907,-219.3618 230.0707,-220.5488 L229.9887,-220.5948 L116.0347,-270.1398 L115.9637,-270.1948 C113.2077,-271.3748 109.9807,-270.1008 108.7987,-267.3658 L104.0217,-256.4308 Z M448.2897,379.6262 C451.0527,380.7582 454.2487,379.4342 455.4057,376.6862 L455.4127,376.6222 L479.6007,318.4982 L479.6187,318.4292 C480.7507,315.6602 479.4887,312.4602 476.6897,311.3212 L465.6807,306.7402 C462.9187,305.6052 459.7227,306.9102 458.5837,309.6512 L458.5397,309.7342 L434.3737,367.8542 L434.3197,367.9262 C433.1877,370.7032 434.5187,373.9062 437.2737,375.0422 L448.2897,379.6262 Z M623.2347,572.9812 C623.9977,571.1552 623.2027,569.0002 621.3437,568.2232 L621.2857,568.1982 L568.7737,545.2142 L568.7267,545.1922 C566.9047,544.3972 564.7537,545.2322 563.9727,547.0692 L560.7517,554.3582 C559.9807,556.1762 560.8457,558.3312 562.6427,559.1122 L562.6887,559.1302 L615.2267,582.1142 L615.2807,582.1362 C617.0957,582.9462 619.2437,582.0962 620.0427,580.2992 L623.2347,572.9812 Z M600.0847,398.9112 C600.8697,397.0712 600.0307,394.9452 598.2007,394.1352 L598.1647,394.1102 L545.6277,371.1332 L545.5767,371.0972 C543.7437,370.3012 541.6437,371.1332 540.8117,372.9662 L537.6157,380.2812 C536.8057,382.0772 537.6337,384.2432 539.4887,385.0422 L539.5537,385.0532 L592.0867,408.0592 L592.1157,408.0592 C593.9237,408.8432 596.0827,408.0262 596.8557,406.1822 L600.0847,398.9112 Z M113.2317,40.0342 C111.4457,39.2212 109.2637,40.0342 108.4267,41.8312 L108.4267,41.9002 L91.4197,79.1472 L91.4087,79.1942 C90.5987,81.0132 91.3777,83.1712 93.2127,84.0032 L100.4677,87.3002 C102.2497,88.1422 104.4187,87.3362 105.2287,85.5142 L105.2687,85.4532 L122.2327,48.2022 L122.2857,48.1402 C123.0987,46.3362 122.2997,44.1782 120.4737,43.3532 L113.2317,40.0342 Z M21.6797,528.3222 C20.3977,527.7512 18.8867,528.3222 18.3027,529.5732 L18.2777,529.6272 L0.3547,568.8882 L0.3547,568.9212 C-0.1943,570.2012 0.3547,571.6982 1.6137,572.2802 L6.7007,574.5902 C7.9587,575.1652 9.4697,574.5902 10.0537,573.3432 L10.0777,573.2962 L27.9797,534.0272 L27.9927,533.9882 C28.5707,532.7332 28.0227,531.2292 26.7297,530.6402 L21.6797,528.3222 Z M154.8457,640.5742 C153.6137,640.0022 152.1117,640.5742 151.5257,641.8322 L151.5257,641.8642 L133.6167,681.1442 L133.6167,681.1622 C133.0037,682.4422 133.5807,683.9492 134.8347,684.5172 L139.9287,686.8312 C141.1837,687.4202 142.7167,686.8562 143.2877,685.5762 L143.2877,685.5472 L161.1777,646.2722 L161.1957,646.2542 C161.7847,644.9812 161.1957,643.4592 159.9607,642.8952 L154.8457,640.5742 Z M233.3237,558.0962 C232.0517,557.4922 230.5237,558.0822 229.9707,559.3362 L229.9557,559.3722 L212.0517,598.6302 L212.0287,598.6842 C211.4337,599.9392 212.0287,601.4432 213.2997,602.0322 L218.3497,604.3422 C219.6357,604.9172 221.1467,604.3572 221.6977,603.1022 L221.7267,603.0372 L239.6387,563.7832 L239.6387,563.7472 C240.2187,562.4782 239.6617,560.9782 238.3817,560.3772 L233.3237,558.0962 Z M339.6467,476.2152 C341.6537,477.0432 342.5977,479.3352 341.7657,481.3312 L341.7657,481.3922 L319.2297,535.5212 L319.2297,535.5642 C318.3947,537.5672 316.1027,538.5072 314.0927,537.6792 L306.1457,534.3742 C304.1527,533.5502 303.2277,531.2802 304.0587,529.2622 L304.0877,529.2192 L326.5837,475.0802 L326.6097,475.0112 C327.4477,473.0482 329.7407,472.0972 331.7217,472.9102 L339.6467,476.2152 Z" id="Fill-1" fill="#2384C6" mask="url(#mask-2)"></path>
                </g>
                <g id="Group-6" transform="translate(24.000000, 0.640000)">
                    <mask id="mask-4" fill="white">
                        <use xlink:href="#path-3"></use>
                    </mask>
                    <g id="Clip-5"></g>
                    <path d="M727.187,140.1521 C728.366,137.3861 727.104,134.1941 724.349,132.9641 L619.375,87.2711 C616.613,86.0891 613.413,87.3471 612.217,90.1021 L607.448,101.0321 C606.266,103.7621 607.549,106.9901 610.262,108.1801 L715.256,153.9061 C718.004,155.0991 721.21,153.8111 722.411,151.0851 L727.187,140.1521 Z M1087.468,174.5831 C1089.037,170.9271 1087.377,166.6501 1083.718,165.0631 L1083.599,164.9911 L973.918,117.1721 L973.803,117.1281 C970.183,115.5301 965.888,117.2371 964.287,120.8671 L957.938,135.4551 C956.361,139.1211 958.01,143.3921 961.683,144.9971 L961.799,145.0331 L1071.447,192.8631 L1071.56,192.9171 C1075.197,194.5111 1079.496,192.8161 1081.094,189.1611 L1087.468,174.5831 Z M230.985,352.3291 C231.785,350.5031 230.943,348.3631 229.117,347.5781 L229.088,347.5491 L184.867,328.2641 L184.821,328.2391 C183.003,327.4391 180.844,328.2961 180.058,330.1001 L176.885,337.4111 C176.047,339.2231 176.925,341.3701 178.751,342.1551 L178.767,342.2021 L222.984,361.4721 L223.039,361.5051 C224.869,362.3081 226.996,361.4721 227.807,359.6361 L230.985,352.3291 Z M107.84,368.9961 C108.646,367.1671 107.789,365.0121 105.965,364.2351 L105.929,364.2201 L61.709,344.9491 L61.682,344.9101 C59.832,344.1141 57.687,344.9491 56.893,346.7861 L53.744,354.0791 C52.93,355.9081 53.771,358.0341 55.573,358.8221 L55.646,358.8731 L99.818,378.1441 L99.9,378.1871 C101.688,378.9541 103.859,378.1221 104.636,376.3031 L107.84,368.9961 Z M960.378,626.8131 C961.919,623.1431 960.168,618.8881 956.473,617.3621 L956.405,617.2931 L884.965,587.5881 L884.835,587.5341 C881.176,585.9971 876.932,587.7621 875.399,591.4491 L869.296,606.1361 C867.788,609.8061 869.523,614.0861 873.161,615.5901 L873.294,615.6521 L944.719,645.3681 L944.817,645.4001 C948.465,646.9301 952.739,645.1691 954.264,641.4991 L960.378,626.8131 Z M128.585,40.0341 C126.799,39.1991 124.619,40.0161 123.782,41.8311 L123.752,41.9001 L106.793,79.1471 L106.747,79.1941 C105.929,81.0021 106.747,83.1711 108.564,84.0031 L115.787,87.3001 C117.627,88.1431 119.775,87.3361 120.581,85.5141 L120.622,85.4531 L137.581,48.2021 L137.61,48.1401 C138.454,46.3361 137.657,44.1781 135.829,43.3531 L128.585,40.0341 Z M880.551,247.1901 C878.721,246.3841 876.581,247.1901 875.742,248.9831 L875.735,249.0301 L858.742,286.3061 L858.731,286.3681 C857.885,288.1651 858.695,290.3401 860.506,291.1471 L867.737,294.4551 C869.563,295.2941 871.74,294.4771 872.542,292.6581 L872.578,292.6151 L889.582,255.3571 L889.597,255.2891 C890.41,253.4951 889.597,251.3151 887.786,250.4871 L880.551,247.1901 Z M270.669,109.9121 C269.414,109.3221 267.916,109.8941 267.346,111.1731 L267.31,111.1951 L249.417,150.4671 L249.397,150.5181 C248.853,151.7761 249.397,153.2871 250.662,153.8591 L255.751,156.1651 C257.004,156.7581 258.488,156.1941 259.09,154.9071 L259.133,154.9071 L277.016,115.6131 L277.016,115.5701 C277.605,114.3011 277.046,112.7971 275.759,112.2081 L270.669,109.9121 Z M740.019,418.3591 C738.76,417.7771 737.22,418.3411 736.696,419.6141 L736.642,419.6251 L718.77,458.9221 L718.734,458.9401 C718.123,460.2161 718.727,461.7131 719.978,462.3061 L725.061,464.6091 C726.33,465.2131 727.867,464.6241 728.413,463.3661 L728.413,463.3361 L746.31,424.0571 L746.357,424.0141 C746.913,422.7521 746.375,421.2451 745.08,420.6591 L740.019,418.3591 Z M21.801,287.2931 C20.522,286.7111 19.035,287.2611 18.417,288.5591 L18.417,288.5701 L0.502,327.8481 L0.502,327.8881 C-0.081,329.1601 0.476,330.6721 1.763,331.2321 L6.82,333.5461 C8.089,334.1141 9.585,333.5611 10.173,332.2911 L10.173,332.2661 L28.104,292.9981 L28.104,292.9581 C28.705,291.6851 28.148,290.1701 26.83,289.5861 L21.801,287.2931 Z M824.926,505.5621 C824.333,506.8211 824.897,508.3461 826.169,508.9141 L826.206,508.9461 L865.485,526.8401 L865.507,526.8511 C866.79,527.4471 868.294,526.8511 868.858,525.6031 L871.183,520.5311 C871.765,519.2691 871.19,517.7791 869.907,517.1721 L869.892,517.1721 L830.642,499.2501 L830.588,499.2171 C829.311,498.6571 827.804,499.2171 827.243,500.5081 L824.926,505.5621 Z M700.414,541.1751 C699.116,540.6111 697.626,541.1681 697.041,542.4411 L697.019,542.4521 L679.126,581.7451 L679.126,581.7781 C678.522,583.0511 679.093,584.5471 680.359,585.1111 L685.41,587.4361 C686.693,588.0221 688.211,587.4541 688.79,586.1921 L688.805,586.1491 L706.705,546.8881 L706.734,546.8451 C707.305,545.5831 706.734,544.0611 705.468,543.4891 L700.414,541.1751 Z M246.631,632.4751 C245.362,631.9001 243.872,632.4421 243.303,633.7221 L243.285,633.7401 L225.352,673.0091 L225.352,673.0561 C224.797,674.3141 225.352,675.8401 226.621,676.4071 L231.679,678.7251 C232.973,679.2891 234.452,678.7251 235.034,677.4671 L235.034,677.4411 L252.951,638.1731 L252.951,638.1331 C253.576,636.8431 253.011,635.3461 251.711,634.7781 L246.631,632.4751 Z M377.293,459.9781 C376.033,459.3961 374.543,459.9601 373.936,461.2391 L373.936,461.2651 L356.017,500.5371 L356.013,500.5691 C355.44,501.8491 355.992,503.3531 357.286,503.9431 L362.335,506.2281 C363.599,506.8211 365.138,506.2461 365.69,504.9771 L365.7,504.9441 L383.634,465.6831 L383.649,465.6431 C384.218,464.3711 383.649,462.8561 382.409,462.2741 L377.293,459.9781 Z M449.508,407.2701 C448.224,406.7141 446.742,407.2701 446.141,408.5211 L446.138,408.5761 L428.243,447.8551 L428.208,447.8841 C427.657,449.1351 428.208,450.6571 429.501,451.2431 L434.556,453.5561 C435.81,454.1311 437.323,453.5561 437.925,452.2981 L437.925,452.2511 L455.82,412.9901 L455.887,412.9501 C456.421,411.6851 455.887,410.1631 454.598,409.5921 L449.508,407.2701 Z M99.916,526.9591 C98.618,526.3551 97.148,526.9161 96.565,528.1811 L73.253,578.3831 C72.639,579.6341 73.204,581.1381 74.425,581.7241 L79.512,584.0741 C80.77,584.6781 82.307,584.1141 82.894,582.8441 L106.202,532.6681 C106.793,531.3991 106.238,529.8841 104.969,529.3161 L99.916,526.9591 Z M333.185,549.6031 C331.544,548.8511 329.586,549.5561 328.861,551.2051 L328.839,551.2481 L306.155,600.0041 L306.155,600.0581 C305.383,601.6711 306.105,603.6121 307.717,604.3821 L314.245,607.4051 C315.839,608.1641 317.79,607.4301 318.548,605.8321 L318.548,605.7811 L341.229,557.0191 L341.248,556.9611 C342.007,555.3191 341.305,553.3561 339.668,552.6221 L333.185,549.6031 Z M815.5,85.0951 C813.826,84.3641 811.939,85.1271 811.205,86.7691 L783.954,148.8941 C783.228,150.5501 783.976,152.4591 785.6,153.1751 L792.173,156.0571 C793.818,156.7841 795.777,156.0391 796.479,154.3791 L823.722,92.2791 C824.452,90.6301 823.678,88.7101 822.062,87.9731 L815.5,85.0951 Z M535.838,174.8971 C534.19,174.1601 532.256,174.8971 531.566,176.5391 L504.312,238.6721 C503.571,240.3201 504.341,242.2291 505.986,242.9451 L512.528,245.8561 C514.179,246.5431 516.12,245.8021 516.838,244.1461 L544.082,182.0421 C544.783,180.4041 544.049,178.4661 542.419,177.7461 L535.838,174.8971 Z M462.972,563.8921 C461.302,563.1611 459.401,563.9171 458.684,565.5661 L431.426,627.6631 C430.729,629.3151 431.468,631.2461 433.106,631.9831 L439.646,634.8431 C441.293,635.5701 443.246,634.8071 443.958,633.1761 L471.201,571.0761 C471.917,569.4241 471.165,567.4821 469.552,566.7591 L462.972,563.8921 Z M673.507,-114.9639 C671.873,-115.6289 669.953,-114.8159 669.263,-113.1739 L669.263,-113.1229 L652.692,-72.7919 L652.689,-72.7599 C652.016,-71.0889 652.801,-69.1769 654.457,-68.5109 L661.117,-65.7999 C662.762,-65.1239 664.678,-65.9009 665.343,-67.5749 L665.38,-67.6039 L681.921,-107.9309 L681.921,-107.9969 C682.589,-109.6379 681.805,-111.5719 680.135,-112.2409 L673.507,-114.9639 Z M376.033,119.2141 C374.353,118.5461 372.45,119.3301 371.79,121.0261 L371.754,121.0621 L355.223,161.3861 L355.196,161.4331 C354.513,163.0891 355.35,164.9911 356.984,165.6851 L363.641,168.3891 C365.271,169.0761 367.175,168.2771 367.861,166.6111 L367.887,166.5851 L384.403,126.2321 L384.446,126.1821 C385.119,124.5471 384.32,122.6281 382.654,121.9481 L376.033,119.2141 Z M546.783,355.6841 C545.138,355.0081 543.218,355.8031 542.527,357.4521 L542.516,357.4951 L526.002,397.8521 L525.969,397.8841 C525.306,399.5481 526.106,401.4461 527.764,402.1291 L534.36,404.8481 C536.061,405.5391 537.95,404.7221 538.637,403.0551 L538.637,403.0331 L555.171,362.6981 L555.171,362.6441 C555.894,360.9921 555.095,359.0971 553.415,358.4101 L546.783,355.6841 Z M296.657,302.3261 C294.99,301.6351 293.085,302.4311 292.391,304.0941 L292.358,304.1121 L269.353,359.4841 L269.326,359.5351 C268.633,361.1871 269.414,363.1141 271.088,363.7861 L277.719,366.5521 C279.382,367.2391 281.268,366.4371 281.962,364.7921 L281.992,364.7551 L304.987,309.3911 L305.024,309.3181 C305.72,307.6841 304.933,305.7681 303.27,305.0701 L296.657,302.3261 Z M234.582,-161.3329 C232.973,-162.0129 231.05,-161.2209 230.336,-159.5759 L230.319,-159.5469 L207.314,-104.1639 L207.314,-104.1139 C206.605,-102.4579 207.403,-100.5339 209.042,-99.8619 L215.66,-97.1099 C217.325,-96.4159 219.221,-97.2189 219.885,-98.8529 L219.954,-98.9109 L242.948,-154.2829 L242.994,-154.3119 C243.65,-155.9779 242.878,-157.8979 241.213,-158.5739 L234.582,-161.3329 Z M673.692,369.7161 C672.021,369.0431 670.134,369.8391 669.414,371.4691 L669.414,371.5131 L646.398,426.9031 L646.369,426.9431 C645.675,428.5981 646.477,430.5081 648.119,431.1911 L654.75,433.9351 C656.373,434.6361 658.293,433.8371 658.984,432.1921 L659.031,432.1451 L682.047,376.7771 L682.047,376.7301 C682.752,375.0741 681.975,373.1651 680.312,372.4751 L673.692,369.7161 Z M408.177,26.8231 C409.353,24.0821 408.099,20.8721 405.393,19.6861 L300.348,-26.0319 C297.608,-27.1999 294.398,-25.9349 293.228,-23.2019 L288.452,-12.2719 C287.257,-9.5239 288.522,-6.3209 291.241,-5.1169 L396.245,40.5731 C398.981,41.7771 402.222,40.5191 403.406,37.7741 L408.177,26.8231 Z M872.886,425.5761 C874.093,422.8531 872.825,419.6251 870.055,418.4501 L765.06,372.7281 C762.352,371.5561 759.134,372.8221 757.923,375.5551 L753.168,386.4881 C751.979,389.2471 753.219,392.4581 755.974,393.6361 L860.947,439.3441 C863.721,440.5621 866.924,439.2711 868.135,436.5351 L872.886,425.5761 Z M526.081,312.2291 C527.03,310.0161 526.002,307.4751 523.792,306.5201 L523.751,306.4981 L458.684,278.4931 L458.624,278.4931 C456.431,277.5131 453.886,278.5471 452.946,280.7531 L449.128,289.5211 C448.208,291.7251 449.235,294.2781 451.435,295.2361 L451.485,295.2541 L516.556,323.2601 L516.616,323.2741 C518.787,324.2251 521.328,323.2201 522.303,321.0181 L526.081,312.2291 Z M422.324,346.6021 C423.263,344.3891 422.254,341.8511 420.074,340.8971 L419.998,340.8641 L354.933,312.8691 L354.869,312.8401 C352.664,311.8851 350.127,312.9121 349.177,315.1141 L345.409,323.8891 C344.456,326.0801 345.46,328.6581 347.672,329.6051 L347.723,329.6341 L412.77,357.6111 L412.815,357.6401 C415.035,358.5871 417.587,357.5751 418.513,355.3731 L422.324,346.6021 Z M611.186,215.8321 C611.909,214.1261 611.099,212.1441 609.422,211.4211 L609.371,211.3851 L559.119,189.7641 L559.057,189.7641 C557.358,189.0301 555.377,189.8001 554.643,191.5141 L551.707,198.2861 C550.984,199.9751 551.808,201.9521 553.468,202.7041 L553.533,202.7041 L603.8,224.3541 L603.836,224.3691 C605.539,225.0841 607.549,224.3071 608.254,222.5931 L611.186,215.8321 Z M619.929,524.3921 C620.851,522.2231 619.845,519.6561 617.643,518.6941 L617.55,518.6721 L552.521,490.6701 L552.474,490.6451 C550.283,489.7231 547.716,490.7211 546.765,492.9301 L542.961,501.7051 C542.035,503.8991 543.059,506.4551 545.264,507.3951 L545.304,507.4241 L610.384,535.4091 L610.431,535.4521 C612.632,536.3921 615.214,535.3801 616.118,533.1921 L619.929,524.3921 Z M851.659,408.5071 C853.514,409.3021 855.665,408.4891 856.475,406.6491 L856.475,406.6021 L880.858,351.3201 L880.909,351.2371 C881.686,349.4181 880.858,347.2741 879,346.4681 L871.74,343.2571 C869.907,342.4581 867.788,343.3041 866.985,345.1191 L866.924,345.1701 L842.591,400.4591 L842.533,400.5201 C841.749,402.3421 842.606,404.4761 844.403,405.2891 L851.659,408.5071 Z M585.896,-142.2319 C587.714,-141.3899 589.891,-142.2319 590.668,-144.0579 L590.697,-144.0979 L615.048,-199.4119 L615.048,-199.4659 C615.85,-201.2849 615.048,-203.4319 613.229,-204.2489 L605.926,-207.4559 C604.107,-208.2549 601.978,-207.4059 601.149,-205.5869 L601.139,-205.5289 L576.781,-150.2519 L576.741,-150.1829 C575.967,-148.3779 576.806,-146.2129 578.614,-145.4319 L585.896,-142.2319 Z M469.328,181.4091 C471.117,182.2011 473.262,181.3871 474.09,179.5501 L474.102,179.5141 L498.475,124.1971 L498.475,124.1531 C499.283,122.3311 498.462,120.1731 496.645,119.3811 L489.351,116.1631 C487.518,115.3571 485.368,116.2061 484.585,118.0031 L484.558,118.0861 L460.217,173.3901 L460.164,173.4331 C459.367,175.2411 460.217,177.3811 462.052,178.1981 L469.328,181.4091 Z M884.813,428.7941 C886.665,429.5961 888.809,428.7721 889.619,426.9431 L889.619,426.8921 L913.976,371.5851 L914.002,371.5311 C914.801,369.7161 913.962,367.5761 912.172,366.7551 L904.873,363.5691 C903.036,362.7521 900.895,363.5911 900.089,365.4101 L900.053,365.4601 L875.735,420.7601 L875.71,420.7931 C874.896,422.6291 875.735,424.7991 877.521,425.5761 L884.813,428.7941 Z M964.335,517.8151 C963.142,520.5561 959.935,521.8251 957.195,520.6391 L844.018,471.2621 C841.241,470.0541 840.041,466.8541 841.212,464.1211 L845.97,453.1771 C847.156,450.4401 850.385,449.1641 853.118,450.3531 L966.331,499.7271 C969.05,500.9201 970.305,504.1201 969.137,506.8711 L964.335,517.8151 Z" id="Fill-4" fill="#2384C6" mask="url(#mask-4)"></path>
                </g>
                <g id="Group-9" transform="translate(0.000000, 0.640000)">
                    <mask id="mask-6" fill="white">
                        <use xlink:href="#path-5"></use>
                    </mask>
                    <g id="Clip-8"></g>
                    <path d="M633.4725,179.5289 C632.2105,178.9759 630.7105,179.5219 630.1025,180.7939 L630.0885,180.8119 L612.1775,220.0879 L612.1775,220.1349 C611.6235,221.3929 612.1775,222.9079 613.4495,223.4899 L618.5075,225.8109 C619.7805,226.3939 621.2955,225.8109 621.8815,224.5569 L621.8815,224.5319 L639.7965,185.2379 L639.7965,185.2089 C640.3815,183.9249 639.8245,182.4289 638.5455,181.8499 L633.4725,179.5289 Z M473.0375,287.9209 C471.3605,287.2189 469.4765,288.0329 468.7875,289.6739 L468.7625,289.7469 L452.2135,330.0839 L452.2135,330.1099 C451.5485,331.7909 452.3365,333.6709 453.9895,334.3359 L460.6205,337.0699 C462.2685,337.7459 464.1975,336.9609 464.8735,335.2799 L464.8915,335.2549 L481.4505,294.9229 L481.4505,294.8729 C482.1165,293.2169 481.3355,291.3129 479.6465,290.6299 L473.0375,287.9209 Z M449.0485,809.4919 C450.6425,805.8439 448.9765,801.5659 445.2935,799.9679 L445.2195,799.9359 L364.2895,763.7369 L364.1735,763.7049 C360.5145,762.1209 356.2355,763.8059 354.6525,767.4279 L348.3035,782.0169 C346.7075,785.6799 348.3885,789.9609 352.0435,791.5689 L352.1345,791.6059 L433.0585,827.7969 L433.1725,827.8409 C436.8155,829.4389 441.1015,827.7389 442.7055,824.0949 L449.0485,809.4919 Z M34.2705,216.3029 L46.0505,221.6969 C49.0525,223.0089 52.5005,221.6969 53.8565,218.7719 L53.8565,218.7029 L95.5795,127.2739 L95.5795,127.1799 C97.0255,124.1859 95.7055,120.6969 92.6835,119.3739 L80.8605,114.0049 C77.9035,112.6779 74.4325,113.9389 73.1055,116.9189 L73.0605,116.9549 L31.3075,208.3919 L31.3075,208.4969 C30.0225,211.4219 31.3075,214.9719 34.2705,216.3029 L34.2705,216.3029 Z M1058.1315,284.1989 L1058.0845,284.1879 L1013.8735,264.9209 L1013.8335,264.9029 C1012.0005,264.1039 1009.8675,264.9309 1009.0575,266.7679 L1005.9015,274.0639 C1005.0985,275.8969 1005.9195,278.0229 1007.7495,278.8259 L1007.7965,278.8589 L1052.0245,298.1029 L1052.0575,298.1539 C1053.8685,298.9529 1056.0275,298.1029 1056.8045,296.3059 L1060.0155,288.9889 C1060.7925,287.1529 1059.9715,285.0339 1058.1315,284.1989 L1058.1315,284.1989 Z M598.5395,436.1149 C600.3835,436.9249 602.5195,436.0859 603.3265,434.2709 L606.5115,426.9639 C607.2855,425.1419 606.4605,422.9839 604.6385,422.1989 L604.5485,422.1809 L560.3805,402.8989 L560.3335,402.8709 C558.5265,402.0529 556.3575,402.9099 555.5655,404.7399 L552.4045,412.0359 C551.5955,413.8759 552.4345,416.0129 554.2445,416.8159 L554.3005,416.8299 L598.4845,436.1149 L598.5395,436.1149 Z M385.5855,507.7789 L385.5485,507.7499 L341.3545,488.4759 L341.2895,488.4609 C339.4835,487.6509 337.3175,488.5079 336.5345,490.3299 L333.3625,497.6189 C332.5525,499.4379 333.4055,501.5849 335.2205,502.4059 L335.2565,502.4059 L379.4625,521.6839 L379.5235,521.6839 C381.3345,522.4979 383.4865,521.6629 384.2815,519.8439 L387.4545,512.5189 C388.2665,510.7149 387.4185,508.5669 385.5855,507.7789 L385.5855,507.7789 Z M53.4605,485.8179 L53.4005,485.7749 L9.2225,466.4929 L9.1885,466.4709 C7.3545,465.6829 5.1895,466.5219 4.4155,468.3439 L1.2135,475.6369 C0.4135,477.4589 1.2885,479.5989 3.1045,480.4019 L3.1225,480.4419 L47.3395,499.7129 L47.3915,499.7339 C49.2155,500.5369 51.3575,499.6979 52.1475,497.8609 L55.3615,490.5649 C56.1175,488.7429 55.3055,486.6209 53.4605,485.8179 L53.4605,485.8179 Z M809.0685,549.6939 L809.0325,549.6899 L764.8575,530.3829 L764.8035,530.3689 C762.9885,529.5729 760.8405,530.4119 760.0485,532.2379 L756.8345,539.5339 C756.0355,541.3739 756.8995,543.4899 758.7115,544.2989 L758.7685,544.3279 L802.9545,563.5959 L802.9835,563.6349 C804.8485,564.4199 806.9925,563.5739 807.7555,561.7629 L810.9405,554.4739 C811.7405,552.6219 810.9155,550.4819 809.0685,549.6939 L809.0685,549.6939 Z M655.1545,830.8559 L655.1155,830.8129 L603.9985,809.2419 L603.9115,809.2279 C601.7315,808.3059 599.1395,809.3249 598.2205,811.5449 L594.5155,820.3379 C593.5605,822.5399 594.6305,825.1179 596.8395,826.0399 L596.8615,826.0399 L648.0355,847.6069 L648.0755,847.6679 C650.2995,848.5859 652.8485,847.5309 653.7305,845.3509 L657.5085,836.5469 C658.4055,834.3379 657.3715,831.7849 655.1545,830.8559 L655.1545,830.8559 Z M806.1145,505.5079 L811.1685,507.8259 C812.4525,508.3859 813.9415,507.8509 814.5385,506.5859 L814.5385,506.5459 L832.4575,467.2809 L832.4575,467.2449 C833.0355,465.9429 832.4575,464.4579 831.2095,463.8679 L826.1155,461.5719 C824.8605,460.9869 823.3825,461.5539 822.7635,462.8049 L822.7385,462.8559 L804.8485,502.1099 L804.8485,502.1859 C804.2775,503.4439 804.8485,504.9369 806.1145,505.5079 L806.1145,505.5079 Z M175.6615,128.9369 L170.5835,126.6259 C169.3325,126.0409 167.8125,126.6119 167.2465,127.8849 L167.1995,127.9139 L149.2825,167.2139 C148.7075,168.5049 149.2825,169.9979 150.5785,170.5729 L155.6205,172.8759 C156.8875,173.4839 158.4015,172.9089 158.9575,171.6219 L159.0195,171.6039 L176.8965,132.3279 L176.9325,132.2919 C177.4885,131.0449 176.9325,129.5149 175.6615,128.9369 L175.6615,128.9369 Z M417.8785,-156.5641 L407.1865,-161.1481 C404.5355,-162.2951 401.4065,-161.0691 400.2495,-158.3721 L400.2245,-158.2991 L367.0555,-80.8331 L367.0005,-80.7461 C365.8285,-78.0741 367.1095,-74.9691 369.7675,-73.7971 L380.4215,-69.2451 C383.0955,-68.1101 386.2435,-69.3461 387.3835,-72.0261 L387.3835,-72.0801 L420.6015,-149.5861 L420.6265,-149.6331 C421.8125,-152.3191 420.5305,-155.4501 417.8785,-156.5641 L417.8785,-156.5641 Z M332.8635,421.7249 L339.4125,424.5199 C341.0885,425.2429 343.0175,424.4549 343.7205,422.8099 L343.7475,422.7519 L364.2235,374.9659 L364.2335,374.9189 C364.9715,373.2629 364.1735,371.3609 362.5275,370.6309 L355.9465,367.8109 C354.3075,367.1089 352.3695,367.8719 351.6495,369.5169 L351.6285,369.5639 L331.1715,417.3979 L331.1405,417.4339 C330.4495,419.0749 331.2075,420.9989 332.8635,421.7249 L332.8635,421.7249 Z M521.2975,525.4809 L514.6885,522.6709 C513.0475,521.9589 511.1235,522.7179 510.3985,524.3699 L510.3805,524.4249 L489.8825,572.2369 L489.8825,572.2549 C489.1805,573.9109 489.9565,575.8559 491.5875,576.5499 L498.1655,579.3769 C499.8165,580.0749 501.7595,579.3089 502.4465,577.6529 L502.4645,577.6199 L522.9755,529.7899 L522.9845,529.7649 C523.7035,528.0979 522.9245,526.1929 521.2975,525.4809 L521.2975,525.4809 Z M490.6615,166.6789 C491.3615,165.0229 490.5495,163.1249 488.9095,162.4459 L482.2555,159.7189 C480.5945,159.0509 478.6745,159.8239 478.0175,161.5089 L478.0055,161.5449 L461.4645,201.8869 L461.4335,201.9199 C460.7615,203.5799 461.5725,205.4809 463.2215,206.1639 L469.8735,208.8799 C471.4865,209.5419 473.3995,208.7679 474.0935,207.1119 L474.1455,207.0539 L490.6615,166.7299 L490.6615,166.6789 Z M931.4575,-79.1521 L924.8305,-81.8631 C923.1815,-82.5181 921.2725,-81.7371 920.5785,-80.0771 L920.5565,-80.0161 L904.0225,-39.6841 L904.0225,-39.6521 C903.3465,-37.9851 904.1445,-36.0871 905.7835,-35.4041 L912.4365,-32.6741 C914.0955,-32.0051 915.9975,-32.7971 916.6775,-34.4641 L916.6955,-34.4961 L933.2325,-74.8351 L933.2365,-74.8711 C933.9095,-76.5411 933.1355,-78.4471 931.4575,-79.1521 L931.4575,-79.1521 Z M276.5115,459.5619 C278.3045,460.3539 280.4775,459.4789 281.2155,457.6639 L284.3165,450.3169 C285.1185,448.4659 284.2365,446.3439 282.3975,445.5739 L282.3435,445.5339 L229.8615,423.3959 L229.7975,423.3709 C227.9625,422.6039 225.8345,423.4829 225.0825,425.2979 L221.9835,432.6259 C221.1935,434.4779 222.0615,436.6139 223.8945,437.3839 L223.9505,437.3989 L276.4535,459.5619 L276.5115,459.5619 Z M513.6125,110.0239 C515.4405,110.7759 517.5825,109.9119 518.3295,108.0639 L521.4175,100.7499 C522.1875,98.8989 521.3375,96.7909 519.5085,96.0169 L519.4505,95.9959 L466.9625,73.8289 L466.9095,73.7959 C465.0685,73.0479 462.9525,73.9049 462.1585,75.7589 L459.0835,83.0879 C458.3065,84.9069 459.1685,87.0509 461.0165,87.8279 L461.0635,87.8459 L513.5495,109.9909 L513.6125,110.0239 Z M553.8885,306.3279 L553.9515,306.3429 L606.4605,328.4769 L606.5115,328.5019 C608.3265,329.3019 610.4775,328.4089 611.2545,326.5899 L614.3245,319.2539 C615.0875,317.4249 614.2375,315.2879 612.4015,314.5179 L612.3505,314.4889 L559.8675,292.3399 L559.7985,292.3069 C557.9255,291.5449 555.8465,292.4049 555.0545,294.2309 L551.9555,301.5889 C551.2055,303.3959 552.0645,305.5579 553.8885,306.3279 L553.8885,306.3279 Z M771.1555,202.3789 C772.9745,203.1599 775.1145,202.3139 775.8885,200.4739 L779.0015,193.1269 C779.7675,191.2979 778.8855,189.1609 777.0595,188.3909 L776.9915,188.3649 L724.5045,166.2309 L724.4715,166.2019 C722.6245,165.4169 720.4805,166.2999 719.7175,168.1219 L716.6475,175.4649 C715.8705,177.2949 716.7055,179.4169 718.5665,180.2019 L718.6035,180.2049 L771.0925,202.3789 L771.1555,202.3789 Z M671.9595,314.5179 L671.8805,314.4889 L619.4225,292.3399 L619.3325,292.3069 C617.5205,291.5449 615.3945,292.4049 614.6135,294.2309 L611.5045,301.5889 C610.7365,303.3959 611.6095,305.5579 613.4245,306.3279 L613.4965,306.3429 L666.0085,328.4769 L666.0375,328.5019 C667.8885,329.3019 670.0005,328.4089 670.7915,326.5899 L673.8795,319.2539 C674.6465,317.4249 673.7715,315.2879 671.9595,314.5179 L671.9595,314.5179 Z M877.2135,624.4669 L877.1085,624.4159 L757.2535,573.6569 L757.1705,573.6289 C753.5085,572.0699 749.2345,573.8019 747.6985,577.4649 L741.4645,592.1509 C739.9215,595.7879 741.6635,600.0689 745.3405,601.6059 L745.4135,601.6669 L865.2175,652.3999 L865.3365,652.4469 C869.0065,654.0129 873.2695,652.2739 874.8165,648.6149 L881.0315,633.9499 C882.5935,630.2799 880.8475,626.0069 877.2135,624.4669 L877.2135,624.4669 Z M271.5315,245.1439 C273.2215,245.8559 275.2005,245.1039 275.9515,243.3649 L278.8565,236.5969 C279.6115,234.8899 278.7675,232.9229 277.0975,232.1929 L277.0395,232.1529 L226.7835,210.5209 L226.7365,210.5209 C225.0085,209.7729 223.0735,210.5679 222.3325,212.2599 L219.4185,219.0609 C218.6865,220.7529 219.4895,222.7239 221.1665,223.4609 L221.1935,223.4609 L271.4785,245.1039 L271.5315,245.1439 Z M559.3795,67.2619 L573.9935,73.6289 C577.6345,75.2159 581.9435,73.5419 583.5055,69.8869 L583.5565,69.7709 L631.4005,-39.8921 L631.4155,-39.9891 C633.0315,-43.6411 631.3355,-47.9111 627.7025,-49.5231 L613.1025,-55.8971 C609.4365,-57.4921 605.1595,-55.8001 603.5645,-52.1481 L603.5395,-52.0471 L555.6945,57.6119 L555.6365,57.7209 C554.0385,61.3799 555.7445,65.6679 559.3795,67.2619 L559.3795,67.2619 Z M164.9125,365.1349 L150.3135,358.7609 C146.6465,357.1659 142.3695,358.8589 140.7755,362.5099 L140.7505,362.6109 L92.9055,472.2709 L92.8475,472.3789 C91.2495,476.0379 92.9565,480.3259 96.5895,481.9209 L111.2035,488.2879 C114.8445,489.8749 119.1545,488.2009 120.7165,484.5459 L120.7665,484.4299 L168.6115,374.7669 L168.6255,374.6689 C170.2415,371.0179 168.5465,366.7479 164.9125,365.1349 L164.9125,365.1349 Z M375.4945,610.9879 L369.1275,625.6019 C367.5325,629.2359 363.2465,630.9419 359.5875,629.3439 L359.4795,629.2859 L249.8185,581.4419 L249.7165,581.4159 C246.0655,579.8219 244.3735,575.5449 245.9675,571.8789 L252.3435,557.2789 C253.9545,553.6459 258.2265,551.9499 261.8775,553.5659 L261.9755,553.5799 L371.6385,601.4249 L371.7525,601.4759 C375.4085,603.0369 377.0835,607.3469 375.4945,610.9879 L375.4945,610.9879 Z" id="Fill-7" fill="#2384C6" mask="url(#mask-6)"></path>
                </g>
                <g id="Group-12" transform="translate(19.000000, 0.640000)">
                    <mask id="mask-8" fill="white">
                        <use xlink:href="#path-7"></use>
                    </mask>
                    <g id="Clip-11"></g>
                    <path d="M671.7498,84.5922 C673.3158,80.9152 671.5728,76.6382 667.9138,75.0902 L667.7978,75.0362 L547.9898,24.2782 L547.9028,24.2562 C544.2188,22.7082 539.9458,24.4152 538.4238,28.0922 L532.2058,42.7572 C530.6368,46.4442 532.3758,50.6932 536.0548,52.2332 L536.1468,52.2802 L655.9538,103.0672 L656.0408,103.0892 C659.6958,104.6552 663.9688,102.9192 665.5488,99.2682 L671.7498,84.5922 Z M647.4278,705.5812 C646.2788,708.3362 647.6088,711.5392 650.3568,712.6822 L650.4548,712.7252 L708.5598,736.8842 L708.6358,736.9172 C711.3868,738.0632 714.5868,736.7142 715.7438,733.9772 L720.3278,722.9642 C721.4818,720.2022 720.1758,717.0132 717.3998,715.8672 L717.3088,715.8312 L659.1678,691.6652 L659.1248,691.6292 C656.3728,690.4752 653.1878,691.8062 652.0338,694.5502 L647.4278,705.5812 Z M558.6318,687.6042 C561.9728,688.9602 565.7768,687.3842 567.1718,684.0612 L567.1978,683.9822 L590.5068,627.8832 L590.5828,627.8072 C591.9238,624.4952 590.3628,620.6632 587.0358,619.2962 L573.7958,613.7862 C570.5198,612.4092 566.6658,613.9922 565.2918,617.2932 L565.2778,617.3802 L541.9318,673.4712 L541.8998,673.5692 C540.5588,676.8772 542.1058,680.7102 545.4208,682.0842 L558.6318,687.6042 Z M480.3318,-82.5038 C483.0978,-81.3578 486.2778,-82.6768 487.4328,-85.4388 L487.4548,-85.4968 L511.6278,-143.6278 L511.6618,-143.6818 C512.8118,-146.4698 511.4888,-149.6438 508.7208,-150.8118 L497.6878,-155.3958 C494.9508,-156.5388 491.7478,-155.2188 490.6018,-152.4528 L490.5578,-152.3808 L466.4098,-94.2688 L466.3848,-94.2028 C465.2528,-91.4228 466.5238,-88.2338 469.3078,-87.0918 L480.3318,-82.5038 Z M217.6738,60.1332 C220.4488,61.2682 223.6418,59.9702 224.7968,57.2152 L224.8058,57.1182 L248.9808,-0.9948 L249.0078,-1.0818 C250.1688,-3.8298 248.8358,-7.0148 246.0798,-8.1718 L235.0738,-12.7488 C232.3148,-13.8988 229.1118,-12.5898 227.9618,-9.8308 L227.9238,-9.7548 L203.7558,48.3722 L203.7268,48.4332 C202.5828,51.1922 203.9038,54.3952 206.6698,55.5482 L217.6738,60.1332 Z M728.3618,498.4542 C729.5438,495.6922 728.2358,492.5142 725.5168,491.3282 L725.4408,491.2812 L638.3458,453.9762 L638.2478,453.9432 C635.5328,452.7542 632.3188,454.0262 631.1398,456.7962 L626.4438,467.7802 C625.2828,470.4922 626.5448,473.6992 629.2928,474.8922 L629.3538,474.8992 L716.4598,512.2402 L716.5428,512.2622 C719.2728,513.4622 722.4648,512.1792 723.6398,509.4202 L728.3618,498.4542 Z M781.7168,-172.1648 C783.3038,-175.8348 781.5748,-180.0978 777.9058,-181.6628 L777.7718,-181.6888 L657.9928,-232.4398 L657.8808,-232.5048 C654.2218,-234.0598 649.9408,-232.3308 648.4118,-228.6538 L642.1708,-213.9858 C640.6058,-210.3268 642.3448,-206.0678 646.0148,-204.5098 L646.1118,-204.4768 L765.9238,-153.7008 L766.0388,-153.6568 C769.6978,-152.1208 773.9578,-153.8488 775.4868,-157.5148 L781.7168,-172.1648 Z M378.0098,9.6352 C374.3588,8.0732 370.0818,9.8232 368.5088,13.4852 L368.4548,13.5792 L317.7338,133.3802 L317.6958,133.5032 C316.1268,137.1622 317.8428,141.4352 321.5428,142.9762 L336.1928,149.2022 C339.8678,150.7422 344.1218,148.9812 345.6658,145.3512 L345.7148,145.2572 L396.4638,25.4202 L396.5128,25.3522 C398.0768,21.6672 396.3448,17.3942 392.6928,15.8392 L378.0098,9.6352 Z M1038.7158,428.5882 C1040.1868,425.1082 1038.5418,421.0622 1035.0278,419.5922 L1034.9448,419.5382 L921.1458,371.3142 L921.0318,371.2712 C917.5778,369.8062 913.4828,371.4352 912.0288,374.9282 L906.1448,388.8572 C904.6588,392.3532 906.3188,396.4062 909.7658,397.8742 L909.8758,397.9192 L1023.7108,446.1392 L1023.7908,446.1812 C1027.2688,447.6632 1031.3288,446.0022 1032.8058,442.5262 L1038.7158,428.5882 Z M910.1578,322.9812 C911.7058,319.3192 909.9738,315.0602 906.2748,313.5122 L906.1878,313.4542 L786.3988,262.6932 L786.2788,262.6462 C782.6418,261.1062 778.3318,262.8202 776.8028,266.4972 L770.6098,281.1582 C769.0438,284.8382 770.7898,289.1052 774.4198,290.6512 L774.5358,290.6982 L894.3618,341.4572 L894.4448,341.5002 C898.1078,343.0622 902.3808,341.3122 903.9358,337.6532 L910.1578,322.9812 Z M808.4818,-15.1318 C809.4328,-17.3118 808.4238,-19.8858 806.1898,-20.8438 L806.1718,-20.8548 L741.1208,-48.8568 L741.0488,-48.8828 C738.8398,-49.8228 736.3018,-48.7998 735.3108,-46.5898 L731.5508,-37.8158 C730.6108,-35.6428 731.6228,-33.0718 733.8538,-32.1138 L733.8898,-32.0848 L798.9588,-4.1008 L799.0098,-4.0458 C801.1968,-3.1348 803.7388,-4.1438 804.7148,-6.3208 L808.4818,-15.1318 Z M876.9208,103.2632 C877.8788,101.0792 876.8408,98.5082 874.6758,97.5642 L874.5998,97.5432 L809.5488,69.5262 L809.4948,69.5042 C807.3068,68.5542 804.7438,69.5842 803.7638,71.7572 L800.0218,80.5502 C799.0858,82.7452 800.1048,85.3262 802.2598,86.2702 L802.3388,86.2952 L867.4008,114.3012 L867.4408,114.3262 C869.6568,115.2482 872.2238,114.2362 873.1818,112.0342 L876.9208,103.2632 Z M77.8098,27.6912 C78.7518,25.5002 77.7238,22.9152 75.5238,21.9782 L75.4888,21.9572 L10.4218,-6.0388 L10.3428,-6.0708 C8.1878,-7.0148 5.6148,-6.0058 4.6268,-3.7928 L0.8968,4.9632 C-0.0812,7.1762 0.9528,9.7322 3.1548,10.6722 L3.2088,10.7342 L68.2778,38.7002 L68.3468,38.7362 C70.5288,39.6622 73.0798,38.6422 74.0318,36.4662 L77.8098,27.6912 Z M522.8018,510.2052 C523.7448,508.0212 522.7108,505.4292 520.4988,504.4852 L520.4698,504.4702 L455.4318,476.4722 L455.3558,476.4542 C453.1668,475.5062 450.6028,476.5302 449.6468,478.7212 L445.8918,487.4772 C444.9228,489.6902 445.9278,492.2572 448.1348,493.2122 L448.1958,493.2332 L513.2528,521.2142 L513.3108,521.2362 C515.4868,522.1902 518.0618,521.1562 519.0398,518.9832 L522.8018,510.2052 Z M475.9648,741.4332 C477.4368,737.9532 475.7918,733.9072 472.2768,732.4372 L472.1938,732.3832 L358.3948,684.1592 L358.2808,684.1162 C354.8268,682.6512 350.7318,684.2802 349.2788,687.7732 L343.3938,701.7022 C341.9078,705.1982 343.5678,709.2512 347.0148,710.7192 L347.1258,710.7642 L460.9608,758.9842 L461.0398,759.0262 C464.5178,760.5082 468.5788,758.8472 470.0548,755.3712 L475.9648,741.4332 Z M475.6088,288.8802 C474.1318,292.3562 470.0718,294.0172 466.5938,292.5352 L466.5138,292.4932 L352.6788,244.2732 L352.5688,244.2282 C349.1208,242.7602 347.4618,238.7072 348.9478,235.2112 L354.8318,221.2822 C356.2848,217.7892 360.3798,216.1602 363.8348,217.6252 L363.9488,217.6682 L477.7478,265.8922 L477.8308,265.9462 C481.3448,267.4162 482.9898,271.4622 481.5188,274.9422 L475.6088,288.8802 Z" id="Fill-10" fill="#2384C6" mask="url(#mask-8)"></path>
                </g>
            </g>
        </g>
    </g>
</svg>