<?xml version="1.0" encoding="UTF-8"?>
<svg width="915px" height="522px" viewBox="0 0 915 522" version="1.1" xmlns="http://www.w3.org/2000/svg" xmlns:xlink="http://www.w3.org/1999/xlink">
    <!-- Generator: Sketch 40.3 (33839) - http://www.bohemiancoding.com/sketch -->
    <title>background-blue-vertical</title>
    <desc>Created with Sketch.</desc>
    <defs>
        <polygon id="path-1" points="0.142321202 520.719 689.746201 520.719 689.746201 0.116 0.142321202 0.116 0.142321202 520.719"></polygon>
        <path d="M0.271012616,520.719 L1074.202,520.719 C1080.41,520.719 1085.442,515.687 1085.442,509.479 L1085.442,11.356 C1085.442,5.148 1080.41,0.116 1074.202,0.116 L0.271012616,0.116 L0.271012616,520.719 L0.271012616,520.719 Z" id="path-3"></path>
        <polygon id="path-5" points="1039.25431 520.719 1039.25431 0.116 0.527107133 0.116 0.527107133 520.719"></polygon>
    </defs>
    <g id="Page-1" stroke="none" stroke-width="1" fill="none" fill-rule="evenodd">
        <g id="Artboard-2" transform="translate(-22.000000, -278.000000)">
            <g id="background-blue-vertical" transform="translate(-2.000000, 116.000000)">
                <g id="Group-3" transform="translate(297.000000, 162.640000)">
                    <mask id="mask-2" fill="white">
                        <use xlink:href="#path-1"></use>
                    </mask>
                    <g id="Clip-2"></g>
                    <path d="M430.9787,242.6522 C429.3557,241.9262 427.4137,242.6742 426.7167,244.3262 L399.4367,306.4442 C398.7177,308.0852 399.5057,310.0162 401.1287,310.7472 L407.6877,313.5952 C409.3077,314.3222 411.2707,313.5952 411.9757,311.9472 L439.2367,249.8152 C439.9387,248.1732 439.1967,246.2352 437.5517,245.5452 L430.9787,242.6522 Z M448.2897,379.6262 C451.0527,380.7582 454.2487,379.4342 455.4057,376.6862 L455.4127,376.6222 L479.6007,318.4982 L479.6187,318.4292 C480.7507,315.6602 479.4887,312.4602 476.6897,311.3212 L465.6807,306.7402 C462.9187,305.6052 459.7227,306.9102 458.5837,309.6512 L458.5397,309.7342 L434.3737,367.8542 L434.3197,367.9262 C433.1877,370.7032 434.5187,373.9062 437.2737,375.0422 L448.2897,379.6262 Z M113.2317,40.0342 C111.4457,39.2212 109.2637,40.0342 108.4267,41.8312 L108.4267,41.9002 L91.4197,79.1472 L91.4087,79.1942 C90.5987,81.0132 91.3777,83.1712 93.2127,84.0032 L100.4677,87.3002 C102.2497,88.1422 104.4187,87.3362 105.2287,85.5142 L105.2687,85.4532 L122.2327,48.2022 L122.2857,48.1402 C123.0987,46.3362 122.2997,44.1782 120.4737,43.3532 L113.2317,40.0342 Z M21.6797,528.3222 C20.3977,527.7512 18.8867,528.3222 18.3027,529.5732 L18.2777,529.6272 L0.3547,568.8882 L0.3547,568.9212 C-0.1943,570.2012 0.3547,571.6982 1.6137,572.2802 L6.7007,574.5902 C7.9587,575.1652 9.4697,574.5902 10.0537,573.3432 L10.0777,573.2962 L27.9797,534.0272 L27.9927,533.9882 C28.5707,532.7332 28.0227,531.2292 26.7297,530.6402 L21.6797,528.3222 Z M154.8457,640.5742 C153.6137,640.0022 152.1117,640.5742 151.5257,641.8322 L151.5257,641.8642 L133.6167,681.1442 L133.6167,681.1622 C133.0037,682.4422 133.5807,683.9492 134.8347,684.5172 L139.9287,686.8312 C141.1837,687.4202 142.7167,686.8562 143.2877,685.5762 L143.2877,685.5472 L161.1777,646.2722 L161.1957,646.2542 C161.7847,644.9812 161.1957,643.4592 159.9607,642.8952 L154.8457,640.5742 Z M233.3237,558.0962 C232.0517,557.4922 230.5237,558.0822 229.9707,559.3362 L229.9557,559.3722 L212.0517,598.6302 L212.0287,598.6842 C211.4337,599.9392 212.0287,601.4432 213.2997,602.0322 L218.3497,604.3422 C219.6357,604.9172 221.1467,604.3572 221.6977,603.1022 L221.7267,603.0372 L239.6387,563.7832 L239.6387,563.7472 C240.2187,562.4782 239.6617,560.9782 238.3817,560.3772 L233.3237,558.0962 Z M339.6467,476.2152 C341.6537,477.0432 342.5977,479.3352 341.7657,481.3312 L341.7657,481.3922 L319.2297,535.5212 L319.2297,535.5642 C318.3947,537.5672 316.1027,538.5072 314.0927,537.6792 L306.1457,534.3742 C304.1527,533.5502 303.2277,531.2802 304.0587,529.2622 L304.0877,529.2192 L326.5837,475.0802 L326.6097,475.0112 C327.4477,473.0482 329.7407,472.0972 331.7217,472.9102 L339.6467,476.2152 Z" id="Fill-1" fill="#2384C6" mask="url(#mask-2)"></path>
                </g>
                <g id="Group-6" transform="translate(24.000000, 162.640000)">
                    <mask id="mask-4" fill="white">
                        <use xlink:href="#path-3"></use>
                    </mask>
                    <g id="Clip-5"></g>
                    <path d="M128.585,40.0341 C126.799,39.1991 124.619,40.0161 123.782,41.8311 L123.752,41.9001 L106.793,79.1471 L106.747,79.1941 C105.929,81.0021 106.747,83.1711 108.564,84.0031 L115.787,87.3001 C117.627,88.1431 119.775,87.3361 120.581,85.5141 L120.622,85.4531 L137.581,48.2021 L137.61,48.1401 C138.454,46.3361 137.657,44.1781 135.829,43.3531 L128.585,40.0341 Z M880.551,247.1901 C878.721,246.3841 876.581,247.1901 875.742,248.9831 L875.735,249.0301 L858.742,286.3061 L858.731,286.3681 C857.885,288.1651 858.695,290.3401 860.506,291.1471 L867.737,294.4551 C869.563,295.2941 871.74,294.4771 872.542,292.6581 L872.578,292.6151 L889.582,255.3571 L889.597,255.2891 C890.41,253.4951 889.597,251.3151 887.786,250.4871 L880.551,247.1901 Z M270.669,109.9121 C269.414,109.3221 267.916,109.8941 267.346,111.1731 L267.31,111.1951 L249.417,150.4671 L249.397,150.5181 C248.853,151.7761 249.397,153.2871 250.662,153.8591 L255.751,156.1651 C257.004,156.7581 258.488,156.1941 259.09,154.9071 L259.133,154.9071 L277.016,115.6131 L277.016,115.5701 C277.605,114.3011 277.046,112.7971 275.759,112.2081 L270.669,109.9121 Z M740.019,418.3591 C738.76,417.7771 737.22,418.3411 736.696,419.6141 L736.642,419.6251 L718.77,458.9221 L718.734,458.9401 C718.123,460.2161 718.727,461.7131 719.978,462.3061 L725.061,464.6091 C726.33,465.2131 727.867,464.6241 728.413,463.3661 L728.413,463.3361 L746.31,424.0571 L746.357,424.0141 C746.913,422.7521 746.375,421.2451 745.08,420.6591 L740.019,418.3591 Z M21.801,287.2931 C20.522,286.7111 19.035,287.2611 18.417,288.5591 L18.417,288.5701 L0.502,327.8481 L0.502,327.8881 C-0.081,329.1601 0.476,330.6721 1.763,331.2321 L6.82,333.5461 C8.089,334.1141 9.585,333.5611 10.173,332.2911 L10.173,332.2661 L28.104,292.9981 L28.104,292.9581 C28.705,291.6851 28.148,290.1701 26.83,289.5861 L21.801,287.2931 Z M700.414,541.1751 C699.116,540.6111 697.626,541.1681 697.041,542.4411 L697.019,542.4521 L679.126,581.7451 L679.126,581.7781 C678.522,583.0511 679.093,584.5471 680.359,585.1111 L685.41,587.4361 C686.693,588.0221 688.211,587.4541 688.79,586.1921 L688.805,586.1491 L706.705,546.8881 L706.734,546.8451 C707.305,545.5831 706.734,544.0611 705.468,543.4891 L700.414,541.1751 Z M246.631,632.4751 C245.362,631.9001 243.872,632.4421 243.303,633.7221 L243.285,633.7401 L225.352,673.0091 L225.352,673.0561 C224.797,674.3141 225.352,675.8401 226.621,676.4071 L231.679,678.7251 C232.973,679.2891 234.452,678.7251 235.034,677.4671 L235.034,677.4411 L252.951,638.1731 L252.951,638.1331 C253.576,636.8431 253.011,635.3461 251.711,634.7781 L246.631,632.4751 Z M377.293,459.9781 C376.033,459.3961 374.543,459.9601 373.936,461.2391 L373.936,461.2651 L356.017,500.5371 L356.013,500.5691 C355.44,501.8491 355.992,503.3531 357.286,503.9431 L362.335,506.2281 C363.599,506.8211 365.138,506.2461 365.69,504.9771 L365.7,504.9441 L383.634,465.6831 L383.649,465.6431 C384.218,464.3711 383.649,462.8561 382.409,462.2741 L377.293,459.9781 Z M449.508,407.2701 C448.224,406.7141 446.742,407.2701 446.141,408.5211 L446.138,408.5761 L428.243,447.8551 L428.208,447.8841 C427.657,449.1351 428.208,450.6571 429.501,451.2431 L434.556,453.5561 C435.81,454.1311 437.323,453.5561 437.925,452.2981 L437.925,452.2511 L455.82,412.9901 L455.887,412.9501 C456.421,411.6851 455.887,410.1631 454.598,409.5921 L449.508,407.2701 Z M99.916,526.9591 C98.618,526.3551 97.148,526.9161 96.565,528.1811 L73.253,578.3831 C72.639,579.6341 73.204,581.1381 74.425,581.7241 L79.512,584.0741 C80.77,584.6781 82.307,584.1141 82.894,582.8441 L106.202,532.6681 C106.793,531.3991 106.238,529.8841 104.969,529.3161 L99.916,526.9591 Z M333.185,549.6031 C331.544,548.8511 329.586,549.5561 328.861,551.2051 L328.839,551.2481 L306.155,600.0041 L306.155,600.0581 C305.383,601.6711 306.105,603.6121 307.717,604.3821 L314.245,607.4051 C315.839,608.1641 317.79,607.4301 318.548,605.8321 L318.548,605.7811 L341.229,557.0191 L341.248,556.9611 C342.007,555.3191 341.305,553.3561 339.668,552.6221 L333.185,549.6031 Z M815.5,85.0951 C813.826,84.3641 811.939,85.1271 811.205,86.7691 L783.954,148.8941 C783.228,150.5501 783.976,152.4591 785.6,153.1751 L792.173,156.0571 C793.818,156.7841 795.777,156.0391 796.479,154.3791 L823.722,92.2791 C824.452,90.6301 823.678,88.7101 822.062,87.9731 L815.5,85.0951 Z M535.838,174.8971 C534.19,174.1601 532.256,174.8971 531.566,176.5391 L504.312,238.6721 C503.571,240.3201 504.341,242.2291 505.986,242.9451 L512.528,245.8561 C514.179,246.5431 516.12,245.8021 516.838,244.1461 L544.082,182.0421 C544.783,180.4041 544.049,178.4661 542.419,177.7461 L535.838,174.8971 Z M462.972,563.8921 C461.302,563.1611 459.401,563.9171 458.684,565.5661 L431.426,627.6631 C430.729,629.3151 431.468,631.2461 433.106,631.9831 L439.646,634.8431 C441.293,635.5701 443.246,634.8071 443.958,633.1761 L471.201,571.0761 C471.917,569.4241 471.165,567.4821 469.552,566.7591 L462.972,563.8921 Z M673.507,-114.9639 C671.873,-115.6289 669.953,-114.8159 669.263,-113.1739 L669.263,-113.1229 L652.692,-72.7919 L652.689,-72.7599 C652.016,-71.0889 652.801,-69.1769 654.457,-68.5109 L661.117,-65.7999 C662.762,-65.1239 664.678,-65.9009 665.343,-67.5749 L665.38,-67.6039 L681.921,-107.9309 L681.921,-107.9969 C682.589,-109.6379 681.805,-111.5719 680.135,-112.2409 L673.507,-114.9639 Z M376.033,119.2141 C374.353,118.5461 372.45,119.3301 371.79,121.0261 L371.754,121.0621 L355.223,161.3861 L355.196,161.4331 C354.513,163.0891 355.35,164.9911 356.984,165.6851 L363.641,168.3891 C365.271,169.0761 367.175,168.2771 367.861,166.6111 L367.887,166.5851 L384.403,126.2321 L384.446,126.1821 C385.119,124.5471 384.32,122.6281 382.654,121.9481 L376.033,119.2141 Z M546.783,355.6841 C545.138,355.0081 543.218,355.8031 542.527,357.4521 L542.516,357.4951 L526.002,397.8521 L525.969,397.8841 C525.306,399.5481 526.106,401.4461 527.764,402.1291 L534.36,404.8481 C536.061,405.5391 537.95,404.7221 538.637,403.0551 L538.637,403.0331 L555.171,362.6981 L555.171,362.6441 C555.894,360.9921 555.095,359.0971 553.415,358.4101 L546.783,355.6841 Z M296.657,302.3261 C294.99,301.6351 293.085,302.4311 292.391,304.0941 L292.358,304.1121 L269.353,359.4841 L269.326,359.5351 C268.633,361.1871 269.414,363.1141 271.088,363.7861 L277.719,366.5521 C279.382,367.2391 281.268,366.4371 281.962,364.7921 L281.992,364.7551 L304.987,309.3911 L305.024,309.3181 C305.72,307.6841 304.933,305.7681 303.27,305.0701 L296.657,302.3261 Z M234.582,-161.3329 C232.973,-162.0129 231.05,-161.2209 230.336,-159.5759 L230.319,-159.5469 L207.314,-104.1639 L207.314,-104.1139 C206.605,-102.4579 207.403,-100.5339 209.042,-99.8619 L215.66,-97.1099 C217.325,-96.4159 219.221,-97.2189 219.885,-98.8529 L219.954,-98.9109 L242.948,-154.2829 L242.994,-154.3119 C243.65,-155.9779 242.878,-157.8979 241.213,-158.5739 L234.582,-161.3329 Z M673.692,369.7161 C672.021,369.0431 670.134,369.8391 669.414,371.4691 L669.414,371.5131 L646.398,426.9031 L646.369,426.9431 C645.675,428.5981 646.477,430.5081 648.119,431.1911 L654.75,433.9351 C656.373,434.6361 658.293,433.8371 658.984,432.1921 L659.031,432.1451 L682.047,376.7771 L682.047,376.7301 C682.752,375.0741 681.975,373.1651 680.312,372.4751 L673.692,369.7161 Z M851.659,408.5071 C853.514,409.3021 855.665,408.4891 856.475,406.6491 L856.475,406.6021 L880.858,351.3201 L880.909,351.2371 C881.686,349.4181 880.858,347.2741 879,346.4681 L871.74,343.2571 C869.907,342.4581 867.788,343.3041 866.985,345.1191 L866.924,345.1701 L842.591,400.4591 L842.533,400.5201 C841.749,402.3421 842.606,404.4761 844.403,405.2891 L851.659,408.5071 Z M585.896,-142.2319 C587.714,-141.3899 589.891,-142.2319 590.668,-144.0579 L590.697,-144.0979 L615.048,-199.4119 L615.048,-199.4659 C615.85,-201.2849 615.048,-203.4319 613.229,-204.2489 L605.926,-207.4559 C604.107,-208.2549 601.978,-207.4059 601.149,-205.5869 L601.139,-205.5289 L576.781,-150.2519 L576.741,-150.1829 C575.967,-148.3779 576.806,-146.2129 578.614,-145.4319 L585.896,-142.2319 Z M469.328,181.4091 C471.117,182.2011 473.262,181.3871 474.09,179.5501 L474.102,179.5141 L498.475,124.1971 L498.475,124.1531 C499.283,122.3311 498.462,120.1731 496.645,119.3811 L489.351,116.1631 C487.518,115.3571 485.368,116.2061 484.585,118.0031 L484.558,118.0861 L460.217,173.3901 L460.164,173.4331 C459.367,175.2411 460.217,177.3811 462.052,178.1981 L469.328,181.4091 Z M884.813,428.7941 C886.665,429.5961 888.809,428.7721 889.619,426.9431 L889.619,426.8921 L913.976,371.5851 L914.002,371.5311 C914.801,369.7161 913.962,367.5761 912.172,366.7551 L904.873,363.5691 C903.036,362.7521 900.895,363.5911 900.089,365.4101 L900.053,365.4601 L875.735,420.7601 L875.71,420.7931 C874.896,422.6291 875.735,424.7991 877.521,425.5761 L884.813,428.7941 Z" id="Fill-4" fill="#2384C6" mask="url(#mask-4)"></path>
                </g>
                <g id="Group-9" transform="translate(0.000000, 0.640000)" fill="#2384C6">
                    <path d="M633.4725,341.5289 C632.2105,340.9759 630.7105,341.5219 630.1025,342.7939 L630.0885,342.8119 L612.1775,382.0879 L612.1775,382.1349 C611.6235,383.3929 612.1775,384.9079 613.4495,385.4899 L618.5075,387.8109 C619.7805,388.3939 621.2955,387.8109 621.8815,386.5569 L621.8815,386.5319 L639.7965,347.2379 L639.7965,347.2089 C640.3815,345.9249 639.8245,344.4289 638.5455,343.8499 L633.4725,341.5289 Z M473.0375,449.9209 C471.3605,449.2189 469.4765,450.0329 468.7875,451.6739 L468.7625,451.7469 L452.2135,492.0839 L452.2135,492.1099 C451.5485,493.7909 452.3365,495.6709 453.9895,496.3359 L460.6205,499.0699 C462.2685,499.7459 464.1975,498.9609 464.8735,497.2799 L464.8915,497.2549 L481.4505,456.9229 L481.4505,456.8729 C482.1165,455.2169 481.3355,453.3129 479.6465,452.6299 L473.0375,449.9209 Z M34.2705,378.3029 L46.0505,383.6969 C49.0525,385.0089 52.5005,383.6969 53.8565,380.7719 L53.8565,380.7029 L95.5795,289.2739 L95.5795,289.1799 C97.0255,286.1859 95.7055,282.6969 92.6835,281.3739 L80.8605,276.0049 C77.9035,274.6779 74.4325,275.9389 73.1055,278.9189 L73.0605,278.9549 L31.3075,370.3919 L31.3075,370.4969 C30.0225,373.4219 31.3075,376.9719 34.2705,378.3029 L34.2705,378.3029 Z M806.1145,667.5079 L811.1685,669.8259 C812.4525,670.3859 813.9415,669.8509 814.5385,668.5859 L814.5385,668.5459 L832.4575,629.2809 L832.4575,629.2449 C833.0355,627.9429 832.4575,626.4579 831.2095,625.8679 L826.1155,623.5719 C824.8605,622.9869 823.3825,623.5539 822.7635,624.8049 L822.7385,624.8559 L804.8485,664.1099 L804.8485,664.1859 C804.2775,665.4439 804.8485,666.9369 806.1145,667.5079 L806.1145,667.5079 Z M175.6615,290.9369 L170.5835,288.6259 C169.3325,288.0409 167.8125,288.6119 167.2465,289.8849 L167.1995,289.9139 L149.2825,329.2139 C148.7075,330.5049 149.2825,331.9979 150.5785,332.5729 L155.6205,334.8759 C156.8875,335.4839 158.4015,334.9089 158.9575,333.6219 L159.0195,333.6039 L176.8965,294.3279 L176.9325,294.2919 C177.4885,293.0449 176.9325,291.5149 175.6615,290.9369 L175.6615,290.9369 Z M417.8785,5.4359 L407.1865,0.8519 C404.5355,-0.2951 401.4065,0.9309 400.2495,3.6279 L400.2245,3.7009 L367.0555,81.1669 L367.0005,81.2539 C365.8285,83.9259 367.1095,87.0309 369.7675,88.2029 L380.4215,92.7549 C383.0955,93.8899 386.2435,92.6539 387.3835,89.9739 L387.3835,89.9199 L420.6015,12.4139 L420.6265,12.3669 C421.8125,9.6809 420.5305,6.5499 417.8785,5.4359 L417.8785,5.4359 Z M332.8635,583.7249 L339.4125,586.5199 C341.0885,587.2429 343.0175,586.4549 343.7205,584.8099 L343.7475,584.7519 L364.2235,536.9659 L364.2335,536.9189 C364.9715,535.2629 364.1735,533.3609 362.5275,532.6309 L355.9465,529.8109 C354.3075,529.1089 352.3695,529.8719 351.6495,531.5169 L351.6285,531.5639 L331.1715,579.3979 L331.1405,579.4339 C330.4495,581.0749 331.2075,582.9989 332.8635,583.7249 L332.8635,583.7249 Z M521.2975,687.4809 L514.6885,684.6709 C513.0475,683.9589 511.1235,684.7179 510.3985,686.3699 L510.3805,686.4249 L489.8825,734.2369 L489.8825,734.2549 C489.1805,735.9109 489.9565,737.8559 491.5875,738.5499 L498.1655,741.3769 C499.8165,742.0749 501.7595,741.3089 502.4465,739.6529 L502.4645,739.6199 L522.9755,691.7899 L522.9845,691.7649 C523.7035,690.0979 522.9245,688.1929 521.2975,687.4809 L521.2975,687.4809 Z M490.6615,328.6789 C491.3615,327.0229 490.5495,325.1249 488.9095,324.4459 L482.2555,321.7189 C480.5945,321.0509 478.6745,321.8239 478.0175,323.5089 L478.0055,323.5449 L461.4645,363.8869 L461.4335,363.9199 C460.7615,365.5799 461.5725,367.4809 463.2215,368.1639 L469.8735,370.8799 C471.4865,371.5419 473.3995,370.7679 474.0935,369.1119 L474.1455,369.0539 L490.6615,328.7299 L490.6615,328.6789 Z M924.8305,80.1369 C923.1815,79.4819 921.2725,80.2629 920.5785,81.9229 L904.0225,122.3159 C903.3465,124.0149 904.1445,125.9129 905.7835,126.5959 L912.4365,129.3259 C914.0955,129.9949 915.9975,129.2029 916.6775,127.5359 L933.2325,87.1649 C933.9095,85.4589 933.1355,83.5529 931.4575,82.8479 L924.8305,80.1369 Z M559.3795,229.2619 L573.9935,235.6289 C577.6345,237.2159 581.9435,235.5419 583.5055,231.8869 L583.5565,231.7709 L631.4005,122.1079 L631.4155,122.0109 C633.0315,118.3589 631.3355,114.0889 627.7025,112.4769 L613.1025,106.1029 C609.4365,104.5079 605.1595,106.1999 603.5645,109.8519 L603.5395,109.9529 L555.6945,219.6119 L555.6365,219.7209 C554.0385,223.3799 555.7445,227.6679 559.3795,229.2619 L559.3795,229.2619 Z M164.9125,527.1349 L150.3135,520.7609 C146.6465,519.1659 142.3695,520.8589 140.7755,524.5099 L140.7505,524.6109 L92.9055,634.2709 L92.8475,634.3789 C91.2495,638.0379 92.9565,642.3259 96.5895,643.9209 L111.2035,650.2879 C114.8445,651.8749 119.1545,650.2009 120.7165,646.5459 L120.7665,646.4299 L168.6115,536.7669 L168.6255,536.6689 C170.2415,533.0179 168.5465,528.7479 164.9125,527.1349 L164.9125,527.1349 Z" id="Fill-7"></path>
                </g>
                <g id="Group-12" transform="translate(19.000000, 162.640000)">
                    <mask id="mask-6" fill="white">
                        <use xlink:href="#path-5"></use>
                    </mask>
                    <g id="Clip-11"></g>
                    <path d="M558.6318,687.6042 C561.9728,688.9602 565.7768,687.3842 567.1718,684.0612 L567.1978,683.9822 L590.5068,627.8832 L590.5828,627.8072 C591.9238,624.4952 590.3628,620.6632 587.0358,619.2962 L573.7958,613.7862 C570.5198,612.4092 566.6658,613.9922 565.2918,617.2932 L565.2778,617.3802 L541.9318,673.4712 L541.8998,673.5692 C540.5588,676.8772 542.1058,680.7102 545.4208,682.0842 L558.6318,687.6042 Z M480.3318,-82.5038 C483.0978,-81.3578 486.2778,-82.6768 487.4328,-85.4388 L487.4548,-85.4968 L511.6278,-143.6278 L511.6618,-143.6818 C512.8118,-146.4698 511.4888,-149.6438 508.7208,-150.8118 L497.6878,-155.3958 C494.9508,-156.5388 491.7478,-155.2188 490.6018,-152.4528 L490.5578,-152.3808 L466.4098,-94.2688 L466.3848,-94.2028 C465.2528,-91.4228 466.5238,-88.2338 469.3078,-87.0918 L480.3318,-82.5038 Z M217.6738,60.1332 C220.4488,61.2682 223.6418,59.9702 224.7968,57.2152 L224.8058,57.1182 L248.9808,-0.9948 L249.0078,-1.0818 C250.1688,-3.8298 248.8358,-7.0148 246.0798,-8.1718 L235.0738,-12.7488 C232.3148,-13.8988 229.1118,-12.5898 227.9618,-9.8308 L227.9238,-9.7548 L203.7558,48.3722 L203.7268,48.4332 C202.5828,51.1922 203.9038,54.3952 206.6698,55.5482 L217.6738,60.1332 Z M378.0098,9.6352 C374.3588,8.0732 370.0818,9.8232 368.5088,13.4852 L368.4548,13.5792 L317.7338,133.3802 L317.6958,133.5032 C316.1268,137.1622 317.8428,141.4352 321.5428,142.9762 L336.1928,149.2022 C339.8678,150.7422 344.1218,148.9812 345.6658,145.3512 L345.7148,145.2572 L396.4638,25.4202 L396.5128,25.3522 C398.0768,21.6672 396.3448,17.3942 392.6928,15.8392 L378.0098,9.6352 Z" id="Fill-10" fill="#2384C6" mask="url(#mask-6)"></path>
                </g>
            </g>
        </g>
    </g>
</svg>