<?xml version="1.0" encoding="UTF-8"?>
<svg width="1187px" height="1214px" viewBox="0 0 1187 1214" version="1.1" xmlns="http://www.w3.org/2000/svg" xmlns:xlink="http://www.w3.org/1999/xlink">
    <!-- Generator: Sketch 40.3 (33839) - http://www.bohemiancoding.com/sketch -->
    <title>background-light-vertical</title>
    <desc>Created with Sketch.</desc>
    <defs></defs>
    <g id="Page-1" stroke="none" stroke-width="1" fill="none" fill-rule="evenodd">
        <g id="Artboard-5" transform="translate(-110.000000, -394.000000)">
            <g id="Group" transform="translate(110.000000, 394.000000)">
                <rect id="Rectangle" fill="#85917F" opacity="0.0999207428" transform="translate(515.876157, 178.443889) rotate(23.000000) translate(-515.876157, -178.443889) " x="475.224071" y="8.36346746" width="81.3041722" height="340.160842" rx="12"></rect>
                <rect id="Rectangle" fill="#85917F" opacity="0.0999207428" transform="translate(901.883742, 858.912809) rotate(23.000000) translate(-901.883742, -858.912809) " x="830.11946" y="500.464565" width="143.528566" height="716.896489" rx="12"></rect>
                <rect id="Rectangle" fill="#98A194" opacity="0.250849185" transform="translate(488.876157, 386.443889) rotate(23.000000) translate(-488.876157, -386.443889) " x="448.224071" y="216.363467" width="81.3041722" height="340.160842" rx="15"></rect>
                <rect id="Rectangle" fill="#85917F" opacity="0.0999207428" transform="translate(990.876157, 194.443889) rotate(23.000000) translate(-990.876157, -194.443889) " x="950.224071" y="24.3634675" width="81.3041722" height="340.160842" rx="12"></rect>
                <rect id="Rectangle" fill="#98A194" opacity="0.250849185" transform="translate(990.876157, 284.443889) rotate(23.000000) translate(-990.876157, -284.443889) " x="950.224071" y="114.363467" width="81.3041722" height="340.160842" rx="15"></rect>
                <rect id="Rectangle" fill="#98A194" opacity="0.250849185" transform="translate(1010.455715, 776.000000) rotate(23.000000) translate(-1010.455715, -776.000000) " x="968.993001" y="585.018686" width="82.9254283" height="381.962629" rx="15"></rect>
            </g>
        </g>
    </g>
</svg>