<?xml version="1.0" encoding="UTF-8"?>
<svg width="1106px" height="522px" viewBox="0 0 1106 522" version="1.1" xmlns="http://www.w3.org/2000/svg" xmlns:xlink="http://www.w3.org/1999/xlink">
    <!-- Generator: Sketch 40.3 (33839) - http://www.bohemiancoding.com/sketch -->
    <title>background-blue-horizontal</title>
    <desc>Created with Sketch.</desc>
    <defs>
        <polygon id="path-1" points="0.142321202 520.719 689.746201 520.719 689.746201 0.116 0.142321202 0.116 0.142321202 520.719"></polygon>
        <path d="M0.271012616,520.719 L1074.202,520.719 C1080.41,520.719 1085.442,515.687 1085.442,509.479 L1085.442,11.356 C1085.442,5.148 1080.41,0.116 1074.202,0.116 L0.271012616,0.116 L0.271012616,520.719 L0.271012616,520.719 Z" id="path-3"></path>
        <polygon id="path-5" points="0.916058464 520.719 1060.30778 520.719 1060.30778 0.116 0.916058464 0.116"></polygon>
        <polygon id="path-7" points="0.527107133 520.719 1039.25431 520.719 1039.25431 0.116 0.527107133 0.116 0.527107133 520.719"></polygon>
    </defs>
    <g id="Page-1" stroke="none" stroke-width="1" fill="none" fill-rule="evenodd">
        <g id="Artboard-2" transform="translate(0.000000, -278.000000)">
            <g id="background-blue-horizontal" transform="translate(-2.000000, 278.000000)">
                <g id="Group-3" transform="translate(297.000000, 0.640000)">
                    <mask id="mask-2" fill="white">
                        <use xlink:href="#path-1"></use>
                    </mask>
                    <g id="Clip-2"></g>
                    <path d="M293.2667,668.5002 C294.4597,665.7702 293.2017,662.5522 290.4687,661.3412 L177.2757,611.9712 C174.5407,610.8002 171.3067,612.0472 170.0977,614.8172 L165.3387,625.7432 C164.1407,628.4692 165.3987,631.6902 168.1447,632.8652 L281.3537,682.2572 C284.0837,683.4392 287.3087,682.1782 288.5127,679.4592 L293.2667,668.5002 Z M689.4827,82.3432 L686.4237,89.6832 C685.6717,91.5232 683.5057,92.4022 681.6877,91.6322 L603.3637,59.0162 C601.5237,58.2602 600.6647,56.1412 601.4187,54.3052 L604.4957,46.9432 C605.2517,45.0992 607.3667,44.2352 609.2177,45.0162 L687.5377,77.6002 C689.3347,78.3622 690.2277,80.4882 689.4827,82.3432 L689.4827,82.3432 Z M674.9737,216.6852 L671.8637,224.0432 C671.1367,225.8692 668.9937,226.7482 667.1527,225.9852 L588.8477,193.3912 C587.0257,192.6422 586.1467,190.4842 586.9137,188.6622 L589.9607,181.3222 C590.7347,179.4742 592.8427,178.5822 594.6867,179.3622 L673.0207,211.9422 C674.8067,212.7012 675.7367,214.8452 674.9737,216.6852 L674.9737,216.6852 Z M555.0817,257.0172 L476.7407,224.4122 C474.9257,223.6452 472.8107,224.5312 472.0367,226.3642 L468.9487,233.7152 C468.1937,235.5622 469.0867,237.7102 470.9307,238.4662 L549.2467,271.0632 C551.0657,271.8152 553.2057,270.9372 553.9537,269.1042 L557.0417,261.7532 C557.7937,259.9022 556.9157,257.7512 555.0817,257.0172 L555.0817,257.0172 Z M104.0217,-256.4308 C102.8427,-253.6878 104.1087,-250.4698 106.8367,-249.2648 L106.9017,-249.2568 L220.8577,-199.6888 L220.9257,-199.6698 C223.6757,-198.4898 226.8977,-199.6958 228.0847,-202.4738 L232.8567,-213.4018 C234.0407,-216.1438 232.7907,-219.3618 230.0707,-220.5488 L229.9887,-220.5948 L116.0347,-270.1398 L115.9637,-270.1948 C113.2077,-271.3748 109.9807,-270.1008 108.7987,-267.3658 L104.0217,-256.4308 Z M623.2347,572.9812 C623.9977,571.1552 623.2027,569.0002 621.3437,568.2232 L621.2857,568.1982 L568.7737,545.2142 L568.7267,545.1922 C566.9047,544.3972 564.7537,545.2322 563.9727,547.0692 L560.7517,554.3582 C559.9807,556.1762 560.8457,558.3312 562.6427,559.1122 L562.6887,559.1302 L615.2267,582.1142 L615.2807,582.1362 C617.0957,582.9462 619.2437,582.0962 620.0427,580.2992 L623.2347,572.9812 Z M600.0847,398.9112 C600.8697,397.0712 600.0307,394.9452 598.2007,394.1352 L598.1647,394.1102 L545.6277,371.1332 L545.5767,371.0972 C543.7437,370.3012 541.6437,371.1332 540.8117,372.9662 L537.6157,380.2812 C536.8057,382.0772 537.6337,384.2432 539.4887,385.0422 L539.5537,385.0532 L592.0867,408.0592 L592.1157,408.0592 C593.9237,408.8432 596.0827,408.0262 596.8557,406.1822 L600.0847,398.9112 Z" id="Fill-1" fill="#2384C6" mask="url(#mask-2)"></path>
                </g>
                <g id="Group-6" transform="translate(24.000000, 0.640000)">
                    <mask id="mask-4" fill="white">
                        <use xlink:href="#path-3"></use>
                    </mask>
                    <g id="Clip-5"></g>
                    <path d="M727.187,140.1521 C728.366,137.3861 727.104,134.1941 724.349,132.9641 L619.375,87.2711 C616.613,86.0891 613.413,87.3471 612.217,90.1021 L607.448,101.0321 C606.266,103.7621 607.549,106.9901 610.262,108.1801 L715.256,153.9061 C718.004,155.0991 721.21,153.8111 722.411,151.0851 L727.187,140.1521 Z M1087.468,174.5831 C1089.037,170.9271 1087.377,166.6501 1083.718,165.0631 L1083.599,164.9911 L973.918,117.1721 L973.803,117.1281 C970.183,115.5301 965.888,117.2371 964.287,120.8671 L957.938,135.4551 C956.361,139.1211 958.01,143.3921 961.683,144.9971 L961.799,145.0331 L1071.447,192.8631 L1071.56,192.9171 C1075.197,194.5111 1079.496,192.8161 1081.094,189.1611 L1087.468,174.5831 Z M230.985,352.3291 C231.785,350.5031 230.943,348.3631 229.117,347.5781 L229.088,347.5491 L184.867,328.2641 L184.821,328.2391 C183.003,327.4391 180.844,328.2961 180.058,330.1001 L176.885,337.4111 C176.047,339.2231 176.925,341.3701 178.751,342.1551 L178.767,342.2021 L222.984,361.4721 L223.039,361.5051 C224.869,362.3081 226.996,361.4721 227.807,359.6361 L230.985,352.3291 Z M107.84,368.9961 C108.646,367.1671 107.789,365.0121 105.965,364.2351 L105.929,364.2201 L61.709,344.9491 L61.682,344.9101 C59.832,344.1141 57.687,344.9491 56.893,346.7861 L53.744,354.0791 C52.93,355.9081 53.771,358.0341 55.573,358.8221 L55.646,358.8731 L99.818,378.1441 L99.9,378.1871 C101.688,378.9541 103.859,378.1221 104.636,376.3031 L107.84,368.9961 Z M960.378,626.8131 C961.919,623.1431 960.168,618.8881 956.473,617.3621 L956.405,617.2931 L884.965,587.5881 L884.835,587.5341 C881.176,585.9971 876.932,587.7621 875.399,591.4491 L869.296,606.1361 C867.788,609.8061 869.523,614.0861 873.161,615.5901 L873.294,615.6521 L944.719,645.3681 L944.817,645.4001 C948.465,646.9301 952.739,645.1691 954.264,641.4991 L960.378,626.8131 Z M824.926,505.5621 C824.333,506.8211 824.897,508.3461 826.169,508.9141 L826.206,508.9461 L865.485,526.8401 L865.507,526.8511 C866.79,527.4471 868.294,526.8511 868.858,525.6031 L871.183,520.5311 C871.765,519.2691 871.19,517.7791 869.907,517.1721 L869.892,517.1721 L830.642,499.2501 L830.588,499.2171 C829.311,498.6571 827.804,499.2171 827.243,500.5081 L824.926,505.5621 Z M408.177,26.8231 C409.353,24.0821 408.099,20.8721 405.393,19.6861 L300.348,-26.0319 C297.608,-27.1999 294.398,-25.9349 293.228,-23.2019 L288.452,-12.2719 C287.257,-9.5239 288.522,-6.3209 291.241,-5.1169 L396.245,40.5731 C398.981,41.7771 402.222,40.5191 403.406,37.7741 L408.177,26.8231 Z M872.886,425.5761 C874.093,422.8531 872.825,419.6251 870.055,418.4501 L765.06,372.7281 C762.352,371.5561 759.134,372.8221 757.923,375.5551 L753.168,386.4881 C751.979,389.2471 753.219,392.4581 755.974,393.6361 L860.947,439.3441 C863.721,440.5621 866.924,439.2711 868.135,436.5351 L872.886,425.5761 Z M526.081,312.2291 C527.03,310.0161 526.002,307.4751 523.792,306.5201 L523.751,306.4981 L458.684,278.4931 L458.624,278.4931 C456.431,277.5131 453.886,278.5471 452.946,280.7531 L449.128,289.5211 C448.208,291.7251 449.235,294.2781 451.435,295.2361 L451.485,295.2541 L516.556,323.2601 L516.616,323.2741 C518.787,324.2251 521.328,323.2201 522.303,321.0181 L526.081,312.2291 Z M422.324,346.6021 C423.263,344.3891 422.254,341.8511 420.074,340.8971 L419.998,340.8641 L354.933,312.8691 L354.869,312.8401 C352.664,311.8851 350.127,312.9121 349.177,315.1141 L345.409,323.8891 C344.456,326.0801 345.46,328.6581 347.672,329.6051 L347.723,329.6341 L412.77,357.6111 L412.815,357.6401 C415.035,358.5871 417.587,357.5751 418.513,355.3731 L422.324,346.6021 Z M611.186,215.8321 C611.909,214.1261 611.099,212.1441 609.422,211.4211 L609.371,211.3851 L559.119,189.7641 L559.057,189.7641 C557.358,189.0301 555.377,189.8001 554.643,191.5141 L551.707,198.2861 C550.984,199.9751 551.808,201.9521 553.468,202.7041 L553.533,202.7041 L603.8,224.3541 L603.836,224.3691 C605.539,225.0841 607.549,224.3071 608.254,222.5931 L611.186,215.8321 Z M619.929,524.3921 C620.851,522.2231 619.845,519.6561 617.643,518.6941 L617.55,518.6721 L552.521,490.6701 L552.474,490.6451 C550.283,489.7231 547.716,490.7211 546.765,492.9301 L542.961,501.7051 C542.035,503.8991 543.059,506.4551 545.264,507.3951 L545.304,507.4241 L610.384,535.4091 L610.431,535.4521 C612.632,536.3921 615.214,535.3801 616.118,533.1921 L619.929,524.3921 Z M964.335,517.8151 C963.142,520.5561 959.935,521.8251 957.195,520.6391 L844.018,471.2621 C841.241,470.0541 840.041,466.8541 841.212,464.1211 L845.97,453.1771 C847.156,450.4401 850.385,449.1641 853.118,450.3531 L966.331,499.7271 C969.05,500.9201 970.305,504.1201 969.137,506.8711 L964.335,517.8151 Z" id="Fill-4" fill="#2384C6" mask="url(#mask-4)"></path>
                </g>
                <g id="Group-9" transform="translate(0.000000, 0.640000)">
                    <mask id="mask-6" fill="white">
                        <use xlink:href="#path-5"></use>
                    </mask>
                    <g id="Clip-8"></g>
                    <path d="M449.0485,809.4919 C450.6425,805.8439 448.9765,801.5659 445.2935,799.9679 L445.2195,799.9359 L364.2895,763.7369 L364.1735,763.7049 C360.5145,762.1209 356.2355,763.8059 354.6525,767.4279 L348.3035,782.0169 C346.7075,785.6799 348.3885,789.9609 352.0435,791.5689 L352.1345,791.6059 L433.0585,827.7969 L433.1725,827.8409 C436.8155,829.4389 441.1015,827.7389 442.7055,824.0949 L449.0485,809.4919 Z M1058.1315,284.1989 L1058.0845,284.1879 L1013.8735,264.9209 L1013.8335,264.9029 C1012.0005,264.1039 1009.8675,264.9309 1009.0575,266.7679 L1005.9015,274.0639 C1005.0985,275.8969 1005.9195,278.0229 1007.7495,278.8259 L1007.7965,278.8589 L1052.0245,298.1029 L1052.0575,298.1539 C1053.8685,298.9529 1056.0275,298.1029 1056.8045,296.3059 L1060.0155,288.9889 C1060.7925,287.1529 1059.9715,285.0339 1058.1315,284.1989 L1058.1315,284.1989 Z M598.5395,436.1149 C600.3835,436.9249 602.5195,436.0859 603.3265,434.2709 L606.5115,426.9639 C607.2855,425.1419 606.4605,422.9839 604.6385,422.1989 L604.5485,422.1809 L560.3805,402.8989 L560.3335,402.8709 C558.5265,402.0529 556.3575,402.9099 555.5655,404.7399 L552.4045,412.0359 C551.5955,413.8759 552.4345,416.0129 554.2445,416.8159 L554.3005,416.8299 L598.4845,436.1149 L598.5395,436.1149 Z M385.5855,507.7789 L385.5485,507.7499 L341.3545,488.4759 L341.2895,488.4609 C339.4835,487.6509 337.3175,488.5079 336.5345,490.3299 L333.3625,497.6189 C332.5525,499.4379 333.4055,501.5849 335.2205,502.4059 L335.2565,502.4059 L379.4625,521.6839 L379.5235,521.6839 C381.3345,522.4979 383.4865,521.6629 384.2815,519.8439 L387.4545,512.5189 C388.2665,510.7149 387.4185,508.5669 385.5855,507.7789 L385.5855,507.7789 Z M53.4605,485.8179 L53.4005,485.7749 L9.2225,466.4929 L9.1885,466.4709 C7.3545,465.6829 5.1895,466.5219 4.4155,468.3439 L1.2135,475.6369 C0.4135,477.4589 1.2885,479.5989 3.1045,480.4019 L3.1225,480.4419 L47.3395,499.7129 L47.3915,499.7339 C49.2155,500.5369 51.3575,499.6979 52.1475,497.8609 L55.3615,490.5649 C56.1175,488.7429 55.3055,486.6209 53.4605,485.8179 L53.4605,485.8179 Z M809.0685,549.6939 L809.0325,549.6899 L764.8575,530.3829 L764.8035,530.3689 C762.9885,529.5729 760.8405,530.4119 760.0485,532.2379 L756.8345,539.5339 C756.0355,541.3739 756.8995,543.4899 758.7115,544.2989 L758.7685,544.3279 L802.9545,563.5959 L802.9835,563.6349 C804.8485,564.4199 806.9925,563.5739 807.7555,561.7629 L810.9405,554.4739 C811.7405,552.6219 810.9155,550.4819 809.0685,549.6939 L809.0685,549.6939 Z M655.1545,830.8559 L655.1155,830.8129 L603.9985,809.2419 L603.9115,809.2279 C601.7315,808.3059 599.1395,809.3249 598.2205,811.5449 L594.5155,820.3379 C593.5605,822.5399 594.6305,825.1179 596.8395,826.0399 L596.8615,826.0399 L648.0355,847.6069 L648.0755,847.6679 C650.2995,848.5859 652.8485,847.5309 653.7305,845.3509 L657.5085,836.5469 C658.4055,834.3379 657.3715,831.7849 655.1545,830.8559 L655.1545,830.8559 Z M276.5115,459.5619 C278.3045,460.3539 280.4775,459.4789 281.2155,457.6639 L284.3165,450.3169 C285.1185,448.4659 284.2365,446.3439 282.3975,445.5739 L282.3435,445.5339 L229.8615,423.3959 L229.7975,423.3709 C227.9625,422.6039 225.8345,423.4829 225.0825,425.2979 L221.9835,432.6259 C221.1935,434.4779 222.0615,436.6139 223.8945,437.3839 L223.9505,437.3989 L276.4535,459.5619 L276.5115,459.5619 Z M513.6125,110.0239 C515.4405,110.7759 517.5825,109.9119 518.3295,108.0639 L521.4175,100.7499 C522.1875,98.8989 521.3375,96.7909 519.5085,96.0169 L519.4505,95.9959 L466.9625,73.8289 L466.9095,73.7959 C465.0685,73.0479 462.9525,73.9049 462.1585,75.7589 L459.0835,83.0879 C458.3065,84.9069 459.1685,87.0509 461.0165,87.8279 L461.0635,87.8459 L513.5495,109.9909 L513.6125,110.0239 Z M553.8885,306.3279 L553.9515,306.3429 L606.4605,328.4769 L606.5115,328.5019 C608.3265,329.3019 610.4775,328.4089 611.2545,326.5899 L614.3245,319.2539 C615.0875,317.4249 614.2375,315.2879 612.4015,314.5179 L612.3505,314.4889 L559.8675,292.3399 L559.7985,292.3069 C557.9255,291.5449 555.8465,292.4049 555.0545,294.2309 L551.9555,301.5889 C551.2055,303.3959 552.0645,305.5579 553.8885,306.3279 L553.8885,306.3279 Z M771.1555,202.3789 C772.9745,203.1599 775.1145,202.3139 775.8885,200.4739 L779.0015,193.1269 C779.7675,191.2979 778.8855,189.1609 777.0595,188.3909 L776.9915,188.3649 L724.5045,166.2309 L724.4715,166.2019 C722.6245,165.4169 720.4805,166.2999 719.7175,168.1219 L716.6475,175.4649 C715.8705,177.2949 716.7055,179.4169 718.5665,180.2019 L718.6035,180.2049 L771.0925,202.3789 L771.1555,202.3789 Z M671.9595,314.5179 L671.8805,314.4889 L619.4225,292.3399 L619.3325,292.3069 C617.5205,291.5449 615.3945,292.4049 614.6135,294.2309 L611.5045,301.5889 C610.7365,303.3959 611.6095,305.5579 613.4245,306.3279 L613.4965,306.3429 L666.0085,328.4769 L666.0375,328.5019 C667.8885,329.3019 670.0005,328.4089 670.7915,326.5899 L673.8795,319.2539 C674.6465,317.4249 673.7715,315.2879 671.9595,314.5179 L671.9595,314.5179 Z M877.2135,624.4669 L877.1085,624.4159 L757.2535,573.6569 L757.1705,573.6289 C753.5085,572.0699 749.2345,573.8019 747.6985,577.4649 L741.4645,592.1509 C739.9215,595.7879 741.6635,600.0689 745.3405,601.6059 L745.4135,601.6669 L865.2175,652.3999 L865.3365,652.4469 C869.0065,654.0129 873.2695,652.2739 874.8165,648.6149 L881.0315,633.9499 C882.5935,630.2799 880.8475,626.0069 877.2135,624.4669 L877.2135,624.4669 Z M271.5315,245.1439 C273.2215,245.8559 275.2005,245.1039 275.9515,243.3649 L278.8565,236.5969 C279.6115,234.8899 278.7675,232.9229 277.0975,232.1929 L277.0395,232.1529 L226.7835,210.5209 L226.7365,210.5209 C225.0085,209.7729 223.0735,210.5679 222.3325,212.2599 L219.4185,219.0609 C218.6865,220.7529 219.4895,222.7239 221.1665,223.4609 L221.1935,223.4609 L271.4785,245.1039 L271.5315,245.1439 Z M375.4945,610.9879 L369.1275,625.6019 C367.5325,629.2359 363.2465,630.9419 359.5875,629.3439 L359.4795,629.2859 L249.8185,581.4419 L249.7165,581.4159 C246.0655,579.8219 244.3735,575.5449 245.9675,571.8789 L252.3435,557.2789 C253.9545,553.6459 258.2265,551.9499 261.8775,553.5659 L261.9755,553.5799 L371.6385,601.4249 L371.7525,601.4759 C375.4085,603.0369 377.0835,607.3469 375.4945,610.9879 L375.4945,610.9879 Z" id="Fill-7" fill="#2384C6" mask="url(#mask-6)"></path>
                </g>
                <g id="Group-12" transform="translate(19.000000, 0.640000)">
                    <mask id="mask-8" fill="white">
                        <use xlink:href="#path-7"></use>
                    </mask>
                    <g id="Clip-11"></g>
                    <path d="M671.7498,84.5922 C673.3158,80.9152 671.5728,76.6382 667.9138,75.0902 L667.7978,75.0362 L547.9898,24.2782 L547.9028,24.2562 C544.2188,22.7082 539.9458,24.4152 538.4238,28.0922 L532.2058,42.7572 C530.6368,46.4442 532.3758,50.6932 536.0548,52.2332 L536.1468,52.2802 L655.9538,103.0672 L656.0408,103.0892 C659.6958,104.6552 663.9688,102.9192 665.5488,99.2682 L671.7498,84.5922 Z M647.4278,705.5812 C646.2788,708.3362 647.6088,711.5392 650.3568,712.6822 L650.4548,712.7252 L708.5598,736.8842 L708.6358,736.9172 C711.3868,738.0632 714.5868,736.7142 715.7438,733.9772 L720.3278,722.9642 C721.4818,720.2022 720.1758,717.0132 717.3998,715.8672 L717.3088,715.8312 L659.1678,691.6652 L659.1248,691.6292 C656.3728,690.4752 653.1878,691.8062 652.0338,694.5502 L647.4278,705.5812 Z M728.3618,498.4542 C729.5438,495.6922 728.2358,492.5142 725.5168,491.3282 L725.4408,491.2812 L638.3458,453.9762 L638.2478,453.9432 C635.5328,452.7542 632.3188,454.0262 631.1398,456.7962 L626.4438,467.7802 C625.2828,470.4922 626.5448,473.6992 629.2928,474.8922 L629.3538,474.8992 L716.4598,512.2402 L716.5428,512.2622 C719.2728,513.4622 722.4648,512.1792 723.6398,509.4202 L728.3618,498.4542 Z M781.7168,-172.1648 C783.3038,-175.8348 781.5748,-180.0978 777.9058,-181.6628 L777.7718,-181.6888 L657.9928,-232.4398 L657.8808,-232.5048 C654.2218,-234.0598 649.9408,-232.3308 648.4118,-228.6538 L642.1708,-213.9858 C640.6058,-210.3268 642.3448,-206.0678 646.0148,-204.5098 L646.1118,-204.4768 L765.9238,-153.7008 L766.0388,-153.6568 C769.6978,-152.1208 773.9578,-153.8488 775.4868,-157.5148 L781.7168,-172.1648 Z M1038.7158,428.5882 C1040.1868,425.1082 1038.5418,421.0622 1035.0278,419.5922 L1034.9448,419.5382 L921.1458,371.3142 L921.0318,371.2712 C917.5778,369.8062 913.4828,371.4352 912.0288,374.9282 L906.1448,388.8572 C904.6588,392.3532 906.3188,396.4062 909.7658,397.8742 L909.8758,397.9192 L1023.7108,446.1392 L1023.7908,446.1812 C1027.2688,447.6632 1031.3288,446.0022 1032.8058,442.5262 L1038.7158,428.5882 Z M910.1578,322.9812 C911.7058,319.3192 909.9738,315.0602 906.2748,313.5122 L906.1878,313.4542 L786.3988,262.6932 L786.2788,262.6462 C782.6418,261.1062 778.3318,262.8202 776.8028,266.4972 L770.6098,281.1582 C769.0438,284.8382 770.7898,289.1052 774.4198,290.6512 L774.5358,290.6982 L894.3618,341.4572 L894.4448,341.5002 C898.1078,343.0622 902.3808,341.3122 903.9358,337.6532 L910.1578,322.9812 Z M808.4818,-15.1318 C809.4328,-17.3118 808.4238,-19.8858 806.1898,-20.8438 L806.1718,-20.8548 L741.1208,-48.8568 L741.0488,-48.8828 C738.8398,-49.8228 736.3018,-48.7998 735.3108,-46.5898 L731.5508,-37.8158 C730.6108,-35.6428 731.6228,-33.0718 733.8538,-32.1138 L733.8898,-32.0848 L798.9588,-4.1008 L799.0098,-4.0458 C801.1968,-3.1348 803.7388,-4.1438 804.7148,-6.3208 L808.4818,-15.1318 Z M876.9208,103.2632 C877.8788,101.0792 876.8408,98.5082 874.6758,97.5642 L874.5998,97.5432 L809.5488,69.5262 L809.4948,69.5042 C807.3068,68.5542 804.7438,69.5842 803.7638,71.7572 L800.0218,80.5502 C799.0858,82.7452 800.1048,85.3262 802.2598,86.2702 L802.3388,86.2952 L867.4008,114.3012 L867.4408,114.3262 C869.6568,115.2482 872.2238,114.2362 873.1818,112.0342 L876.9208,103.2632 Z M77.8098,27.6912 C78.7518,25.5002 77.7238,22.9152 75.5238,21.9782 L75.4888,21.9572 L10.4218,-6.0388 L10.3428,-6.0708 C8.1878,-7.0148 5.6148,-6.0058 4.6268,-3.7928 L0.8968,4.9632 C-0.0812,7.1762 0.9528,9.7322 3.1548,10.6722 L3.2088,10.7342 L68.2778,38.7002 L68.3468,38.7362 C70.5288,39.6622 73.0798,38.6422 74.0318,36.4662 L77.8098,27.6912 Z M522.8018,510.2052 C523.7448,508.0212 522.7108,505.4292 520.4988,504.4852 L520.4698,504.4702 L455.4318,476.4722 L455.3558,476.4542 C453.1668,475.5062 450.6028,476.5302 449.6468,478.7212 L445.8918,487.4772 C444.9228,489.6902 445.9278,492.2572 448.1348,493.2122 L448.1958,493.2332 L513.2528,521.2142 L513.3108,521.2362 C515.4868,522.1902 518.0618,521.1562 519.0398,518.9832 L522.8018,510.2052 Z M475.9648,741.4332 C477.4368,737.9532 475.7918,733.9072 472.2768,732.4372 L472.1938,732.3832 L358.3948,684.1592 L358.2808,684.1162 C354.8268,682.6512 350.7318,684.2802 349.2788,687.7732 L343.3938,701.7022 C341.9078,705.1982 343.5678,709.2512 347.0148,710.7192 L347.1258,710.7642 L460.9608,758.9842 L461.0398,759.0262 C464.5178,760.5082 468.5788,758.8472 470.0548,755.3712 L475.9648,741.4332 Z M475.6088,288.8802 C474.1318,292.3562 470.0718,294.0172 466.5938,292.5352 L466.5138,292.4932 L352.6788,244.2732 L352.5688,244.2282 C349.1208,242.7602 347.4618,238.7072 348.9478,235.2112 L354.8318,221.2822 C356.2848,217.7892 360.3798,216.1602 363.8348,217.6252 L363.9488,217.6682 L477.7478,265.8922 L477.8308,265.9462 C481.3448,267.4162 482.9898,271.4622 481.5188,274.9422 L475.6088,288.8802 Z" id="Fill-10" fill="#2384C6" mask="url(#mask-8)"></path>
                </g>
            </g>
        </g>
    </g>
</svg>