<?xml version="1.0" encoding="UTF-8"?>
<svg width="724px" height="261px" viewBox="0 0 724 261" version="1.1" xmlns="http://www.w3.org/2000/svg" xmlns:xlink="http://www.w3.org/1999/xlink">
    <!-- Generator: Sketch 40.3 (33839) - http://www.bohemiancoding.com/sketch -->
    <title>coming-together-dark</title>
    <desc>Created with Sketch.</desc>
    <defs></defs>
    <g id="Page-1" stroke="none" stroke-width="1" fill="none" fill-rule="evenodd">
        <g id="Artboard-4" transform="translate(-407.000000, -1144.000000)" fill="#2EB095">
            <g id="coming-together-dark" transform="translate(407.000000, 1144.000000)">
                <path d="M437,5.1564 C437,3.4354 435.264,1.8894 433.542,1.8894 L423.456,1.8894 C421.734,1.8894 420,3.4354 420,5.1564 L420,29.8894 L437,29.8894 L437,5.1564 Z" id="Fill-1"></path>
                <path d="M323,168.5316 C323,166.8106 324.853,164.8896 326.574,164.8896 L365.302,164.8896 C367.023,164.8896 368,164.0196 368,162.2976 L368,154.7706 C368,153.0496 367.023,151.8896 365.302,151.8896 L310.094,151.8896 C308.373,151.8896 306,153.0496 306,154.7706 L306,178.8896 L323,178.8896 L323,168.5316 Z" id="Fill-29"></path>
                <path d="M135,149.6484 L135,165.0594 C144,165.7244 150.732,169.5194 155.848,175.9234 C161.128,182.5374 164.126,190.8894 164.52,202.8894 L181.808,202.8894 C181.348,186.8894 176.775,174.4894 168.408,164.9634 C160.154,155.5664 149,150.2854 135,149.6484" id="Fill-31"></path>
                <path d="M210.7345,165.4429 C200.9835,175.0949 195.8045,186.8899 195.1945,202.8899 L212.5035,202.8899 C213.0625,191.8899 216.5715,183.2879 223.0545,176.5629 C230.1475,169.2029 239.4555,165.3889 250.9755,165.3889 C260.4535,165.3889 269.3345,167.3459 277.3155,171.3949 C279.3925,172.4489 282.0005,170.8899 282.0005,168.5609 L282.0005,158.7919 C282.0005,157.6059 281.1685,156.5369 280.1135,155.9949 C271.9995,151.8209 262.0495,149.8679 250.4115,149.8679 C234.4105,149.8679 221.1345,155.1499 210.7345,165.4429" id="Fill-35"></path>
                <path d="M606,151.8898 L606,164.8898 L628.187,164.8898 C629.908,164.8898 631,164.0188 631,162.2978 L631,154.7708 C631,153.0498 629.908,151.8898 628.187,151.8898 L606,151.8898 Z" id="Fill-37"></path>
                <path d="M702.2875,178.8898 L719.0845,178.8898 C718.0365,171.8898 714.8855,165.2528 709.4655,160.3918 C702.9465,154.5468 694.0005,151.8458 682.0005,151.6708 L682.0005,165.4328 C694.0005,165.5928 700.4365,169.8898 702.2875,178.8898" id="Fill-39"></path>
                <path d="M407,256.3807 C407,258.1027 409.175,259.8897 410.897,259.8897 L421.142,259.8897 C422.864,259.8897 424,258.1027 424,256.3807 L424,234.8897 L407,234.8897 L407,256.3807 Z" id="Fill-41"></path>
                <path d="M469.4585,151.8898 C467.7375,151.8898 466.0005,153.0498 466.0005,154.7708 L466.0005,178.8898 L482.0005,178.8898 L482.0005,154.7708 C482.0005,153.0498 481.4255,151.8898 479.7045,151.8898 L469.4585,151.8898 Z" id="Fill-43"></path>
                <path d="M531,256.3807 C531,258.1027 532.698,259.8897 534.42,259.8897 L544.667,259.8897 C546.388,259.8897 548,258.1027 548,256.3807 L548,233.8897 L531,233.8897 L531,256.3807 Z" id="Fill-45"></path>
                <path d="M384.2855,109.8898 L396.1465,109.8898 C397.4525,109.8898 398.4755,108.6838 398.3555,107.3838 L394.0865,60.8898 L377.9055,60.8898 L378.4175,67.5608 L382.0755,107.8278 C382.1795,108.9708 383.1375,109.8898 384.2855,109.8898" id="Fill-47"></path>
                <path d="M190.7247,26.1959 C195.8007,19.7899 201.9997,16.1659 210.9997,15.4589 L210.9997,0.0479 C196.9997,0.7339 186.6307,5.8419 178.3247,15.2359 C169.8597,24.8109 165.4867,36.8899 165.0187,52.8899 L182.3067,52.8899 C182.7027,41.8899 185.4457,32.8549 190.7247,26.1959" id="Fill-49"></path>
                <path d="M28,257.1029 C28,258.4259 29.642,259.8899 30.964,259.8899 L42.655,259.8899 C43.978,259.8899 44,258.4259 44,257.1029 L44,234.8899 L28,234.8899 L28,257.1029 Z" id="Fill-51"></path>
                <path d="M280.3597,107.4165 C280.2607,108.7055 281.2797,109.8895 282.5717,109.8895 L294.4387,109.8895 C295.5987,109.8895 296.5637,108.9925 296.6517,107.8355 L299.6957,67.5625 C299.8607,65.2745 300.0167,62.8895 300.1657,60.8895 L283.9427,60.8895 L280.3597,107.4165 Z" id="Fill-53"></path>
                <path d="M124.4916,111.1629 C135.3116,111.1629 143.9476,109.3049 150.4156,105.5849 C151.3946,105.0219 151.9996,103.9879 151.9996,102.8589 L151.9996,93.6729 C151.9996,91.3159 149.4866,89.8019 147.4196,90.9329 C141.2936,94.2869 134.1316,95.9619 125.9286,95.9619 C114.1936,95.9619 104.7546,92.3149 97.6096,85.0599 C90.8806,78.2329 87.3246,68.8899 86.9296,57.8899 L69.6516,57.8899 C70.0696,73.8899 75.1676,86.5029 84.9706,96.1009 C95.2116,106.1279 108.3836,111.1629 124.4916,111.1629" id="Fill-55"></path>
                <path d="M578.7344,16.4429 C568.9834,26.0949 563.8044,37.8899 563.1944,53.8899 L580.5034,53.8899 C581.0624,42.8899 584.5714,34.2879 591.0544,27.5629 C598.1474,20.2029 607.4554,16.3889 618.9754,16.3889 C628.4534,16.3889 637.3344,18.3459 645.3154,22.3949 C647.3924,23.4489 650.0004,21.8899 650.0004,19.5609 L650.0004,9.7919 C650.0004,8.6059 649.1684,7.5369 648.1134,6.9949 C639.9994,2.8209 630.0494,0.8679 618.4114,0.8679 C602.4104,0.8679 589.1344,6.1499 578.7344,16.4429" id="Fill-59"></path>
            </g>
        </g>
    </g>
</svg>