<?xml version="1.0" encoding="UTF-8"?>
<svg width="724px" height="261px" viewBox="0 0 724 261" version="1.1" xmlns="http://www.w3.org/2000/svg" xmlns:xlink="http://www.w3.org/1999/xlink">
    <!-- Generator: Sketch 40.3 (33839) - http://www.bohemiancoding.com/sketch -->
    <title>coming-together-light</title>
    <desc>Created with Sketch.</desc>
    <defs>
        <polygon id="path-1" points="4.06575815e-20 0.0268 4.06575815e-20 78.0268 72.9997 78.0268 72.9997 0.0268 0 0.0268"></polygon>
        <polygon id="path-3" points="99.0149 0.137 0.0139 0.137 0.0139 111.2999 99.0149 111.2999 99.0149 0.137"></polygon>
    </defs>
    <g id="Page-1" stroke="none" stroke-width="1" fill="none" fill-rule="evenodd">
        <g id="Artboard-4" transform="translate(-407.000000, -1144.000000)">
            <g id="coming-together-light" transform="translate(407.000000, 1143.000000)">
                <path d="M423.4557,110.8898 L433.5427,110.8898 C435.2637,110.8898 436.9997,109.4878 436.9997,107.7658 L436.9997,35.8898 L419.9997,35.8898 L419.9997,107.7658 C419.9997,109.4878 421.7347,110.8898 423.4557,110.8898" id="Fill-3" fill="#DBDED7"></path>
                <path d="M388.843,4.9973 C388.738,3.8553 387.78,2.8903 386.633,2.8903 L370.665,2.8903 C369.746,2.8903 368.921,3.5323 368.593,4.3913 L354.097,42.3633 C349.064,55.7263 344.383,68.7143 340.057,81.2893 C339.368,83.2943 336.528,83.2833 335.858,81.2723 C334.577,77.1123 332.657,71.2773 330.097,63.7563 C327.537,56.2363 324.977,49.1183 322.417,42.3983 L308.549,4.4203 C308.229,3.5453 307.397,2.8903 306.465,2.8903 L290.55,2.8903 C289.39,2.8903 288.427,3.8743 288.337,5.0303 L284.343,56.8903 L300.529,56.8903 C301.062,48.8903 301.472,42.8043 301.758,37.8343 C301.898,35.4033 305.284,34.9403 306.072,37.2433 L316.817,68.6453 L330.847,107.3863 C331.165,108.2643 331.999,108.8903 332.933,108.8903 L342.8,108.8903 C343.725,108.8903 344.553,108.2723 344.878,107.4063 L359.377,68.6633 C363.688,57.0323 367.752,45.8863 371.566,35.2463 C372.373,32.9953 375.679,33.4553 375.865,35.8403 L377.501,56.8903 L393.608,56.8903 L388.843,4.9973 Z" id="Fill-5" fill="#DBDED7"></path>
                <path d="M476,109.8036 L476,65.7616 C476,50.5156 475.864,37.9006 475.254,27.9186 C475.183,26.7516 476.838,26.3226 477.375,27.3606 C478.975,30.5606 481.818,35.7606 485.818,42.9606 C489.818,50.1606 494.239,57.8166 499.039,65.9216 L525.458,110.3586 C525.652,110.6856 526.016,110.8896 526.396,110.8896 L544.222,110.8896 C544.818,110.8896 546,110.3996 546,109.8036 L546,4.1186 C546,3.5226 544.818,2.8896 544.222,2.8896 L529.902,2.8896 C529.305,2.8896 529,3.5226 529,4.1186 L529,48.3206 C529,67.0966 529.231,81.3366 529.871,91.0426 L527.586,86.5616 C526.091,83.6816 523.324,78.6696 519.324,71.5216 C515.323,64.3766 510.858,56.5886 505.952,48.1606 L479.699,3.4966 C479.505,3.1666 479.146,2.8896 478.763,2.8896 L460.939,2.8896 C460.343,2.8896 459,3.5226 459,4.1186 L459,109.8036 C459,110.3996 460.343,110.8896 460.939,110.8896 L475.26,110.8896 C475.856,110.8896 476,110.3996 476,109.8036" id="Fill-7" fill="#DBDED7"></path>
                <path d="M723.2335,255.8836 L700.2215,220.2206 C699.1955,218.6356 699.8065,216.4626 701.5165,215.6626 C706.5595,213.3036 710.6225,209.9186 713.7055,205.5606 C717.4385,200.2796 719.3585,193.9426 719.4655,186.3676 C719.4655,186.1766 719.4565,185.8896 719.4545,185.8896 L702.8115,185.8896 C702.8125,185.8896 702.8255,186.0556 702.8255,186.1946 C702.8255,192.1696 701.0655,196.9496 697.5455,200.5226 C694.0245,204.0976 688.8495,205.8896 682.0245,205.8896 L670.2605,205.8896 C668.5395,205.8896 666.9995,204.3806 666.9995,202.6596 L666.9995,169.5316 C666.9995,167.8106 668.5395,165.8896 670.2605,165.8896 L675.9995,165.8896 L675.9995,152.8896 L653.7805,152.8896 C652.0595,152.8896 649.9995,154.0496 649.9995,155.7706 L649.9995,257.3806 C649.9995,259.1026 652.0595,260.8896 653.7805,260.8896 L664.0265,260.8896 C665.7485,260.8896 666.9995,259.1026 666.9995,257.3806 L666.9995,222.6536 C666.9995,220.9316 668.5395,219.8896 670.2605,219.8896 L679.6455,219.8896 C680.7265,219.8896 681.7295,220.2726 682.2975,221.1926 L705.7515,259.3026 C706.3195,260.2226 707.3235,260.8896 708.4045,260.8896 L720.6165,260.8896 C723.0865,260.8896 724.5755,257.9576 723.2335,255.8836" id="Fill-9" fill="#DBDED7"></path>
                <g id="Group-13" transform="translate(0.000000, 152.863000)">
                    <mask id="mask-2" fill="white">
                        <use xlink:href="#path-1"></use>
                    </mask>
                    <g id="Clip-12"></g>
                    <path d="M70.9757,0.0268 L2.8037,0.0268 C1.4807,0.0268 -0.0003,0.8638 -0.0003,2.1858 L-0.0003,11.1568 C-0.0003,12.4798 1.4807,13.0268 2.8037,13.0268 L26.1747,13.0268 C27.4977,13.0268 27.9997,14.6238 27.9997,15.9468 L27.9997,78.0268 L43.9997,78.0268 L43.9997,15.9468 C43.9997,14.6238 46.1217,13.0268 47.4447,13.0268 L70.9757,13.0268 C72.2987,13.0268 72.9997,12.4798 72.9997,11.1568 L72.9997,2.1858 C72.9997,0.8638 72.2987,0.0268 70.9757,0.0268" id="Fill-11" fill="#DBDED7" mask="url(#mask-2)"></path>
                </g>
                <path d="M366.1022,246.8898 L326.5742,246.8898 C324.8532,246.8898 323.0002,245.3418 323.0002,243.6198 L323.0002,216.5728 C323.0002,214.8518 324.8532,213.8898 326.5742,213.8898 L360.1822,213.8898 C361.9032,213.8898 363.0002,212.0608 363.0002,210.3388 L363.0002,202.8128 C363.0002,201.0908 361.9032,198.8898 360.1822,198.8898 L326.5742,198.8898 C324.8532,198.8898 323.0002,198.2998 323.0002,196.5788 L323.0002,185.8898 L306.0002,185.8898 L306.0002,257.3808 C306.0002,259.1018 308.3722,260.8898 310.0942,260.8898 L366.1022,260.8898 C367.8232,260.8898 369.0002,259.1018 369.0002,257.3808 L369.0002,249.8538 C369.0002,248.1328 367.8232,246.8898 366.1022,246.8898" id="Fill-14" fill="#DBDED7"></path>
                <path d="M156.093,235.8676 C150.437,243.0156 142.545,246.5026 132.412,246.5026 C122.597,246.5026 114.757,242.8346 108.891,235.5796 C103.024,228.3266 100.091,218.4926 100.091,206.1166 C100.091,193.7446 102.876,183.9456 108.584,176.7456 C113.881,170.0606 121,166.4736 130,165.9956 L130,150.6196 C116,151.0776 104.718,156.1236 96.183,165.7746 C87.223,175.9106 82.777,189.3506 82.777,206.0956 C82.777,222.9516 87.299,236.4446 96.314,246.5766 C105.327,256.7116 117.363,261.7776 132.404,261.7776 C147.549,261.7776 159.581,256.8826 168.489,246.7476 C176.957,237.1126 181.396,224.8896 181.813,208.8896 L164.534,208.8896 C164.186,219.8896 161.373,229.1936 156.093,235.8676" id="Fill-16" fill="#DBDED7"></path>
                <path d="M628.9872,246.8898 L589.4592,246.8898 C587.7372,246.8898 586.0002,245.3418 586.0002,243.6198 L586.0002,216.5728 C586.0002,214.8518 587.7372,213.8898 589.4592,213.8898 L623.0672,213.8898 C624.7882,213.8898 626.0002,212.0608 626.0002,210.3388 L626.0002,202.8128 C626.0002,201.0908 624.7882,198.8898 623.0672,198.8898 L589.4592,198.8898 C587.7372,198.8898 586.0002,198.2998 586.0002,196.5788 L586.0002,169.5318 C586.0002,167.8098 587.7372,165.8898 589.4592,165.8898 L600.0002,165.8898 L600.0002,152.8898 L572.9792,152.8898 C571.2572,152.8898 570.0002,154.0498 570.0002,155.7708 L570.0002,257.3808 C570.0002,259.1018 571.2572,260.8898 572.9792,260.8898 L628.9872,260.8898 C630.7082,260.8898 632.0002,259.1018 632.0002,257.3808 L632.0002,249.8538 C632.0002,248.1328 630.7082,246.8898 628.9872,246.8898" id="Fill-18" fill="#DBDED7"></path>
                <path d="M449.464,152.8898 L382.735,152.8898 C381.014,152.8898 379,154.0498 379,155.7708 L379,163.2978 C379,165.0188 381.014,165.8898 382.735,165.8898 L404.663,165.8898 C406.384,165.8898 407,167.8098 407,169.5318 L407,230.8898 L424,230.8898 L424,169.5318 C424,167.8098 425.655,165.8898 427.376,165.8898 L449.464,165.8898 C451.185,165.8898 452,165.0188 452,163.2978 L452,155.7708 C452,154.0498 451.185,152.8898 449.464,152.8898" id="Fill-20" fill="#DBDED7"></path>
                <path d="M544.6666,152.8898 L534.4196,152.8898 C532.6986,152.8898 530.9996,154.0498 530.9996,155.7708 L530.9996,195.9388 C530.9996,197.6598 529.9076,198.8898 528.1856,198.8898 L485.9386,198.8898 C484.2166,198.8898 481.9996,197.6598 481.9996,195.9388 L481.9996,185.8898 L465.9996,185.8898 L465.9996,257.3808 C465.9996,259.1018 467.7366,260.8898 469.4586,260.8898 L479.7046,260.8898 C481.4256,260.8898 481.9996,259.1018 481.9996,257.3808 L481.9996,216.4128 C481.9996,214.6918 484.2166,213.8898 485.9386,213.8898 L528.1856,213.8898 C529.9076,213.8898 530.9996,214.6918 530.9996,216.4128 L530.9996,229.8898 L547.9996,229.8898 L547.9996,155.7708 C547.9996,154.0498 546.3876,152.8898 544.6666,152.8898" id="Fill-22" fill="#DBDED7"></path>
                <g id="Group-26" transform="translate(165.000000, 0.863000)">
                    <mask id="mask-4" fill="white">
                        <use xlink:href="#path-3"></use>
                    </mask>
                    <g id="Clip-25"></g>
                    <path d="M49.5739,111.2999 C64.7189,111.2999 76.7469,106.2339 85.6549,96.0989 C94.5599,85.9659 99.0149,72.4739 99.0149,55.6179 C99.0149,38.7649 94.4019,25.2979 85.5489,15.2169 C77.0749,5.5709 65.9999,0.5529 50.9999,0.1369 L50.9999,15.5049 C60.9999,15.9419 67.6539,19.4989 72.9889,26.1769 C78.6939,33.3249 81.6419,43.1379 81.6419,55.6179 C81.6419,68.2059 78.8609,78.0739 73.2079,85.2189 C67.5529,92.3669 59.6829,95.9389 49.5509,95.9389 C39.7349,95.9389 31.9069,92.2929 26.0419,85.0369 C20.5669,78.2709 17.6609,69.0269 17.2939,58.0269 L0.0139,58.0269 C0.4349,74.0269 4.9199,86.4419 13.4929,96.0769 C22.5049,106.2129 34.5329,111.2999 49.5739,111.2999" id="Fill-24" fill="#DBDED7" mask="url(#mask-4)"></path>
                </g>
                <path d="M97.6909,27.8357 C104.8909,20.5307 113.8769,16.8377 124.6519,16.8377 C130.5169,16.8377 135.3449,17.3267 139.1319,18.3387 C141.6779,19.0217 144.5039,20.0427 147.4609,21.4247 C149.5399,22.3947 151.9999,20.8997 151.9999,18.6057 L151.9999,9.3987 C151.9999,8.2057 151.2459,7.1197 150.1769,6.5897 C143.4649,3.2647 134.7859,1.5997 124.2089,1.5997 C108.4209,1.5997 95.3619,6.7947 85.0689,17.0357 C75.4259,26.6277 70.2829,38.8897 69.6729,53.8897 L86.9809,53.8897 C87.5489,42.8897 91.1129,34.5127 97.6909,27.8357" id="Fill-27" fill="#DBDED7"></path>
                <path d="M283.0595,198.8898 L251.2125,198.8898 C249.4915,198.8898 247.9995,200.2918 247.9995,202.0128 L247.9995,210.0188 C247.9995,211.7408 249.4915,212.8898 251.2125,212.8898 L266.8985,212.8898 C268.6205,212.8898 269.9995,214.5318 269.9995,216.2528 L269.9995,240.7428 C269.9995,242.0768 269.1555,243.2548 267.8975,243.6988 C262.7685,245.5118 257.3955,246.4168 251.7715,246.4168 C239.5035,246.4168 229.8775,243.0148 222.8925,235.8678 C216.3115,229.1388 212.8355,219.8898 212.4525,208.8898 L195.1745,208.8898 C195.5905,224.8898 200.7135,237.5658 210.5745,247.0678 C220.8675,256.9878 234.4395,261.8628 251.2955,261.8628 C265.2685,261.8628 276.8965,258.1168 286.1765,251.3958 L286.0165,249.8898 L285.9995,249.8898 L285.9995,202.0128 C285.9995,200.2918 284.7805,198.8898 283.0595,198.8898" id="Fill-33" fill="#DBDED7"></path>
                <path d="M651.0595,49.8898 L619.2125,49.8898 C617.4915,49.8898 615.9995,51.2918 615.9995,53.0128 L615.9995,61.0188 C615.9995,62.7408 617.4915,63.8898 619.2125,63.8898 L634.8985,63.8898 C636.6205,63.8898 637.9995,65.5318 637.9995,67.2528 L637.9995,91.7428 C637.9995,93.0768 637.1555,94.2548 635.8975,94.6988 C630.7685,96.5118 625.3955,97.4168 619.7715,97.4168 C607.5035,97.4168 597.8775,94.0148 590.8925,86.8678 C584.3115,80.1388 580.8355,70.8898 580.4525,59.8898 L563.1745,59.8898 C563.5905,75.8898 568.7135,88.5658 578.5745,98.0678 C588.8675,107.9878 602.4395,112.8628 619.2955,112.8628 C633.2685,112.8628 644.8965,109.1168 654.1765,102.3958 L654.0165,100.8898 L653.9995,100.8898 L653.9995,53.0128 C653.9995,51.2918 652.7805,49.8898 651.0595,49.8898" id="Fill-57" fill="#DBDED7"></path>
            </g>
        </g>
    </g>
</svg>