<svg xmlns="http://www.w3.org/2000/svg" width="862.85" height="113.34" viewBox="0 0 862.85 113.34"><title>financials</title><g id="fad4a8bb-f41d-43b9-9895-dc65b7fd047c" data-name="Ebene 2"><g id="875109eb-bbc2-471c-bdf5-97793bf5e3e5" data-name="Layer 9"><path d="M245.77,108.43l6.81-16.3a2.54,2.54,0,0,0-1.3-3.29l-7.11-3.2a2.54,2.54,0,0,0-3.37,1.29l-7.2,16.36a2.54,2.54,0,0,0,1.35,3.37l7.5,3.13A2.54,2.54,0,0,0,245.77,108.43Z" style="fill:#bcbcbc"/><rect x="722.63" y="2.61" width="12.7" height="37.58" rx="2.03" ry="2.03" style="fill:#bcbcbc"/><path d="M618.51,108.43l6.81-16.3a2.54,2.54,0,0,0-1.3-3.29l-7.11-3.2a2.54,2.54,0,0,0-3.37,1.29l-7.2,16.36a2.54,2.54,0,0,0,1.35,3.37l7.5,3.13A2.54,2.54,0,0,0,618.51,108.43Z" style="fill:#bcbcbc"/><path d="M546.3,23.56l7-5.08a2.55,2.55,0,0,0,.41-3.74A38.5,38.5,0,0,0,538.48,4,56.33,56.33,0,0,0,521.2.12a2.55,2.55,0,0,0-2.72,2.53V9.56a2.52,2.52,0,0,0,2.3,2.5,36.5,36.5,0,0,1,11.52,3.1,30.52,30.52,0,0,1,10.59,8A2.53,2.53,0,0,0,546.3,23.56Z" style="fill:#bcbcbc"/><rect y="77.18" width="12.7" height="33.59" rx="2.54" ry="2.54" style="fill:#bcbcbc"/><rect x="125.43" y="72.18" width="12.7" height="38.59" rx="2.54" ry="2.54" style="fill:#bcbcbc"/><rect x="349.89" y="72.18" width="12.7" height="38.59" rx="2.54" ry="2.54" style="fill:#bcbcbc"/><path d="M815.47,112.51c1.55.27,3.05.48,4.59.61a3.81,3.81,0,0,0,4.13-3.8v-4.47A3.79,3.79,0,0,0,821,101.1a29.88,29.88,0,0,1-8.58-2.69,22.6,22.6,0,0,1-7.57-5.89,3.8,3.8,0,0,0-5.34-.51l-5,4.06a3.79,3.79,0,0,0-.49,5.41,26.83,26.83,0,0,0,4.19,3.85,36.66,36.66,0,0,0,8.15,4.57A45.44,45.44,0,0,0,815.47,112.51Z" style="fill:#bcbcbc"/><rect x="576.37" y="72.69" width="12.7" height="38.59" rx="2.54" ry="2.54" style="fill:#bcbcbc"/><rect x="84.81" y="3.63" width="12.7" height="38.59" rx="2.54" ry="2.54" style="fill:#bcbcbc"/><path d="M724.66,110.78h58.4a2,2,0,0,0,2-2v-8.13a2,2,0,0,0-2-2h-45.7a2,2,0,0,1-2-2V47.3a2,2,0,0,0-2-2h-8.63a2,2,0,0,0-2,2v61.45A2,2,0,0,0,724.66,110.78Z" style="fill:#daddd6"/><path d="M332.5,102.74l-42-98.64a2.59,2.59,0,0,0-2.34-1.59h-8.7a2.59,2.59,0,0,0-2.32,1.57L244.9,77.41a2.55,2.55,0,0,0,1.29,3.35l8,3.69c.57.25,1.17,0,1.17-.6v-.35h54.52l10,24.64a2.58,2.58,0,0,0,3.4,1.44l8-3.59A2.49,2.49,0,0,0,332.5,102.74ZM260.94,72.51l22.4-53h.3l21.33,53Z" style="fill:#daddd6"/><path d="M705.24,102.74l-42-98.64a2.59,2.59,0,0,0-2.34-1.59h-8.7a2.59,2.59,0,0,0-2.32,1.57L617.64,77.41a2.55,2.55,0,0,0,1.29,3.35L627,84.46c.57.25,1.3,0,1.3-.6v-.35h54.26l10,24.64a2.58,2.58,0,0,0,3.4,1.44l8-3.59A2.49,2.49,0,0,0,705.24,102.74ZM633.68,72.51l22.4-53h.3l21.33,53Z" style="fill:#daddd6"/><path d="M478.3,97.27a53.22,53.22,0,0,0,17.44,11.81,54.84,54.84,0,0,0,21.63,4.27,56.63,56.63,0,0,0,23.23-4.57,43.73,43.73,0,0,0,16.05-12.36,2.53,2.53,0,0,0-.34-3.54L550.56,88a2.55,2.55,0,0,0-3.55.28,39.43,39.43,0,0,1-12,9.28A41.81,41.81,0,0,1,500.7,98a39.64,39.64,0,0,1-12.95-9.52,44,44,0,0,1-8.46-14.17,49.81,49.81,0,0,1-3-17.6,48.09,48.09,0,0,1,3-17,45.1,45.1,0,0,1,8.53-14.32,41.42,41.42,0,0,1,13-9.83,35.45,35.45,0,0,1,10.36-3.2,2.55,2.55,0,0,0,2.2-2.52V2.89A2.53,2.53,0,0,0,510.62.37a51.59,51.59,0,0,0-15.33,4.05,53.13,53.13,0,0,0-28.72,30,60.7,60.7,0,0,0-4,22.24,60,60,0,0,0,4.19,22.7A54.35,54.35,0,0,0,478.3,97.27Z" style="fill:#daddd6"/><path d="M12.7,62H60.43A2.54,2.54,0,0,0,63,59.49v-6.6a2.54,2.54,0,0,0-2.54-2.54H12.7V14.8h51.8A2.54,2.54,0,0,0,67,12.26V5.15a2.54,2.54,0,0,0-2.54-2.54h-62A2.54,2.54,0,0,0,0,5.15V69.57A2.54,2.54,0,0,0,2.54,72.1h7.62a2.54,2.54,0,0,0,2.54-2.54Z" style="fill:#daddd6"/><path d="M214.3,2.61h-7.62a2.54,2.54,0,0,0-2.54,2.54V92.49h-.34L142.4,4.14a3.55,3.55,0,0,0-2.92-1.53H128a2.54,2.54,0,0,0-2.54,2.54V64.56A2.54,2.54,0,0,0,128,67.1h7.62a2.54,2.54,0,0,0,2.54-2.54V20.89h.17L200,109.69a2.54,2.54,0,0,0,2.09,1.09H214.3a2.54,2.54,0,0,0,2.54-2.54V5.15A2.54,2.54,0,0,0,214.3,2.61Z" style="fill:#daddd6"/><path d="M438.76,2.61h-7.62a2.54,2.54,0,0,0-2.54,2.54V92.49h-.34L366.86,4.14a3.55,3.55,0,0,0-2.92-1.53H352.43a2.54,2.54,0,0,0-2.54,2.54V64.56a2.54,2.54,0,0,0,2.54,2.54H360a2.54,2.54,0,0,0,2.54-2.54V20.89h.17l61.7,88.79a2.54,2.54,0,0,0,2.09,1.09h12.22a2.54,2.54,0,0,0,2.54-2.54V5.15A2.54,2.54,0,0,0,438.76,2.61Z" style="fill:#daddd6"/><path d="M801.84,50.81a32.69,32.69,0,0,0,8.46,5.79A78.73,78.73,0,0,0,821,60.79l12.49,4.27a40,40,0,0,1,8.84,4.11,15,15,0,0,1,5.18,5.41,17.22,17.22,0,0,1,1.68,8.15A15.22,15.22,0,0,1,847,90.8a19.52,19.52,0,0,1-5.48,5.87,25.17,25.17,0,0,1-7.54,3.58c-.6.17-1.2.33-1.79.46a3.78,3.78,0,0,0-2.92,3.7v4.47a3.81,3.81,0,0,0,4.44,3.76,50.84,50.84,0,0,0,5.38-1.2,36.65,36.65,0,0,0,12.11-5.79,28.4,28.4,0,0,0,11.65-23.84,29,29,0,0,0-2.67-13.18A25.72,25.72,0,0,0,853,59.87a40.9,40.9,0,0,0-10.36-5.79q-5.87-2.29-12.11-4.27a96.33,96.33,0,0,1-10.82-4,27.66,27.66,0,0,1-7-4.27,13.62,13.62,0,0,1-3.73-5.1A17.12,17.12,0,0,1,807.86,30a16.44,16.44,0,0,1,2-8.23,16,16,0,0,1,5.26-5.64,24.89,24.89,0,0,1,7.39-3.2,33.31,33.31,0,0,1,8.38-1.07A27.2,27.2,0,0,1,842,14.24a18.48,18.48,0,0,1,6.3,4.55,3.8,3.8,0,0,0,5.31.32L858,15.24a3.81,3.81,0,0,0,.15-5.61,31.12,31.12,0,0,0-10.65-6.81A49.71,49.71,0,0,0,817.15,2a37.4,37.4,0,0,0-11.73,5.87,28.56,28.56,0,0,0-8.23,9.67,28.7,28.7,0,0,0-3,13.56,29.1,29.1,0,0,0,2.06,11.5A24.72,24.72,0,0,0,801.84,50.81Z" style="fill:#daddd6"/><rect x="576.37" y="3.12" width="12.7" height="64.49" rx="2.54" ry="2.54" style="fill:#daddd6"/><rect x="84.81" y="47.3" width="12.7" height="64.49" rx="2.54" ry="2.54" style="fill:#daddd6"/></g></g></svg>