<svg xmlns="http://www.w3.org/2000/svg" width="374.26" height="113.14" viewBox="0 0 374.26 113.14"><title>first</title><g id="e3faabcb-aa93-467f-88d3-e5697136ac0f" data-name="Ebene 2"><g id="099881d0-1fd8-4781-8ad9-29d8683951ca" data-name="Layer 9"><rect x="84.81" y="2.61" width="12.7" height="38.59" rx="2.54" ry="2.54" style="fill:#bcbcbc"/><rect x="124.42" y="77.18" width="12.7" height="33.59" rx="3.81" ry="3.81" style="fill:#bcbcbc"/><rect x="326.02" y="72.18" width="12.7" height="38.59" rx="3.81" ry="3.81" style="fill:#bcbcbc"/><rect y="77.18" width="12.7" height="33.59" rx="2.54" ry="2.54" style="fill:#bcbcbc"/><path d="M258.57.63C257,.36,255.51.15,254,0a3.81,3.81,0,0,0-4.13,3.8V8.28A3.79,3.79,0,0,0,253,12a29.88,29.88,0,0,1,8.58,2.69,22.6,22.6,0,0,1,7.57,5.89,3.8,3.8,0,0,0,5.34.51l5-4.06a3.79,3.79,0,0,0,.49-5.41,26.83,26.83,0,0,0-4.19-3.85,36.66,36.66,0,0,0-8.15-4.57A45.44,45.44,0,0,0,258.57.63Z" style="fill:#bcbcbc"/><path d="M272.2,62.33a32.69,32.69,0,0,0-8.46-5.79,78.73,78.73,0,0,0-10.66-4.19l-12.49-4.27A40,40,0,0,1,231.76,44a15,15,0,0,1-5.18-5.41,17.22,17.22,0,0,1-1.68-8.15A15.22,15.22,0,0,1,227,22.34a19.52,19.52,0,0,1,5.48-5.87,25.17,25.17,0,0,1,7.54-3.58c.6-.17,1.2-.33,1.79-.46a3.78,3.78,0,0,0,2.92-3.7V4.26A3.81,3.81,0,0,0,240.33.5,50.84,50.84,0,0,0,235,1.7a36.65,36.65,0,0,0-12.11,5.79,29.33,29.33,0,0,0-8.46,9.83,29.14,29.14,0,0,0-3.2,14,29,29,0,0,0,2.67,13.18A25.72,25.72,0,0,0,221,53.27a40.9,40.9,0,0,0,10.36,5.79q5.87,2.29,12.11,4.27a96.33,96.33,0,0,1,10.82,4,27.66,27.66,0,0,1,7,4.27,13.62,13.62,0,0,1,3.73,5.1,17.12,17.12,0,0,1,1.14,6.47,16.44,16.44,0,0,1-2,8.23A16,16,0,0,1,258.95,97a24.89,24.89,0,0,1-7.39,3.2,33.31,33.31,0,0,1-8.38,1.07,27.2,27.2,0,0,1-11.12-2.36,18.48,18.48,0,0,1-6.3-4.55,3.8,3.8,0,0,0-5.31-.32L216,97.9a3.81,3.81,0,0,0-.15,5.61,31.12,31.12,0,0,0,10.65,6.81,49.71,49.71,0,0,0,30.39.84,37.4,37.4,0,0,0,11.73-5.87A27.77,27.77,0,0,0,279.9,82.06a29.1,29.1,0,0,0-2.06-11.5A24.72,24.72,0,0,0,272.2,62.33Z" style="fill:#daddd6"/><path d="M168.83,62.61a1.27,1.27,0,0,1,.84-1.91c7.56-1.47,13.56-4.5,18-9q7.16-7.31,7.16-19.22,0-10.05-3.81-15.93a25,25,0,0,0-9.9-8.92,41.78,41.78,0,0,0-13.79-4.26,131.36,131.36,0,0,0-15.46-1.21H128.22c-2.1,0-3.42,2.17-3.42,4.27V68.3c0,2.1,1.32,3.85,3.42,3.85h5.08a3.78,3.78,0,0,0,3.8-3.49c0-.09,0-5.19,0-5.28a1.24,1.24,0,0,1,1.27-1.23h13a3.75,3.75,0,0,1,3.27,1.79l26.12,43.51a3.8,3.8,0,0,0,5.32,1.23l4.8-3.09a3.81,3.81,0,0,0,1.19-5.21ZM148.51,50.15H138.38c-.7,0-1.57-.37-1.57-1.07v-33c0-.7.87-.92,1.57-.92h16.68a72.22,72.22,0,0,1,9.37.35,25.58,25.58,0,0,1,8.38,2.38,15.31,15.31,0,0,1,6,5.34c1.52,2.34,2.29,5.4,2.29,9.26,0,4.47-1,7.88-3.12,10.27A18.27,18.27,0,0,1,170.06,48a37.8,37.8,0,0,1-10.51,1.91C155.74,50.12,152.06,50.15,148.51,50.15Z" style="fill:#daddd6"/><path d="M329.83,67.1h5.08a3.81,3.81,0,0,0,3.81-3.81V14.8h31.74A3.81,3.81,0,0,0,374.26,11V6.42a3.81,3.81,0,0,0-3.81-3.81H294.28a3.81,3.81,0,0,0-3.81,3.81V11a3.81,3.81,0,0,0,3.81,3.81H326V63.3A3.81,3.81,0,0,0,329.83,67.1Z" style="fill:#daddd6"/><path d="M12.7,62H60.43A2.54,2.54,0,0,0,63,59.49v-6.6a2.54,2.54,0,0,0-2.54-2.54H12.7V14.8h51.8A2.54,2.54,0,0,0,67,12.26V5.15a2.54,2.54,0,0,0-2.54-2.54h-62A2.54,2.54,0,0,0,0,5.15V69.57A2.54,2.54,0,0,0,2.54,72.1h7.62a2.54,2.54,0,0,0,2.54-2.54Z" style="fill:#daddd6"/><rect x="84.81" y="46.28" width="12.7" height="64.49" rx="2.54" ry="2.54" style="fill:#daddd6"/></g></g></svg>