<?xml version="1.0" encoding="UTF-8"?>
<svg width="312px" height="104px" viewBox="0 0 312 104" version="1.1" xmlns="http://www.w3.org/2000/svg" xmlns:xlink="http://www.w3.org/1999/xlink">
    <!-- Generator: Sketch 40.3 (33839) - http://www.bohemiancoding.com/sketch -->
    <title>internet-society-light</title>
    <desc>Created with Sketch.</desc>
    <defs>
        <polygon id="path-1" points="0.021 104.002 312.003 104.002 312.003 0.001 0.021 0.001"></polygon>
    </defs>
    <g id="Page-1" stroke="none" stroke-width="1" fill="none" fill-rule="evenodd">
        <g id="Artboard" transform="translate(-41.000000, -56.000000)">
            <g id="internet-society-light" transform="translate(41.000000, 56.000000)">
                <mask id="mask-2" fill="white">
                    <use xlink:href="#path-1"></use>
                </mask>
                <g id="Clip-2"></g>
                <path d="M291.784,65.944 L287.515,65.944 C286.887,65.944 286.204,66.385 285.96,66.941 L279.129,82.658 L271.641,66.92 C271.39,66.385 270.668,65.944 270.055,65.944 L265.559,65.951 C264.993,65.951 264.731,66.367 264.975,66.877 L275.97,89.879 L270.217,102.987 C269.956,103.545 270.259,104.002 270.87,104.002 L275.199,104.002 C275.817,104.002 276.514,103.545 276.769,102.987 L292.443,66.941 C292.706,66.385 292.406,65.944 291.784,65.944 L291.784,65.944 Z M236.528,76.194 C235.56,73.093 232.629,70.841 229.515,70.841 C226.105,70.841 223.082,73.007 221.992,76.194 L236.528,76.194 Z M242.305,79.478 C242.305,79.606 242.305,79.897 242.288,80.246 C242.269,80.666 241.729,81.01 241.109,81.01 L222.069,81.01 C222.548,85.036 225.997,88.107 230.11,88.107 C233.252,88.107 235.237,86.84 236.878,85.181 C237.306,84.732 237.986,84.7 238.429,85.122 L240.866,87.449 C241.32,87.87 241.369,88.611 240.961,89.048 C239.209,90.942 235.835,93.583 230.05,93.583 C222.069,93.583 216.045,87.521 216.045,79.478 C216.045,71.298 221.61,65.379 229.256,65.379 C236.708,65.379 242.305,71.426 242.305,79.478 L242.305,79.478 Z M207.837,26.625 C206.845,23.535 203.938,21.267 200.807,21.267 C197.398,21.267 194.406,23.446 193.301,26.625 L207.837,26.625 Z M213.608,29.923 C213.608,30.041 213.597,30.352 213.597,30.69 C213.553,31.11 213.018,31.44 212.41,31.44 L193.372,31.44 C193.841,35.461 197.302,38.55 201.414,38.55 C204.562,38.55 206.549,37.29 208.182,35.612 C208.597,35.169 209.291,35.126 209.732,35.557 L212.175,37.884 C212.614,38.313 212.667,39.044 212.245,39.492 C210.522,41.385 207.144,44.025 201.357,44.025 C193.384,44.025 187.348,37.965 187.348,29.923 C187.348,21.743 192.916,15.805 200.567,15.805 C208.002,15.805 213.608,21.868 213.608,29.923 L213.608,29.923 Z M208.681,53.258 C206.509,53.258 204.81,54.985 204.81,57.187 C204.81,59.368 206.509,61.084 208.681,61.084 C210.899,61.084 212.619,59.368 212.619,57.187 C212.619,55.033 210.847,53.258 208.681,53.258 L208.681,53.258 Z M250.515,15.845 C246.939,15.845 244.928,17.315 243.581,18.379 L243.581,17.368 C243.581,16.812 243.086,16.363 242.459,16.363 L238.716,16.363 C238.095,16.363 237.604,16.849 237.604,17.465 L237.604,42.352 C237.604,42.974 238.095,43.464 238.716,43.464 L242.635,43.464 C243.258,43.464 243.745,42.974 243.745,42.352 L243.745,25.155 C245.12,23.525 246.868,21.654 250.31,21.654 C252.3,21.654 253.652,22.55 254.834,24.081 C255.613,25.084 256.305,26.383 256.305,29.923 L256.305,42.352 C256.305,42.974 256.8,43.464 257.405,43.464 L261.342,43.464 C261.966,43.464 262.442,42.974 262.442,42.352 L262.442,30.196 C262.442,25.825 261.861,22.754 260.01,20.387 C257.62,17.338 254.419,15.845 250.515,15.845 L250.515,15.845 Z M286.969,26.625 C285.986,23.535 283.069,21.267 279.942,21.267 C276.541,21.267 273.535,23.446 272.425,26.625 L286.969,26.625 Z M292.749,29.923 C292.749,30.041 292.732,30.352 292.713,30.69 C292.683,31.11 292.164,31.44 291.54,31.44 L272.504,31.44 C272.969,35.461 276.429,38.55 280.524,38.55 C283.676,38.55 285.662,37.29 287.302,35.612 C287.729,35.169 288.409,35.126 288.862,35.557 L291.288,37.884 C291.746,38.313 291.784,39.044 291.394,39.492 C289.641,41.385 286.257,44.025 280.468,44.025 C272.504,44.025 266.488,37.965 266.488,29.923 C266.488,21.743 272.046,15.805 279.696,15.805 C287.133,15.805 292.749,21.868 292.749,29.923 L292.749,29.923 Z M210.681,65.944 L206.761,65.944 C206.13,65.944 205.635,66.426 205.635,67.03 L205.635,91.915 C205.635,92.531 206.13,93.016 206.761,93.016 L210.681,93.016 C211.289,93.016 211.782,92.531 211.782,91.915 L211.782,67.03 C211.782,66.426 211.289,65.944 210.681,65.944 L210.681,65.944 Z M261.08,66.97 C260.966,66.558 260.61,65.944 259.855,65.944 L255.068,65.947 L255.068,59.783 C255.068,59.172 254.56,58.675 253.947,58.675 L250.02,58.675 C249.404,58.675 248.91,59.172 248.91,59.783 L248.91,65.947 L244.47,65.947 C243.518,65.947 243.206,66.399 243.362,67.048 C243.518,67.697 243.943,70.427 243.943,70.427 C244.068,70.911 244.438,71.52 245.051,71.52 L248.91,71.52 L248.91,83.122 C248.91,86.357 249.65,88.727 251.142,90.394 C253.002,92.488 255.666,93.609 258.89,93.609 C259.273,93.609 259.697,93.599 260.1,93.555 C260.713,93.526 261.213,92.951 261.22,92.352 L261.26,88.648 C261.269,88.052 260.784,87.636 260.171,87.682 C259.768,87.716 259.371,87.742 259.049,87.742 C257.682,87.742 256.356,87.234 255.741,86.493 C255.165,85.833 255.068,84.777 255.068,83.413 L255.068,71.52 L261.217,71.501 C261.783,71.501 262.447,71.273 262.242,70.476 L261.08,66.97 Z M310.9,21.937 C311.525,21.937 312.004,21.451 312.004,20.844 L312.004,17.465 C312.004,16.849 311.525,16.363 310.9,16.363 L305.781,16.363 L305.781,10.2 C305.781,9.588 305.274,9.092 304.661,9.092 L300.735,9.092 C300.118,9.092 299.623,9.588 299.623,10.2 L299.623,16.363 L295.185,16.363 C294.233,16.363 293.92,16.816 294.076,17.465 C294.233,18.114 294.657,20.844 294.657,20.844 C294.782,21.327 295.152,21.937 295.765,21.937 L299.623,21.937 L299.623,33.538 C299.623,36.774 300.364,39.143 301.856,40.81 C303.715,42.904 306.379,44.025 309.603,44.025 C309.987,44.025 310.411,44.016 310.813,43.972 C311.426,43.942 311.926,43.367 311.933,42.768 L311.974,39.065 C311.984,38.468 311.497,38.053 310.885,38.099 C310.481,38.133 310.085,38.159 309.763,38.159 C308.396,38.159 307.069,37.651 306.455,36.91 C305.879,36.249 305.781,35.194 305.781,33.829 L305.781,21.937 L310.9,21.937 Z M201.05,86.26 L198.105,84.14 C197.617,83.785 196.953,83.891 196.525,84.35 C194.576,86.625 192.268,87.736 189.705,87.736 C184.828,87.736 181.399,84.324 181.399,79.478 C181.399,74.78 184.828,71.232 189.382,71.232 C192.425,71.232 194.588,72.935 195.895,74.507 C196.292,74.974 196.953,75.072 197.403,74.679 L200.271,72.263 C200.746,71.866 200.843,71.144 200.454,70.674 C197.666,67.264 193.594,65.379 189.382,65.379 C181.329,65.379 175.267,71.426 175.267,79.478 C175.267,87.521 181.475,93.571 189.705,93.571 C194.247,93.571 198.849,91.371 201.352,87.834 C201.715,87.334 201.54,86.615 201.05,86.26 L201.05,86.26 Z M135.443,74.137 C133.883,73.085 131.815,72.282 129.975,71.501 C126.425,70.003 123.288,68.773 123.288,65.956 C123.288,63.023 125.926,61.441 128.715,61.441 C130.645,61.441 132.574,62.098 134.431,63.286 C134.908,63.59 135.499,63.59 135.869,63.141 L138.105,60.37 C138.463,59.932 138.398,59.269 137.946,58.926 C135.015,56.674 131.863,55.641 128.498,55.641 C122.147,55.641 117.167,60.012 117.167,65.617 C117.167,69.025 118.766,71.798 121.931,73.893 C123.489,74.908 125.302,75.665 127.059,76.378 C130.742,77.897 133.952,79.341 133.952,82.868 C133.952,85.755 131.671,87.658 128.288,87.658 C124.719,87.658 122.124,85.803 120.155,83.855 C119.747,83.464 119.172,83.399 118.752,83.796 L116.113,86.416 C115.7,86.807 115.664,87.493 116.045,87.919 C119.408,91.672 123.813,93.571 128.56,93.571 C135.266,93.571 140.141,89.02 140.141,82.721 C140.141,79.157 138.681,76.279 135.443,74.137 L135.443,74.137 Z M219.268,43.464 L223.178,43.464 C223.793,43.464 224.288,42.974 224.288,42.352 L224.288,25.761 C225.741,23.341 228.471,21.654 230.976,21.654 C231.424,21.654 231.882,21.686 232.333,21.743 C232.928,21.832 233.402,21.509 233.402,20.887 L233.402,17.033 C233.402,16.419 233.003,15.867 232.497,15.837 C232.164,15.823 231.843,15.805 231.583,15.805 C228.196,15.805 225.628,17.161 224.127,18.679 L224.127,17.465 C224.127,16.849 223.625,16.363 223.015,16.363 L219.268,16.363 C218.644,16.363 218.149,16.849 218.149,17.465 L218.149,42.352 C218.149,42.974 218.644,43.464 219.268,43.464 L219.268,43.464 Z M118.278,43.464 L124.156,43.464 L128.059,43.464 L133.935,43.464 C134.557,43.464 135.047,42.974 135.047,42.352 L135.047,38.966 C135.047,38.346 134.557,37.847 133.935,37.847 L129.178,37.847 L129.178,11.878 L133.664,11.878 C134.264,11.878 134.761,11.378 134.761,10.766 L134.761,7.371 C134.761,6.747 134.264,6.262 133.664,6.262 L128.059,6.262 L124.156,6.262 L118.486,6.262 C117.861,6.262 117.354,6.747 117.354,7.371 L117.354,10.766 C117.354,11.378 117.861,11.878 118.486,11.878 L123.058,11.878 L123.058,37.847 L118.278,37.847 C117.667,37.847 117.167,38.346 117.167,38.966 L117.167,42.352 C117.167,42.974 117.667,43.464 118.278,43.464 L118.278,43.464 Z M146.157,42.352 L146.157,25.155 C147.518,23.525 149.289,21.654 152.731,21.654 C154.738,21.654 156.113,22.515 157.237,24.081 C158.09,25.244 158.718,26.383 158.718,29.923 L158.718,42.352 C158.718,42.974 159.222,43.464 159.829,43.464 L163.748,43.464 C164.361,43.464 164.865,42.974 164.865,42.352 L164.865,30.196 C164.865,25.825 164.047,22.953 162.195,20.601 C159.817,17.558 156.774,15.805 152.886,15.805 C149.299,15.805 147.388,17.315 145.992,18.379 L145.992,17.368 C145.992,16.812 145.49,16.363 144.891,16.363 L141.14,16.363 C140.516,16.363 140.027,16.849 140.027,17.465 L140.027,42.352 C140.027,42.974 140.516,43.464 141.14,43.464 L145.048,43.464 C145.666,43.464 146.157,42.974 146.157,42.352 L146.157,42.352 Z M165.654,79.477 C165.654,74.78 162.289,71.223 157.787,71.223 C153.32,71.223 149.946,74.78 149.946,79.477 C149.946,84.184 153.32,87.727 157.787,87.727 C162.289,87.727 165.654,84.184 165.654,79.477 L165.654,79.477 Z M171.798,79.477 C171.798,87.521 165.769,93.571 157.787,93.571 C149.814,93.571 143.799,87.521 143.799,79.477 C143.799,71.426 149.814,65.379 157.787,65.379 C165.769,65.379 171.798,71.426 171.798,79.477 L171.798,79.477 Z M182.066,44.025 C178.843,44.025 176.178,42.904 174.319,40.81 C172.827,39.143 172.086,36.774 172.086,33.538 L172.086,21.937 L168.228,21.937 C167.615,21.937 167.244,21.327 167.12,20.844 C167.12,20.844 166.695,18.114 166.539,17.465 C166.383,16.816 166.695,16.363 167.647,16.363 L172.086,16.363 L172.086,10.2 C172.086,9.588 172.58,9.092 173.198,9.092 L177.125,9.092 C177.737,9.092 178.244,9.588 178.244,10.2 L178.244,16.363 L184.312,16.363 C185.264,16.363 185.576,16.816 185.42,17.465 C185.264,18.114 184.84,20.844 184.84,20.844 C184.715,21.327 184.344,21.937 183.732,21.937 L178.244,21.937 L178.244,33.829 C178.244,35.194 178.342,36.249 178.917,36.91 C179.532,37.651 180.858,38.159 182.226,38.159 C182.548,38.159 182.945,38.133 183.347,38.099 C183.96,38.053 184.446,38.468 184.437,39.065 L184.396,42.768 C184.388,43.367 183.89,43.942 183.277,43.972 C182.873,44.016 182.45,44.025 182.066,44.025 L182.066,44.025 Z M65.012,65.348 L60.868,65.348 C60.107,65.348 59.533,64.733 59.578,63.974 C59.857,59.343 60.002,54.488 60.002,49.511 C60.002,48.82 59.999,48.132 59.993,47.446 C59.986,46.685 60.594,46.069 61.354,46.069 L65.486,46.069 C66.247,46.069 66.872,46.685 66.878,47.446 C66.884,48.132 66.887,48.82 66.887,49.511 C66.887,54.473 66.746,59.324 66.474,63.973 C66.429,64.733 65.772,65.348 65.012,65.348 L65.012,65.348 Z M58.438,76.377 C58.341,77.131 57.64,77.742 56.879,77.742 L36.316,77.742 C35.6,77.742 34.948,77.199 34.795,76.506 L33.857,72.21 C33.713,71.463 34.221,70.857 34.982,70.857 L57.671,70.857 C58.431,70.857 58.99,71.47 58.913,72.227 C58.768,73.642 58.61,75.027 58.438,76.377 L58.438,76.377 Z M31.53,88.22 C29.453,87.244 27.436,86.124 25.538,84.8 C24.291,83.93 22.926,82.002 22.5,80.542 C21.725,77.893 21.055,75.108 20.495,72.21 C20.351,71.463 20.86,70.857 21.62,70.857 L25.892,70.857 C26.653,70.857 27.385,71.462 27.54,72.207 C28.639,77.503 30.119,82.349 31.937,86.463 C32.117,86.871 32.304,87.285 32.503,87.698 C32.8,88.312 32.16,88.516 31.53,88.22 L31.53,88.22 Z M18.418,51.707 C18.406,51.021 18.4,50.332 18.4,49.64 C18.4,44.681 18.68,39.828 19.218,35.171 C19.305,34.415 20.001,33.804 20.761,33.804 L24.971,33.804 C25.731,33.804 26.263,34.414 26.169,35.169 C25.591,39.832 25.286,44.707 25.286,49.64 C25.286,50.33 25.293,51.019 25.305,51.706 C25.318,52.467 24.72,53.083 23.96,53.083 L19.824,53.083 C19.064,53.083 18.43,52.467 18.418,51.707 L18.418,51.707 Z M51.576,58.463 C52.337,58.463 52.931,59.078 52.898,59.838 C52.839,61.237 52.766,62.616 52.681,63.974 C52.634,64.733 51.974,65.348 51.214,65.348 L27.739,65.348 C26.978,65.348 26.277,64.737 26.184,63.983 C26.014,62.617 25.868,61.233 25.746,59.835 C25.68,59.078 26.251,58.463 27.011,58.463 L51.576,58.463 Z M32.676,35.179 C32.72,34.419 33.377,33.804 34.138,33.804 L38.282,33.804 C39.043,33.804 39.618,34.419 39.572,35.178 C39.293,39.809 39.148,44.663 39.148,49.64 C39.148,50.332 39.151,51.021 39.158,51.706 C39.164,52.467 38.556,53.083 37.795,53.083 L33.663,53.083 C32.903,53.083 32.277,52.467 32.271,51.706 C32.266,51.02 32.263,50.332 32.263,49.64 C32.263,44.679 32.404,39.827 32.676,35.179 L32.676,35.179 Z M40.237,26.925 C40.382,25.51 40.541,24.125 40.713,22.775 C40.809,22.021 41.51,21.41 42.27,21.41 L62.835,21.41 C63.55,21.41 64.202,21.953 64.355,22.645 L65.293,26.942 C65.437,27.689 64.928,28.295 64.168,28.295 L41.479,28.295 C40.719,28.295 40.16,27.682 40.237,26.925 L40.237,26.925 Z M67.62,10.932 C69.697,11.908 71.714,13.028 73.612,14.352 C74.86,15.222 76.224,17.15 76.65,18.609 C77.424,21.259 78.095,24.044 78.655,26.942 C78.799,27.689 78.291,28.295 77.53,28.295 L73.258,28.295 C72.498,28.295 71.765,27.69 71.611,26.945 C70.511,21.649 69.031,16.803 67.213,12.689 C67.033,12.281 66.847,11.867 66.646,11.454 C66.35,10.84 66.99,10.635 67.62,10.932 L67.62,10.932 Z M80.733,47.445 C80.743,48.132 80.75,48.82 80.75,49.511 C80.75,54.471 80.471,59.324 79.932,63.981 C79.845,64.737 79.149,65.348 78.389,65.348 L74.18,65.348 C73.419,65.348 72.887,64.738 72.981,63.983 C73.56,59.319 73.864,54.445 73.864,49.511 C73.864,48.821 73.858,48.133 73.845,47.446 C73.832,46.685 74.43,46.069 75.191,46.069 L79.326,46.069 C80.087,46.069 80.72,46.685 80.733,47.445 L80.733,47.445 Z M47.574,40.689 C46.813,40.689 46.219,40.073 46.251,39.313 C46.312,37.915 46.384,36.536 46.469,35.178 C46.516,34.419 47.176,33.804 47.936,33.804 L71.411,33.804 C72.172,33.804 72.873,34.415 72.966,35.169 C73.137,36.535 73.283,37.919 73.405,39.317 C73.471,40.074 72.899,40.689 72.139,40.689 L47.574,40.689 Z M65.831,72.227 C65.905,71.47 66.578,70.857 67.339,70.857 L94.361,70.857 C97.431,64.408 99.151,57.193 99.151,49.576 C99.151,46.542 98.877,43.573 98.355,40.689 L81.804,40.689 C81.043,40.689 80.385,40.074 80.324,39.316 C80.211,37.919 80.076,36.537 79.918,35.171 C79.83,34.415 80.368,33.804 81.129,33.804 L96.588,33.804 C89.999,14.157 71.441,-1.42108547e-14 49.575,-1.42108547e-14 C48.594,-1.42108547e-14 47.62,0.032 46.653,0.088 C45.348,2.288 43.863,6.018 42.533,12.04 C42.378,12.743 42.227,13.466 42.082,14.204 C41.935,14.951 41.208,15.557 40.448,15.557 L36.208,15.557 C35.447,15.557 34.935,14.95 35.073,14.202 C35.305,12.943 35.551,11.726 35.81,10.554 C36.603,6.961 37.503,3.861 38.515,1.24 C26.247,4.036 15.713,11.383 8.777,21.41 L32.571,21.41 C33.332,21.41 33.868,22.022 33.775,22.776 C33.611,24.13 33.458,25.514 33.319,26.925 C33.244,27.682 32.573,28.295 31.812,28.295 L4.789,28.295 C1.72,34.744 0,41.959 0,49.576 C0,52.61 0.273,55.579 0.795,58.463 L17.346,58.463 C18.107,58.463 18.765,59.078 18.826,59.836 C18.939,61.233 19.074,62.616 19.232,63.981 C19.32,64.737 18.782,65.348 18.021,65.348 L2.563,65.348 C9.151,84.995 27.709,99.152 49.575,99.152 C50.556,99.152 51.53,99.12 52.497,99.064 C53.802,96.863 55.287,93.133 56.617,87.112 C56.773,86.409 56.922,85.686 57.068,84.948 C57.214,84.201 57.941,83.595 58.702,83.595 L62.942,83.595 C63.703,83.595 64.215,84.202 64.077,84.95 C63.845,86.209 63.6,87.426 63.341,88.598 C62.547,92.191 61.646,95.291 60.636,97.912 C72.903,95.116 83.438,87.769 90.373,77.742 L66.579,77.742 C65.818,77.742 65.282,77.131 65.374,76.376 C65.54,75.022 65.692,73.638 65.831,72.227 L65.831,72.227 Z" id="Fill-1" fill="#EEF2EC" mask="url(#mask-2)"></path>
            </g>
        </g>
    </g>
</svg>