<?xml version="1.0" encoding="UTF-8"?>
<svg width="920px" height="111px" viewBox="0 0 920 111" version="1.1" xmlns="http://www.w3.org/2000/svg" xmlns:xlink="http://www.w3.org/1999/xlink">
    <!-- Generator: Sketch 40.3 (33839) - http://www.bohemiancoding.com/sketch -->
    <title>look-back</title>
    <desc>Created with Sketch.</desc>
    <defs>
        <polygon id="path-1" points="69.6 107.728 69.6 0.562 0.2145 0.562 0.2145 107.728 69.6 107.728"></polygon>
    </defs>
    <g id="Page-1" stroke="none" stroke-width="1" fill="none" fill-rule="evenodd">
        <g id="Artboard-6" transform="translate(-226.000000, -765.000000)">
            <g id="look-back" transform="translate(226.000000, 765.000000)">
                <path d="M31.5585,70.119 L56.8415,70.119 C59.9565,70.119 62.1565,67.067 61.1715,64.111 L61.1065,63.918 L48.7885,25.906 C47.4285,21.71 41.4985,21.687 40.1145,25.875 C37.2085,34.666 32.9175,47.4 27.2395,64.077 L27.2395,64.077 C26.2265,67.039 28.4275,70.119 31.5585,70.119 M75.1715,106.112 L67.8715,84.211 C67.2495,82.347 65.5055,81.09 63.5415,81.09 L24.7885,81.09 C22.8315,81.09 21.0935,82.336 20.4655,84.189 L13.0265,106.134 C12.3985,107.987 10.6595,109.233 8.7035,109.233 L4.5685,109.233 C1.4265,109.233 -0.7765,106.133 0.2585,103.166 L34.4405,5.129 C35.0795,3.295 36.8085,2.067 38.7505,2.067 L50.0555,2.067 C52.0055,2.067 53.7405,3.306 54.3725,5.151 L87.9735,103.189 C88.9885,106.151 86.7875,109.233 83.6555,109.233 L79.5015,109.233 C77.5365,109.233 75.7925,107.976 75.1715,106.112" id="Fill-1" fill="#2384C6"></path>
                <path d="M161.2276,97.6258 L197.7316,97.6258 C200.2526,97.6258 202.2956,99.6698 202.2956,102.1898 L202.2956,104.6688 C202.2956,107.1898 200.2526,109.2328 197.7316,109.2328 L148.3486,109.2328 C145.8276,109.2328 143.7846,107.1898 143.7846,104.6688 L143.7846,6.6308 C143.7846,4.1108 145.8276,2.0668 148.3486,2.0668 L152.0986,2.0668 C154.6196,2.0668 156.6636,4.1108 156.6636,6.6308 L156.6636,93.0618 C156.6636,95.5818 158.7066,97.6258 161.2276,97.6258" id="Fill-3" fill="#2384C6"></path>
                <path d="M227.0984,55.173 C227.0984,68.425 230.2514,78.919 236.5584,86.655 C242.8644,94.394 251.2664,98.262 261.7604,98.262 C272.6774,98.262 281.1314,94.446 287.1204,86.814 C293.1084,79.182 296.1044,68.636 296.1044,55.173 C296.1044,41.713 293.0834,31.164 287.0414,23.532 C280.9994,15.9 272.5174,12.084 261.6014,12.084 C250.7894,12.084 242.3354,15.927 236.2414,23.612 C230.1444,31.298 227.0984,41.817 227.0984,55.173 M213.5834,55.173 C213.5834,38.319 217.9014,24.911 226.5414,14.946 C235.1804,4.984 246.8664,0 261.6014,0 C276.6514,0 288.4454,4.956 296.9784,14.867 C305.5104,24.779 309.7784,38.215 309.7784,55.173 C309.7784,72.027 305.4584,85.463 296.8204,95.479 C288.1794,105.496 276.4934,110.505 261.7604,110.505 C247.2364,110.505 235.5774,105.472 226.7804,95.4 C217.9804,85.331 213.5834,71.923 213.5834,55.173" id="Fill-5" fill="#2384C6"></path>
                <path d="M336.9666,55.173 C336.9666,68.425 340.1196,78.919 346.4266,86.655 C352.7326,94.394 361.1346,98.262 371.6286,98.262 C382.5456,98.262 390.9996,94.446 396.9886,86.814 C402.9766,79.182 405.9726,68.636 405.9726,55.173 C405.9726,41.713 402.9516,31.164 396.9096,23.532 C390.8676,15.9 382.3856,12.084 371.4696,12.084 C360.6576,12.084 352.2036,15.927 346.1096,23.612 C340.0126,31.298 336.9666,41.817 336.9666,55.173 M323.4516,55.173 C323.4516,38.319 327.7696,24.911 336.4096,14.946 C345.0486,4.984 356.7346,0 371.4696,0 C386.5196,0 398.3136,4.956 406.8466,14.867 C415.3786,24.779 419.6466,38.215 419.6466,55.173 C419.6466,72.027 415.3266,85.463 406.6886,95.479 C398.0476,105.496 386.3616,110.505 371.6286,110.505 C357.1046,110.505 345.4456,105.472 336.6486,95.4 C327.8486,85.331 323.4516,71.923 323.4516,55.173" id="Fill-7" fill="#2384C6"></path>
                <path d="M471.5113,59.059 L506.2843,101.788 C508.7113,104.77 506.5893,109.233 502.7443,109.233 L497.8443,109.233 C496.4563,109.233 495.1443,108.602 494.2773,107.517 L455.5643,59.053 C454.2643,57.425 454.2313,55.122 455.4863,53.458 L492.8483,3.884 C493.7103,2.74 495.0603,2.067 496.4933,2.067 L500.9613,2.067 C504.7273,2.067 506.8733,6.371 504.6063,9.378 L471.4063,53.431 C470.1423,55.108 470.1863,57.43 471.5113,59.059 M437.9313,104.669 L437.9313,6.631 C437.9313,4.111 439.9753,2.067 442.4953,2.067 L446.2463,2.067 C448.7663,2.067 450.8103,4.111 450.8103,6.631 L450.8103,104.669 C450.8103,107.19 448.7663,109.233 446.2463,109.233 L442.4953,109.233 C439.9753,109.233 437.9313,107.19 437.9313,104.669" id="Fill-9" fill="#2384C6"></path>
                <path d="M577.8494,93.6977 C577.8494,96.2187 579.8934,98.2617 582.4134,98.2617 L602.1764,98.2617 C608.9584,98.2617 614.1804,96.6997 617.8374,93.5717 C621.4954,90.4457 623.3234,85.8597 623.3234,79.8177 C623.3234,73.7757 621.2814,69.0607 617.2024,65.6667 C613.1204,62.2757 607.3164,60.5787 599.7914,60.5787 L582.4134,60.5787 C579.8934,60.5787 577.8494,62.6227 577.8494,65.1437 L577.8494,93.6977 Z M577.8494,17.6027 L577.8494,45.0437 C577.8494,47.5647 579.8934,49.6077 582.4134,49.6077 L595.0214,49.6077 C603.6074,49.6077 609.9674,47.8067 614.1014,44.2017 C618.2354,40.5997 620.3024,35.9337 620.3024,30.2097 C620.3024,25.2287 618.3674,21.1217 614.4984,17.8877 C610.6274,14.6557 604.8794,13.0377 597.2464,13.0377 L582.4134,13.0377 C579.8934,13.0377 577.8494,15.0817 577.8494,17.6027 L577.8494,17.6027 Z M564.9704,6.6317 C564.9704,4.1107 567.0144,2.0667 569.5344,2.0667 L597.2464,2.0667 C608.2704,2.0667 617.0944,4.6107 623.7204,9.6987 C630.3444,14.7867 633.6584,21.6237 633.6584,30.2097 C633.6584,36.3587 631.9344,41.6857 628.4914,46.1897 C627.2064,47.8697 625.7844,49.3177 624.2274,50.5337 C621.7074,52.5007 621.8144,56.4047 624.5624,58.0377 C626.6674,59.2867 628.6124,60.8497 630.3994,62.7257 C634.5844,67.1257 636.6794,73.0877 636.6794,80.6127 C636.6794,89.1987 633.8424,96.1157 628.1724,101.3627 C622.5004,106.6097 614.4714,109.2327 604.0844,109.2327 L569.5344,109.2327 C567.0144,109.2327 564.9704,107.1897 564.9704,104.6687 L564.9704,6.6317 Z" id="Fill-11" fill="#2384C6"></path>
                <path d="M681.0653,70.119 L706.3483,70.119 C709.4633,70.119 711.6633,67.067 710.6783,64.112 L710.6143,63.918 L698.2953,25.905 C696.9353,21.709 691.0053,21.686 689.6213,25.874 C686.7153,34.666 682.4243,47.4 676.7473,64.077 L676.7473,64.077 C675.7333,67.039 677.9343,70.119 681.0653,70.119 M724.6783,106.112 L717.3783,84.211 C716.7563,82.347 715.0123,81.09 713.0483,81.09 L674.2953,81.09 C672.3393,81.09 670.6003,82.336 669.9723,84.189 L662.5333,106.134 C661.9053,107.987 660.1673,109.233 658.2113,109.233 L654.0753,109.233 C650.9333,109.233 648.7313,106.133 649.7653,103.166 L683.9473,5.129 C684.5863,3.295 686.3153,2.067 688.2573,2.067 L699.5623,2.067 C701.5133,2.067 703.2473,3.306 703.8803,5.152 L737.4803,103.189 C738.4953,106.151 736.2943,109.233 733.1623,109.233 L729.0083,109.233 C727.0433,109.233 725.2993,107.976 724.6783,106.112" id="Fill-13" fill="#2384C6"></path>
                <path d="M832.407,9.195 L832.407,12.342 C832.407,15.624 829.053,17.805 826.029,16.527 C823.839,15.601 821.778,14.862 819.846,14.31 C816.135,13.252 811.261,12.72 805.219,12.72 C793.664,12.72 784.044,16.643 776.36,24.486 C768.674,32.332 764.833,42.56 764.833,55.173 C764.833,68.318 768.648,78.812 776.28,86.655 C783.912,94.501 794.034,98.421 806.649,98.421 C813.916,98.421 820.426,97.043 826.18,94.285 C829.215,92.831 832.725,95.021 832.725,98.387 L832.725,101.269 C832.725,102.904 831.867,104.438 830.438,105.232 C824.115,108.748 815.868,110.505 805.695,110.505 C789.582,110.505 776.492,105.551 766.423,95.639 C756.35,85.728 751.317,72.241 751.317,55.173 C751.317,39.062 756.43,25.944 766.661,15.821 C776.889,5.699 789.741,0.636 805.219,0.636 C815.003,0.636 823.19,2.111 829.78,5.06 C831.397,5.784 832.407,7.424 832.407,9.195" id="Fill-15" fill="#2384C6"></path>
                <g id="Group-19" transform="translate(850.000000, 1.505000)">
                    <mask id="mask-2" fill="white">
                        <use xlink:href="#path-1"></use>
                    </mask>
                    <g id="Clip-18"></g>
                    <path d="M33.7945,57.554 L68.5675,100.283 C70.9945,103.265 68.8725,107.728 65.0275,107.728 L60.1275,107.728 C58.7395,107.728 57.4275,107.097 56.5605,106.012 L17.8485,57.548 C16.5475,55.92 16.5145,53.617 17.7695,51.953 L55.1315,2.379 C55.9935,1.235 57.3435,0.562 58.7765,0.562 L63.2445,0.562 C67.0105,0.562 69.1565,4.866 66.8895,7.873 L33.6895,51.926 C32.4255,53.603 32.4695,55.925 33.7945,57.554 M0.2145,103.164 L0.2145,5.126 C0.2145,2.606 2.2585,0.562 4.7785,0.562 L8.5295,0.562 C11.0495,0.562 13.0935,2.606 13.0935,5.126 L13.0935,103.164 C13.0935,105.685 11.0495,107.728 8.5295,107.728 L4.7785,107.728 C2.2585,107.728 0.2145,105.685 0.2145,103.164" id="Fill-17" fill="#2384C6" mask="url(#mask-2)"></path>
                </g>
            </g>
        </g>
    </g>
</svg>