<?xml version="1.0" encoding="UTF-8"?>
<svg width="349px" height="176px" viewBox="0 0 349 176" version="1.1" xmlns="http://www.w3.org/2000/svg" xmlns:xlink="http://www.w3.org/1999/xlink">
    <!-- Generator: Sketch 40.3 (33839) - http://www.bohemiancoding.com/sketch -->
    <title>map-plaine</title>
    <desc>Created with Sketch.</desc>
    <defs></defs>
    <g id="Page-1" stroke="none" stroke-width="1" fill="none" fill-rule="evenodd">
        <g id="Artboard-8" transform="translate(-171.000000, -652.000000)" fill="#E9C056">
            <g id="map-plaine" transform="translate(171.000000, 652.000000)">
                <path d="M169.4349,32.2749 C170.6619,31.9309 171.7919,31.6059 172.9279,31.3019 C173.1869,31.2329 173.4659,31.2119 173.7359,31.2079 C174.9829,31.1879 175.5539,30.7249 175.8029,29.5069 C175.8519,29.2709 175.8979,29.0339 175.9499,28.7979 C176.0999,28.1079 176.4889,27.6659 177.2169,27.5609 C177.6189,27.5029 177.9749,27.3729 178.1569,26.9509 C178.4959,26.1639 178.2459,25.5259 177.4419,25.1849 C177.3869,25.1609 177.3279,25.1459 177.2689,25.1299 C175.7959,24.7279 175.3969,23.5819 175.2499,22.2459 C175.1779,21.5849 175.5009,21.1709 176.0049,20.8089 C176.7139,20.2989 177.3919,19.7449 178.0919,19.2219 C178.2369,19.1139 178.4189,19.0579 178.6239,18.9589 C177.5369,18.1769 176.1059,18.3049 175.6579,19.2209 C175.0729,20.4159 174.0489,20.9829 172.9829,21.5569 C171.9219,22.1279 171.8149,23.1549 172.7209,23.9569 C173.0989,24.2929 173.4339,24.6789 173.7699,25.0229 C173.4729,25.8649 173.0369,26.4369 172.2439,26.6819 C171.8729,26.7969 171.7669,27.0899 171.7199,27.4509 C171.6469,28.0199 171.5429,28.5859 171.4289,29.1479 C171.3289,29.6379 171.0949,29.9549 170.5069,29.9389 C170.2279,29.9309 169.8909,30.0519 169.6719,30.2269 C168.9339,30.8179 168.0209,30.7759 167.1779,30.9739 C167.0049,31.0139 166.6969,30.8599 166.5869,30.7019 C166.4219,30.4639 166.4939,30.1759 166.7709,29.9969 C166.9989,29.8489 167.2279,29.7009 167.4579,29.5559 C167.7959,29.3429 167.9319,29.0239 167.6799,28.7129 C167.0369,27.9199 166.5289,27.0109 165.6719,26.3929 C165.3669,26.1729 165.1259,26.1849 164.8529,26.3809 C164.6069,26.5579 164.3699,26.7469 164.1259,26.9259 C163.6149,27.3009 163.0349,27.4499 162.4119,27.4059 C161.7089,27.3549 161.2039,26.8709 161.0609,26.1739 C160.9949,25.8499 160.8679,25.5369 160.8059,25.2119 C160.6869,24.5909 160.5929,23.9659 160.4919,23.3429 C160.3739,22.6169 160.7649,22.2739 161.3779,21.9649 C162.8539,21.2189 164.3009,20.4119 165.7359,19.5889 C166.0919,19.3849 166.3679,19.0349 166.6609,18.7329 C167.2699,18.1039 167.8609,17.4589 168.4689,16.8289 C168.7409,16.5479 169.0529,16.3049 169.3169,16.0169 C170.3189,14.9209 171.5189,14.0589 172.6869,13.1589 C172.8169,13.0589 173.0239,13.0489 173.1989,13.0199 C174.1049,12.8689 175.0739,12.9749 175.8369,12.2589 C176.0019,12.1049 176.3559,12.0999 176.6189,12.1099 C178.4309,12.1779 180.2469,12.2089 182.0499,12.3789 C182.7749,12.4469 183.5319,12.7309 184.1659,13.1039 C185.3519,13.8009 186.6839,13.9229 187.9549,14.2899 C188.9099,14.5669 189.8509,14.8949 190.8059,15.1739 C191.6729,15.4269 192.5449,15.6629 193.4249,15.8639 C193.5949,15.9029 193.8319,15.7809 193.9999,15.6729 C194.2519,15.5099 194.4629,15.2849 194.7029,15.1019 C195.3449,14.6119 196.0969,14.5539 196.7009,15.0539 C197.3039,15.5519 197.9209,15.6299 198.6489,15.4529 C199.5599,15.2309 200.4749,15.0669 201.3059,14.5759 C202.0839,14.1169 202.9529,14.3079 203.7949,14.3949 C205.1359,14.5339 206.4349,14.4639 207.6299,13.7219 C208.1449,13.4009 208.7159,13.1969 209.3499,13.2359 C209.6819,13.2569 210.0169,13.2239 210.3489,13.2419 C211.1179,13.2839 211.6769,12.9849 212.0919,12.3229 C212.3269,11.9479 212.6739,11.6419 213.0559,11.2079 C213.0559,11.1579 213.0679,10.9779 213.0529,10.7999 C213.0179,10.3479 213.2859,10.1289 213.6639,10.0199 C214.6289,9.7409 215.5959,9.6679 216.4489,10.3049 C216.9669,10.6919 217.5019,10.6979 218.0849,10.6079 C218.8289,10.4919 219.5739,10.3859 220.3199,10.2859 C220.9849,10.1969 221.6199,10.1209 222.0419,9.4569 C222.1859,9.2309 222.6039,9.1079 222.9119,9.0719 C224.0059,8.9469 224.9729,8.6009 225.9549,8.0509 C226.8429,7.5529 227.8119,7.0599 228.9129,6.9819 C229.7529,6.9229 230.5749,6.6409 231.4149,6.5619 C232.6589,6.4449 233.8109,6.1709 234.9349,5.5539 C235.8359,5.0589 236.8929,4.9979 237.9259,5.4409 C238.3589,5.6269 238.8649,5.6439 239.3379,5.7349 C239.3969,5.7469 239.4639,5.7269 239.5189,5.7459 C241.0309,6.2719 242.6399,6.0329 244.1799,6.3349 C245.3239,6.5589 246.2899,7.0779 246.8929,8.1279 C247.2919,8.8239 247.9239,9.1099 248.6889,9.1809 C249.3199,9.2389 249.9509,9.3119 250.5829,9.3589 C250.8829,9.3809 251.2079,9.4279 251.4819,9.3399 C252.8429,8.9029 254.2449,8.9639 255.6269,9.0379 C257.4649,9.1359 259.2929,9.4749 261.1289,9.5189 C262.5679,9.5529 263.7419,10.0719 264.9369,10.7699 C265.5989,11.1559 266.4109,11.4549 267.1609,11.4679 C267.9069,11.4799 268.7249,11.2059 269.3949,10.8439 C270.6349,10.1739 271.8659,9.9809 273.2439,10.2709 C274.0639,10.4439 274.9309,10.3839 275.7739,10.4659 C276.8839,10.5739 278.0049,10.6479 279.0949,10.8669 C280.2729,11.1039 281.4379,11.4399 282.5749,11.8299 C283.4099,12.1159 284.2469,12.1799 285.0809,12.0539 C286.4859,11.8399 287.8509,11.9439 289.2189,12.2849 C289.9469,12.4659 290.6519,12.6029 291.3099,13.0589 C291.7389,13.3559 292.4089,13.3709 292.9749,13.3899 C294.3969,13.4369 295.8219,13.4179 297.2459,13.4169 C297.5179,13.4169 297.8029,13.4229 298.0589,13.3479 C299.7299,12.8579 301.4149,13.0039 303.0989,13.2159 C304.9579,13.4509 306.8149,13.7039 308.6689,13.9699 C309.6249,14.1079 310.5719,14.3039 311.5269,14.4519 C312.9999,14.6799 314.4309,15.0729 315.7739,15.7039 C317.0089,16.2849 318.3279,16.4269 319.6349,16.6219 C320.6479,16.7729 321.5619,17.1539 322.4429,17.6149 C322.7959,17.7989 323.1039,18.1529 323.3159,18.4999 C323.6619,19.0639 323.3039,20.0619 322.4539,19.9659 C322.0939,19.9249 321.7129,19.9739 321.3739,19.8749 C320.2729,19.5509 319.1749,19.2069 318.0969,18.8139 C317.4359,18.5719 316.9019,18.7759 316.4019,19.1449 C315.9759,19.4599 315.9879,19.9159 316.4549,20.1689 C316.9809,20.4539 317.5649,20.6309 318.1189,20.8679 C318.4459,21.0079 318.7999,21.1249 319.0739,21.3379 C319.3769,21.5739 319.3239,21.8869 318.9779,22.0619 C318.7429,22.1799 318.4599,22.2709 318.2009,22.2629 C317.3409,22.2379 316.6869,22.6359 316.1099,23.2039 C315.7869,23.5219 315.4959,23.8719 315.1969,24.2119 C314.6309,24.8559 313.9319,25.1679 313.0859,24.9479 C312.0959,24.6889 311.4259,25.3659 310.6819,25.7559 C310.3199,25.9459 310.4189,26.4639 310.6389,26.8209 C310.7959,27.0769 311.0129,27.2959 311.2059,27.5299 C311.7979,28.2489 312.4819,28.9059 312.7569,29.8389 C312.7729,29.8949 312.8099,29.9559 312.8559,29.9889 C314.1609,30.9339 313.8439,32.2949 313.7269,33.5689 C313.6639,34.2549 313.4209,34.9249 313.2419,35.5979 C313.0869,36.1819 312.6659,36.3619 312.2499,35.9349 C311.1949,34.8509 309.7739,34.1879 308.8809,32.9109 C308.5409,32.4259 308.0559,32.0129 307.5649,31.6709 C306.6439,31.0299 306.0099,30.1429 305.3689,29.2679 C304.7159,28.3759 304.8229,27.4089 305.2769,26.4419 C305.4919,25.9819 305.6669,25.4969 305.7989,25.0069 C305.9469,24.4549 305.7729,24.2129 305.2399,24.1209 C305.0929,24.0949 304.9379,24.1099 304.7869,24.1079 C304.1089,24.0979 303.5039,23.9509 302.9819,23.4509 C302.4599,22.9519 301.7599,22.9229 301.0979,23.0589 C300.4039,23.2019 300.1609,23.8769 300.5419,24.4789 C300.7019,24.7329 300.9389,24.9399 301.0929,25.1959 C301.3879,25.6849 301.2839,26.0909 300.7539,26.1679 C299.7019,26.3189 298.6129,26.6339 297.6069,25.9389 C297.4649,25.8409 297.2659,25.7739 297.0949,25.7769 C295.8919,25.8039 294.6889,25.8579 293.4859,25.8929 C293.1289,25.9029 292.7709,25.8809 292.4129,25.8689 C291.9619,25.8539 291.5099,25.8039 291.0599,25.8229 C290.2309,25.8579 289.6799,26.2599 289.3449,27.0549 C288.9339,28.0299 288.5839,29.0139 288.3819,30.0519 C288.3079,30.4319 288.4299,30.6919 288.7739,30.8749 C289.3349,31.1719 289.8829,31.4939 290.4439,31.7899 C290.5999,31.8719 290.8049,31.9749 290.9549,31.9379 C292.1019,31.6549 293.2519,32.1209 294.3739,31.9399 C295.4749,31.7629 296.1639,32.1909 296.7079,33.0529 C296.7559,33.1299 296.8019,33.2329 296.8749,33.2649 C297.8689,33.7039 298.2539,34.7489 299.0229,35.4129 C299.2489,35.6089 299.4539,35.8449 299.6149,36.0969 C300.0459,36.7679 300.4929,37.3919 301.3059,37.6669 C301.5379,37.7459 301.7699,37.9879 301.8859,38.2149 C302.2289,38.8839 302.5079,39.5859 302.8239,40.2689 C302.9879,40.6239 303.1659,40.9739 303.3589,41.3129 C303.6599,41.8459 303.6609,42.1759 303.3309,42.4479 C302.9449,42.7659 302.3849,42.7479 302.0079,42.3739 C301.8619,42.2289 301.7689,42.0289 301.6599,41.8489 C301.2539,41.1759 300.8529,40.4999 300.4479,39.8259 C300.4009,39.7489 300.3479,39.6719 300.2819,39.6109 C299.4469,38.8439 298.8729,38.7639 298.5129,39.9569 C298.3479,40.5029 298.2209,41.0789 298.2039,41.6459 C298.1849,42.2979 298.0269,42.8899 297.8099,43.4939 C297.5969,44.0889 297.4589,44.7129 297.3129,45.3299 C296.9949,46.6789 296.6069,47.0039 295.2669,47.0069 C294.4209,47.0089 294.0649,47.2489 293.7639,48.0359 C293.6659,48.2899 293.5329,48.5449 293.5059,48.8079 C293.4449,49.3999 293.1119,49.8019 292.7069,50.1859 C292.0919,50.7699 292.0669,51.1019 292.7679,51.5379 C293.7159,52.1269 294.4259,52.9289 295.1519,53.7439 C295.7789,54.4469 296.0879,55.2889 296.4019,56.1409 C296.5229,56.4669 296.4609,56.8169 296.1559,56.9279 C295.3169,57.2329 294.5499,57.7809 293.5189,57.7959 C293.3199,57.3519 293.0309,56.9349 292.9479,56.4799 C292.6839,55.0389 291.7069,54.1529 290.6079,53.3839 C290.0639,53.0039 289.6759,52.6599 289.5379,51.9429 C289.3229,50.8249 287.8359,50.4649 286.8969,51.2309 C286.6629,51.4219 286.4749,51.6739 286.2279,51.8419 C285.9399,52.0389 285.6349,52.0249 285.4869,51.6479 C285.3579,51.3199 285.2429,50.9799 285.1749,50.6339 C285.0739,50.1159 284.5669,49.8369 284.1029,50.0799 C283.4699,50.4109 283.0649,51.2639 283.3639,51.9219 C283.5909,52.4229 283.9719,52.8809 284.3739,53.2639 C284.5329,53.4149 284.9609,53.3929 285.2189,53.3079 C285.6269,53.1729 285.9719,53.2239 286.3609,53.3559 C286.7549,53.4889 287.1779,53.5489 287.5929,53.6059 C287.9159,53.6499 288.2229,53.7199 288.2549,54.0919 C288.2859,54.4699 287.9929,54.6329 287.6719,54.6549 C286.8549,54.7119 286.5929,55.3589 286.2889,55.9399 C286.2079,56.0939 286.2399,56.3589 286.3149,56.5309 C286.4219,56.7739 286.6149,56.9799 286.7759,57.1979 C287.3489,57.9739 287.9259,58.7459 288.4969,59.5229 C288.6579,59.7409 288.7589,60.0389 288.9679,60.1819 C290.1869,61.0149 290.4899,62.3599 290.7749,63.6339 C290.9409,64.3769 290.8999,65.2219 290.5869,66.0219 C290.1939,67.0269 289.9459,68.0869 289.6359,69.1239 C289.6009,69.2389 289.6019,69.3779 289.5359,69.4689 C288.8979,70.3389 288.3969,71.2929 287.5509,72.0329 C286.8949,72.6069 286.1579,72.9379 285.4179,73.3299 C284.7089,73.7049 284.0909,74.2489 283.3999,74.6629 C282.5199,75.1889 281.6019,75.6529 280.7089,76.1579 C280.0569,76.5269 279.4919,76.3329 278.9419,75.9399 C278.5959,75.6949 278.2619,75.4259 277.8909,75.2259 C277.7049,75.1259 277.3999,75.0609 277.2299,75.1449 C276.2419,75.6349 275.6799,76.4949 275.5089,77.5479 C275.4499,77.9089 275.6619,78.3979 275.9039,78.7059 C276.4999,79.4639 277.1979,80.1409 277.8329,80.8699 C278.4069,81.5299 278.9519,82.2159 279.5089,82.8919 C279.5469,82.9379 279.5889,82.9879 279.6069,83.0439 C280.0379,84.4469 280.7109,85.7989 280.4899,87.3369 C280.3809,88.0939 279.9109,88.6359 279.3039,88.9709 C278.2119,89.5729 277.5009,90.5479 276.6659,91.4059 C276.5399,91.5349 276.4189,91.6749 276.2719,91.7769 C275.8759,92.0539 275.6519,92.0269 275.3469,91.6469 C275.1589,91.4119 275.0019,91.1499 274.8509,90.8899 C274.3219,89.9829 273.6049,89.2079 273.1309,88.2529 C272.8449,87.6769 272.3349,87.1939 271.8639,86.7319 C271.3969,86.2749 270.3929,86.4189 270.0179,86.9939 C269.4649,87.8429 269.1669,88.7959 269.1069,89.8109 C269.0879,90.1179 269.1379,90.4259 269.5159,90.5299 C269.9249,90.6419 270.0359,90.9719 270.1499,91.3369 C270.4739,92.3709 271.0279,93.2309 271.9599,93.8589 C272.9299,94.5129 273.6049,95.4559 274.1449,96.4849 C274.2669,96.7179 274.3599,96.9999 274.3579,97.2589 C274.3529,98.2489 274.5699,99.1709 274.9949,100.0659 C275.1619,100.4159 275.4929,100.8549 275.0379,101.2219 C274.6019,101.5729 274.2689,101.1609 273.8949,100.9909 C272.0139,100.1359 271.2239,98.4389 270.5319,96.6679 C269.9859,95.2699 269.1979,94.0349 268.1809,92.9319 C267.9929,92.7279 267.8729,92.4159 267.8259,92.1359 C267.6449,91.0639 267.9699,89.9989 267.8869,88.9059 C267.8369,88.2459 267.9289,87.5489 267.8469,86.8549 C267.7439,85.9859 267.3599,85.2409 267.0089,84.4719 C266.7949,84.0049 266.5229,83.5499 266.3979,83.0589 C266.0569,81.7109 265.1569,81.4839 264.0429,82.3349 C263.9239,82.4259 263.8059,82.5159 263.7039,82.5949 C263.3649,82.4759 263.0649,82.3369 262.7509,82.2699 C262.3339,82.1809 262.1639,81.9269 262.2619,81.5509 C262.5919,80.2849 261.9129,79.2679 261.4999,78.1729 C261.2039,77.3869 260.4199,77.0699 259.9979,76.4179 C259.6229,75.8379 259.1839,75.2989 258.8119,74.7169 C258.3319,73.9659 258.1679,73.8939 257.2519,74.0839 C256.5719,74.2249 255.8739,74.2849 255.2029,74.4569 C254.7469,74.5739 254.3089,74.7939 253.8969,75.0269 C253.7429,75.1129 253.5979,75.3639 253.5939,75.5419 C253.5769,76.4089 252.9769,76.8399 252.3409,77.1829 C251.8119,77.4669 251.4719,77.8819 251.0859,78.3129 C250.4269,79.0469 250.0429,80.0339 249.1039,80.5189 C248.9799,80.5829 248.9129,80.7489 248.8089,80.8579 C248.3979,81.2899 248.0139,81.7549 247.5619,82.1399 C246.9639,82.6489 246.5969,83.1829 246.8139,84.0239 C247.1419,85.2939 246.7549,86.5489 246.6449,87.8089 C246.6319,87.9589 246.5419,88.1109 246.5609,88.2519 C246.7509,89.6899 245.9099,90.5839 244.9289,91.4149 C244.6999,91.6099 244.5209,91.8639 244.2909,92.0579 C243.8659,92.4149 243.4639,92.4029 243.0899,91.9999 C242.8659,91.7589 242.6559,91.4829 242.5199,91.1859 C241.8539,89.7319 241.2089,88.2679 240.5709,86.8019 C240.4019,86.4139 240.3189,85.9889 240.1379,85.6079 C239.7619,84.8199 239.2759,84.0779 238.9639,83.2669 C238.3149,81.5809 237.4469,79.9609 237.3579,78.0919 C237.3319,77.5289 237.1569,76.9719 237.0359,76.4149 C236.8989,75.7889 236.4529,75.5149 235.8269,75.6609 C235.6499,75.7019 235.4719,75.7489 235.3039,75.8139 C234.8679,75.9829 234.5649,75.8219 234.2659,75.4939 C233.9019,75.0969 233.4669,74.7649 233.0979,74.3729 C232.8569,74.1169 232.6159,73.8289 232.4859,73.5099 C232.2599,72.9599 231.9599,72.4689 231.4739,72.1479 C230.7029,71.6379 230.1479,70.9339 229.5449,70.2599 C229.3299,70.0189 228.9439,69.8459 228.6179,69.8109 C228.1459,69.7589 227.6479,69.8109 227.1779,69.9049 C225.5549,70.2269 223.9379,70.2829 222.3129,69.9319 C221.4259,69.7409 220.5359,69.5549 219.6409,69.4109 C219.0599,69.3179 218.7119,69.0199 218.5509,68.4679 C218.5089,68.3239 218.4489,68.1809 218.3779,68.0479 C218.1369,67.5969 217.9959,67.5629 217.5109,67.7709 C217.1519,67.9249 216.7869,68.0709 216.4139,68.1849 C216.2179,68.2449 215.9689,68.3029 215.7959,68.2329 C214.9589,67.8969 214.1329,67.5289 213.3169,67.1449 C213.0469,67.0169 212.8399,66.7299 212.5649,66.6459 C211.8209,66.4209 211.5909,65.8709 211.3629,65.1989 C211.0789,64.3639 210.6289,63.5849 209.5799,63.4819 C208.8119,63.4069 208.2329,64.0819 208.5059,64.8089 C208.9789,66.0699 209.8359,67.0099 211.0309,67.6419 C212.4829,68.4099 212.8259,69.0909 212.5989,70.7279 C212.8869,71.1609 213.3589,71.0319 213.7589,71.0659 C214.7719,71.1529 215.6539,70.9789 216.2729,70.0029 C216.7039,69.3219 217.7049,69.4039 218.2079,70.0639 C218.3729,70.2799 218.5139,70.5139 218.6639,70.7419 C219.0059,71.2599 219.3589,71.7019 220.1059,71.6189 C220.3499,71.5919 220.6869,71.8119 220.8769,72.0159 C221.2859,72.4579 221.6619,72.9419 221.9799,73.4539 C222.0999,73.6469 222.1119,74.0019 222.0179,74.2139 C221.6879,74.9559 221.2919,75.6679 220.9169,76.3889 C220.7789,76.6559 220.5569,76.9039 220.5019,77.1859 C220.2259,78.5829 219.1209,79.2059 218.0949,79.9559 C217.1369,80.6559 216.0589,81.0879 215.0249,81.6239 C214.6889,81.7989 214.3409,82.0889 214.1719,82.4149 C213.8109,83.1129 213.2029,83.3579 212.5339,83.5939 C211.8549,83.8339 211.1969,84.1349 210.5329,84.4179 C210.3679,84.4889 210.2269,84.6159 210.0609,84.6829 C208.7199,85.2209 207.3739,85.7489 206.0319,86.2839 C205.6539,86.4339 205.2819,86.3879 205.0249,86.1009 C204.6699,85.7019 204.3539,85.2599 204.0749,84.8039 C203.8259,84.3969 203.6299,83.9529 203.4459,83.5109 C203.1339,82.7589 202.8719,81.9859 202.5469,81.2399 C202.3069,80.6909 201.9999,80.1709 201.7229,79.6379 C201.5989,79.3999 201.4349,79.1739 201.3579,78.9209 C201.0829,78.0149 200.5519,77.2649 199.7829,76.7699 C199.0529,76.2999 198.6989,75.6699 198.5049,74.8779 C198.3389,74.2049 198.2339,73.4959 197.9339,72.8859 C197.6489,72.3069 197.1459,71.8369 196.7409,71.3169 C196.5409,71.0609 196.3239,70.8149 196.1539,70.5399 C195.8049,69.9759 195.5279,69.3629 195.1409,68.8299 C194.3719,67.7719 193.6789,66.6829 193.2249,65.4489 C192.9439,64.6869 192.6029,63.9479 192.3209,63.1879 C192.0909,62.5669 192.1139,61.9589 192.4359,61.3469 C192.6149,61.0069 192.6639,60.5989 192.7819,60.2249 C193.0169,59.4789 193.3419,58.7499 193.4759,57.9869 C193.6059,57.2559 193.6409,56.4759 193.5329,55.7449 C193.4299,55.0519 192.5329,54.8069 191.8169,55.1989 C191.4469,55.4009 191.1239,55.7139 190.6589,55.6279 C190.3409,55.5689 190.0249,55.4859 189.7159,55.3909 C189.3129,55.2679 188.9149,55.1279 188.5199,54.9819 C188.2109,54.8669 187.9499,54.8769 187.6839,55.1129 C187.3559,55.4029 187.0079,55.3619 186.5899,55.2049 C185.9489,54.9639 185.2689,54.8139 184.5949,54.6789 C184.0439,54.5689 183.6569,54.2319 183.3779,53.8129 C182.9749,53.2059 182.6839,52.5369 182.7209,51.7709 C182.7369,51.4389 182.7159,51.1039 182.6919,50.7719 C182.6309,49.9019 181.8739,49.2809 181.0409,49.4089 C180.6959,49.4619 180.1399,50.2319 180.1449,50.6609 C180.1469,50.7809 180.1509,50.9129 180.1999,51.0179 C180.7639,52.2309 180.3109,53.3509 179.9169,54.4889 C179.7679,54.9199 179.5179,55.0699 179.0979,54.9789 C178.3959,54.8269 177.7409,54.6549 177.7109,53.7149 C177.7009,53.4139 177.4789,53.1009 177.3009,52.8279 C176.7209,51.9479 176.0989,51.0939 175.5349,50.2039 C175.4029,49.9959 175.4019,49.6849 175.3979,49.4199 C175.3799,48.2959 174.9209,47.4479 173.9169,46.9049 C173.7069,46.7919 173.5379,46.6059 173.3349,46.4779 C173.0119,46.2739 172.6709,46.0979 172.3449,45.8979 C171.9379,45.6479 171.4139,45.4719 171.1629,45.1099 C170.7299,44.4859 170.1469,44.0839 169.5669,43.6539 C169.1069,43.3119 168.7719,43.2899 168.4299,43.5619 C168.1169,43.8119 168.0309,44.3999 168.2929,44.8089 C168.4369,45.0339 168.6679,45.2019 168.8389,45.4119 C169.0639,45.6879 169.3219,45.9549 169.4709,46.2709 C169.7949,46.9619 170.4049,47.3389 171.0439,47.5449 C171.4959,47.6909 171.8519,47.9079 172.2199,48.1649 C172.8649,48.6149 173.5459,49.0159 174.1709,49.4909 C174.6289,49.8399 174.6079,49.9439 174.2799,50.6439 C174.0519,50.5129 173.8429,50.3359 173.6049,50.2739 C173.3659,50.2119 173.0979,50.2639 172.8429,50.2659 C172.8549,50.4869 172.8199,50.7239 172.8889,50.9259 C173.1109,51.5859 172.7149,52.6619 172.0169,52.9849 C171.4619,53.2409 171.0289,53.4639 171.0619,54.2049 C171.0809,54.6179 170.6609,54.7809 170.2449,54.5789 C169.5929,54.2609 168.9479,53.9239 168.3229,53.5569 C168.1409,53.4499 167.9159,53.2109 167.9189,53.0349 C167.9239,52.7049 168.2499,52.6649 168.5349,52.6499 C169.2549,52.6109 169.9849,52.6249 170.6919,52.5069 C171.5589,52.3619 171.8739,51.4779 171.3029,50.8209 C170.7129,50.1419 170.0919,49.4999 169.2139,49.1389 C168.0219,48.6479 167.0569,47.8039 166.1529,46.9029 C165.9229,46.6739 165.7869,46.3529 165.5929,46.0839 C165.3999,45.8169 165.2229,45.5249 164.9799,45.3089 C164.3789,44.7759 164.2619,44.8289 163.5889,45.2819 C162.9989,45.6799 162.3599,46.0189 161.7069,46.3009 C161.4649,46.4059 161.1179,46.2969 160.8249,46.2469 C160.3789,46.1699 159.9419,46.0109 159.4949,45.9759 C158.7379,45.9159 158.2589,46.3499 158.1909,47.0249 C158.1519,47.4059 158.1779,47.9059 157.9529,48.1329 C157.5199,48.5709 156.9689,48.9629 156.3929,49.1649 C155.9239,49.3299 155.6019,49.5279 155.3589,49.9419 C155.1749,50.2529 154.9369,50.5329 154.7139,50.8189 C154.4839,51.1119 154.2739,51.3869 154.4799,51.8009 C154.5479,51.9379 154.5279,52.1779 154.4519,52.3179 C154.1959,52.7869 153.9879,53.3439 153.5959,53.6629 C152.7719,54.3329 151.9969,55.1639 150.7409,55.0229 C150.3199,54.9759 149.8619,55.1409 149.4389,55.2679 C148.7699,55.4689 148.1569,55.3439 147.6519,54.9219 C147.0529,54.4209 146.4259,54.1669 145.6479,54.3229 C145.5029,54.3519 145.3459,54.3289 145.1949,54.3259 C144.7519,54.3169 144.5389,54.1009 144.5329,53.6469 C144.5259,53.0839 144.6149,52.5139 144.1609,52.0169 C144.0399,51.8849 144.1869,51.4579 144.2789,51.1889 C144.4639,50.6509 144.8079,50.1439 144.8839,49.5959 C145.0139,48.6549 145.0359,47.6919 145.0049,46.7409 C144.9939,46.3859 145.0089,46.1589 145.3229,45.9989 C145.9479,45.6809 146.4669,45.3249 147.3219,45.4649 C148.9199,45.7269 150.5679,45.6879 152.1959,45.7599 C152.9259,45.7919 153.0349,45.6939 153.1899,45.0109 C153.2769,44.6279 153.3319,44.2349 153.4549,43.8649 C153.6529,43.2719 153.5879,42.7169 153.2549,42.2109 C152.6519,41.2939 152.0209,40.3939 150.7839,40.2789 C150.1109,40.2159 150.0869,39.6259 149.8479,39.1759 C150.2379,38.7019 150.7769,38.7279 151.2709,38.6889 C151.9989,38.6329 152.7069,38.6679 153.1269,37.8439 C153.3129,37.4809 153.8029,37.5349 154.2099,37.6439 C155.1369,37.8919 156.1349,37.4499 156.6629,36.6319 C156.8339,36.3669 157.0869,36.1229 157.3569,35.9609 C158.2359,35.4339 159.1109,34.9499 159.7579,34.0859 C160.1149,33.6089 160.7499,33.3249 161.2889,33.0039 C161.7279,32.7409 162.2069,32.5409 162.6769,32.3329 C163.1239,32.1359 163.3169,31.8379 163.2489,31.3329 C163.1539,30.6129 163.2189,29.9079 163.4379,29.1989 C163.6699,28.4489 164.2669,28.1799 164.8899,27.9649 C165.2829,27.8289 165.5439,28.1419 165.5549,28.5109 C165.5709,29.0449 165.5539,29.5939 165.4489,30.1159 C165.2599,31.0579 165.4489,31.5139 166.3149,31.8139 C166.4909,31.8749 166.7149,31.8419 166.9059,31.8019 C167.1109,31.7579 167.3099,31.6689 167.4979,31.5729 C168.1009,31.2649 168.6079,31.4039 169.0539,31.8769 C169.1769,32.0069 169.3019,32.1359 169.4349,32.2749" id="Fill-1"></path>
                <path d="M213.0968,88.8322 C213.0778,89.7682 212.9868,90.6612 212.5318,91.5412 C211.6998,93.1532 211.0718,94.8702 210.2408,96.4812 C209.3038,98.2992 208.0988,99.8882 206.1938,100.8802 C205.4738,101.2552 204.9218,101.9782 204.3428,102.5902 C203.9498,103.0052 203.6588,103.5152 203.2938,103.9592 C202.6408,104.7512 201.9648,105.5232 201.3038,106.3082 C201.1308,106.5132 200.9388,106.7162 200.8208,106.9532 C200.3898,107.8172 199.9448,108.6782 199.5908,109.5742 C199.4338,109.9732 199.3878,110.4662 199.4528,110.8922 C199.6248,112.0262 199.8808,113.1362 199.7938,114.3082 C199.7368,115.0742 200.1128,115.7942 200.5498,116.4102 C201.1458,117.2512 201.1238,118.1612 201.0478,119.1072 C200.9838,119.9162 200.8428,120.7392 200.9228,121.5372 C201.0888,123.1982 200.3778,124.4082 199.1618,125.3942 C198.7188,125.7522 198.2038,126.0242 197.7078,126.3142 C197.4218,126.4812 197.0468,126.5392 196.8198,126.7582 C196.0448,127.5042 195.2668,128.2582 194.5868,129.0882 C193.9998,129.8052 194.0698,130.6852 194.3788,131.5142 C194.8168,132.6902 194.6168,133.8262 194.2768,134.9742 C194.1018,135.5662 193.7218,135.9662 193.2258,136.2872 C192.9468,136.4682 192.6728,136.6592 192.3908,136.8362 C191.9008,137.1442 191.6248,137.5912 191.4908,138.1462 C191.3908,138.5572 191.2778,138.9662 191.1508,139.3702 C190.8788,140.2332 190.5968,141.0542 189.8078,141.6642 C189.3038,142.0532 188.9698,142.6902 188.6288,143.2572 C188.2518,143.8822 187.9028,144.5072 187.2928,144.9532 C187.0048,145.1652 186.7578,145.4492 186.5378,145.7362 C185.7968,146.6992 184.8708,147.3262 183.6938,147.7092 C182.6178,148.0592 181.5598,148.3432 180.4278,148.3242 C180.2778,148.3222 180.1138,148.3252 179.9808,148.3822 C178.8728,148.8552 177.6818,148.8832 176.5158,148.9652 C176.0428,148.9982 175.5528,148.7072 175.0628,148.5942 C174.4668,148.4572 174.4538,147.9532 174.2638,147.5102 C174.0008,146.8982 174.0008,146.2912 173.9818,145.6562 C173.9668,145.1532 173.8298,144.6502 173.7098,144.1562 C173.5758,143.6002 173.3838,143.0572 173.2448,142.5022 C173.0808,141.8492 172.8548,141.2942 172.2828,140.8242 C171.3218,140.0332 170.8338,138.9332 170.7048,137.6762 C170.6308,136.9582 170.4578,136.2512 170.3788,135.5342 C170.3188,134.9962 170.2998,134.4472 170.3308,133.9072 C170.3808,133.0552 170.1628,132.3522 169.6408,131.6392 C169.0778,130.8702 168.7328,129.9422 168.2948,129.0822 C168.0218,128.5442 167.7468,128.0062 167.4858,127.4622 C167.3428,127.1652 167.1148,126.8522 167.1228,126.5512 C167.1448,125.6802 167.1998,124.7982 167.3668,123.9452 C167.5568,122.9712 167.8458,122.0112 168.1608,121.0682 C168.3078,120.6272 168.5478,120.1742 168.8668,119.8422 C169.7368,118.9332 169.8458,117.9192 169.3838,116.8262 C168.9408,115.7782 168.7048,114.7152 168.6948,113.5682 C168.6898,113.0242 168.3948,112.4792 168.2088,111.9422 C168.0218,111.4032 167.7238,110.8892 167.6248,110.3382 C167.4858,109.5582 167.1368,108.9252 166.6438,108.3332 C166.0248,107.5892 165.4048,106.8422 164.8388,106.0582 C164.5248,105.6222 164.2568,105.1282 164.0918,104.6202 C163.9928,104.3122 164.0538,103.8962 164.1778,103.5832 C164.4408,102.9212 164.5498,102.2522 164.5608,101.5462 C164.5668,101.1922 164.6618,100.8292 164.7728,100.4882 C165.4458,98.4302 164.6298,97.6262 162.4388,97.4072 C162.1428,97.3772 161.8358,97.4442 161.5368,97.4832 C160.5378,97.6162 160.2338,97.4332 159.9178,96.4972 C159.5148,95.2992 158.8188,94.8122 157.5328,94.8342 C156.5938,94.8502 155.7098,94.9622 154.8378,95.4452 C153.8418,95.9972 152.7298,96.3462 151.6528,96.7422 C151.3908,96.8382 151.0598,96.8252 150.7778,96.7732 C150.1558,96.6582 149.5448,96.3662 148.9298,96.3702 C148.1938,96.3742 147.4508,96.5812 146.7258,96.7612 C146.2588,96.8762 145.8188,97.0982 145.3688,97.2782 C144.8528,97.4832 144.3648,97.4822 143.9168,97.1122 C143.8928,97.0922 143.8648,97.0802 143.8408,97.0622 C142.3218,95.9202 140.7648,94.8252 139.3078,93.6092 C138.8058,93.1902 138.4528,92.5082 138.2108,91.8772 C137.5658,90.1902 136.5228,88.8492 135.0508,87.8252 C134.2518,87.2692 132.9368,84.3982 133.5298,83.0232 C133.6728,82.6942 133.8288,82.3292 134.0848,82.0992 C134.5958,81.6372 134.7218,81.0422 134.9018,80.4292 C135.3268,78.9822 134.9778,77.6402 134.4578,76.3082 C134.0528,75.2732 134.2768,74.3442 134.7458,73.3632 C135.2698,72.2652 135.9818,71.2982 136.5988,70.2672 C136.7368,70.0352 136.8578,69.7792 136.9218,69.5182 C137.0908,68.8242 137.3388,68.2602 138.0428,67.8682 C138.4358,67.6502 138.5878,67.0232 138.8908,66.6122 C139.0778,66.3582 139.3108,66.0342 139.5818,65.9622 C140.6458,65.6822 141.1798,64.8052 141.8168,64.0652 C142.3678,63.4252 142.7558,62.6782 142.9718,61.8272 C143.3108,60.4912 144.1508,59.4032 145.3188,58.7692 C146.2208,58.2802 146.7168,57.5812 147.1868,56.7762 C147.2478,56.6712 147.2888,56.5552 147.3528,56.4532 C147.6638,55.9552 148.2108,55.7392 148.6558,56.0932 C149.1748,56.5082 149.7248,56.5122 150.2838,56.4442 C151.3568,56.3132 152.4618,56.2922 153.4508,55.7712 C153.7358,55.6212 153.9818,55.3952 154.2688,55.2522 C154.7188,55.0292 155.1718,54.7682 155.6538,54.6652 C156.4448,54.4942 157.2638,54.4592 158.0638,54.3262 C158.8098,54.2022 159.5418,53.9862 160.2898,54.3412 C160.4258,54.4062 160.6608,54.3742 160.8008,54.2982 C161.4798,53.9282 162.1998,53.9602 162.9288,54.0242 C163.4718,54.0722 163.9848,54.0642 164.5238,53.8412 C164.9158,53.6792 165.4178,53.7262 165.8628,53.7672 C166.3138,53.8092 166.5698,54.1882 166.5688,54.6742 C166.5678,55.2172 166.5768,55.7612 166.5378,56.3022 C166.5188,56.5652 166.4328,56.8362 166.3188,57.0762 C165.9238,57.9032 166.1108,58.5782 166.9128,59.0342 C167.5778,59.4132 168.2588,59.6862 169.0698,59.5852 C169.5048,59.5312 169.9728,59.6232 170.4088,59.7242 C170.9338,59.8452 171.3408,60.1502 171.4838,60.7172 C171.6328,61.3072 172.0368,61.5362 172.6238,61.5442 C173.3788,61.5542 174.0328,61.8452 174.6198,62.3152 C174.8048,62.4622 175.0228,62.6052 175.2478,62.6552 C175.9788,62.8212 176.4068,62.3632 176.2368,61.6362 C176.0618,60.8822 176.3758,60.1002 177.0878,59.8802 C178.1818,59.5412 179.3048,59.2092 180.3158,60.1962 C180.5468,60.4222 181.0028,60.3982 181.3168,60.5632 C182.5198,61.1952 183.8928,61.2062 185.1378,61.6322 C186.2448,62.0102 187.2018,62.0742 188.1738,61.3692 C188.3458,61.2442 188.6408,61.2262 188.8688,61.2502 C189.9658,61.3662 191.3268,62.5422 191.6138,63.6172 C191.8398,64.4632 192.2568,65.3362 192.1878,66.1642 C192.0818,67.4312 192.9398,68.2162 193.3088,69.2322 C193.5148,69.7992 193.7638,70.3572 194.0558,70.8842 C194.4478,71.5932 194.8128,72.3472 195.3488,72.9372 C196.1028,73.7672 196.5218,74.7412 196.6468,75.7782 C196.7998,77.0492 197.3168,78.0812 198.1438,78.9922 C198.7428,79.6522 199.0108,80.4212 199.1028,81.2892 C199.1838,82.0462 199.5098,82.7952 200.2308,83.0162 C201.3928,83.3722 202.0278,84.2702 202.7788,85.0672 C203.1498,85.4612 203.5098,85.8762 203.8038,86.3272 C203.9898,86.6122 204.1438,86.9822 204.1418,87.3132 C204.1358,88.1782 205.2718,89.0642 206.2388,88.8122 C207.4588,88.4942 208.6738,88.1532 209.8908,87.8202 C210.7288,87.5902 211.5648,87.3502 212.4058,87.1302 C212.8618,87.0112 213.1788,87.3302 213.1448,87.8372 C213.1228,88.1682 213.1128,88.5002 213.0968,88.8322" id="Fill-3"></path>
                <path d="M61.0784,91.1162 C61.0054,91.4772 60.9514,91.7612 60.8884,92.0442 C60.8384,92.2712 60.7454,92.4932 60.7294,92.7212 C60.7084,93.0142 60.6694,93.3212 60.3504,93.3592 C60.0434,93.3952 59.5794,93.4112 59.4284,93.2312 C58.9724,92.6862 58.4064,92.5312 57.7574,92.4442 C57.3314,92.3872 56.9154,92.2032 56.7434,91.7662 C56.4714,91.0732 55.8524,90.7412 55.2634,90.5042 C54.3494,90.1352 54.0124,89.4562 53.7924,88.5932 C53.6454,88.0162 53.4354,87.4432 53.1614,86.9162 C52.8714,86.3572 52.3524,86.0782 51.7184,85.9262 C50.6344,85.6672 49.5354,85.4062 48.5174,84.9722 C47.9074,84.7122 47.4224,84.1392 46.9134,83.6722 C46.4694,83.2652 46.0854,82.7932 45.6474,82.3802 C45.2734,82.0272 44.8264,81.8842 44.3084,82.0792 C43.0014,82.5722 41.7634,82.3672 40.5384,81.7542 C39.8364,81.4022 39.0654,81.1892 38.3624,80.8402 C37.8554,80.5892 37.4374,80.1582 36.9304,79.9102 C35.9094,79.4092 35.0114,78.7412 34.0834,78.0982 C33.3294,77.5772 32.7434,76.4632 33.1604,75.6262 C33.6214,74.7012 33.5164,73.8952 32.9264,73.0882 C32.7334,72.8242 32.6034,72.5102 32.4584,72.2132 C32.0154,71.3052 31.4834,70.4712 30.6324,69.8832 C30.3174,69.6662 30.0794,69.3822 30.1554,68.9722 C30.2414,68.5062 29.9814,68.1692 29.8064,67.7852 C29.3424,66.7722 28.8814,65.7652 28.1664,64.8902 C28.0154,64.7052 28.0054,64.3802 27.9884,64.1162 C27.9524,63.5422 27.9924,62.9612 27.9194,62.3932 C27.8914,62.1772 27.6764,61.8822 27.4794,61.8142 C27.1674,61.7042 26.8464,61.9222 26.7904,62.2442 C26.7194,62.6502 26.6864,63.0982 26.7854,63.4912 C27.1234,64.8352 27.2614,66.2262 27.8414,67.5182 C28.1584,68.2242 28.3374,69.0122 28.4594,69.7822 C28.5414,70.2972 28.7814,70.6772 29.0764,71.0582 C29.3284,71.3822 29.4884,71.7332 29.3804,72.1522 C29.2484,72.6652 28.8084,72.7882 28.4344,72.4192 C27.9204,71.9122 27.3934,71.4162 26.9054,70.8862 C26.7304,70.6962 26.6054,70.4312 26.5364,70.1792 C26.4414,69.8322 26.4024,69.4662 26.3754,69.1052 C26.3474,68.7422 26.2074,68.5012 25.8784,68.3092 C25.5434,68.1152 25.2574,67.8352 24.9604,67.5802 C24.5864,67.2582 24.4044,66.8702 24.6064,66.3762 C25.6694,65.7142 25.7154,65.5782 24.9594,64.5822 C24.5484,64.0412 24.4354,63.4502 24.3854,62.8042 C24.3074,61.7792 24.2204,60.7512 24.0674,59.7362 C23.9224,58.7742 23.2564,58.2072 22.3704,57.9382 C21.4464,57.6572 21.4334,57.6792 21.4084,56.7092 C21.3784,55.5662 21.0974,54.4322 21.2944,53.2812 C21.3094,53.1982 21.2904,53.0882 21.2444,53.0182 C20.6584,52.1112 20.9384,51.1472 21.0744,50.2022 C21.1104,49.9522 21.2744,49.7002 21.4354,49.4922 C21.9394,48.8422 22.3234,48.1552 22.6054,47.3642 C22.8284,46.7392 23.3794,46.2302 23.7944,45.6772 C24.6474,44.5402 25.5404,43.4322 26.3494,42.2642 C26.7224,41.7262 26.9334,41.0762 27.2214,40.4782 C27.5784,39.7342 27.4154,39.0692 26.9214,38.4512 C26.7894,38.2852 26.6344,38.1282 26.5454,37.9412 C26.2904,37.4032 26.2234,36.9342 26.6354,36.3512 C27.2184,35.5272 27.6114,34.6092 27.5024,33.4952 C27.4134,32.5772 27.4924,31.6072 27.6944,30.7052 C28.0054,29.3182 27.3804,28.2562 26.7444,27.1652 C26.6394,26.9852 26.4304,26.8542 26.3594,26.6652 C25.9664,25.6292 25.1534,25.2172 24.1274,25.0682 C23.4124,24.9652 22.6954,24.8562 21.9964,24.6812 C21.5654,24.5732 21.1534,24.3612 20.7544,24.1532 C20.1694,23.8482 19.5904,23.8502 19.0064,24.1122 C18.8484,24.1832 18.6344,24.2972 18.5944,24.4352 C18.4384,24.9642 18.0144,25.0962 17.5714,25.2182 C16.5804,25.4912 15.5904,25.7682 14.5944,26.0202 C14.3684,26.0772 14.1004,26.1002 13.8844,26.0342 C13.3254,25.8632 12.8044,25.9592 12.2874,26.1602 C9.3264,27.3072 6.3624,28.4502 3.4084,29.6162 C2.9344,29.8042 2.5174,30.1332 2.0484,30.3372 C1.6694,30.5012 1.2564,30.6112 0.8484,30.6792 C0.3944,30.7542 0.1114,30.5162 0.0004,29.9602 C0.7154,29.6192 1.4454,29.2712 2.1754,28.9242 C2.8584,28.5982 3.5524,28.2922 4.2214,27.9382 C4.5274,27.7762 4.7844,27.5192 5.0424,27.3202 C4.9534,26.8742 4.7294,26.6752 4.3914,26.7152 C3.8544,26.7782 3.6354,26.4362 3.4324,26.0542 C3.2624,25.7342 3.0874,25.4142 2.9564,25.0782 C2.8954,24.9202 2.8544,24.6252 2.9354,24.5622 C3.4494,24.1622 3.4144,23.4652 3.8164,23.0272 C3.9894,22.8392 4.2494,22.7162 4.4904,22.6102 C4.7374,22.5022 5.0404,22.5032 5.2664,22.3702 C6.6344,21.5622 8.1934,21.2412 9.6294,20.6132 C9.9384,20.4782 10.2044,20.2452 10.5244,20.0362 C9.9374,19.2162 9.1574,20.0922 8.5824,19.5942 C8.6434,19.2602 8.7204,18.9102 8.7684,18.5562 C8.8354,18.0582 9.1304,17.8242 9.6034,17.7442 C10.5574,17.5832 11.5104,17.4152 12.4604,17.2342 C12.7224,17.1842 12.9714,17.0702 13.2304,16.9992 C13.9914,16.7902 14.4224,16.3472 14.4134,15.5072 C14.4094,15.1192 14.6464,14.8182 15.0384,14.7042 C15.5574,14.5532 16.0804,14.4112 16.6084,14.2942 C17.0504,14.1952 17.5204,14.1932 17.9444,14.0502 C19.1444,13.6432 20.3244,13.1742 21.5204,12.7532 C22.0024,12.5832 22.4994,12.4192 23.0034,12.3462 C23.7784,12.2342 24.5634,12.1742 25.3464,12.1442 C26.1604,12.1132 26.9674,12.1692 27.7584,11.8402 C28.0584,11.7152 28.4734,11.8222 28.8274,11.8762 C29.8734,12.0352 30.9154,12.2202 31.9584,12.3952 C32.1374,12.4252 32.3344,12.4152 32.4934,12.4882 C33.5464,12.9702 34.6994,12.7782 35.7914,12.9942 C35.8494,13.0062 35.9144,13.0132 35.9724,13.0002 C37.0274,12.7612 37.9494,13.0132 38.9274,13.4962 C39.7064,13.8802 40.6744,13.8832 41.5604,14.0452 C41.6724,14.0652 41.7974,14.0222 41.9154,14.0022 C43.7294,13.6912 45.5414,13.3652 47.3594,13.0772 C47.8024,13.0072 48.2674,13.0822 48.7194,13.0542 C49.0754,13.0322 49.4564,13.0222 49.7744,12.8852 C50.2524,12.6802 50.6934,12.6892 51.1864,12.7952 C51.7414,12.9142 52.3164,13.0012 52.8824,12.9982 C54.1644,12.9912 55.3474,13.3072 56.4114,13.9992 C56.8254,14.2682 57.2254,14.3192 57.6914,14.3302 C58.1284,14.3412 58.6654,14.3462 58.9794,14.5882 C60.3504,15.6452 61.8064,15.4152 63.3124,15.0642 C64.2524,14.8452 65.2034,14.6242 66.1604,14.5472 C66.6304,14.5092 67.2494,14.6592 67.5834,14.9642 C68.2254,15.5482 68.9154,15.6062 69.6874,15.5472 C70.3194,15.4982 70.9554,15.4832 71.5854,15.4172 C71.9344,15.3802 72.2734,15.2272 72.6224,15.2022 C73.2754,15.1552 73.9324,15.1622 74.5884,15.1492 C75.0024,15.1422 75.4414,15.2252 75.8264,15.1162 C76.4654,14.9342 76.6604,14.6742 76.4774,14.0332 C76.1964,13.0512 76.7434,12.4962 77.4064,12.0912 C78.0634,11.6902 78.8324,11.4512 79.5774,11.2202 C80.0444,11.0752 80.3814,11.4082 80.5284,11.9442 C80.6804,12.4932 80.8584,13.0372 81.0624,13.5692 C81.2824,14.1422 81.8074,14.1262 82.2934,14.1052 C82.7864,14.0832 83.1674,13.8122 83.3424,13.3642 C83.4144,13.1802 83.3234,12.9002 83.2374,12.6922 C82.9634,12.0312 83.1434,11.5052 83.6724,11.0792 C84.2614,10.6032 84.8244,10.0742 85.4774,9.7072 C85.9564,9.4372 86.5554,9.3552 87.1124,9.2542 C87.4954,9.1852 87.8974,9.2272 88.2914,9.2152 C90.1294,9.1592 91.9684,9.0882 93.8064,9.0542 C94.2234,9.0462 94.6444,9.1562 95.0604,9.2282 C95.5424,9.3102 95.8634,9.5542 96.0394,10.0512 C96.3364,10.8892 96.9944,11.2982 97.8464,11.5342 C98.5024,11.7162 99.1284,12.0452 99.7304,12.3772 C100.2164,12.6442 100.4414,13.1192 100.3644,13.6872 C100.2324,14.6602 100.8254,15.2092 101.5444,15.6382 C101.9004,15.8502 102.1814,16.0712 102.3514,16.4512 C102.7034,17.2392 102.6344,17.5462 101.9534,18.0802 C101.5724,18.3792 101.2004,18.6902 100.8154,18.9852 C100.2734,19.3992 99.8584,19.3682 99.3834,18.8702 C99.0924,18.5642 98.8444,18.2132 98.5304,17.9372 C98.4044,17.8252 98.1514,17.8562 97.9564,17.8232 C97.9304,18.0162 97.8424,18.2282 97.8924,18.3992 C97.9744,18.6852 98.1434,18.9472 98.2794,19.2172 C98.6924,20.0362 98.5214,20.7452 97.7794,21.2862 C97.2184,21.6942 96.6274,22.0672 96.1084,22.5212 C95.6814,22.8952 95.2464,22.9362 94.7624,22.7692 C94.0764,22.5322 93.3944,22.2802 92.7234,22.0052 C92.2654,21.8182 91.8704,21.5442 91.7424,21.0122 C91.7084,20.8672 91.6384,20.7272 91.5684,20.5932 C91.2354,19.9642 91.0544,19.8592 90.3454,19.9372 C89.2814,20.0552 88.2454,19.8862 87.2124,19.7172 C87.1834,18.6662 88.0154,17.9682 88.9604,18.2492 C89.5794,18.4332 90.1924,18.6052 90.8304,18.4392 C91.0754,18.3752 91.4234,18.2432 91.4944,18.0562 C91.6914,17.5332 92.1314,17.3622 92.5384,17.1072 C92.9214,16.8662 93.3094,16.6152 93.6314,16.3032 C94.0704,15.8782 94.0104,15.5092 93.4634,15.2272 C93.0754,15.0282 92.7734,14.7982 92.5324,14.4162 C92.1774,13.8512 91.5424,13.7642 90.9354,13.7072 C90.3944,13.6562 89.8494,13.6542 89.3064,13.6282 C88.8064,13.6032 88.4444,13.8302 88.1544,14.2202 C87.3324,15.3252 86.5564,16.4662 85.3134,17.1782 C84.8114,17.4662 84.3564,17.7652 83.7374,17.7902 C83.1084,17.8162 82.9244,18.1152 83.1314,18.7032 C83.2674,19.0862 83.5474,19.4162 83.7394,19.7822 C83.8294,19.9522 83.9684,20.2122 83.9024,20.3222 C83.7974,20.4972 83.5464,20.6652 83.3454,20.6802 C83.0924,20.6982 82.7944,20.6142 82.5734,20.4782 C82.0974,20.1862 81.6574,20.2382 81.1994,20.4822 C80.8784,20.6532 80.5514,20.8122 80.2364,20.9932 C79.8314,21.2262 79.5024,21.2572 79.0954,20.9072 C78.4464,20.3502 77.6384,20.1412 76.7964,20.3362 C76.4054,20.4272 76.0204,20.6462 75.6944,20.8902 C75.0354,21.3852 74.3844,21.8522 73.5214,21.9242 C72.4014,22.0162 71.4444,22.5732 70.5054,23.1162 C69.8274,23.5072 69.2124,24.0152 68.5984,24.5072 C67.8784,25.0832 67.8354,25.3712 68.1494,26.2852 C68.2564,26.5972 68.2884,26.9342 68.3634,27.2582 C68.4514,27.6402 68.6474,27.8732 69.0724,27.9732 C69.9594,28.1832 70.6904,28.6132 71.3964,29.2632 C72.1194,29.9282 73.0614,30.4662 74.1684,30.4562 C74.7734,30.4512 75.3674,30.5612 75.9614,30.9562 C75.7304,31.3252 75.5024,31.6672 75.2974,32.0222 C75.0854,32.3882 74.8944,32.7672 74.6954,33.1412 C74.3734,33.7462 74.4874,34.5632 74.9854,34.9612 C75.1314,35.0782 75.3954,35.1892 75.5434,35.1352 C75.9664,34.9802 76.3704,34.7602 76.7594,34.5272 C77.1984,34.2632 77.2304,33.8132 77.2924,33.3452 C77.3754,32.7242 77.5334,32.1062 77.7384,31.5152 C77.8124,31.3032 78.0924,31.1212 78.3204,31.0122 C79.1634,30.6072 80.0244,30.2382 80.8794,29.8562 C81.4544,29.6002 81.8594,29.1702 82.1854,28.6382 C82.5454,28.0492 82.7324,27.5272 82.1394,26.9332 C81.7734,26.5672 81.8924,26.2482 82.3504,25.9872 C82.4814,25.9132 82.6254,25.8592 82.7674,25.8072 C83.5624,25.5152 84.0164,25.0002 83.9774,24.1002 C83.9684,23.8842 84.0724,23.6172 84.2144,23.4512 C84.4734,23.1492 84.6604,22.8532 84.7884,22.4582 C84.9944,21.8172 85.5854,21.5442 86.2264,21.5602 C87.1624,21.5832 88.1104,21.6122 89.0224,21.7942 C89.4814,21.8862 89.8874,22.3002 90.2884,22.6062 C90.6444,22.8772 90.9444,23.2222 91.2994,23.4952 C91.8144,23.8902 91.8544,24.0022 91.5704,24.6362 C91.4584,24.8842 91.3204,25.1272 91.2584,25.3882 C91.1234,25.9602 91.4514,26.4202 92.0334,26.4762 C92.5154,26.5212 92.9794,26.5052 93.4104,26.1762 C94.0344,25.7002 94.7034,25.2822 95.3604,24.8512 C95.9004,24.4962 96.1014,24.5242 96.5134,25.0222 C97.0944,25.7232 97.3754,26.5452 97.4044,27.4482 C97.4234,28.0232 97.3864,28.6012 97.4164,29.1752 C97.4634,30.0772 97.7274,30.8362 98.7454,31.0912 C99.1294,31.1882 99.4684,31.3682 99.4704,31.8902 C99.4714,32.0812 99.6644,32.3162 99.8324,32.4532 C100.2284,32.7762 100.3864,33.1252 100.2414,33.6422 C99.9974,34.5102 99.7764,35.3872 99.5934,36.2702 C99.4354,37.0282 99.6064,37.2882 100.3224,37.5862 C101.0544,37.8902 101.0824,37.9332 100.7344,38.6172 C100.4644,39.1482 100.5104,39.6552 100.7114,40.1912 C100.9974,40.9512 100.4104,41.6802 99.6164,41.5342 C99.1154,41.4422 98.5854,41.3462 98.1474,41.1072 C97.4374,40.7182 96.7394,40.6372 95.9614,40.7902 C95.3024,40.9202 94.6484,40.8122 93.9874,40.5512 C94.0694,39.8752 94.2964,39.3122 94.7644,38.8402 C95.0174,38.5842 95.2854,38.3122 95.4364,37.9942 C95.5314,37.7942 95.4794,37.4702 95.3794,37.2542 C95.3314,37.1502 94.9874,37.0872 94.8324,37.1472 C94.0024,37.4672 93.1794,37.3462 92.3304,37.2622 C91.7104,37.2002 91.0654,37.3012 90.4404,37.3942 C89.9804,37.4622 89.6714,37.7232 89.7664,38.2762 C89.8614,38.8202 89.6604,39.2342 89.2764,39.6542 C88.9474,40.0152 88.6994,40.5182 88.5944,40.9982 C88.4174,41.8122 88.8184,42.3142 89.6374,42.4972 C89.9914,42.5752 90.3594,42.6012 90.7054,42.7022 C90.9264,42.7662 91.1664,42.8822 91.3144,43.0492 C91.5854,43.3542 91.4454,43.7772 91.0604,43.9182 C90.8914,43.9802 90.7084,44.0082 90.5294,44.0372 C89.6414,44.1862 88.7474,44.3072 87.8664,44.4892 C87.5914,44.5462 87.3274,44.7372 87.0984,44.9172 C86.8154,45.1422 86.5964,45.4482 86.3104,45.6672 C85.8844,45.9942 85.4634,45.9262 85.2864,45.4412 C85.0994,44.9262 84.7454,44.8332 84.3024,44.8302 C83.5904,44.8262 82.9414,44.8332 82.2534,45.2802 C81.6984,45.6402 80.9964,45.8142 80.4874,46.3132 C80.1734,46.6212 79.9204,46.9482 79.9564,47.4172 C79.9884,47.8462 79.7764,48.1032 79.3904,48.2382 C78.9064,48.4082 78.4324,48.6492 77.9334,48.7262 C76.7694,48.9052 75.8534,49.4262 75.1124,50.3482 C74.4714,51.1472 73.7274,51.8622 73.0554,52.6372 C72.4574,53.3262 71.9714,54.0782 71.7454,54.9912 C71.6014,55.5712 71.2284,56.0552 70.9284,56.5732 C70.4394,57.4172 69.6724,57.7202 68.9064,58.0962 C67.5484,58.7652 66.2834,59.5952 65.0844,60.5032 C63.6324,61.6042 63.1134,63.0952 63.5304,64.9132 C63.7384,65.8212 63.8634,66.7532 63.9564,67.6812 C64.0314,68.4212 63.6674,69.0332 63.1524,69.5392 C62.6194,70.0622 62.3004,69.9852 61.8874,69.3722 C61.3714,68.6042 61.0124,67.7782 60.8574,66.8732 C60.7814,66.4342 60.7484,65.9742 60.7844,65.5312 C60.8644,64.5532 60.3114,63.9382 59.3504,64.0752 C58.8704,64.1432 58.5764,64.0642 58.3154,63.6112 C58.0334,63.1242 57.5204,62.9952 56.9634,63.1232 C56.4334,63.2452 55.9054,63.3792 55.3714,63.4802 C54.7014,63.6072 54.4064,64.1552 53.9904,64.7052 C53.2784,64.6062 52.5334,64.5222 51.7954,64.3922 C51.1484,64.2772 50.5144,64.0392 49.8654,63.9932 C49.4744,63.9652 49.0444,64.1542 48.6674,64.3262 C47.8994,64.6772 47.1354,65.0492 46.4064,65.4762 C45.8394,65.8092 45.2624,66.1762 44.8164,66.6482 C44.5354,66.9442 44.3834,67.4552 44.3584,67.8802 C44.3214,68.5052 44.1594,69.0572 43.8954,69.6132 C43.4274,70.5992 43.0144,71.6182 42.9424,72.7182 C42.8384,74.3262 42.9274,75.9222 43.7854,77.3532 C44.3544,78.3022 45.3364,78.4302 46.3194,78.4682 C46.9204,78.4922 47.5234,78.4232 48.1254,78.4292 C49.1294,78.4402 49.4414,78.2632 49.8254,77.3002 C50.0254,76.7972 50.1974,76.2762 50.3114,75.7482 C50.4054,75.3122 50.6084,75.0492 51.0304,74.9122 C52.0644,74.5772 53.0864,74.2412 54.2074,74.4522 C54.8804,74.5782 55.1374,74.9832 54.7084,75.5122 C54.3384,75.9682 54.2654,76.4572 54.1424,76.9922 C53.9114,77.9922 53.5224,78.9492 52.8414,79.7592 C52.4484,80.2262 52.4054,81.1422 52.7624,81.5992 C52.8934,81.7672 53.1394,81.9182 53.3474,81.9392 C53.7944,81.9852 54.2574,81.9872 54.7024,81.9252 C55.8194,81.7692 56.7994,82.0552 57.6574,82.7622 C57.8024,82.8822 57.9514,83.1092 57.9454,83.2812 C57.9274,83.7562 57.8534,84.2332 57.7544,84.6992 C57.6124,85.3742 57.4304,86.0402 57.2634,86.7102 C57.2054,86.9432 57.1534,87.1782 57.0814,87.4072 C56.7294,88.5212 56.8694,89.4662 57.8564,90.2452 C58.5684,90.8062 59.2284,91.3562 60.2154,91.0132 C60.3234,90.9752 60.4574,91.0002 60.5774,91.0132 C60.6934,91.0252 60.8074,91.0592 61.0784,91.1162" id="Fill-5"></path>
                <path d="M62.2029,91.069 C62.7009,91.069 63.1229,91.016 63.5269,91.08 C64.4629,91.228 65.5119,90.7 65.7429,89.803 C66.0569,88.583 67.0009,88.157 68.0409,87.931 C68.8379,87.758 69.5269,87.487 70.1259,86.934 C70.3029,86.771 70.6039,86.63 70.8289,86.654 C71.4539,86.723 72.1049,86.797 72.6799,87.031 C73.3669,87.31 73.9839,87.759 74.6339,88.13 C74.9479,88.309 75.2519,88.556 75.5909,88.631 C76.3829,88.803 77.1869,88.899 77.9239,89.277 C78.3409,89.489 78.7889,89.384 79.1289,89.122 C79.5749,88.778 80.0629,88.741 80.5809,88.711 C81.0309,88.686 81.4799,88.552 81.9249,88.571 C82.3949,88.59 82.8949,88.653 83.3159,88.842 C83.7809,89.051 83.6239,89.524 83.4669,89.881 C83.2189,90.449 83.2869,90.954 83.6979,91.389 C83.8769,91.577 84.1329,91.72 84.3809,91.808 C85.0499,92.046 85.4929,92.507 85.8259,93.113 C86.5379,94.411 87.5749,95.172 89.1219,95.028 C90.1909,94.93 91.1279,95.424 92.1149,95.682 C92.3219,95.737 92.4779,95.984 92.6569,96.144 C92.9929,96.444 93.3019,96.783 93.6699,97.035 C94.2029,97.4 94.3419,97.971 94.4829,98.511 C94.6819,99.28 94.8749,100.022 95.3929,100.662 C95.5859,100.901 95.6109,101.278 95.7049,101.594 C95.9239,102.331 96.3559,102.766 97.1079,103.104 C98.9529,103.933 100.8849,104.556 102.6489,105.595 C103.8239,106.286 105.1059,106.93 106.5999,106.646 C107.4639,106.481 108.0799,107.061 108.7269,107.493 C108.9249,107.625 109.0989,107.808 109.2509,107.994 C109.9489,108.846 110.8049,109.417 111.9189,109.561 C112.5039,109.636 112.7939,110.048 112.9989,110.548 C113.7299,112.334 113.4489,114.044 112.6139,115.713 C112.5869,115.767 112.5539,115.82 112.5159,115.866 C111.4059,117.179 110.5699,118.686 109.5339,120.05 C108.7629,121.066 108.7489,122.186 109.0569,123.329 C109.2119,123.9 109.3389,124.421 109.1379,125.008 C109.0339,125.312 109.0849,125.668 109.0519,125.998 C109.0279,126.237 109.0539,126.523 108.9319,126.701 C108.5429,127.261 108.5689,127.869 108.5109,128.507 C108.4559,129.11 108.1599,129.717 107.8609,130.263 C107.6229,130.701 107.4029,131.101 107.4549,131.616 C107.4929,132.003 107.3639,132.331 107.0099,132.544 C106.9069,132.606 106.7629,132.669 106.7269,132.765 C106.3919,133.654 105.5939,133.68 104.8589,133.721 C104.0439,133.767 103.3429,134.028 102.6489,134.441 C102.0839,134.778 101.4059,134.927 100.8439,135.268 C99.2139,136.256 98.9639,136.993 99.4319,138.839 C99.5559,139.329 99.6079,139.858 99.5699,140.359 C99.5459,140.688 99.3789,141.086 99.1399,141.304 C98.6209,141.777 98.3459,142.356 98.1119,142.986 C98.0209,143.231 97.9029,143.54 97.7019,143.655 C97.0899,144.008 96.8839,144.617 96.6269,145.187 C96.2049,146.124 95.8809,147.107 95.4159,148.02 C95.1619,148.517 94.7669,148.995 94.3219,149.331 C93.3899,150.036 93.0039,151.027 92.6539,152.062 C92.6249,152.148 92.5809,152.235 92.5769,152.323 C92.5179,153.554 91.6669,154.074 90.6659,154.458 C90.4399,154.544 90.2069,154.613 89.9779,154.69 C89.2929,154.921 88.8369,155.357 88.7089,156.092 C88.6929,156.181 88.6999,156.288 88.6529,156.357 C87.8299,157.555 87.6469,159.048 86.8589,160.266 C86.7099,160.496 86.5999,160.848 86.6609,161.098 C86.7879,161.626 86.6359,162.05 86.3859,162.476 C85.7609,163.538 85.9819,164.344 87.0539,164.911 C87.8029,165.307 87.9699,166.071 87.4329,166.731 C87.2039,167.011 86.8399,167.217 86.7059,167.529 C86.4509,168.127 86.2969,168.771 86.1369,169.405 C86.0099,169.905 86.2779,170.329 86.6169,170.615 C87.2079,171.113 87.5619,171.74 87.9749,172.372 C88.3959,173.016 89.1659,173.463 89.8479,173.893 C90.2399,174.139 90.7649,174.165 91.2199,174.32 C91.4659,174.404 91.7319,174.508 91.9119,174.682 C92.0299,174.796 92.0859,175.082 92.0269,175.238 C91.9699,175.389 91.7389,175.553 91.5719,175.568 C91.0909,175.61 90.5979,175.627 90.1209,175.566 C89.3149,175.462 88.5169,175.294 87.7169,175.145 C87.3959,175.085 87.2109,174.902 87.0969,174.569 C86.7189,173.464 85.8519,172.969 84.7799,173.305 C83.7939,173.613 83.1209,173.121 82.5259,172.512 C81.8759,171.846 81.3019,171.115 80.9669,170.204 C80.7419,169.588 80.3959,168.999 80.0109,168.464 C79.3839,167.591 79.1979,166.598 79.0369,165.58 C78.9899,165.284 78.9419,164.96 78.7889,164.714 C78.3439,164 78.1919,163.228 78.0709,162.406 C77.8539,160.921 77.3269,159.534 76.2769,158.411 C75.6759,157.767 75.6049,156.923 75.4419,156.144 C75.1939,154.957 75.0049,153.766 74.4469,152.669 C74.3569,152.492 74.3359,152.255 74.3559,152.053 C74.4539,151.093 74.5159,150.123 74.7069,149.18 C74.8899,148.271 74.9489,147.38 74.7579,146.48 C74.5769,145.626 74.3409,144.783 74.1559,143.93 C73.8619,142.568 73.5809,141.207 73.9219,139.801 C74.0049,139.458 73.9709,139.078 73.9509,138.718 C73.8349,136.636 73.7519,134.552 73.5699,132.476 C73.4419,131.005 73.5869,129.501 73.1059,128.07 C72.9839,127.705 72.8709,127.287 72.6179,127.024 C71.7589,126.131 70.8359,125.298 69.6879,124.777 C69.0549,124.489 68.3509,124.321 67.7769,123.949 C67.2099,123.582 66.7209,123.063 66.2799,122.541 C65.8209,122 65.2439,121.496 65.2309,120.69 C64.2779,119.224 63.6529,117.55 62.4379,116.251 C62.0319,115.817 61.7839,115.326 61.6289,114.758 C61.3609,113.779 60.9499,112.866 60.0769,112.27 C59.0939,111.599 58.8269,110.596 58.7769,109.514 C58.7619,109.185 58.9549,108.831 59.1079,108.516 C59.2369,108.248 59.4579,108.027 59.6159,107.771 C59.8599,107.38 59.8389,106.996 59.6419,106.567 C58.8499,104.844 59.3219,102.889 60.7429,101.552 C61.2199,101.103 61.5579,100.508 61.9839,100 C62.3089,99.612 62.7949,99.312 62.9969,98.874 C63.7439,97.258 63.9929,95.596 63.1519,93.907 C62.9539,93.509 62.8409,93.07 62.6859,92.65 C62.6559,92.568 62.6339,92.442 62.5759,92.418 C61.9209,92.156 62.1749,91.644 62.2029,91.069" id="Fill-7"></path>
                <path d="M302.6406,122.3352 C303.3216,121.4152 303.8476,120.5992 304.4816,119.8772 C305.0946,119.1772 305.7976,118.5502 306.5026,117.9372 C306.8506,117.6352 307.3196,117.6962 307.7076,117.8982 C308.7576,118.4442 309.8886,118.5842 311.0426,118.6492 C311.2836,118.6622 311.5326,118.6792 311.7596,118.7522 C312.2606,118.9122 312.4416,119.3412 312.2436,119.8322 C311.9406,120.5862 311.6286,121.3372 311.3326,122.0932 C311.1066,122.6722 311.2786,123.3362 311.8916,123.7752 C312.7996,124.4272 313.7426,125.0362 314.7116,125.5912 C315.3776,125.9732 315.7626,125.8232 315.9356,125.0892 C316.2346,123.8232 316.8796,122.6842 317.1206,121.3862 C317.3156,120.3342 317.8226,119.3382 318.2076,118.3232 C318.3096,118.0532 318.3806,117.6932 318.8016,117.7692 C319.1776,117.8362 319.4456,118.0222 319.5836,118.4282 C319.9126,119.4012 320.2866,120.3602 320.6486,121.3232 C320.7216,121.5202 320.7756,121.7462 320.9096,121.8942 C321.4176,122.4582 321.5376,123.1192 321.6866,123.8502 C321.8996,124.9002 322.0036,125.9362 321.9766,126.9932 C321.9616,127.6292 322.1766,128.0012 322.7526,128.3672 C323.3806,128.7652 323.8936,129.3182 324.2776,130.0772 C325.1306,131.7652 325.8266,133.5622 327.0926,135.0232 C327.6976,135.7222 328.1676,136.4882 327.9856,137.4822 C327.9576,137.6302 327.9676,137.7922 327.9116,137.9282 C327.1506,139.7952 326.6016,141.7562 325.4786,143.4652 C325.3666,143.6362 325.3316,143.8562 325.2356,144.0402 C325.0976,144.3052 324.9856,144.6092 324.7766,144.8072 C323.9036,145.6352 323.0056,146.4382 322.1016,147.2342 C321.3746,147.8752 320.7356,148.5532 320.2046,149.3972 C319.4546,150.5882 318.4776,151.6352 317.5966,152.7432 C316.6806,153.0292 316.0386,153.9102 314.9926,153.9312 C314.7266,153.9362 314.4406,154.0022 314.2026,154.1182 C312.4986,154.9482 310.7776,154.4292 309.0676,154.1842 C308.5656,154.1122 308.0886,153.8752 307.5976,153.7192 C306.7746,153.4582 306.5036,153.1202 306.5656,152.2632 C306.6446,151.1852 306.3386,150.3802 305.2486,149.9732 C304.7716,149.7942 304.3376,149.5022 303.8736,149.2862 C303.3406,149.0382 303.1176,148.6222 303.1186,148.0522 C303.1186,147.7812 303.1416,147.4952 303.0666,147.2422 C302.8416,146.4712 302.5376,145.7502 301.5736,145.6612 C301.4576,145.6502 301.3236,145.6042 301.2376,145.5292 C300.0456,144.4982 298.7536,145.0442 297.5346,145.3762 C296.6286,145.6232 295.7546,145.9532 294.8016,145.9692 C294.6226,145.9722 294.4246,145.9832 294.2686,146.0592 C293.2156,146.5732 292.0256,146.7982 291.0996,147.5782 C290.6436,147.9622 290.1246,148.1522 289.5096,148.1142 C287.6066,147.9992 285.8826,148.5872 284.2516,149.5102 C283.4636,149.9572 282.5826,149.8662 281.8966,149.2662 C281.7826,149.1662 281.6766,149.0572 281.5676,148.9532 C280.8596,148.2822 280.9116,147.9362 281.5846,147.2352 C282.3666,146.4192 282.9286,145.4852 282.7206,144.2482 C282.6216,143.6562 282.6166,143.0372 282.6576,142.4362 C282.7446,141.1732 282.4356,139.9902 282.0896,138.7972 C281.8896,138.1052 281.8046,137.3932 282.1886,136.6852 C282.4146,136.2682 282.4936,135.7722 282.6496,135.3152 C282.7466,135.0312 282.8136,134.7172 282.9826,134.4802 C283.3476,133.9662 283.5476,133.4182 283.5506,132.7902 C283.5526,132.4312 283.6846,132.1422 284.0476,132.0012 C284.8666,131.6812 285.6546,131.3112 286.2706,130.6532 C286.3496,130.5692 286.4716,130.4982 286.5836,130.4782 C288.1696,130.2012 289.4846,129.1582 291.1216,128.9622 C292.4716,128.8012 293.2596,127.7272 293.8016,126.5932 C294.2326,125.6932 294.7056,124.9122 295.5956,124.4102 C295.8476,124.2682 296.0176,123.9822 296.2266,123.7632 C296.7936,123.1712 297.3896,122.6362 298.1426,122.2622 C298.8336,121.9202 299.4396,121.4292 300.2006,121.1902 C300.5776,121.0722 300.8126,121.1122 301.1076,121.3242 C301.5906,121.6722 302.1006,121.9822 302.6406,122.3352" id="Fill-9"></path>
                <path d="M149.7174,1.6974 C149.2494,2.3704 148.6204,2.5354 148.0714,2.5984 C146.6844,2.7564 145.4574,3.3274 144.2064,3.8584 C143.6804,4.0814 143.3594,4.4254 143.4054,5.0344 C143.4444,5.5394 143.3114,5.9824 142.9614,6.3714 C142.8074,6.5434 142.7124,6.7814 142.6324,7.0044 C142.0934,8.5134 140.9564,9.3894 139.5224,9.9364 C138.6734,10.2594 138.5634,10.4214 138.7024,11.3324 C138.7484,11.6304 138.7714,11.9364 138.7624,12.2374 C138.7404,12.9714 138.2554,13.5324 137.5464,13.7384 C136.8514,13.9394 136.1334,14.1074 135.4864,14.4154 C134.4874,14.8914 133.4494,15.1844 132.3694,15.3554 C131.4454,15.5024 130.4914,15.5344 129.5974,15.7854 C128.9514,15.9674 128.3354,16.3634 127.7894,16.7744 C126.7414,17.5624 125.5544,17.9754 124.3024,18.2284 C123.4194,18.4064 122.5214,18.5234 121.6254,18.6194 C121.0984,18.6754 120.7074,18.9014 120.4124,19.3184 C120.1674,19.6634 119.9344,20.0164 119.7004,20.3684 C119.6334,20.4694 119.6064,20.6084 119.5204,20.6824 C118.5544,21.5044 117.7804,22.4964 117.0024,23.4874 C116.7434,23.8174 116.4184,24.0994 116.1064,24.3834 C115.3814,25.0464 114.7354,25.0384 114.0814,24.2844 C113.5634,23.6864 112.9884,23.4604 112.2354,23.7124 C111.7744,23.8664 111.4874,23.6564 111.2724,23.2654 C110.5814,22.0094 110.0164,20.7324 110.1204,19.2344 C110.1634,18.6124 109.9854,17.9784 109.9734,17.3484 C109.9494,16.0354 110.8364,14.9604 112.1214,14.6824 C112.1514,14.6764 112.1824,14.6774 112.2114,14.6714 C113.2304,14.4644 113.2884,14.2964 112.7274,13.4664 C112.4254,13.0184 112.1764,12.5304 111.9374,12.0434 C111.6894,11.5364 111.8374,11.0664 112.0734,10.5734 C112.6034,9.4714 112.4574,8.5124 111.6604,7.7414 C111.4324,7.5204 111.1174,7.3134 110.8144,7.2594 C109.5394,7.0324 108.2714,6.7124 106.9494,6.9894 C106.2324,7.1394 105.4984,7.0884 104.8034,6.8034 C104.0894,6.5114 103.6054,5.7904 103.6414,5.1194 C103.6594,4.7794 103.7694,4.5414 104.1374,4.4674 C104.5814,4.3784 105.0174,4.2304 105.4644,4.1744 C106.2424,4.0774 107.0314,4.0614 107.8074,3.9574 C108.6014,3.8504 109.4434,3.8334 109.9554,3.0214 C110.0454,2.8794 110.3224,2.8314 110.5234,2.7864 C111.5534,2.5524 112.5884,2.3404 113.6194,2.1064 C114.3534,1.9404 115.0784,1.7344 115.8144,1.5794 C116.2264,1.4934 116.6514,1.4704 117.0704,1.4264 C117.9714,1.3314 118.8724,1.2404 119.7734,1.1494 C120.1024,1.1154 120.4364,1.0344 120.7624,1.0604 C123.6224,1.2874 126.4274,0.8364 129.2434,0.4484 C130.3154,0.3014 131.4244,0.2764 132.5014,0.3694 C133.2744,0.4354 134.0104,0.3684 134.7494,0.2454 C136.9554,-0.1226 139.1534,-0.0676 141.3394,0.3544 C142.3134,0.5434 143.2554,0.9144 144.2324,1.0784 C145.2994,1.2574 146.3894,1.3264 147.4734,1.3774 C148.1894,1.4114 148.9124,1.3244 149.7174,1.6974" id="Fill-11"></path>
                <path d="M313.7365,114.4389 C313.8055,114.0069 313.8315,113.7169 313.8995,113.4379 C314.0005,113.0279 314.1585,112.6319 314.2435,112.2199 C314.4365,111.2779 313.9675,110.3059 313.1065,109.8809 C312.6745,109.6669 312.2105,109.5209 311.7625,109.3379 C311.3185,109.1569 310.8665,108.9889 310.4365,108.7779 C309.9535,108.5409 309.5195,108.3949 308.9945,108.7379 C308.6055,108.9939 308.2805,108.8819 308.1385,108.4269 C307.9235,107.7349 307.3225,107.1989 307.4835,106.3319 C307.5885,105.7729 307.0985,105.3519 306.5245,105.1629 C306.0945,105.0219 305.7505,104.8129 305.8405,104.3319 C306.4455,104.0939 306.9915,103.8679 307.5465,103.6649 C308.4705,103.3269 309.6685,103.7199 310.1965,104.5449 C310.2865,104.6859 310.2685,104.8919 310.3215,105.0619 C310.4115,105.3469 310.4755,105.6519 310.6265,105.9029 C310.9665,106.4699 311.2035,106.5079 311.8075,106.1699 C312.3835,105.8469 312.9535,105.5139 313.5325,105.1949 C313.9875,104.9449 314.4685,104.9709 314.9375,105.1399 C315.6775,105.4059 316.4065,105.6999 317.1445,105.9689 C318.2475,106.3719 319.3345,106.8479 320.4685,107.1319 C321.3175,107.3459 321.8945,107.9039 322.5205,108.3919 C323.1075,108.8499 323.5525,109.4879 324.0915,110.0149 C324.3615,110.2799 324.6775,110.5199 325.0145,110.6889 C325.6385,111.0029 326.0155,111.4289 325.9945,112.1639 C325.9755,112.7919 325.8455,113.4349 326.1825,114.0329 C326.3615,114.3509 326.5075,114.6439 326.9465,114.7209 C327.2085,114.7669 327.4665,115.0009 327.6665,115.2079 C328.0005,115.5549 328.3135,115.9319 328.5825,116.3309 C328.7185,116.5319 328.8555,116.9829 328.7945,117.0239 C328.5395,117.1929 328.0665,117.4269 327.9305,117.3179 C327.1845,116.7169 326.3085,116.8009 325.4645,116.6349 C325.0005,116.5439 324.5835,116.0509 324.2185,115.6679 C323.9555,115.3919 323.8045,115.0039 323.6205,114.6569 C323.2465,113.9479 322.5335,113.7159 321.8645,113.4629 C321.6815,113.3939 321.3215,113.5639 321.1525,113.7339 C320.8815,114.0039 320.6735,114.3509 320.4915,114.6929 C320.2025,115.2329 319.7465,115.4999 319.1695,115.4979 C318.4215,115.4939 317.6855,115.4769 317.0835,114.8529 C316.5225,114.2719 315.7955,114.1319 314.9855,114.3659 C314.6345,114.4669 314.2385,114.4149 313.7365,114.4389" id="Fill-13"></path>
                <path d="M289.7311,93.5345 C289.9821,93.7395 290.1551,93.8275 290.2501,93.9675 C290.7271,94.6675 291.4111,95.0945 292.1321,95.4925 C292.7991,95.8605 292.8441,96.0675 292.4431,96.7145 C292.2691,96.9945 292.0871,97.2985 291.8341,97.4965 C291.1571,98.0255 291.1791,98.6755 291.4281,99.3765 C291.7191,100.1955 292.0331,101.0065 292.4051,102.0045 C292.2851,102.0775 292.0831,102.1635 291.9291,102.3015 C291.6831,102.5235 291.3871,102.7435 291.2561,103.0305 C290.9151,103.7735 290.5701,104.4705 289.8201,104.9185 C289.6441,105.0235 289.6441,105.4535 289.5991,105.7405 C289.5101,106.3015 289.4721,106.8725 289.3651,107.4295 C289.2991,107.7695 289.2821,108.1915 288.8181,108.2835 C288.2161,108.4025 287.6621,108.8385 286.9911,108.5185 C286.5561,108.3115 286.0941,108.1615 285.6431,107.9895 C285.5301,107.9465 285.4001,107.8695 285.2971,107.8925 C284.3911,108.0985 283.6381,107.5585 282.8071,107.4105 C282.3121,107.3225 282.1031,107.0765 281.9671,106.6075 C281.8181,106.0945 281.5131,105.6285 281.3221,105.1245 C281.1321,104.6225 280.9791,104.1045 280.8471,103.5845 C280.7721,103.2945 280.8011,102.9795 280.7331,102.6875 C280.4211,101.3585 280.8451,100.6055 282.0411,100.0335 C283.1551,99.4995 284.2021,98.8285 285.2771,98.2155 C285.3551,98.1705 285.4471,98.1235 285.4941,98.0525 C286.1191,97.0915 287.0721,96.4975 287.9461,95.8065 C288.2941,95.5325 288.5441,95.1285 288.8221,94.7715 C289.1161,94.3935 289.3901,94.0005 289.7311,93.5345" id="Fill-15"></path>
                <path d="M281.2545,111.7937 C281.4765,111.7607 281.6915,111.7897 281.8275,111.6987 C282.4665,111.2757 283.1085,111.5337 283.7535,111.6387 C284.3155,111.7307 284.8765,111.8427 285.4425,111.8867 C285.8255,111.9167 286.1425,111.9707 286.3735,112.3237 C286.6765,112.7857 287.0605,113.1547 287.6285,113.3077 C287.8175,113.3597 287.9975,113.5237 288.1345,113.6777 C288.4755,114.0607 288.3355,114.4207 287.8235,114.4967 C287.1695,114.5937 286.5305,114.6947 285.8545,114.4957 C285.4385,114.3727 284.9565,114.4577 284.5045,114.4747 C283.5785,114.5077 282.6965,114.3527 281.8685,113.9257 C281.2405,113.6017 280.5875,113.4317 279.8685,113.4057 C279.0505,113.3767 278.2705,113.1477 277.5725,112.6657 C277.2095,112.4147 276.7595,112.2937 276.3845,112.0587 C275.7565,111.6647 275.3625,111.0467 274.9255,110.4637 C274.5685,109.9867 274.1105,109.5857 273.7005,109.1477 C273.4345,108.8617 273.1675,108.5757 272.9165,108.2777 C272.4495,107.7247 271.9925,107.1637 271.5355,106.6027 C271.4025,106.4397 271.2265,106.2857 271.1625,106.0957 C270.7415,104.8417 269.8945,103.8337 269.2435,102.7127 C269.0015,102.2967 268.8085,101.8527 268.5975,101.4197 C268.3855,100.9877 268.2205,100.5427 267.7435,100.2857 C267.5325,100.1717 267.3635,99.8977 267.2715,99.6587 C267.0685,99.1277 266.7215,98.7397 266.2995,98.3747 C265.7985,97.9417 265.3255,97.4697 264.8885,96.9727 C264.7035,96.7617 264.5735,96.4507 264.5415,96.1707 C264.4865,95.6947 264.7215,95.5207 265.2065,95.5907 C265.6245,95.6507 266.0425,95.7117 266.4585,95.7817 C267.1435,95.8977 267.7245,96.1807 268.0925,96.8077 C268.1835,96.9617 268.2835,97.1267 268.4185,97.2367 C270.2935,98.7607 271.8195,100.6757 273.8735,102.0057 C274.9385,102.6947 275.6725,103.6977 276.0085,104.9597 C276.1315,105.4237 276.3295,105.8087 276.7945,106.1107 C277.2485,106.4057 277.3825,106.9817 277.2935,107.5737 C277.1775,108.3537 277.1395,109.1377 277.4195,109.9037 C277.6715,110.5967 278.1885,111.0287 278.8725,111.1357 C279.4205,111.2217 279.9245,111.3347 280.4135,111.6007 C280.6675,111.7387 280.9955,111.7387 281.2545,111.7937" id="Fill-17"></path>
                <path d="M210.8476,118.9048 C211.0446,119.2458 211.1696,119.4448 211.2786,119.6528 C211.8076,120.6648 211.9336,121.7838 212.1166,122.8848 C212.2076,123.4328 212.0936,123.9618 211.7906,124.4488 C211.3576,125.1428 211.1366,125.9018 210.9556,126.7098 C210.6996,127.8498 210.2206,128.9408 209.8316,130.0508 C209.3416,131.4468 208.8556,132.8438 208.3496,134.2338 C208.1226,134.8558 207.8726,135.4738 207.5806,136.0678 C207.4866,136.2588 207.2446,136.4148 207.0356,136.5058 C206.5946,136.6978 206.1386,136.8658 205.6746,136.9898 C204.9046,137.1948 203.6916,136.4328 203.4346,135.5058 C203.1446,134.4598 202.9316,133.3818 203.0436,132.2848 C203.0756,131.9708 203.2386,131.6598 203.3856,131.3698 C203.5356,131.0758 203.7306,130.8028 203.9226,130.5328 C204.6626,129.4878 204.4666,128.3168 204.2456,127.2128 C204.0426,126.1968 204.5456,125.4618 204.9146,124.6528 C204.9786,124.5118 205.1766,124.4108 205.3336,124.3398 C205.6076,124.2158 205.8916,124.0858 206.1846,124.0338 C207.5426,123.7908 208.3066,122.8608 208.9326,121.7428 C209.3746,120.9538 209.8346,120.1738 210.3076,119.4028 C210.4086,119.2388 210.5986,119.1298 210.8476,118.9048" id="Fill-19"></path>
                <path d="M299.8856,62.1257 C299.8346,62.1037 299.7046,62.0817 299.6226,62.0067 C298.9116,61.3537 298.1376,60.7447 297.8346,59.7697 C297.7756,59.5787 297.7176,59.3427 297.7766,59.1667 C298.1546,58.0397 298.6466,56.9947 299.7006,56.2957 C300.0776,56.0457 300.4286,55.9187 300.8686,55.9127 C301.6736,55.9037 302.3816,55.6057 302.7786,54.8927 C303.2276,54.0887 303.9386,53.5837 304.6516,53.0937 C305.1906,52.7237 305.3546,52.2767 305.2156,51.7007 C305.0896,51.1767 304.9546,50.6357 304.7066,50.1627 C304.1816,49.1587 303.8686,48.0207 302.9316,47.2597 C302.5526,46.9527 302.3936,46.5257 302.5516,46.0387 C302.7576,45.4077 302.7526,44.8107 302.4726,44.1867 C302.3706,43.9587 302.4016,43.5237 302.5566,43.3707 C302.7066,43.2217 303.1266,43.2297 303.3726,43.3197 C304.0236,43.5567 304.6586,43.8477 305.2736,44.1687 C305.8496,44.4687 306.4326,44.6897 307.0896,44.6437 C307.4776,44.6157 307.7026,44.8077 307.8736,45.1357 C307.9966,45.3727 308.1556,45.5997 308.3336,45.7987 C308.6436,46.1447 308.5956,46.4687 308.2846,46.7507 C307.8386,47.1547 307.3806,47.5497 306.8966,47.9067 C306.3086,48.3417 306.1036,48.7927 306.5456,49.3087 C307.3826,50.2877 307.5616,51.5537 308.1526,52.6357 C308.3866,53.0647 308.4156,53.6217 308.4696,54.1267 C308.5396,54.7877 308.5506,55.4557 308.5696,56.1217 C308.5866,56.7247 308.3806,57.0117 307.8176,57.2027 C307.4456,57.3297 307.0766,57.4907 306.6936,57.5507 C305.8886,57.6777 305.3056,58.0417 304.9586,58.8067 C304.7486,59.2717 304.2706,59.3537 303.8086,59.4127 C303.3296,59.4747 302.8416,59.5077 302.3776,59.6307 C301.5816,59.8417 300.9396,60.2287 300.7936,61.1617 C300.7086,61.7017 300.2896,62.1097 299.8856,62.1257" id="Fill-21"></path>
                <path d="M327.6177,163.8437 C327.7787,163.3917 328.0897,163.0217 328.5617,162.7597 C329.4577,162.2627 330.3237,161.7087 331.2357,161.2437 C331.9537,160.8767 332.7057,160.5577 333.4717,160.3057 C334.6777,159.9077 335.7097,159.2587 336.6027,158.3707 C336.6667,158.3067 336.7147,158.2237 336.7857,158.1697 C337.5197,157.6167 338.3467,157.1977 339.0337,156.5727 C339.1827,156.4367 339.4997,156.4977 339.7307,156.4367 C340.6107,156.2057 341.5007,155.9987 341.8277,154.9537 C341.8887,154.7607 342.1397,154.5947 342.3407,154.4817 C343.9677,153.5617 344.5217,152.2917 344.2087,150.3877 C344.1047,149.7597 343.9617,149.0567 344.5227,148.5117 C344.5847,148.4517 344.6747,148.4217 344.7947,148.3527 C345.3747,148.9047 346.0197,149.3867 346.0907,150.3017 C346.1227,150.7187 346.2577,151.1307 346.3717,151.5377 C346.4987,151.9887 346.7867,152.2557 347.2847,152.2727 C347.7067,152.2867 348.2387,152.2837 348.3647,152.7427 C348.5147,153.2857 348.0277,153.5977 347.6287,153.8767 C347.0117,154.3087 346.3727,154.7087 345.7697,155.1587 C345.4337,155.4087 345.1207,155.7067 344.8527,156.0297 C343.8967,157.1837 342.6037,157.7147 341.2127,158.1037 C340.8197,158.2137 340.4177,158.3857 340.0947,158.6287 C339.1317,159.3547 338.2207,160.1517 337.2567,160.8767 C336.8767,161.1617 336.4307,161.4317 335.9767,161.5277 C334.6947,161.7997 333.6867,162.5327 332.6407,163.2497 C331.9017,163.7557 331.0967,164.2797 330.2477,164.4767 C329.4037,164.6717 328.4557,164.5217 327.6627,163.9947 C327.6437,163.9817 327.6447,163.9387 327.6177,163.8437" id="Fill-23"></path>
                <path d="M151.6209,26.5021 C152.9059,26.5051 153.6309,27.2271 153.6319,28.4271 C153.6329,29.7061 154.1519,30.7321 155.0269,31.6301 C155.2229,31.8311 155.3329,32.1381 155.4219,32.4161 C155.5899,32.9481 155.7729,33.3721 156.4129,33.5611 C157.1799,33.7881 157.2089,34.2151 156.6619,34.8401 C156.4559,35.0751 156.3389,35.3871 156.1529,35.6431 C156.0349,35.8071 155.8879,36.0071 155.7129,36.0631 C155.1439,36.2441 154.5639,36.4171 153.9739,36.5001 C152.9939,36.6381 151.9759,36.5831 151.1119,37.2051 C150.9729,37.3051 150.7769,37.3521 150.6019,37.3681 C150.1389,37.4111 149.8909,37.1641 149.9929,36.7171 C150.2199,35.7191 150.4539,34.7191 150.7569,33.7431 C150.8279,33.5131 151.1599,33.3131 151.4169,33.2031 C151.7329,33.0691 152.2459,33.1671 152.2549,32.6941 C152.2629,32.2051 152.0119,31.7471 151.5109,31.5511 C150.8909,31.3091 150.4739,30.8491 150.0419,30.3761 C149.7509,30.0591 149.6199,29.7271 149.6349,29.3151 C149.6379,29.2241 149.6609,29.1231 149.6289,29.0441 C149.3309,28.3041 149.7449,27.8081 150.1549,27.2591 C150.5769,26.6931 151.0339,26.3461 151.6209,26.5021" id="Fill-25"></path>
                <path d="M297.3218,109.6989 C297.2158,109.8869 297.1378,110.1619 296.9568,110.3099 C296.7038,110.5169 296.4398,110.3559 296.2488,110.1309 C295.8698,109.6859 295.3108,109.7239 294.8228,109.6569 C294.5948,109.6249 294.3068,109.8969 294.0748,110.0699 C293.9638,110.1529 293.9388,110.3409 293.8418,110.4519 C293.6028,110.7269 293.2648,110.8859 292.9628,110.6749 C292.7958,110.5579 292.7458,110.2189 292.7218,109.9729 C292.7028,109.7729 292.8148,109.5629 292.8418,109.3529 C292.9178,108.7689 292.9258,108.2419 292.3368,107.8289 C291.8828,107.5109 291.9058,106.9599 292.1748,106.4399 C292.3488,106.1039 292.4448,105.7269 292.5678,105.3659 C292.6358,105.1669 292.6998,104.9659 292.7458,104.7609 C292.8368,104.3549 292.9598,103.9489 292.9858,103.5369 C293.0348,102.7569 293.3818,102.2279 293.9978,101.7289 C294.6348,101.2139 295.1928,101.0639 295.9438,101.3869 C296.2628,101.5239 296.6598,101.4779 297.0178,101.5339 C297.7548,101.6489 298.3988,101.5929 298.8048,100.8249 C298.8838,100.6739 299.2018,100.6489 299.4088,100.5659 C299.4828,100.8059 299.6788,101.0939 299.6068,101.2769 C299.4358,101.7139 299.1848,102.1409 298.8808,102.5009 C298.4898,102.9619 298.0788,103.3599 297.9388,104.0079 C297.8698,104.3279 297.4978,104.6519 297.1818,104.8329 C296.6598,105.1309 296.4118,105.5419 296.5018,106.0949 C296.6268,106.8659 296.8318,107.6229 297.0058,108.3849 C297.1008,108.7959 297.2028,109.2049 297.3218,109.6989" id="Fill-27"></path>
                <path d="M135.0821,18.2714 C135.8031,17.4044 136.6111,17.0604 137.7881,17.4034 C138.5351,17.6204 139.3911,17.5084 140.1951,17.4744 C140.9751,17.4424 141.7521,17.3204 142.5301,17.2384 C143.3651,17.1524 143.8801,17.6904 144.3461,18.2404 C144.4681,18.3834 144.4511,18.8244 144.3211,18.9634 C144.0451,19.2564 143.6801,19.5084 143.3041,19.6574 C142.2141,20.0904 141.0971,20.4514 140.0011,20.8674 C139.6151,21.0134 139.2831,21.0254 138.8761,20.8834 C138.4041,20.7184 137.8771,20.6554 137.3731,20.6474 C136.6671,20.6364 136.2871,20.2944 136.0021,19.6824 C135.7811,19.2084 135.4301,18.7944 135.0821,18.2714" id="Fill-29"></path>
                <path d="M297.6207,86.1869 C296.8607,86.4649 296.3107,86.2449 295.8007,85.8899 C295.2507,85.5079 294.7027,85.2119 293.9987,85.1229 C293.0677,85.0039 291.7197,83.6609 291.5957,82.4279 C291.4777,81.2609 291.6857,80.1349 291.9907,79.0219 C292.0347,78.8619 292.1587,78.6829 292.2977,78.5979 C293.3857,77.9309 294.8537,78.7149 294.8947,79.9869 C294.9187,80.7119 294.9367,81.4249 294.3957,82.0439 C294.0927,82.3899 294.2177,83.5109 294.5357,83.8449 C294.6597,83.9749 294.9097,84.0779 295.0827,84.0529 C295.8547,83.9379 296.4967,84.3439 297.1807,84.5549 C297.3707,84.6129 297.5497,84.9309 297.6027,85.1589 C297.6747,85.4729 297.6207,85.8149 297.6207,86.1869" id="Fill-31"></path>
                <path d="M57.0755,74.2757 C57.2885,73.4367 57.9565,72.9837 58.7145,72.6987 C60.1845,72.1457 61.6335,72.1227 63.1175,72.8167 C64.1355,73.2927 65.1335,73.7147 65.9655,74.5227 C66.4695,75.0107 67.1885,75.2767 67.8125,75.6407 C68.1515,75.8387 68.5085,76.0097 68.8305,76.2337 C69.2775,76.5457 69.2565,76.8277 68.7905,77.1397 C68.3205,77.4537 67.8165,77.4947 67.3325,77.2127 C66.8915,76.9567 66.4805,76.8537 65.9595,76.9927 C65.3785,77.1477 65.3075,77.0467 65.0915,76.4087 C65.0345,76.2417 64.9815,76.0147 64.8535,75.9407 C63.7055,75.2717 62.8435,74.0477 61.3175,74.0987 C61.1735,74.1037 61.0195,74.0437 60.8825,73.9857 C60.1375,73.6717 59.4225,73.7317 58.6895,74.0627 C58.2355,74.2667 57.7355,74.3667 57.2555,74.5137 C57.1955,74.4347 57.1355,74.3547 57.0755,74.2757" id="Fill-33"></path>
                <path d="M148.6391,30.5719 C148.8411,30.6189 149.2441,30.6549 149.5971,30.8079 C150.3011,31.1129 150.4241,31.9209 149.8261,32.3999 C149.5261,32.6389 149.4321,32.8829 149.4031,33.2349 C149.3781,33.5289 149.2631,33.8169 149.1721,34.1019 C149.0521,34.4789 148.8171,34.6409 148.3951,34.7269 C147.8211,34.8449 147.2621,35.1059 146.7351,35.3799 C145.8721,35.8299 145.4421,35.7439 145.0691,34.8899 C144.9771,34.6789 144.9691,34.3299 145.0851,34.1489 C145.3971,33.6649 145.5171,33.1849 145.4611,32.6089 C145.3981,31.9569 145.4651,31.9849 146.0971,31.7479 C146.5061,31.5949 146.9101,31.3459 147.2221,31.0429 C147.5851,30.6899 147.9861,30.5849 148.6391,30.5719" id="Fill-35"></path>
                <path d="M68.2578,79.0415 C68.8758,78.1435 69.6578,78.4985 70.2368,78.2255 C70.5918,77.6125 69.4878,77.4195 69.8268,76.7935 C70.6458,76.7935 71.4718,76.7905 72.2978,76.7955 C72.4178,76.7965 72.5478,76.8065 72.6538,76.8545 C73.3908,77.1915 74.1228,77.5385 74.8548,77.8855 C75.1678,78.0325 75.4638,78.2045 75.3798,78.6255 C75.3058,79.0015 74.9948,79.0295 74.6868,79.0865 C73.9798,79.2175 73.2798,79.3935 72.5718,79.5185 C71.1348,79.7705 69.7878,79.3555 68.2578,79.0415" id="Fill-37"></path>
            </g>
        </g>
    </g>
</svg>