<?xml version="1.0" encoding="UTF-8"?>
<svg width="729px" height="368px" viewBox="0 0 729 368" version="1.1" xmlns="http://www.w3.org/2000/svg" xmlns:xlink="http://www.w3.org/1999/xlink">
    <!-- Generator: Sketch 40.3 (33839) - http://www.bohemiancoding.com/sketch -->
    <title>map-marker</title>
    <desc>Created with Sketch.</desc>
    <defs>
        <polygon id="path-1" points="97.1534 0.698 0.774590569 0.698 0.774590569 52.7073279 97.1534 52.7073279 97.1534 0.698"></polygon>
        <polygon id="path-3" points="43.708 34.8924962 43.708 0.9957 0.2549 0.9957 0.2549 34.8924962 43.708 34.8924962"></polygon>
    </defs>
    <g id="Page-1" stroke="none" stroke-width="1" fill="none" fill-rule="evenodd">
        <g id="Artboard-8" transform="translate(-171.000000, -111.000000)">
            <g id="map-marker" transform="translate(171.000000, 110.000000)">
                <path d="M354.3951,68.5064 C356.9611,67.7874 359.3251,67.1074 361.7001,66.4714 C362.2441,66.3264 362.8261,66.2824 363.3921,66.2744 C366.0001,66.2334 367.1931,65.2644 367.7151,62.7174 C367.8171,62.2224 367.9141,61.7274 368.0211,61.2344 C368.3361,59.7904 369.1501,58.8664 370.6731,58.6464 C371.5131,58.5254 372.2571,58.2534 372.6381,57.3704 C373.3481,55.7244 372.8251,54.3904 371.1441,53.6764 C371.0281,53.6274 370.9031,53.5964 370.7811,53.5624 C367.7011,52.7214 366.8651,50.3244 366.5591,47.5304 C366.4071,46.1474 367.0821,45.2804 368.1361,44.5234 C369.6201,43.4564 371.0391,42.2984 372.5031,41.2044 C372.8051,40.9794 373.1871,40.8614 373.6151,40.6534 C371.3411,39.0184 368.3491,39.2864 367.4121,41.2014 C366.1881,43.7014 364.0461,44.8884 361.8161,46.0894 C359.5971,47.2834 359.3721,49.4294 361.2671,51.1084 C362.0591,51.8104 362.7581,52.6174 363.4631,53.3384 C362.8421,55.0984 361.9301,56.2964 360.2701,56.8084 C359.4941,57.0484 359.2721,57.6614 359.1751,58.4164 C359.0221,59.6064 358.8031,60.7894 358.5651,61.9664 C358.3571,62.9914 357.8671,63.6534 356.6371,63.6204 C356.0541,63.6044 355.3501,63.8564 354.8901,64.2234 C353.3471,65.4584 351.4371,65.3714 349.6751,65.7844 C349.3131,65.8694 348.6691,65.5474 348.4381,65.2154 C348.0931,64.7194 348.2441,64.1164 348.8231,63.7414 C349.3011,63.4314 349.7781,63.1224 350.2591,62.8194 C350.9671,62.3734 351.2511,61.7064 350.7251,61.0564 C349.3801,59.3964 348.3161,57.4954 346.5241,56.2044 C345.8861,55.7434 345.3821,55.7694 344.8111,56.1794 C344.2961,56.5484 343.8001,56.9434 343.2901,57.3184 C342.2221,58.1024 341.0091,58.4154 339.7051,58.3214 C338.2341,58.2164 337.1801,57.2034 336.8801,55.7464 C336.7411,55.0674 336.4761,54.4134 336.3461,53.7324 C336.0971,52.4354 335.9011,51.1274 335.6901,49.8234 C335.4441,48.3064 336.2611,47.5884 337.5421,46.9414 C340.6301,45.3814 343.6571,43.6934 346.6591,41.9714 C347.4021,41.5454 347.9801,40.8134 348.5931,40.1814 C349.8671,38.8664 351.1031,37.5164 352.3751,36.1994 C352.9431,35.6114 353.5961,35.1024 354.1481,34.4994 C356.2451,32.2074 358.7551,30.4044 361.1971,28.5234 C361.4681,28.3144 361.9011,28.2934 362.2671,28.2324 C364.1641,27.9154 366.1901,28.1374 367.7851,26.6404 C368.1301,26.3174 368.8701,26.3084 369.4221,26.3294 C373.2111,26.4704 377.0101,26.5354 380.7801,26.8914 C382.2981,27.0344 383.8821,27.6284 385.2061,28.4064 C387.6861,29.8654 390.4741,30.1204 393.1311,30.8894 C395.1301,31.4674 397.0981,32.1534 399.0961,32.7374 C400.9081,33.2674 402.7331,33.7604 404.5731,34.1814 C404.9291,34.2634 405.4251,34.0064 405.7751,33.7804 C406.3031,33.4394 406.7441,32.9694 407.2471,32.5864 C408.5881,31.5624 410.1631,31.4414 411.4261,32.4864 C412.6861,33.5294 413.9771,33.6914 415.5001,33.3204 C417.4051,32.8564 419.3191,32.5134 421.0571,31.4874 C422.6851,30.5264 424.5021,30.9274 426.2631,31.1084 C429.0681,31.3984 431.7851,31.2524 434.2841,29.6994 C435.3631,29.0294 436.5571,28.6024 437.8821,28.6844 C438.5761,28.7274 439.2771,28.6594 439.9721,28.6974 C441.5811,28.7844 442.7501,28.1594 443.6171,26.7744 C444.1101,25.9884 444.8351,25.3494 445.6341,24.4414 C445.6341,24.3374 445.6581,23.9614 445.6291,23.5894 C445.5541,22.6444 446.1151,22.1854 446.9071,21.9564 C448.9241,21.3734 450.9471,21.2214 452.7321,22.5544 C453.8151,23.3634 454.9331,23.3764 456.1521,23.1864 C457.7081,22.9444 459.2671,22.7214 460.8281,22.5134 C462.2181,22.3284 463.5461,22.1684 464.4301,20.7794 C464.7311,20.3074 465.6051,20.0484 466.2491,19.9744 C468.5371,19.7114 470.5611,18.9894 472.6141,17.8374 C474.4711,16.7974 476.4991,15.7654 478.8021,15.6034 C480.5581,15.4804 482.2781,14.8904 484.0341,14.7244 C486.6371,14.4794 489.0471,13.9064 491.3971,12.6154 C493.2821,11.5804 495.4931,11.4534 497.6521,12.3804 C498.5581,12.7694 499.6171,12.8044 500.6071,12.9954 C500.7301,13.0184 500.8701,12.9774 500.9851,13.0174 C504.1481,14.1174 507.5141,13.6174 510.7331,14.2494 C513.1271,14.7184 515.1471,15.8024 516.4081,18.0004 C517.2431,19.4564 518.5661,20.0544 520.1641,20.2014 C521.4861,20.3224 522.8041,20.4774 524.1281,20.5744 C524.7531,20.6214 525.4351,20.7184 526.0081,20.5344 C528.8541,19.6214 531.7861,19.7484 534.6781,19.9024 C538.5211,20.1084 542.3441,20.8164 546.1851,20.9084 C549.1951,20.9804 551.6511,22.0674 554.1511,23.5264 C555.5341,24.3334 557.2331,24.9584 558.8011,24.9854 C560.3611,25.0114 562.0721,24.4384 563.4751,23.6804 C566.0691,22.2784 568.6431,21.8764 571.5241,22.4824 C573.2411,22.8434 575.0551,22.7174 576.8171,22.8894 C579.1391,23.1154 581.4841,23.2704 583.7641,23.7294 C586.2271,24.2244 588.6641,24.9274 591.0431,25.7434 C592.7881,26.3424 594.5401,26.4754 596.2841,26.2104 C599.2231,25.7644 602.0781,25.9814 604.9391,26.6944 C606.4601,27.0734 607.9351,27.3604 609.3121,28.3144 C610.2091,28.9354 611.6101,28.9674 612.7951,29.0064 C615.7701,29.1054 618.7511,29.0654 621.7291,29.0624 C622.2971,29.0624 622.8941,29.0744 623.4291,28.9174 C626.9241,27.8944 630.4491,28.1994 633.9711,28.6424 C637.8591,29.1324 641.7421,29.6624 645.6211,30.2204 C647.6211,30.5074 649.6021,30.9174 651.5991,31.2264 C654.6791,31.7044 657.6741,32.5274 660.4821,33.8464 C663.0651,35.0604 665.8231,35.3574 668.5581,35.7654 C670.6761,36.0814 672.5881,36.8784 674.4321,37.8434 C675.1681,38.2284 675.8131,38.9674 676.2571,39.6944 C676.9801,40.8744 676.2331,42.9604 674.4531,42.7594 C673.7021,42.6744 672.9051,42.7774 672.1951,42.5694 C669.8921,41.8934 667.5961,41.1744 665.3421,40.3504 C663.9581,39.8444 662.8421,40.2714 661.7961,41.0434 C660.9041,41.7014 660.9291,42.6554 661.9071,43.1854 C663.0081,43.7804 664.2291,44.1514 665.3861,44.6464 C666.0711,44.9394 666.8111,45.1844 667.3841,45.6314 C668.0181,46.1244 667.9081,46.7784 667.1831,47.1444 C666.6921,47.3924 666.1001,47.5814 665.5591,47.5654 C663.7601,47.5124 662.3911,48.3444 661.1851,49.5324 C660.5101,50.1974 659.9011,50.9294 659.2751,51.6424 C658.0901,52.9884 656.6281,53.6414 654.8611,53.1804 C652.7891,52.6394 651.3871,54.0544 649.8321,54.8704 C649.0741,55.2674 649.2821,56.3534 649.7411,57.0994 C650.0711,57.6334 650.5251,58.0924 650.9271,58.5814 C652.1651,60.0854 653.5971,61.4594 654.1711,63.4114 C654.2051,63.5274 654.2831,63.6564 654.3791,63.7254 C657.1081,65.7014 656.4451,68.5484 656.2011,71.2134 C656.0691,72.6474 655.5601,74.0494 655.1861,75.4564 C654.8611,76.6784 653.9811,77.0544 653.1121,76.1614 C650.9041,73.8934 647.9331,72.5064 646.0641,69.8364 C645.3541,68.8224 644.3391,67.9574 643.3111,67.2424 C641.3861,65.9034 640.0591,64.0474 638.7191,62.2164 C637.3531,60.3504 637.5771,58.3294 638.5251,56.3054 C638.9761,55.3434 639.3411,54.3294 639.6181,53.3044 C639.9291,52.1504 639.5641,51.6434 638.4501,51.4504 C638.1411,51.3964 637.8181,51.4274 637.5021,51.4234 C636.0841,51.4034 634.8171,51.0964 633.7251,50.0504 C632.6351,49.0054 631.1711,48.9444 629.7851,49.2294 C628.3331,49.5284 627.8261,50.9414 628.6221,52.2004 C628.9581,52.7314 629.4531,53.1634 629.7761,53.7004 C630.3911,54.7224 630.1741,55.5724 629.0671,55.7324 C626.8651,56.0494 624.5881,56.7064 622.4831,55.2544 C622.1861,55.0494 621.7691,54.9074 621.4121,54.9154 C618.8961,54.9724 616.3801,55.0854 613.8641,55.1574 C613.1171,55.1784 612.3681,55.1314 611.6201,55.1064 C610.6761,55.0754 609.7301,54.9714 608.7891,55.0114 C607.0551,55.0844 605.9031,55.9254 605.2021,57.5884 C604.3421,59.6264 603.6111,61.6854 603.1881,63.8564 C603.0331,64.6504 603.2891,65.1964 604.0081,65.5774 C605.1811,66.1994 606.3271,66.8734 607.5021,67.4924 C607.8281,67.6644 608.2561,67.8794 608.5701,67.8024 C610.9691,67.2104 613.3741,68.1844 615.7211,67.8064 C618.0231,67.4354 619.4651,68.3314 620.6031,70.1334 C620.7041,70.2934 620.8001,70.5094 620.9531,70.5764 C623.0321,71.4954 623.8381,73.6814 625.4441,75.0704 C625.9181,75.4794 626.3461,75.9744 626.6841,76.5014 C627.5851,77.9044 628.5201,79.2094 630.2201,79.7854 C630.7051,79.9494 631.1911,80.4564 631.4341,80.9314 C632.1511,82.3304 632.7341,83.7984 633.3961,85.2274 C633.7391,85.9694 634.1101,86.7004 634.5131,87.4114 C635.1451,88.5244 635.1461,89.2164 634.4571,89.7844 C633.6491,90.4494 632.4761,90.4114 631.6891,89.6294 C631.3841,89.3264 631.1881,88.9084 630.9611,88.5314 C630.1121,87.1234 629.2731,85.7094 628.4251,84.3014 C628.3281,84.1394 628.2161,83.9774 628.0791,83.8514 C626.3321,82.2474 625.1311,82.0794 624.3781,84.5754 C624.0341,85.7164 623.7671,86.9224 623.7321,88.1064 C623.6921,89.4704 623.3611,90.7094 622.9091,91.9734 C622.4631,93.2174 622.1741,94.5214 621.8691,95.8124 C621.2031,98.6344 620.3921,99.3144 617.5891,99.3204 C615.8191,99.3244 615.0761,99.8274 614.4451,101.4724 C614.2411,102.0044 613.9621,102.5364 613.9051,103.0884 C613.7781,104.3244 613.0821,105.1674 612.2351,105.9704 C610.9491,107.1914 610.8951,107.8854 612.3621,108.7974 C614.3441,110.0284 615.8291,111.7064 617.3491,113.4114 C618.6611,114.8824 619.3061,116.6434 619.9641,118.4254 C620.2161,119.1074 620.0871,119.8394 619.4481,120.0714 C617.6931,120.7094 616.0901,121.8544 613.9331,121.8864 C613.5171,120.9584 612.9131,120.0854 612.7391,119.1344 C612.1871,116.1204 610.1431,114.2664 607.8431,112.6594 C606.7061,111.8644 605.8951,111.1444 605.6061,109.6444 C605.1571,107.3054 602.0461,106.5524 600.0811,108.1554 C599.5921,108.5544 599.1991,109.0814 598.6821,109.4334 C598.0801,109.8444 597.4431,109.8164 597.1331,109.0284 C596.8631,108.3414 596.6221,107.6304 596.4811,106.9074 C596.2701,105.8224 595.2081,105.2394 594.2371,105.7474 C592.9141,106.4404 592.0671,108.2244 592.6921,109.6004 C593.1671,110.6494 593.9641,111.6064 594.8051,112.4074 C595.1381,112.7244 596.0331,112.6784 596.5731,112.4994 C597.4261,112.2164 598.1481,112.3234 598.9611,112.5994 C599.7851,112.8784 600.6691,113.0044 601.5371,113.1234 C602.2141,113.2154 602.8571,113.3624 602.9221,114.1384 C602.9881,114.9294 602.3751,115.2714 601.7031,115.3184 C599.9951,115.4374 599.4471,116.7894 598.8101,118.0054 C598.6411,118.3274 598.7071,118.8814 598.8651,119.2414 C599.0891,119.7494 599.4921,120.1804 599.8291,120.6364 C601.0271,122.2584 602.2341,123.8744 603.4291,125.4984 C603.7661,125.9554 603.9761,126.5784 604.4131,126.8774 C606.9641,128.6194 607.5981,131.4324 608.1931,134.0974 C608.5401,135.6524 608.4551,137.4184 607.7991,139.0934 C606.9781,141.1944 606.4581,143.4124 605.8101,145.5804 C605.7381,145.8224 605.7401,146.1124 605.6011,146.3024 C604.2681,148.1234 603.2201,150.1174 601.4501,151.6644 C600.0771,152.8654 598.5361,153.5594 596.9881,154.3784 C595.5051,155.1624 594.2131,156.2994 592.7671,157.1654 C590.9271,158.2674 589.0061,159.2364 587.1381,160.2934 C585.7761,161.0644 584.5941,160.6594 583.4421,159.8384 C582.7201,159.3244 582.0211,158.7614 581.2461,158.3444 C580.8561,158.1344 580.2181,157.9984 579.8631,158.1744 C577.7961,159.1994 576.6191,160.9984 576.2621,163.2004 C576.1401,163.9554 576.5821,164.9774 577.0901,165.6234 C578.3361,167.2094 579.7961,168.6244 581.1231,170.1494 C582.3241,171.5304 583.4641,172.9654 584.6281,174.3774 C584.7081,174.4754 584.7971,174.5794 584.8331,174.6964 C585.7351,177.6304 587.1431,180.4584 586.6811,183.6754 C586.4541,185.2594 585.4691,186.3934 584.2011,187.0924 C581.9161,188.3524 580.4301,190.3924 578.6821,192.1864 C578.4191,192.4564 578.1651,192.7484 577.8591,192.9624 C577.0311,193.5414 576.5621,193.4854 575.9251,192.6904 C575.5311,192.1994 575.2031,191.6524 574.8851,191.1064 C573.7811,189.2104 572.2811,187.5884 571.2891,185.5924 C570.6901,184.3864 569.6241,183.3754 568.6381,182.4104 C567.6611,181.4544 565.5621,181.7564 564.7781,182.9584 C563.6201,184.7344 562.9981,186.7274 562.8721,188.8494 C562.8331,189.4914 562.9371,190.1354 563.7271,190.3534 C564.5831,190.5894 564.8151,191.2784 565.0541,192.0414 C565.7311,194.2054 566.8901,196.0034 568.8391,197.3174 C570.8691,198.6854 572.2801,200.6574 573.4091,202.8104 C573.6651,203.2984 573.8581,203.8874 573.8561,204.4294 C573.8451,206.4994 574.2981,208.4284 575.1881,210.2994 C575.5371,211.0324 576.2291,211.9504 575.2771,212.7174 C574.3661,213.4514 573.6681,212.5904 572.8871,212.2344 C568.9521,210.4454 567.2991,206.8974 565.8521,203.1924 C564.7111,200.2684 563.0611,197.6844 560.9351,195.3784 C560.5421,194.9524 560.2911,194.2984 560.1931,193.7134 C559.8151,191.4714 560.4941,189.2444 560.3201,186.9574 C560.2151,185.5774 560.4091,184.1204 560.2371,182.6674 C560.0221,180.8494 559.2181,179.2914 558.4841,177.6844 C558.0371,176.7064 557.4661,175.7554 557.2061,174.7274 C556.4921,171.9084 554.6101,171.4334 552.2791,173.2134 C552.0311,173.4024 551.7841,173.5924 551.5711,173.7564 C550.8611,173.5084 550.2351,173.2184 549.5771,173.0774 C548.7051,172.8904 548.3501,172.3604 548.5541,171.5744 C549.2451,168.9244 547.8251,166.7994 546.9611,164.5074 C546.3411,162.8634 544.7031,162.2024 543.8191,160.8364 C543.0351,159.6234 542.1161,158.4974 541.3391,157.2804 C540.3351,155.7084 539.9921,155.5584 538.0761,155.9554 C536.6541,156.2504 535.1931,156.3754 533.7901,156.7354 C532.8361,156.9794 531.9211,157.4414 531.0571,157.9274 C530.7361,158.1084 530.4321,158.6314 530.4251,159.0054 C530.3891,160.8184 529.1341,161.7204 527.8031,162.4364 C526.6971,163.0324 525.9871,163.8994 525.1781,164.8004 C523.8001,166.3364 522.9971,168.4014 521.0321,169.4154 C520.7741,169.5484 520.6331,169.8954 520.4171,170.1234 C519.5571,171.0284 518.7531,172.0014 517.8071,172.8064 C516.5561,173.8704 515.7891,174.9864 516.2431,176.7464 C516.9291,179.4024 516.1211,182.0284 515.8891,184.6634 C515.8621,184.9764 515.6741,185.2944 515.7131,185.5894 C516.1121,188.5974 514.3531,190.4674 512.3001,192.2064 C511.8211,192.6124 511.4481,193.1454 510.9671,193.5494 C510.0771,194.2974 509.2361,194.2714 508.4531,193.4294 C507.9851,192.9254 507.5471,192.3474 507.2621,191.7264 C505.8691,188.6854 504.5201,185.6234 503.1851,182.5564 C502.8331,181.7464 502.6581,180.8554 502.2791,180.0604 C501.4941,178.4104 500.4761,176.8584 499.8241,175.1624 C498.4671,171.6364 496.6501,168.2474 496.4661,164.3374 C496.4101,163.1604 496.0451,161.9954 495.7911,160.8304 C495.5051,159.5214 494.5721,158.9484 493.2621,159.2544 C492.8921,159.3404 492.5211,159.4364 492.1681,159.5744 C491.2571,159.9284 490.6241,159.5894 489.9971,158.9054 C489.2371,158.0744 488.3271,157.3804 487.5541,156.5594 C487.0511,156.0254 486.5471,155.4224 486.2731,154.7554 C485.8021,153.6044 485.1741,152.5784 484.1581,151.9064 C482.5461,150.8404 481.3841,149.3664 480.1231,147.9564 C479.6731,147.4534 478.8671,147.0914 478.1851,147.0164 C477.1981,146.9084 476.1551,147.0184 475.1721,147.2134 C471.7771,147.8874 468.3961,148.0054 464.9951,147.2714 C463.1411,146.8704 461.2801,146.4824 459.4081,146.1814 C458.1921,145.9854 457.4651,145.3634 457.1281,144.2094 C457.0391,143.9064 456.9151,143.6094 456.7661,143.3314 C456.2621,142.3864 455.9681,142.3154 454.9531,142.7504 C454.2011,143.0724 453.4381,143.3774 452.6571,143.6164 C452.2481,143.7414 451.7271,143.8634 451.3651,143.7174 C449.6141,143.0144 447.8871,142.2454 446.1801,141.4404 C445.6161,141.1744 445.1821,140.5734 444.6061,140.3984 C443.0521,139.9264 442.5701,138.7774 442.0921,137.3704 C441.4991,135.6244 440.5571,133.9964 438.3631,133.7804 C436.7571,133.6234 435.5471,135.0354 436.1171,136.5544 C437.1061,139.1934 438.8981,141.1584 441.3981,142.4814 C444.4351,144.0884 445.1531,145.5124 444.6791,148.9354 C445.2811,149.8424 446.2681,149.5704 447.1041,149.6424 C449.2221,149.8254 451.0671,149.4604 452.3621,147.4184 C453.2641,145.9954 455.3591,146.1664 456.4101,147.5474 C456.7541,147.9994 457.0511,148.4884 457.3641,148.9644 C458.0791,150.0474 458.8181,150.9734 460.3801,150.7994 C460.8901,150.7434 461.5961,151.2024 461.9921,151.6294 C462.8491,152.5554 463.6351,153.5674 464.3001,154.6374 C464.5511,155.0404 464.5761,155.7844 464.3791,156.2274 C463.6891,157.7784 462.8601,159.2674 462.0771,160.7774 C461.7871,161.3354 461.3241,161.8544 461.2071,162.4434 C460.6311,165.3654 458.3211,166.6694 456.1741,168.2374 C454.1691,169.7014 451.9151,170.6044 449.7531,171.7264 C449.0501,172.0914 448.3221,172.6984 447.9681,173.3814 C447.2141,174.8404 445.9401,175.3534 444.5411,175.8474 C443.1211,176.3494 441.7451,176.9774 440.3581,177.5704 C440.0121,177.7174 439.7171,177.9854 439.3691,178.1244 C436.5641,179.2494 433.7501,180.3544 430.9421,181.4724 C430.1521,181.7874 429.3731,181.6904 428.8371,181.0894 C428.0931,180.2564 427.4331,179.3324 426.8491,178.3774 C426.3281,177.5254 425.9171,176.5974 425.5331,175.6724 C424.8801,174.1004 424.3321,172.4834 423.6521,170.9234 C423.1511,169.7744 422.5091,168.6874 421.9301,167.5734 C421.6701,167.0744 421.3261,166.6014 421.1661,166.0724 C420.5911,164.1764 419.4801,162.6094 417.8711,161.5734 C416.3441,160.5894 415.6051,159.2724 415.1981,157.6154 C414.8521,156.2094 414.6311,154.7254 414.0031,153.4494 C413.4091,152.2394 412.3561,151.2544 411.5091,150.1674 C411.0911,149.6324 410.6361,149.1184 410.2801,148.5434 C409.5511,147.3634 408.9731,146.0814 408.1621,144.9654 C406.5531,142.7544 405.1051,140.4754 404.1541,137.8934 C403.5681,136.3004 402.8541,134.7554 402.2641,133.1644 C401.7831,131.8674 401.8321,130.5934 402.5051,129.3144 C402.8801,128.6024 402.9811,127.7494 403.2281,126.9674 C403.7201,125.4074 404.3991,123.8824 404.6811,122.2854 C404.9511,120.7564 405.0241,119.1254 404.7981,117.5964 C404.5841,116.1464 402.7071,115.6354 401.2091,116.4544 C400.4361,116.8774 399.7611,117.5324 398.7881,117.3514 C398.1221,117.2284 397.4621,117.0564 396.8151,116.8574 C395.9731,116.5984 395.1401,116.3064 394.3141,116.0004 C393.6681,115.7614 393.1211,115.7824 392.5641,116.2754 C391.8791,116.8824 391.1501,116.7964 390.2781,116.4684 C388.9371,115.9644 387.5141,115.6494 386.1041,115.3674 C384.9511,115.1364 384.1421,114.4334 383.5591,113.5554 C382.7171,112.2874 382.1081,110.8874 382.1851,109.2844 C382.2181,108.5904 382.1741,107.8904 382.1251,107.1954 C381.9961,105.3744 380.4121,104.0764 378.6711,104.3434 C377.9491,104.4544 376.7851,106.0654 376.7971,106.9634 C376.8001,107.2134 376.8091,107.4894 376.9111,107.7094 C378.0911,110.2484 377.1441,112.5904 376.3201,114.9694 C376.0071,115.8724 375.4851,116.1844 374.6071,115.9954 C373.1381,115.6774 371.7681,115.3174 371.7051,113.3514 C371.6851,112.7224 371.2211,112.0654 370.8471,111.4964 C369.6351,109.6544 368.3341,107.8694 367.1541,106.0074 C366.8781,105.5724 366.8761,104.9214 366.8671,104.3684 C366.8301,102.0164 365.8691,100.2424 363.7691,99.1064 C363.3311,98.8704 362.9781,98.4814 362.5531,98.2134 C361.8761,97.7874 361.1641,97.4184 360.4821,96.9994 C359.6301,96.4774 358.5351,96.1084 358.0091,95.3514 C357.1031,94.0484 355.8841,93.2064 354.6721,92.3064 C353.7091,91.5914 353.0091,91.5454 352.2931,92.1154 C351.6371,92.6364 351.4581,93.8674 352.0061,94.7234 C352.3071,95.1944 352.7911,95.5454 353.1491,95.9854 C353.6191,96.5624 354.1591,97.1214 354.4701,97.7814 C355.1491,99.2254 356.4231,100.0144 357.7611,100.4454 C358.7071,100.7504 359.4501,101.2054 360.2211,101.7434 C361.5691,102.6844 362.9941,103.5214 364.3001,104.5164 C365.2581,105.2454 365.2151,105.4624 364.5291,106.9264 C364.0521,106.6544 363.6161,106.2844 363.1171,106.1534 C362.6181,106.0234 362.0561,106.1324 361.5221,106.1364 C361.5481,106.5994 361.4761,107.0954 361.6191,107.5184 C362.0841,108.8984 361.2561,111.1494 359.7951,111.8244 C358.6341,112.3604 357.7281,112.8264 357.7991,114.3764 C357.8381,115.2394 356.9601,115.5804 356.0901,115.1574 C354.7261,114.4934 353.3771,113.7884 352.0691,113.0204 C351.6881,112.7964 351.2181,112.2964 351.2241,111.9294 C351.2351,111.2374 351.9161,111.1554 352.5121,111.1224 C354.0181,111.0404 355.5451,111.0714 357.0241,110.8244 C358.8371,110.5214 359.4961,108.6714 358.3031,107.2974 C357.0681,105.8774 355.7691,104.5354 353.9321,103.7794 C351.4401,102.7534 349.4221,100.9874 347.5311,99.1034 C347.0501,98.6234 346.7641,97.9524 346.3591,97.3904 C345.9551,96.8304 345.5841,96.2204 345.0771,95.7694 C343.8211,94.6544 343.5751,94.7644 342.1671,95.7134 C340.9331,96.5444 339.5971,97.2534 338.2321,97.8434 C337.7251,98.0624 336.9981,97.8354 336.3861,97.7304 C335.4531,97.5704 334.5401,97.2374 333.6031,97.1634 C332.0221,97.0384 331.0181,97.9454 330.8761,99.3584 C330.7961,100.1554 330.8491,101.2004 330.3801,101.6754 C329.4741,102.5904 328.3201,103.4114 327.1161,103.8344 C326.1341,104.1784 325.4621,104.5944 324.9531,105.4594 C324.5691,106.1104 324.0721,106.6964 323.6031,107.2944 C323.1231,107.9074 322.6841,108.4824 323.1151,109.3484 C323.2571,109.6344 323.2151,110.1354 323.0551,110.4294 C322.5211,111.4094 322.0861,112.5744 321.2661,113.2414 C319.5431,114.6444 317.9221,116.3824 315.2941,116.0874 C314.4141,115.9884 313.4551,116.3334 312.5701,116.5994 C311.1721,117.0194 309.8901,116.7594 308.8341,115.8764 C307.5801,114.8284 306.2691,114.2974 304.6421,114.6234 C304.3371,114.6844 304.0101,114.6354 303.6931,114.6284 C302.7681,114.6094 302.3231,114.1584 302.3101,113.2094 C302.2951,112.0314 302.4811,110.8394 301.5301,109.7994 C301.2771,109.5224 301.5861,108.6294 301.7791,108.0684 C302.1651,106.9424 302.8841,105.8824 303.0431,104.7364 C303.3151,102.7684 303.3611,100.7524 303.2971,98.7634 C303.2731,98.0224 303.3051,97.5454 303.9611,97.2124 C305.2691,96.5464 306.3551,95.8014 308.1441,96.0954 C311.4851,96.6434 314.9321,96.5624 318.3361,96.7124 C319.8641,96.7794 320.0921,96.5744 320.4171,95.1454 C320.5991,94.3444 320.7131,93.5224 320.9711,92.7474 C321.3851,91.5084 321.2491,90.3474 320.5531,89.2894 C319.2921,87.3704 317.9711,85.4894 315.3851,85.2484 C313.9751,85.1174 313.9271,83.8814 313.4261,82.9414 C314.2421,81.9494 315.3691,82.0034 316.4021,81.9234 C317.9251,81.8044 319.4071,81.8774 320.2851,80.1554 C320.6741,79.3944 321.6981,79.5084 322.5491,79.7364 C324.4901,80.2554 326.5761,79.3304 327.6811,77.6184 C328.0381,77.0654 328.5681,76.5554 329.1331,76.2154 C330.9701,75.1134 332.8001,74.1014 334.1541,72.2944 C334.9021,71.2964 336.2291,70.7034 337.3561,70.0314 C338.2761,69.4824 339.2771,69.0624 340.2611,68.6284 C341.1941,68.2164 341.5981,67.5914 341.4571,66.5354 C341.2571,65.0304 341.3921,63.5564 341.8511,62.0734 C342.3371,60.5034 343.5851,59.9424 344.8891,59.4914 C345.7101,59.2074 346.2561,59.8614 346.2791,60.6344 C346.3131,61.7514 346.2771,62.8984 346.0581,63.9894 C345.6621,65.9614 346.0581,66.9154 347.8691,67.5414 C348.2371,67.6694 348.7061,67.6014 349.1061,67.5164 C349.5341,67.4254 349.9511,67.2384 350.3441,67.0374 C351.6041,66.3934 352.6651,66.6844 353.5991,67.6734 C353.8561,67.9454 354.1171,68.2154 354.3951,68.5064" id="Fill-1" fill="#E9C056"></path>
                <path d="M445.7196,186.8033 C445.6796,188.7613 445.4886,190.6303 444.5386,192.4703 C442.7976,195.8403 441.4846,199.4313 439.7466,202.8033 C437.7856,206.6043 435.2666,209.9293 431.2806,212.0033 C429.7746,212.7863 428.6206,214.3013 427.4096,215.5803 C426.5876,216.4483 425.9796,217.5153 425.2146,218.4433 C423.8506,220.0993 422.4356,221.7143 421.0536,223.3553 C420.6906,223.7853 420.2896,224.2103 420.0426,224.7053 C419.1406,226.5123 418.2106,228.3143 417.4706,230.1883 C417.1406,231.0223 417.0456,232.0533 417.1806,232.9443 C417.5406,235.3163 418.0756,237.6393 417.8946,240.0883 C417.7756,241.6923 418.5626,243.1973 419.4756,244.4853 C420.7236,246.2453 420.6756,248.1473 420.5186,250.1263 C420.3836,251.8203 420.0896,253.5403 420.2556,255.2103 C420.6026,258.6843 419.1156,261.2153 416.5726,263.2763 C415.6466,264.0273 414.5686,264.5963 413.5316,265.2013 C412.9326,265.5503 412.1496,265.6723 411.6736,266.1303 C410.0526,267.6903 408.4256,269.2673 407.0026,271.0043 C405.7756,272.5033 405.9226,274.3453 406.5676,276.0773 C407.4836,278.5383 407.0656,280.9143 406.3546,283.3163 C405.9886,284.5543 405.1946,285.3903 404.1566,286.0623 C403.5726,286.4413 403.0006,286.8393 402.4116,287.2093 C401.3846,287.8533 400.8086,288.7893 400.5276,289.9503 C400.3196,290.8103 400.0816,291.6653 399.8156,292.5093 C399.2466,294.3163 398.6586,296.0323 397.0066,297.3083 C395.9526,298.1223 395.2546,299.4543 394.5406,300.6393 C393.7526,301.9483 393.0216,303.2543 391.7476,304.1883 C391.1446,304.6313 390.6286,305.2263 390.1676,305.8253 C388.6186,307.8403 386.6816,309.1503 384.2196,309.9523 C381.9686,310.6853 379.7566,311.2783 377.3876,311.2393 C377.0756,311.2343 376.7316,311.2413 376.4526,311.3603 C374.1346,312.3493 371.6456,312.4073 369.2056,312.5793 C368.2166,312.6493 367.1906,312.0393 366.1666,311.8033 C364.9186,311.5153 364.8936,310.4623 364.4956,309.5353 C363.9456,308.2553 363.9456,306.9873 363.9066,305.6583 C363.8746,304.6063 363.5876,303.5543 363.3376,302.5203 C363.0556,301.3573 362.6556,300.2233 362.3646,299.0613 C362.0216,297.6953 361.5476,296.5353 360.3516,295.5513 C358.3406,293.8973 357.3206,291.5973 357.0506,288.9673 C356.8966,287.4653 356.5346,285.9863 356.3696,284.4853 C356.2446,283.3613 356.2036,282.2133 356.2696,281.0843 C356.3746,279.3013 355.9186,277.8313 354.8256,276.3393 C353.6486,274.7303 352.9256,272.7893 352.0106,270.9903 C351.4386,269.8653 350.8636,268.7403 350.3176,267.6023 C350.0206,266.9813 349.5426,266.3263 349.5586,265.6973 C349.6046,263.8743 349.7206,262.0313 350.0686,260.2463 C350.4656,258.2083 351.0716,256.2013 351.7306,254.2293 C352.0386,253.3073 352.5406,252.3593 353.2066,251.6643 C355.0266,249.7643 355.2536,247.6433 354.2876,245.3573 C353.3616,243.1633 352.8686,240.9413 352.8466,238.5423 C352.8366,237.4043 352.2196,236.2633 351.8306,235.1403 C351.4396,234.0143 350.8156,232.9393 350.6096,231.7853 C350.3186,230.1533 349.5896,228.8313 348.5576,227.5923 C347.2616,226.0363 345.9646,224.4743 344.7816,222.8333 C344.1246,221.9223 343.5636,220.8883 343.2196,219.8253 C343.0116,219.1813 343.1386,218.3123 343.3996,217.6563 C343.9486,216.2723 344.1766,214.8743 344.2016,213.3963 C344.2136,212.6553 344.4106,211.8963 344.6436,211.1843 C346.0516,206.8783 344.3456,205.1963 339.7606,204.7383 C339.1436,204.6773 338.5006,204.8153 337.8746,204.8993 C335.7866,205.1763 335.1486,204.7943 334.4896,202.8353 C333.6466,200.3303 332.1906,199.3103 329.5006,199.3573 C327.5356,199.3913 325.6876,199.6243 323.8636,200.6353 C321.7796,201.7903 319.4536,202.5193 317.2006,203.3473 C316.6526,203.5493 315.9616,203.5223 315.3716,203.4133 C314.0716,203.1733 312.7916,202.5613 311.5066,202.5693 C309.9656,202.5793 308.4116,203.0113 306.8946,203.3873 C305.9196,203.6283 304.9976,204.0923 304.0566,204.4683 C302.9786,204.8993 301.9576,204.8953 301.0196,204.1213 C300.9716,204.0813 300.9116,204.0553 300.8606,204.0173 C297.6856,201.6283 294.4276,199.3383 291.3816,196.7953 C290.3306,195.9183 289.5916,194.4923 289.0866,193.1723 C287.7366,189.6443 285.5546,186.8393 282.4756,184.6973 C280.8046,183.5343 278.0536,177.5283 279.2956,174.6523 C279.5926,173.9643 279.9196,173.2023 280.4546,172.7193 C281.5256,171.7543 281.7876,170.5083 282.1646,169.2273 C283.0526,166.2013 282.3236,163.3933 281.2356,160.6073 C280.3896,158.4433 280.8566,156.5003 281.8376,154.4483 C282.9346,152.1523 284.4226,150.1293 285.7136,147.9713 C286.0036,147.4863 286.2556,146.9513 286.3886,146.4063 C286.7436,144.9533 287.2616,143.7753 288.7346,142.9553 C289.5556,142.4983 289.8756,141.1873 290.5086,140.3263 C290.9006,139.7953 291.3866,139.1183 291.9526,138.9683 C294.1776,138.3813 295.2956,136.5473 296.6276,134.9993 C297.7796,133.6603 298.5926,132.0993 299.0446,130.3183 C299.7536,127.5243 301.5086,125.2483 303.9536,123.9223 C305.8396,122.8993 306.8776,121.4383 307.8596,119.7533 C307.9866,119.5353 308.0736,119.2923 308.2066,119.0783 C308.8566,118.0373 310.0016,117.5843 310.9316,118.3263 C312.0186,119.1933 313.1696,119.2023 314.3386,119.0593 C316.5826,118.7853 318.8936,118.7413 320.9636,117.6513 C321.5586,117.3383 322.0726,116.8653 322.6736,116.5663 C323.6136,116.0993 324.5616,115.5553 325.5706,115.3383 C327.2246,114.9823 328.9376,114.9073 330.6116,114.6303 C332.1716,114.3713 333.7026,113.9183 335.2656,114.6613 C335.5506,114.7963 336.0426,114.7313 336.3366,114.5703 C337.7566,113.7963 339.2626,113.8633 340.7876,113.9983 C341.9236,114.0983 342.9956,114.0823 344.1226,113.6153 C344.9416,113.2763 345.9936,113.3743 346.9236,113.4613 C347.8666,113.5483 348.4026,114.3413 348.4006,115.3563 C348.3986,116.4923 348.4176,117.6313 348.3356,118.7633 C348.2956,119.3123 348.1156,119.8803 347.8766,120.3813 C347.0516,122.1123 347.4426,123.5233 349.1196,124.4783 C350.5106,125.2693 351.9356,125.8413 353.6306,125.6303 C354.5406,125.5163 355.5206,125.7083 356.4326,125.9193 C357.5306,126.1743 358.3816,126.8103 358.6816,127.9973 C358.9926,129.2313 359.8366,129.7113 361.0646,129.7273 C362.6456,129.7483 364.0116,130.3563 365.2406,131.3383 C365.6256,131.6463 366.0836,131.9453 366.5526,132.0513 C368.0816,132.3973 368.9776,131.4403 368.6226,129.9183 C368.2556,128.3423 368.9136,126.7063 370.4016,126.2453 C372.6916,125.5363 375.0396,124.8433 377.1536,126.9083 C377.6376,127.3803 378.5906,127.3303 379.2466,127.6753 C381.7636,128.9963 384.6346,129.0193 387.2386,129.9103 C389.5556,130.7023 391.5566,130.8363 393.5896,129.3623 C393.9506,129.1003 394.5666,129.0603 395.0446,129.1113 C397.3386,129.3543 400.1856,131.8143 400.7856,134.0633 C401.2576,135.8323 402.1296,137.6593 401.9846,139.3903 C401.7636,142.0393 403.5586,143.6813 404.3306,145.8073 C404.7606,146.9933 405.2816,148.1603 405.8926,149.2633 C406.7126,150.7453 407.4766,152.3233 408.5976,153.5573 C410.1756,155.2923 411.0506,157.3293 411.3126,159.4983 C411.6326,162.1573 412.7146,164.3163 414.4436,166.2223 C415.6956,167.6023 416.2566,169.2103 416.4496,171.0263 C416.6176,172.6093 417.3016,174.1773 418.8086,174.6383 C421.2396,175.3823 422.5666,177.2613 424.1376,178.9293 C424.9136,179.7523 425.6666,180.6203 426.2826,181.5633 C426.6716,182.1593 426.9926,182.9343 426.9886,183.6263 C426.9776,185.4353 429.3526,187.2893 431.3746,186.7623 C433.9276,186.0963 436.4686,185.3823 439.0136,184.6853 C440.7666,184.2053 442.5146,183.7023 444.2736,183.2433 C445.2276,182.9943 445.8906,183.6613 445.8206,184.7223 C445.7746,185.4153 445.7526,186.1093 445.7196,186.8033" id="Fill-3" fill="#E9C056"></path>
                <path d="M127.7534,191.5806 C127.6004,192.3346 127.4874,192.9306 127.3564,193.5226 C127.2514,193.9966 127.0564,194.4616 127.0234,194.9386 C126.9804,195.5496 126.8974,196.1926 126.2304,196.2716 C125.5874,196.3476 124.6184,196.3806 124.3024,196.0036 C123.3484,194.8636 122.1654,194.5396 120.8074,194.3576 C119.9164,194.2376 119.0454,193.8546 118.6864,192.9406 C118.1164,191.4896 116.8224,190.7966 115.5904,190.2996 C113.6784,189.5286 112.9734,188.1086 112.5134,186.3026 C112.2054,185.0976 111.7664,183.8976 111.1944,182.7956 C110.5874,181.6266 109.5014,181.0426 108.1744,180.7256 C105.9094,180.1836 103.6094,179.6376 101.4804,178.7296 C100.2054,178.1856 99.1894,176.9876 98.1244,176.0106 C97.1964,175.1596 96.3944,174.1726 95.4784,173.3076 C94.6944,172.5686 93.7594,172.2706 92.6774,172.6786 C89.9434,173.7106 87.3544,173.2816 84.7914,171.9976 C83.3234,171.2626 81.7114,170.8176 80.2404,170.0876 C79.1804,169.5626 78.3064,168.6616 77.2444,168.1406 C75.1094,167.0936 73.2314,165.6966 71.2894,164.3526 C69.7124,163.2616 68.4864,160.9326 69.3594,159.1806 C70.3234,157.2456 70.1044,155.5616 68.8704,153.8736 C68.4654,153.3196 68.1944,152.6646 67.8904,152.0416 C66.9654,150.1436 65.8524,148.3986 64.0714,147.1696 C63.4134,146.7146 62.9154,146.1206 63.0734,145.2646 C63.2534,144.2896 62.7104,143.5826 62.3434,142.7816 C61.3734,140.6626 60.4084,138.5566 58.9134,136.7256 C58.5984,136.3386 58.5764,135.6596 58.5414,135.1076 C58.4654,133.9066 58.5504,132.6906 58.3974,131.5026 C58.3394,131.0506 57.8884,130.4346 57.4774,130.2906 C56.8244,130.0626 56.1524,130.5186 56.0354,131.1906 C55.8874,132.0396 55.8174,132.9776 56.0244,133.7996 C56.7334,136.6106 57.0204,139.5206 58.2334,142.2216 C58.8974,143.6996 59.2704,145.3466 59.5274,146.9566 C59.6984,148.0356 60.2004,148.8296 60.8174,149.6256 C61.3434,150.3046 61.6784,151.0386 61.4534,151.9156 C61.1774,152.9886 60.2564,153.2446 59.4744,152.4736 C58.3994,151.4126 57.2974,150.3756 56.2754,149.2666 C55.9094,148.8696 55.6484,148.3156 55.5044,147.7886 C55.3064,147.0626 55.2244,146.2966 55.1664,145.5426 C55.1084,144.7836 54.8164,144.2776 54.1274,143.8776 C53.4274,143.4716 52.8284,142.8856 52.2084,142.3516 C51.4244,141.6776 51.0454,140.8676 51.4674,139.8336 C53.6914,138.4496 53.7864,138.1636 52.2054,136.0806 C51.3474,134.9496 51.1094,133.7136 51.0054,132.3616 C50.8414,130.2176 50.6604,128.0696 50.3404,125.9446 C50.0374,123.9326 48.6434,122.7466 46.7904,122.1846 C44.8574,121.5976 44.8304,121.6426 44.7784,119.6136 C44.7164,117.2236 44.1284,114.8516 44.5404,112.4446 C44.5704,112.2696 44.5304,112.0406 44.4354,111.8936 C43.2084,109.9966 43.7954,107.9796 44.0794,106.0036 C44.1544,105.4806 44.4984,104.9536 44.8354,104.5186 C45.8894,103.1586 46.6914,101.7216 47.2824,100.0676 C47.7494,98.7616 48.9004,97.6956 49.7684,96.5386 C51.5524,94.1606 53.4214,91.8426 55.1134,89.4006 C55.8934,88.2746 56.3354,86.9156 56.9364,85.6646 C57.6844,84.1076 57.3424,82.7176 56.3094,81.4246 C56.0334,81.0786 55.7094,80.7496 55.5234,80.3576 C54.9894,79.2326 54.8494,78.2516 55.7114,77.0326 C56.9314,75.3096 57.7514,73.3886 57.5254,71.0586 C57.3384,69.1386 57.5044,67.1106 57.9274,65.2236 C58.5774,62.3226 57.2684,60.1016 55.9404,57.8196 C55.7204,57.4416 55.2824,57.1676 55.1334,56.7736 C54.3124,54.6056 52.6124,53.7436 50.4644,53.4336 C48.9704,53.2176 47.4704,52.9896 46.0094,52.6236 C45.1064,52.3976 44.2444,51.9536 43.4104,51.5176 C42.1874,50.8796 40.9764,50.8846 39.7554,51.4326 C39.4234,51.5806 38.9764,51.8196 38.8914,52.1076 C38.5654,53.2146 37.6784,53.4906 36.7524,53.7466 C34.6804,54.3176 32.6094,54.8966 30.5254,55.4246 C30.0534,55.5436 29.4934,55.5916 29.0404,55.4536 C27.8704,55.0956 26.7834,55.2966 25.7004,55.7156 C19.5064,58.1166 13.3084,60.5066 7.1294,62.9466 C6.1374,63.3376 5.2664,64.0276 4.2844,64.4526 C3.4914,64.7966 2.6284,65.0266 1.7744,65.1686 C0.8244,65.3256 0.2324,64.8276 0.0004,63.6656 C1.4974,62.9516 3.0234,62.2246 4.5494,61.4976 C5.9794,60.8166 7.4304,60.1766 8.8284,59.4366 C9.4704,59.0966 10.0064,58.5586 10.5474,58.1436 C10.3594,57.2086 9.8934,56.7926 9.1854,56.8766 C8.0614,57.0096 7.6044,56.2946 7.1794,55.4946 C6.8244,54.8256 6.4584,54.1566 6.1834,53.4526 C6.0554,53.1236 5.9704,52.5066 6.1404,52.3736 C7.2154,51.5386 7.1424,50.0786 7.9824,49.1646 C8.3444,48.7716 8.8874,48.5126 9.3914,48.2926 C9.9094,48.0666 10.5414,48.0686 11.0164,47.7886 C13.8764,46.1006 17.1374,45.4286 20.1414,44.1146 C20.7874,43.8326 21.3444,43.3456 22.0124,42.9066 C20.7864,41.1936 19.1554,43.0256 17.9514,41.9826 C18.0784,41.2846 18.2394,40.5516 18.3394,39.8106 C18.4794,38.7706 19.0974,38.2806 20.0874,38.1136 C22.0824,37.7766 24.0764,37.4256 26.0634,37.0476 C26.6114,36.9426 27.1324,36.7046 27.6734,36.5556 C29.2644,36.1186 30.1664,35.1906 30.1474,33.4346 C30.1384,32.6226 30.6344,31.9926 31.4554,31.7546 C32.5414,31.4396 33.6344,31.1426 34.7374,30.8966 C35.6624,30.6906 36.6454,30.6866 37.5324,30.3866 C40.0434,29.5356 42.5104,28.5546 45.0114,27.6736 C46.0214,27.3176 47.0604,26.9766 48.1134,26.8236 C49.7344,26.5886 51.3784,26.4626 53.0164,26.4006 C54.7184,26.3366 56.4054,26.4516 58.0594,25.7656 C58.6884,25.5036 59.5554,25.7266 60.2964,25.8386 C62.4834,26.1716 64.6624,26.5596 66.8454,26.9256 C67.2194,26.9886 67.6314,26.9676 67.9644,27.1196 C70.1674,28.1276 72.5794,27.7266 74.8614,28.1776 C74.9844,28.2026 75.1204,28.2176 75.2394,28.1906 C77.4474,27.6906 79.3764,28.2186 81.4214,29.2276 C83.0504,30.0306 85.0754,30.0376 86.9284,30.3756 C87.1624,30.4186 87.4244,30.3296 87.6714,30.2866 C91.4664,29.6356 95.2554,28.9536 99.0584,28.3516 C99.9854,28.2046 100.9564,28.3626 101.9024,28.3046 C102.6474,28.2586 103.4444,28.2366 104.1104,27.9506 C105.1094,27.5216 106.0324,27.5406 107.0624,27.7616 C108.2244,28.0116 109.4274,28.1926 110.6104,28.1866 C113.2914,28.1726 115.7674,28.8336 117.9924,30.2806 C118.8564,30.8426 119.6944,30.9506 120.6684,30.9736 C121.5824,30.9946 122.7074,31.0066 123.3624,31.5116 C126.2314,33.7226 129.2764,33.2416 132.4264,32.5086 C134.3934,32.0506 136.3814,31.5886 138.3834,31.4256 C139.3654,31.3466 140.6604,31.6616 141.3594,32.2976 C142.7024,33.5206 144.1454,33.6406 145.7614,33.5176 C147.0834,33.4166 148.4114,33.3846 149.7294,33.2466 C150.4604,33.1696 151.1694,32.8486 151.8994,32.7966 C153.2654,32.6986 154.6394,32.7126 156.0104,32.6866 C156.8774,32.6706 157.7954,32.8456 158.6004,32.6166 C159.9384,32.2366 160.3454,31.6916 159.9624,30.3516 C159.3744,28.2986 160.5184,27.1366 161.9054,26.2896 C163.2804,25.4506 164.8894,24.9516 166.4464,24.4676 C167.4234,24.1646 168.1274,24.8616 168.4364,25.9826 C168.7534,27.1306 169.1254,28.2686 169.5524,29.3806 C170.0124,30.5796 171.1094,30.5466 172.1284,30.5016 C173.1594,30.4566 173.9554,29.8896 174.3214,28.9526 C174.4724,28.5666 174.2824,27.9806 174.1014,27.5466 C173.5284,26.1636 173.9054,25.0636 175.0114,24.1726 C176.2434,23.1786 177.4224,22.0706 178.7874,21.3026 C179.7894,20.7376 181.0414,20.5676 182.2064,20.3556 C183.0074,20.2106 183.8494,20.2996 184.6724,20.2736 C188.5184,20.1566 192.3624,20.0086 196.2094,19.9376 C197.0814,19.9216 197.9604,20.1516 198.8314,20.3006 C199.8394,20.4726 200.5104,20.9826 200.8784,22.0216 C201.4994,23.7756 202.8764,24.6306 204.6584,25.1246 C206.0314,25.5056 207.3394,26.1936 208.5984,26.8876 C209.6144,27.4476 210.0854,28.4396 209.9244,29.6276 C209.6494,31.6626 210.8894,32.8116 212.3934,33.7086 C213.1374,34.1526 213.7264,34.6146 214.0814,35.4086 C214.8174,37.0576 214.6724,37.6996 213.2484,38.8166 C212.4514,39.4426 211.6734,40.0926 210.8684,40.7086 C209.7354,41.5756 208.8664,41.5096 207.8724,40.4676 C207.2634,39.8296 206.7464,39.0956 206.0894,38.5166 C205.8244,38.2836 205.2974,38.3486 204.8894,38.2786 C204.8344,38.6826 204.6504,39.1246 204.7534,39.4836 C204.9264,40.0826 205.2794,40.6296 205.5644,41.1956 C206.4284,42.9076 206.0704,44.3906 204.5174,45.5216 C203.3454,46.3746 202.1094,47.1546 201.0224,48.1056 C200.1304,48.8866 199.2204,48.9746 198.2084,48.6236 C196.7734,48.1276 195.3474,47.6006 193.9424,47.0256 C192.9854,46.6346 192.1584,46.0616 191.8924,44.9486 C191.8194,44.6446 191.6744,44.3516 191.5274,44.0736 C190.8304,42.7576 190.4534,42.5376 188.9694,42.7016 C186.7434,42.9466 184.5764,42.5946 182.4164,42.2396 C182.3564,40.0426 184.0964,38.5816 186.0724,39.1696 C187.3674,39.5556 188.6484,39.9136 189.9824,39.5666 C190.4964,39.4326 191.2244,39.1576 191.3724,38.7656 C191.7844,37.6726 192.7054,37.3136 193.5554,36.7806 C194.3564,36.2776 195.1694,35.7516 195.8434,35.0986 C196.7604,34.2106 196.6344,33.4386 195.4904,32.8496 C194.6784,32.4316 194.0464,31.9506 193.5444,31.1526 C192.8014,29.9716 191.4724,29.7886 190.2034,29.6686 C189.0724,29.5626 187.9314,29.5596 186.7954,29.5036 C185.7514,29.4526 184.9924,29.9276 184.3874,30.7416 C182.6684,33.0526 181.0444,35.4396 178.4444,36.9306 C177.3934,37.5326 176.4424,38.1566 175.1464,38.2096 C173.8314,38.2636 173.4474,38.8896 173.8814,40.1186 C174.1644,40.9206 174.7494,41.6106 175.1524,42.3756 C175.3404,42.7326 175.6304,43.2756 175.4924,43.5066 C175.2734,43.8716 174.7484,44.2236 174.3284,44.2546 C173.7984,44.2936 173.1754,44.1156 172.7144,43.8326 C171.7184,43.2216 170.7964,43.3306 169.8394,43.8406 C169.1684,44.1976 168.4834,44.5306 167.8254,44.9096 C166.9774,45.3966 166.2904,45.4626 165.4374,44.7296 C164.0814,43.5646 162.3894,43.1266 160.6294,43.5356 C159.8124,43.7256 159.0054,44.1836 158.3254,44.6936 C156.9454,45.7296 155.5854,46.7066 153.7804,46.8556 C151.4364,47.0486 149.4354,48.2136 147.4714,49.3486 C146.0534,50.1686 144.7664,51.2296 143.4824,52.2586 C141.9764,53.4646 141.8864,54.0666 142.5424,55.9786 C142.7664,56.6306 142.8344,57.3356 142.9904,58.0126 C143.1744,58.8126 143.5854,59.2996 144.4744,59.5096 C146.3284,59.9476 147.8584,60.8466 149.3354,62.2066 C150.8464,63.5976 152.8174,64.7226 155.1324,64.7026 C156.3974,64.6916 157.6404,64.9216 158.8834,65.7486 C158.3994,66.5206 157.9234,67.2356 157.4934,67.9776 C157.0494,68.7436 156.6504,69.5366 156.2344,70.3186 C155.5614,71.5836 155.8004,73.2926 156.8414,74.1256 C157.1474,74.3696 157.6984,74.6016 158.0094,74.4886 C158.8944,74.1646 159.7394,73.7036 160.5514,73.2166 C161.4704,72.6656 161.5374,71.7226 161.6674,70.7436 C161.8394,69.4466 162.1714,68.1546 162.6004,66.9176 C162.7544,66.4746 163.3404,66.0946 163.8164,65.8656 C165.5804,65.0186 167.3814,64.2466 169.1684,63.4486 C170.3724,62.9106 171.2184,62.0126 171.9004,60.8996 C172.6554,59.6676 173.0454,58.5756 171.8044,57.3326 C171.0404,56.5666 171.2874,55.9006 172.2464,55.3556 C172.5204,55.1996 172.8214,55.0886 173.1184,54.9786 C174.7814,54.3686 175.7304,53.2896 175.6494,51.4086 C175.6304,50.9566 175.8484,50.3986 176.1454,50.0506 C176.6864,49.4196 177.0784,48.7996 177.3454,47.9726 C177.7774,46.6326 179.0134,46.0626 180.3544,46.0956 C182.3104,46.1436 184.2954,46.2046 186.2024,46.5856 C187.1624,46.7776 188.0114,47.6436 188.8504,48.2836 C189.5954,48.8506 190.2214,49.5716 190.9644,50.1416 C192.0404,50.9686 192.1264,51.2026 191.5304,52.5296 C191.2984,53.0476 191.0074,53.5566 190.8794,54.1006 C190.5974,55.2986 191.2814,56.2616 192.5004,56.3766 C193.5084,56.4726 194.4784,56.4386 195.3804,55.7496 C196.6854,54.7536 198.0844,53.8806 199.4594,52.9776 C200.5884,52.2356 201.0084,52.2946 201.8714,53.3366 C203.0864,54.8036 203.6724,56.5216 203.7344,58.4116 C203.7744,59.6146 203.6964,60.8226 203.7584,62.0236 C203.8564,63.9096 204.4094,65.4966 206.5394,66.0316 C207.3434,66.2326 208.0514,66.6106 208.0564,67.7006 C208.0574,68.1006 208.4604,68.5916 208.8124,68.8786 C209.6404,69.5536 209.9714,70.2856 209.6674,71.3666 C209.1564,73.1826 208.6964,75.0156 208.3114,76.8626 C207.9824,78.4476 208.3404,78.9926 209.8364,79.6146 C211.3694,80.2526 211.4274,80.3406 210.6984,81.7726 C210.1344,82.8816 210.2304,83.9436 210.6514,85.0636 C211.2494,86.6536 210.0204,88.1786 208.3604,87.8736 C207.3124,87.6816 206.2034,87.4806 205.2884,86.9796 C203.8024,86.1666 202.3424,85.9966 200.7154,86.3176 C199.3374,86.5886 197.9704,86.3626 196.5864,85.8176 C196.7584,84.4036 197.2334,83.2256 198.2114,82.2386 C198.7424,81.7026 199.3024,81.1336 199.6184,80.4696 C199.8174,80.0506 199.7084,79.3726 199.4994,78.9216 C199.3984,78.7046 198.6784,78.5706 198.3534,78.6966 C196.6194,79.3676 194.8964,79.1146 193.1214,78.9376 C191.8234,78.8086 190.4744,79.0196 189.1684,79.2136 C188.2064,79.3576 187.5584,79.9026 187.7594,81.0586 C187.9564,82.1966 187.5354,83.0616 186.7324,83.9416 C186.0454,84.6956 185.5254,85.7496 185.3074,86.7516 C184.9374,88.4536 185.7744,89.5046 187.4884,89.8866 C188.2294,90.0516 188.9984,90.1046 189.7234,90.3156 C190.1844,90.4496 190.6874,90.6926 190.9964,91.0416 C191.5614,91.6796 191.2694,92.5646 190.4634,92.8596 C190.1104,92.9886 189.7284,93.0476 189.3544,93.1096 C187.4964,93.4206 185.6264,93.6726 183.7844,94.0546 C183.2084,94.1736 182.6564,94.5726 182.1784,94.9506 C181.5854,95.4196 181.1274,96.0606 180.5284,96.5186 C179.6374,97.2016 178.7584,97.0606 178.3884,96.0456 C177.9964,94.9686 177.2554,94.7736 176.3294,94.7676 C174.8404,94.7596 173.4834,94.7736 172.0444,95.7086 C170.8824,96.4626 169.4154,96.8256 168.3494,97.8696 C167.6924,98.5136 167.1644,99.1976 167.2394,100.1786 C167.3074,101.0756 166.8634,101.6136 166.0554,101.8966 C165.0434,102.2516 164.0514,102.7556 163.0074,102.9156 C160.5734,103.2906 158.6574,104.3796 157.1074,106.3096 C155.7664,107.9806 154.2104,109.4766 152.8044,111.0976 C151.5544,112.5386 150.5374,114.1106 150.0644,116.0206 C149.7644,117.2326 148.9824,118.2466 148.3564,119.3286 C147.3334,121.0946 145.7284,121.7276 144.1274,122.5156 C141.2854,123.9146 138.6404,125.6496 136.1334,127.5496 C133.0944,129.8516 132.0094,132.9716 132.8814,136.7736 C133.3164,138.6726 133.5784,140.6216 133.7734,142.5626 C133.9294,144.1106 133.1674,145.3916 132.0904,146.4486 C130.9774,147.5426 130.3084,147.3816 129.4464,146.0996 C128.3654,144.4946 127.6154,142.7656 127.2904,140.8736 C127.1324,139.9546 127.0634,138.9926 127.1384,138.0656 C127.3064,136.0196 126.1484,134.7336 124.1384,135.0196 C123.1354,135.1626 122.5214,134.9986 121.9734,134.0496 C121.3854,133.0306 120.3114,132.7626 119.1464,133.0296 C118.0374,133.2836 116.9334,133.5646 115.8164,133.7756 C114.4154,134.0406 113.7984,135.1876 112.9284,136.3386 C111.4394,136.1306 109.8794,135.9566 108.3374,135.6836 C106.9824,135.4446 105.6584,134.9456 104.3004,134.8486 C103.4824,134.7906 102.5824,135.1876 101.7954,135.5466 C100.1874,136.2806 98.5894,137.0576 97.0654,137.9506 C95.8784,138.6466 94.6724,139.4156 93.7384,140.4016 C93.1504,141.0226 92.8334,142.0906 92.7814,142.9806 C92.7044,144.2866 92.3644,145.4416 91.8134,146.6036 C90.8344,148.6656 89.9694,150.7986 89.8194,153.0996 C89.6014,156.4616 89.7884,159.7996 91.5824,162.7936 C92.7724,164.7776 94.8274,165.0456 96.8844,165.1266 C98.1394,165.1756 99.4014,165.0316 100.6604,165.0446 C102.7614,165.0666 103.4124,164.6966 104.2154,162.6816 C104.6354,161.6306 104.9954,160.5406 105.2334,159.4356 C105.4294,158.5246 105.8534,157.9736 106.7364,157.6876 C108.8994,156.9856 111.0374,156.2846 113.3824,156.7256 C114.7884,156.9896 115.3274,157.8356 114.4284,158.9426 C113.6554,159.8956 113.5044,160.9196 113.2454,162.0386 C112.7624,164.1296 111.9484,166.1316 110.5234,167.8256 C109.7024,168.8016 109.6134,170.7176 110.3594,171.6736 C110.6334,172.0256 111.1484,172.3406 111.5824,172.3856 C112.5184,172.4816 113.4874,172.4866 114.4184,172.3566 C116.7544,172.0306 118.8044,172.6276 120.5974,174.1076 C120.9024,174.3586 121.2124,174.8336 121.1994,175.1926 C121.1624,176.1856 121.0074,177.1836 120.8014,178.1586 C120.5044,179.5706 120.1224,180.9646 119.7744,182.3646 C119.6524,182.8526 119.5434,183.3436 119.3924,183.8226 C118.6564,186.1526 118.9494,188.1306 121.0144,189.7586 C122.5024,190.9326 123.8844,192.0826 125.9494,191.3646 C126.1744,191.2866 126.4544,191.3386 126.7044,191.3656 C126.9484,191.3906 127.1874,191.4616 127.7534,191.5806" id="Fill-5" fill="#E9C056"></path>
                <path d="M130.1055,191.4819 C131.1475,191.4819 132.0305,191.3709 132.8735,191.5039 C134.8315,191.8139 137.0265,190.7109 137.5095,188.8329 C138.1655,186.2809 140.1405,185.3909 142.3165,184.9189 C143.9835,184.5579 145.4245,183.9899 146.6775,182.8339 C147.0465,182.4929 147.6765,182.1969 148.1475,182.2479 C149.4555,182.3919 150.8165,182.5459 152.0185,183.0349 C153.4555,183.6189 154.7465,184.5599 156.1075,185.3339 C156.7645,185.7079 157.3995,186.2269 158.1095,186.3819 C159.7645,186.7429 161.4455,186.9439 162.9885,187.7329 C163.8595,188.1779 164.7975,187.9589 165.5085,187.4089 C166.4405,186.6899 167.4615,186.6129 168.5455,186.5509 C169.4865,186.4969 170.4255,186.2179 171.3565,186.2559 C172.3385,186.2959 173.3855,186.4279 174.2665,186.8239 C175.2375,187.2599 174.9095,188.2499 174.5825,188.9969 C174.0625,190.1849 174.2055,191.2419 175.0655,192.1509 C175.4385,192.5439 175.9745,192.8429 176.4925,193.0269 C177.8935,193.5259 178.8195,194.4899 179.5155,195.7579 C181.0045,198.4719 183.1735,200.0629 186.4105,199.7639 C188.6455,199.5569 190.6055,200.5899 192.6705,201.1309 C193.1035,201.2449 193.4305,201.7629 193.8045,202.0969 C194.5075,202.7239 195.1535,203.4329 195.9235,203.9609 C197.0365,204.7239 197.3285,205.9179 197.6225,207.0479 C198.0405,208.6559 198.4435,210.2079 199.5265,211.5459 C199.9305,212.0459 199.9835,212.8349 200.1795,213.4969 C200.6375,215.0389 201.5415,215.9479 203.1135,216.6549 C206.9725,218.3889 211.0135,219.6909 214.7045,221.8649 C217.1615,223.3109 219.8435,224.6579 222.9675,224.0619 C224.7745,223.7179 226.0625,224.9309 227.4165,225.8349 C227.8315,226.1119 228.1935,226.4939 228.5125,226.8829 C229.9735,228.6639 231.7635,229.8589 234.0925,230.1599 C235.3165,230.3179 235.9235,231.1789 236.3515,232.2249 C237.8805,235.9599 237.2935,239.5369 235.5455,243.0279 C235.4895,243.1409 235.4215,243.2509 235.3405,243.3469 C233.0205,246.0939 231.2705,249.2459 229.1045,252.0989 C227.4915,254.2239 227.4615,256.5679 228.1075,258.9579 C228.4295,260.1509 228.6975,261.2429 228.2765,262.4699 C228.0585,263.1059 228.1645,263.8489 228.0955,264.5409 C228.0455,265.0399 228.1015,265.6399 227.8445,266.0099 C227.0325,267.1829 227.0855,268.4539 226.9645,269.7879 C226.8495,271.0489 226.2295,272.3189 225.6065,273.4619 C225.1065,274.3769 224.6475,275.2139 224.7555,276.2919 C224.8365,277.1019 224.5645,277.7869 223.8245,278.2319 C223.6085,278.3619 223.3095,278.4929 223.2335,278.6939 C222.5325,280.5529 220.8635,280.6089 219.3265,280.6949 C217.6215,280.7909 216.1545,281.3369 214.7045,282.2009 C213.5225,282.9049 212.1045,283.2159 210.9295,283.9289 C207.5195,285.9969 206.9955,287.5369 207.9745,291.3989 C208.2335,292.4229 208.3425,293.5299 208.2645,294.5789 C208.2135,295.2669 207.8635,296.0989 207.3635,296.5549 C206.2785,297.5439 205.7035,298.7549 205.2145,300.0729 C205.0245,300.5849 204.7765,301.2319 204.3565,301.4729 C203.0765,302.2109 202.6465,303.4849 202.1085,304.6769 C201.2255,306.6359 200.5475,308.6929 199.5745,310.6019 C199.0435,311.6419 198.2175,312.6419 197.2865,313.3449 C195.3365,314.8199 194.5285,316.8919 193.7985,319.0569 C193.7375,319.2369 193.6455,319.4189 193.6365,319.6029 C193.5125,322.1769 191.7325,323.2649 189.6385,324.0679 C189.1665,324.2489 188.6805,324.3919 188.2005,324.5539 C186.7685,325.0359 185.8125,325.9489 185.5455,327.4859 C185.5125,327.6729 185.5275,327.8959 185.4285,328.0399 C183.7065,330.5469 183.3255,333.6679 181.6765,336.2159 C181.3645,336.6979 181.1365,337.4339 181.2625,337.9579 C181.5285,339.0609 181.2105,339.9469 180.6865,340.8389 C179.3805,343.0599 179.8425,344.7469 182.0845,345.9319 C183.6515,346.7599 184.0005,348.3589 182.8765,349.7379 C182.3995,350.3239 181.6365,350.7559 181.3575,351.4089 C180.8225,352.6579 180.5015,354.0059 180.1655,355.3319 C179.9015,356.3769 180.4625,357.2639 181.1705,357.8619 C182.4055,358.9049 183.1475,360.2149 184.0115,361.5369 C184.8915,362.8849 186.5025,363.8189 187.9295,364.7189 C188.7475,365.2339 189.8465,365.2879 190.7985,365.6119 C191.3135,365.7869 191.8705,366.0049 192.2465,366.3699 C192.4915,366.6079 192.6085,367.2069 192.4865,367.5319 C192.3675,367.8469 191.8845,368.1919 191.5345,368.2229 C190.5295,368.3099 189.4975,368.3469 188.4995,368.2179 C186.8145,368.0009 185.1455,367.6489 183.4725,367.3369 C182.7995,367.2109 182.4135,366.8299 182.1745,366.1329 C181.3835,363.8219 179.5705,362.7859 177.3275,363.4889 C175.2655,364.1339 173.8585,363.1049 172.6135,361.8299 C171.2545,360.4369 170.0525,358.9079 169.3535,357.0029 C168.8815,355.7159 168.1575,354.4829 167.3545,353.3639 C166.0425,351.5379 165.6525,349.4599 165.3155,347.3319 C165.2165,346.7119 165.1165,346.0339 164.7965,345.5199 C163.8655,344.0269 163.5485,342.4119 163.2965,340.6919 C162.8405,337.5869 161.7385,334.6859 159.5435,332.3359 C158.2865,330.9889 158.1375,329.2239 157.7975,327.5949 C157.2775,325.1119 156.8825,322.6209 155.7145,320.3259 C155.5265,319.9569 155.4835,319.4599 155.5255,319.0369 C155.7295,317.0289 155.8605,315.0009 156.2585,313.0289 C156.6415,311.1279 156.7655,309.2629 156.3655,307.3799 C155.9865,305.5939 155.4925,303.8319 155.1065,302.0469 C154.4915,299.1989 153.9045,296.3519 154.6165,293.4119 C154.7905,292.6929 154.7185,291.8999 154.6775,291.1449 C154.4365,286.7919 154.2605,282.4319 153.8815,278.0899 C153.6135,275.0139 153.9165,271.8679 152.9115,268.8749 C152.6545,268.1109 152.4195,267.2369 151.8905,266.6869 C150.0935,264.8189 148.1615,263.0759 145.7615,261.9859 C144.4365,261.3839 142.9655,261.0329 141.7635,260.2549 C140.5775,259.4869 139.5545,258.4019 138.6325,257.3109 C137.6735,256.1779 136.4655,255.1239 136.4385,253.4389 C134.4465,250.3709 133.1375,246.8689 130.5975,244.1539 C129.7485,243.2459 129.2285,242.2189 128.9045,241.0319 C128.3445,238.9829 127.4835,237.0729 125.6585,235.8269 C123.6035,234.4229 123.0435,232.3239 122.9405,230.0609 C122.9085,229.3739 123.3125,228.6339 123.6315,227.9739 C123.9015,227.4149 124.3635,226.9509 124.6955,226.4169 C125.2035,225.5979 125.1615,224.7959 124.7495,223.8979 C123.0935,220.2939 124.0795,216.2049 127.0505,213.4089 C128.0495,212.4689 128.7565,211.2259 129.6465,210.1629 C130.3275,209.3509 131.3425,208.7229 131.7655,207.8079 C133.3285,204.4269 133.8485,200.9499 132.0905,197.4169 C131.6765,196.5859 131.4395,195.6659 131.1155,194.7889 C131.0525,194.6179 131.0075,194.3529 130.8845,194.3039 C129.5145,193.7559 130.0475,192.6849 130.1055,191.4819" id="Fill-7" fill="#E9C056"></path>
                <path d="M633.0121,256.8792 C634.4361,254.9542 635.5381,253.2482 636.8621,251.7382 C638.1461,250.2742 639.6161,248.9612 641.0901,247.6812 C641.8191,247.0482 642.7981,247.1752 643.6111,247.5982 C645.8061,248.7412 648.1731,249.0332 650.5871,249.1682 C651.0901,249.1972 651.6111,249.2332 652.0851,249.3842 C653.1341,249.7202 653.5121,250.6162 653.0981,251.6452 C652.4651,253.2222 651.8121,254.7912 651.1931,256.3742 C650.7211,257.5832 651.0801,258.9732 652.3621,259.8922 C654.2611,261.2542 656.2341,262.5282 658.2611,263.6902 C659.6531,264.4882 660.4591,264.1742 660.8211,262.6392 C661.4451,259.9912 662.7951,257.6082 663.2991,254.8952 C663.7081,252.6942 664.7681,250.6102 665.5721,248.4872 C665.7851,247.9242 665.9351,247.1712 666.8151,247.3292 C667.6021,247.4702 668.1621,247.8592 668.4501,248.7062 C669.1391,250.7432 669.9221,252.7482 670.6771,254.7632 C670.8321,255.1742 670.9441,255.6472 671.2251,255.9582 C672.2861,257.1362 672.5381,258.5192 672.8481,260.0472 C673.2951,262.2442 673.5121,264.4122 673.4571,266.6222 C673.4231,267.9522 673.8731,268.7312 675.0791,269.4952 C676.3921,270.3282 677.4651,271.4842 678.2681,273.0732 C680.0531,276.6032 681.5081,280.3612 684.1571,283.4182 C685.4231,284.8792 686.4051,286.4822 686.0241,288.5602 C685.9671,288.8712 685.9861,289.2092 685.8701,289.4932 C684.2771,293.3982 683.1311,297.5002 680.7811,301.0752 C680.5461,301.4322 680.4741,301.8932 680.2731,302.2782 C679.9841,302.8322 679.7491,303.4682 679.3131,303.8822 C677.4861,305.6142 675.6081,307.2942 673.7181,308.9592 C672.1981,310.2982 670.8601,311.7172 669.7491,313.4822 C668.1821,315.9732 666.1361,318.1632 664.2951,320.4822 C662.3781,321.0802 661.0351,322.9222 658.8481,322.9662 C658.2921,322.9772 657.6941,323.1152 657.1951,323.3582 C653.6311,325.0942 650.0321,324.0082 646.4551,323.4952 C645.4061,323.3442 644.4071,322.8482 643.3811,322.5222 C641.6591,321.9762 641.0911,321.2692 641.2221,319.4782 C641.3881,317.2232 640.7471,315.5402 638.4671,314.6872 C637.4691,314.3142 636.5621,313.7032 635.5901,313.2502 C634.4761,312.7312 634.0111,311.8612 634.0121,310.6702 C634.0131,310.1032 634.0591,309.5052 633.9041,308.9742 C633.4321,307.3622 632.7971,305.8552 630.7801,305.6672 C630.5371,305.6452 630.2581,305.5492 630.0771,305.3932 C627.5841,303.2362 624.8821,304.3782 622.3331,305.0732 C620.4381,305.5902 618.6091,306.2802 616.6151,306.3132 C616.2411,306.3192 615.8261,306.3422 615.5011,306.5012 C613.2991,307.5762 610.8101,308.0472 608.8731,309.6782 C607.9181,310.4822 606.8341,310.8782 605.5461,310.8002 C601.5661,310.5592 597.9611,311.7872 594.5491,313.7202 C592.9001,314.6542 591.0581,314.4632 589.6221,313.2092 C589.3841,313.0012 589.1641,312.7712 588.9341,312.5532 C587.4551,311.1502 587.5631,310.4282 588.9701,308.9602 C590.6061,307.2532 591.7811,305.3012 591.3471,302.7132 C591.1391,301.4752 591.1291,300.1792 591.2151,298.9232 C591.3981,296.2812 590.7501,293.8072 590.0281,291.3112 C589.6101,289.8652 589.4301,288.3742 590.2331,286.8952 C590.7071,286.0222 590.8711,284.9842 591.1981,284.0282 C591.4011,283.4332 591.5411,282.7782 591.8941,282.2812 C592.6591,281.2072 593.0771,280.0612 593.0831,278.7472 C593.0871,277.9962 593.3641,277.3922 594.1221,277.0962 C595.8351,276.4282 597.4831,275.6532 598.7721,274.2772 C598.9361,274.1022 599.1931,273.9532 599.4281,273.9122 C602.7441,273.3312 605.4941,271.1502 608.9191,270.7412 C611.7431,270.4042 613.3901,268.1562 614.5251,265.7852 C615.4261,263.9032 616.4141,262.2682 618.2761,261.2192 C618.8031,260.9222 619.1591,260.3232 619.5971,259.8652 C620.7821,258.6282 622.0291,257.5092 623.6051,256.7272 C625.0491,256.0102 626.3161,254.9842 627.9091,254.4852 C628.6981,254.2372 629.1891,254.3212 629.8051,254.7642 C630.8151,255.4912 631.8821,256.1402 633.0121,256.8792" id="Fill-9" fill="#E9C056"></path>
                <g id="Group-13" transform="translate(216.000000, 0.302000)">
                    <mask id="mask-2" fill="white">
                        <use xlink:href="#path-1"></use>
                    </mask>
                    <g id="Clip-12"></g>
                    <path d="M97.1534,4.2476 C96.1744,5.6556 94.8594,6.0016 93.7114,6.1316 C90.8094,6.4626 88.2444,7.6566 85.6254,8.7666 C84.5264,9.2336 83.8554,9.9526 83.9514,11.2266 C84.0324,12.2836 83.7544,13.2096 83.0224,14.0246 C82.7004,14.3836 82.5014,14.8816 82.3344,15.3476 C81.2074,18.5036 78.8294,20.3366 75.8294,21.4796 C74.0534,22.1566 73.8234,22.4946 74.1144,24.4006 C74.2094,25.0236 74.2574,25.6636 74.2394,26.2926 C74.1934,27.8296 73.1784,29.0016 71.6954,29.4326 C70.2424,29.8546 68.7414,30.2046 67.3864,30.8496 C65.2984,31.8456 63.1274,32.4566 60.8684,32.8146 C58.9344,33.1216 56.9394,33.1886 55.0704,33.7146 C53.7184,34.0956 52.4294,34.9226 51.2874,35.7826 C49.0974,37.4316 46.6134,38.2956 43.9954,38.8236 C42.1484,39.1966 40.2694,39.4406 38.3944,39.6416 C37.2924,39.7596 36.4754,40.2326 35.8584,41.1036 C35.3464,41.8256 34.8584,42.5636 34.3694,43.3016 C34.2294,43.5116 34.1734,43.8026 33.9934,43.9566 C31.9714,45.6756 30.3534,47.7506 28.7254,49.8236 C28.1834,50.5136 27.5054,51.1036 26.8524,51.6986 C25.3354,53.0846 23.9844,53.0676 22.6164,51.4906 C21.5334,50.2416 20.3304,49.7676 18.7554,50.2936 C17.7914,50.6166 17.1904,50.1786 16.7404,49.3606 C15.2964,46.7336 14.1134,44.0606 14.3304,40.9296 C14.4204,39.6276 14.0494,38.3016 14.0244,36.9836 C13.9734,34.2386 15.8284,31.9886 18.5174,31.4076 C18.5784,31.3946 18.6434,31.3966 18.7054,31.3846 C20.8354,30.9516 20.9574,30.6006 19.7854,28.8646 C19.1514,27.9266 18.6324,26.9056 18.1324,25.8866 C17.6124,24.8276 17.9224,23.8436 18.4174,22.8126 C19.5234,20.5076 19.2194,18.5006 17.5514,16.8886 C17.0744,16.4276 16.4164,15.9946 15.7824,15.8816 C13.1154,15.4066 10.4634,14.7366 7.6984,15.3156 C6.1994,15.6296 4.6624,15.5236 3.2104,14.9286 C1.7154,14.3156 0.7044,12.8086 0.7784,11.4056 C0.8164,10.6936 1.0464,10.1956 1.8164,10.0416 C2.7464,9.8546 3.6574,9.5456 4.5934,9.4286 C6.2204,9.2266 7.8694,9.1936 9.4944,8.9746 C11.1534,8.7506 12.9154,8.7146 13.9854,7.0176 C14.1734,6.7196 14.7534,6.6196 15.1734,6.5246 C17.3284,6.0356 19.4934,5.5926 21.6494,5.1036 C23.1844,4.7556 24.7014,4.3256 26.2414,4.0016 C27.1014,3.8206 27.9904,3.7736 28.8684,3.6806 C30.7524,3.4816 32.6364,3.2916 34.5214,3.1006 C35.2104,3.0306 35.9094,2.8616 36.5894,2.9156 C42.5724,3.3906 48.4394,2.4456 54.3304,1.6356 C56.5714,1.3276 58.8914,1.2746 61.1444,1.4686 C62.7604,1.6086 64.2994,1.4686 65.8464,1.2106 C70.4604,0.4406 75.0584,0.5546 79.6294,1.4386 C81.6674,1.8336 83.6364,2.6096 85.6804,2.9526 C87.9134,3.3266 90.1934,3.4716 92.4594,3.5796 C93.9574,3.6506 95.4684,3.4676 97.1534,4.2476" id="Fill-11" fill="#E9C056" mask="url(#mask-2)"></path>
                </g>
                <path d="M656.2206,240.363 C656.3636,239.46 656.4186,238.853 656.5626,238.269 C656.7726,237.412 657.1036,236.584 657.2806,235.722 C657.6846,233.752 656.7036,231.718 654.9026,230.829 C653.9996,230.382 653.0276,230.076 652.0926,229.694 C651.1626,229.315 650.2186,228.963 649.3186,228.522 C648.3086,228.027 647.4006,227.72 646.3026,228.44 C645.4876,228.973 644.8076,228.74 644.5126,227.788 C644.0626,226.34 642.8036,225.22 643.1426,223.406 C643.3606,222.237 642.3376,221.355 641.1366,220.961 C640.2366,220.665 639.5166,220.23 639.7046,219.223 C640.9706,218.726 642.1136,218.253 643.2736,217.828 C645.2056,217.121 647.7116,217.944 648.8156,219.667 C649.0046,219.962 648.9666,220.394 649.0786,220.749 C649.2666,221.345 649.4006,221.984 649.7156,222.509 C650.4276,223.694 650.9226,223.774 652.1846,223.066 C653.3896,222.391 654.5836,221.695 655.7936,221.029 C656.7466,220.505 657.7506,220.559 658.7336,220.913 C660.2796,221.468 661.8046,222.084 663.3486,222.648 C665.6566,223.49 667.9296,224.485 670.3006,225.08 C672.0776,225.527 673.2846,226.694 674.5926,227.715 C675.8216,228.674 676.7516,230.008 677.8786,231.11 C678.4446,231.664 679.1056,232.167 679.8106,232.52 C681.1146,233.175 681.9036,234.066 681.8586,235.605 C681.8206,236.918 681.5476,238.263 682.2526,239.513 C682.6276,240.178 682.9326,240.793 683.8506,240.953 C684.3996,241.049 684.9386,241.538 685.3566,241.971 C686.0556,242.698 686.7096,243.485 687.2736,244.32 C687.5586,244.741 687.8446,245.684 687.7166,245.769 C687.1826,246.123 686.1936,246.612 685.9096,246.384 C684.3476,245.128 682.5176,245.303 680.7516,244.956 C679.7806,244.765 678.9076,243.734 678.1456,242.934 C677.5946,242.356 677.2786,241.545 676.8946,240.819 C676.1116,239.336 674.6206,238.851 673.2226,238.322 C672.8376,238.177 672.0856,238.533 671.7316,238.888 C671.1656,239.454 670.7306,240.179 670.3496,240.895 C669.7456,242.024 668.7926,242.583 667.5846,242.577 C666.0206,242.569 664.4796,242.533 663.2206,241.229 C662.0486,240.014 660.5266,239.721 658.8336,240.21 C658.0986,240.422 657.2706,240.313 656.2206,240.363" id="Fill-14" fill="#E9C056"></path>
                <path d="M606.0103,196.6388 C606.5343,197.0668 606.8963,197.2508 607.0963,197.5448 C608.0933,199.0088 609.5233,199.9018 611.0323,200.7348 C612.4273,201.5038 612.5203,201.9378 611.6833,203.2888 C611.3193,203.8768 610.9373,204.5118 610.4083,204.9258 C608.9923,206.0328 609.0393,207.3908 609.5603,208.8578 C610.1683,210.5718 610.8253,212.2688 611.6033,214.3548 C611.3533,214.5068 610.9303,214.6868 610.6083,214.9768 C610.0933,215.4408 609.4743,215.9008 609.2003,216.5008 C608.4873,218.0558 607.7653,219.5128 606.1963,220.4498 C605.8283,220.6688 605.8273,221.5698 605.7333,222.1688 C605.5483,223.3438 605.4693,224.5368 605.2433,225.7028 C605.1063,226.4128 605.0713,227.2948 604.1003,227.4878 C602.8403,227.7368 601.6823,228.6498 600.2783,227.9808 C599.3693,227.5478 598.4033,227.2328 597.4603,226.8728 C597.2243,226.7828 596.9513,226.6218 596.7353,226.6708 C594.8403,227.1008 593.2653,225.9708 591.5273,225.6628 C590.4933,225.4788 590.0553,224.9638 589.7713,223.9828 C589.4603,222.9088 588.8223,221.9348 588.4213,220.8808 C588.0233,219.8318 587.7053,218.7478 587.4273,217.6598 C587.2723,217.0538 587.3333,216.3938 587.1893,215.7838 C586.5363,213.0048 587.4243,211.4298 589.9263,210.2318 C592.2553,209.1158 594.4453,207.7108 596.6933,206.4288 C596.8573,206.3358 597.0503,206.2388 597.1473,206.0888 C598.4543,204.0778 600.4493,202.8358 602.2773,201.3918 C603.0043,200.8168 603.5273,199.9738 604.1083,199.2258 C604.7233,198.4358 605.2973,197.6128 606.0103,196.6388" id="Fill-16" fill="#E9C056"></path>
                <path d="M588.2803,234.8304 C588.7443,234.7624 589.1933,234.8214 589.4783,234.6324 C590.8143,233.7464 592.1573,234.2864 593.5073,234.5064 C594.6823,234.6984 595.8553,234.9324 597.0393,235.0254 C597.8403,235.0884 598.5053,235.2004 598.9883,235.9384 C599.6213,236.9064 600.4253,237.6764 601.6113,237.9974 C602.0083,238.1044 602.3833,238.4484 602.6713,238.7714 C603.3843,239.5724 603.0913,240.3254 602.0193,240.4844 C600.6513,240.6874 599.3153,240.8994 597.9023,240.4824 C597.0323,240.2244 596.0223,240.4034 595.0773,240.4374 C593.1413,240.5074 591.2953,240.1844 589.5643,239.2904 C588.2523,238.6124 586.8863,238.2564 585.3823,238.2024 C583.6703,238.1414 582.0393,237.6634 580.5783,236.6544 C579.8203,236.1304 578.8783,235.8764 578.0943,235.3844 C576.7813,234.5594 575.9563,233.2694 575.0433,232.0484 C574.2963,231.0504 573.3363,230.2124 572.4803,229.2954 C571.9233,228.6974 571.3653,228.1004 570.8393,227.4764 C569.8643,226.3194 568.9083,225.1464 567.9513,223.9734 C567.6733,223.6324 567.3063,223.3094 567.1723,222.9124 C566.2903,220.2894 564.5193,218.1804 563.1573,215.8364 C562.6523,214.9664 562.2493,214.0364 561.8053,213.1314 C561.3633,212.2284 561.0193,211.2974 560.0203,210.7594 C559.5783,210.5214 559.2243,209.9474 559.0333,209.4484 C558.6083,208.3384 557.8833,207.5264 556.9993,206.7634 C555.9513,205.8574 554.9623,204.8704 554.0493,203.8294 C553.6623,203.3884 553.3903,202.7374 553.3223,202.1524 C553.2073,201.1574 553.6983,200.7944 554.7133,200.9394 C555.5873,201.0644 556.4613,201.1924 557.3323,201.3394 C558.7653,201.5814 559.9793,202.1734 560.7513,203.4854 C560.9413,203.8074 561.1493,204.1514 561.4333,204.3824 C565.3533,207.5704 568.5453,211.5764 572.8423,214.3574 C575.0683,215.7984 576.6043,217.8974 577.3073,220.5374 C577.5653,221.5074 577.9783,222.3114 578.9523,222.9444 C579.9013,223.5604 580.1813,224.7664 579.9963,226.0034 C579.7513,227.6354 579.6743,229.2744 580.2583,230.8784 C580.7873,232.3274 581.8673,233.2304 583.2983,233.4544 C584.4443,233.6334 585.4973,233.8704 586.5223,234.4274 C587.0523,234.7144 587.7383,234.7154 588.2803,234.8304" id="Fill-18" fill="#E9C056"></path>
                <path d="M441.0152,249.7041 C441.4272,250.4171 441.6892,250.8341 441.9172,251.2691 C443.0232,253.3851 443.2872,255.7271 443.6702,258.0281 C443.8602,259.1751 443.6212,260.2811 442.9872,261.2991 C442.0812,262.7531 441.6202,264.3391 441.2402,266.0291 C440.7052,268.4141 439.7032,270.6961 438.8892,273.0171 C437.8652,275.9371 436.8492,278.8591 435.7892,281.7661 C435.3142,283.0681 434.7932,284.3601 434.1832,285.6021 C433.9862,286.0031 433.4792,286.3281 433.0412,286.5191 C432.1192,286.9201 431.1662,287.2721 430.1962,287.5301 C428.5842,287.9601 426.0482,286.3661 425.5102,284.4281 C424.9032,282.2391 424.4592,279.9851 424.6922,277.6901 C424.7582,277.0331 425.0992,276.3831 425.4072,275.7771 C425.7212,275.1611 426.1292,274.5901 426.5302,274.0251 C428.0792,271.8411 427.6692,269.3911 427.2072,267.0821 C426.7812,264.9551 427.8342,263.4191 428.6052,261.7261 C428.7392,261.4321 429.1532,261.2211 429.4822,261.0721 C430.0562,260.8121 430.6492,260.5411 431.2622,260.4311 C434.1012,259.9231 435.7012,257.9781 437.0092,255.6411 C437.9332,253.9891 438.8972,252.3581 439.8862,250.7451 C440.0972,250.4021 440.4952,250.1741 441.0152,249.7041" id="Fill-20" fill="#E9C056"></path>
                <path d="M627.2496,130.9433 C627.1426,130.8973 626.8706,130.8513 626.6996,130.6953 C625.2116,129.3293 623.5946,128.0553 622.9606,126.0153 C622.8366,125.6163 622.7146,125.1223 622.8376,124.7543 C623.6296,122.3973 624.6586,120.2113 626.8626,118.7493 C627.6516,118.2273 628.3866,117.9603 629.3056,117.9493 C630.9896,117.9293 632.4696,117.3063 633.3016,115.8153 C634.2396,114.1323 635.7266,113.0763 637.2176,112.0523 C638.3456,111.2773 638.6896,110.3423 638.3986,109.1383 C638.1336,108.0413 637.8516,106.9103 637.3336,105.9213 C636.2346,103.8213 635.5806,101.4413 633.6206,99.8493 C632.8286,99.2073 632.4956,98.3133 632.8266,97.2943 C633.2556,95.9743 633.2456,94.7273 632.6606,93.4213 C632.4466,92.9453 632.5116,92.0343 632.8366,91.7133 C633.1506,91.4043 634.0276,91.4193 634.5426,91.6073 C635.9046,92.1033 637.2336,92.7123 638.5196,93.3833 C639.7246,94.0123 640.9426,94.4743 642.3186,94.3773 C643.1286,94.3193 643.6006,94.7203 643.9576,95.4073 C644.2156,95.9033 644.5466,96.3763 644.9196,96.7933 C645.5686,97.5173 645.4676,98.1953 644.8176,98.7843 C643.8846,99.6303 642.9266,100.4553 641.9146,101.2033 C640.6856,102.1123 640.2556,103.0563 641.1796,104.1363 C642.9306,106.1833 643.3056,108.8303 644.5406,111.0933 C645.0296,111.9903 645.0916,113.1553 645.2036,114.2133 C645.3506,115.5953 645.3736,116.9923 645.4126,118.3843 C645.4486,119.6463 645.0186,120.2463 643.8396,120.6473 C643.0626,120.9113 642.2906,121.2473 641.4886,121.3743 C639.8066,121.6393 638.5866,122.4013 637.8616,124.0013 C637.4206,124.9723 636.4216,125.1443 635.4546,125.2693 C634.4526,125.3973 633.4316,125.4683 632.4616,125.7253 C630.7966,126.1663 629.4546,126.9763 629.1476,128.9263 C628.9696,130.0563 628.0956,130.9103 627.2496,130.9433" id="Fill-22" fill="#E9C056"></path>
                <g id="Group-26" transform="translate(685.000000, 310.302000)">
                    <mask id="mask-4" fill="white">
                        <use xlink:href="#path-3"></use>
                    </mask>
                    <g id="Clip-25"></g>
                    <path d="M0.2549,33.3977 C0.5909,32.4527 1.2419,31.6787 2.2289,31.1307 C4.1029,30.0897 5.9159,28.9327 7.8229,27.9587 C9.3249,27.1917 10.8979,26.5247 12.4999,25.9967 C15.0229,25.1647 17.1799,23.8067 19.0479,21.9497 C19.1819,21.8157 19.2829,21.6427 19.4319,21.5307 C20.9649,20.3727 22.6949,19.4977 24.1329,18.1897 C24.4449,17.9047 25.1079,18.0327 25.5919,17.9057 C27.4319,17.4207 29.2929,16.9887 29.9769,14.8037 C30.1039,14.3987 30.6299,14.0517 31.0489,13.8157 C34.4529,11.8927 35.6119,9.2357 34.9569,5.2537 C34.7399,3.9397 34.4399,2.4687 35.6149,1.3287 C35.7439,1.2037 35.9319,1.1397 36.1839,0.9957 C37.3949,2.1507 38.7459,3.1587 38.8929,5.0727 C38.9599,5.9447 39.2419,6.8067 39.4809,7.6567 C39.7459,8.6017 40.3499,9.1597 41.3899,9.1947 C42.2729,9.2257 43.3859,9.2187 43.6509,10.1787 C43.9629,11.3137 42.9449,11.9677 42.1099,12.5507 C40.8199,13.4537 39.4829,14.2907 38.2219,15.2307 C37.5199,15.7557 36.8639,16.3787 36.3039,17.0537 C34.3039,19.4677 31.5989,20.5777 28.6899,21.3917 C27.8699,21.6207 27.0279,21.9807 26.3529,22.4897 C24.3379,24.0087 22.4329,25.6767 20.4149,27.1927 C19.6219,27.7877 18.6889,28.3537 17.7399,28.5547 C15.0569,29.1217 12.9499,30.6557 10.7599,32.1547 C9.2159,33.2127 7.5319,34.3097 5.7559,34.7207 C3.9909,35.1287 2.0089,34.8167 0.3499,33.7127 C0.3099,33.6857 0.3119,33.5957 0.2549,33.3977" id="Fill-24" fill="#E9C056" mask="url(#mask-4)"></path>
                </g>
                <path d="M317.1348,56.4319 C319.8238,56.4379 321.3388,57.9489 321.3408,60.4579 C321.3428,63.1339 322.4278,65.2799 324.2578,67.1569 C324.6678,67.5769 324.8998,68.2209 325.0838,68.8029 C325.4368,69.9149 325.8198,70.8019 327.1568,71.1979 C328.7618,71.6719 328.8238,72.5649 327.6788,73.8719 C327.2478,74.3639 327.0028,75.0159 326.6148,75.5519 C326.3668,75.8939 326.0598,76.3129 325.6938,76.4289 C324.5038,76.8079 323.2898,77.1699 322.0568,77.3439 C320.0058,77.6329 317.8778,77.5179 316.0708,78.8179 C315.7808,79.0269 315.3698,79.1259 315.0038,79.1599 C314.0358,79.2499 313.5168,78.7329 313.7298,77.7979 C314.2048,75.7099 314.6938,73.6199 315.3268,71.5769 C315.4768,71.0959 316.1718,70.6779 316.7088,70.4489 C317.3678,70.1679 318.4428,70.3739 318.4608,69.3819 C318.4788,68.3619 317.9518,67.4019 316.9048,66.9929 C315.6078,66.4869 314.7358,65.5239 313.8318,64.5359 C313.2238,63.8719 312.9498,63.1769 312.9808,62.3159 C312.9878,62.1259 313.0348,61.9129 312.9688,61.7499 C312.3448,60.2019 313.2108,59.1639 314.0688,58.0149 C314.9518,56.8319 315.9068,56.1049 317.1348,56.4319" id="Fill-27" fill="#E9C056"></path>
                <path d="M621.8873,230.4487 C621.6653,230.8407 621.5033,231.4177 621.1233,231.7277 C620.5943,232.1587 620.0413,231.8227 619.6423,231.3527 C618.8513,230.4227 617.6803,230.5017 616.6603,230.3597 C616.1833,230.2937 615.5813,230.8637 615.0963,231.2247 C614.8643,231.3977 614.8113,231.7907 614.6083,232.0247 C614.1093,232.5987 613.4003,232.9317 612.7693,232.4897 C612.4213,232.2457 612.3173,231.5367 612.2663,231.0217 C612.2263,230.6027 612.4613,230.1637 612.5173,229.7257 C612.6753,228.5037 612.6933,227.4017 611.4603,226.5377 C610.5103,225.8717 610.5593,224.7197 611.1223,223.6327 C611.4863,222.9297 611.6853,222.1407 611.9433,221.3857 C612.0853,220.9697 612.2193,220.5487 612.3153,220.1207 C612.5053,219.2707 612.7643,218.4207 612.8183,217.5597 C612.9213,215.9297 613.6463,214.8217 614.9353,213.7787 C616.2683,212.7007 617.4343,212.3867 619.0043,213.0627 C619.6733,213.3507 620.5023,213.2527 621.2523,213.3697 C622.7933,213.6107 624.1393,213.4947 624.9883,211.8877 C625.1553,211.5727 625.8183,211.5197 626.2533,211.3467 C626.4083,211.8487 626.8173,212.4497 626.6673,212.8327 C626.3093,213.7477 625.7843,214.6407 625.1483,215.3917 C624.3303,216.3577 623.4693,217.1907 623.1773,218.5457 C623.0333,219.2147 622.2553,219.8917 621.5943,220.2697 C620.5033,220.8947 619.9843,221.7537 620.1723,222.9117 C620.4323,224.5227 620.8623,226.1067 621.2273,227.7007 C621.4243,228.5597 621.6383,229.4147 621.8873,230.4487" id="Fill-29" fill="#E9C056"></path>
                <path d="M282.5418,39.2163 C284.0498,37.4033 285.7398,36.6843 288.2008,37.4003 C289.7638,37.8543 291.5538,37.6203 293.2358,37.5493 C294.8688,37.4813 296.4928,37.2263 298.1208,37.0563 C299.8658,36.8743 300.9438,38.0013 301.9188,39.1523 C302.1728,39.4513 302.1378,40.3733 301.8658,40.6633 C301.2888,41.2763 300.5248,41.8023 299.7388,42.1153 C297.4608,43.0203 295.1238,43.7773 292.8308,44.6453 C292.0218,44.9513 291.3298,44.9773 290.4778,44.6793 C289.4898,44.3343 288.3888,44.2033 287.3328,44.1863 C285.8558,44.1623 285.0628,43.4473 284.4658,42.1673 C284.0038,41.1753 283.2698,40.3093 282.5418,39.2163" id="Fill-31" fill="#E9C056"></path>
                <path d="M622.5123,181.2704 C620.9233,181.8504 619.7723,181.3924 618.7043,180.6494 C617.5553,179.8504 616.4083,179.2314 614.9373,179.0444 C612.9883,178.7964 610.1693,175.9874 609.9093,173.4074 C609.6643,170.9674 610.0983,168.6124 610.7373,166.2834 C610.8283,165.9504 611.0873,165.5754 611.3773,165.3974 C613.6543,164.0014 616.7243,165.6424 616.8113,168.3034 C616.8603,169.8184 616.8983,171.3104 615.7663,172.6044 C615.1333,173.3284 615.3943,175.6744 616.0583,176.3714 C616.3183,176.6444 616.8433,176.8604 617.2033,176.8064 C618.8193,176.5654 620.1613,177.4154 621.5923,177.8564 C621.9903,177.9794 622.3653,178.6424 622.4743,179.1204 C622.6253,179.7764 622.5123,180.4914 622.5123,181.2704" id="Fill-33" fill="#E9C056"></path>
                <path d="M119.3808,156.3566 C119.8268,154.6016 121.2228,153.6536 122.8098,153.0576 C125.8828,151.9016 128.9138,151.8526 132.0188,153.3046 C134.1478,154.3016 136.2348,155.1826 137.9758,156.8736 C139.0288,157.8946 140.5348,158.4496 141.8388,159.2106 C142.5478,159.6246 143.2948,159.9846 143.9668,160.4526 C144.9038,161.1046 144.8578,161.6936 143.8838,162.3466 C142.9018,163.0036 141.8468,163.0886 140.8348,162.5006 C139.9128,161.9646 139.0528,161.7496 137.9638,162.0406 C136.7488,162.3636 136.5998,162.1526 136.1468,160.8176 C136.0288,160.4686 135.9158,159.9936 135.6488,159.8386 C133.2478,158.4396 131.4448,155.8796 128.2548,155.9866 C127.9528,155.9966 127.6308,155.8716 127.3428,155.7506 C125.7848,155.0926 124.2908,155.2186 122.7568,155.9106 C121.8078,156.3386 120.7598,156.5476 119.7568,156.8546 C119.6318,156.6886 119.5058,156.5226 119.3808,156.3566" id="Fill-35" fill="#E9C056"></path>
                <path d="M310.8979,64.9442 C311.3209,65.0432 312.1639,65.1182 312.9009,65.4372 C314.3739,66.0762 314.6329,67.7662 313.3799,68.7672 C312.7539,69.2682 312.5569,69.7782 312.4949,70.5142 C312.4429,71.1282 312.2019,71.7312 312.0119,72.3282 C311.7619,73.1152 311.2709,73.4542 310.3889,73.6352 C309.1859,73.8822 308.0169,74.4272 306.9159,75.0002 C305.1089,75.9412 304.2099,75.7622 303.4319,73.9762 C303.2389,73.5342 303.2209,72.8042 303.4639,72.4262 C304.1159,71.4142 304.3689,70.4092 304.2519,69.2042 C304.1189,67.8402 304.2599,67.8992 305.5819,67.4032 C306.4359,67.0832 307.2819,66.5622 307.9339,65.9292 C308.6939,65.1912 309.5309,64.9722 310.8979,64.9442" id="Fill-37" fill="#E9C056"></path>
                <path d="M142.7701,166.3248 C144.0631,164.4458 145.6981,165.1878 146.9101,164.6168 C147.6521,163.3358 145.3431,162.9318 146.0511,161.6218 C147.7641,161.6218 149.4931,161.6168 151.2211,161.6268 C151.4701,161.6288 151.7441,161.6498 151.9651,161.7508 C153.5061,162.4558 155.0371,163.1818 156.5691,163.9058 C157.2231,164.2148 157.8421,164.5748 157.6671,165.4548 C157.5111,166.2408 156.8621,166.2988 156.2181,166.4188 C154.7371,166.6928 153.2751,167.0618 151.7921,167.3218 C148.7881,167.8488 145.9711,166.9808 142.7701,166.3248" id="Fill-39" fill="#E9C056"></path>
                <path d="M79.1749,103.6461 C79.1749,100.4601 76.5919,97.8771 73.4059,97.8771 C70.2199,97.8771 67.6379,100.4601 67.6379,103.6461 C67.6379,104.8501 68.0069,106.0261 68.6369,106.9511 C69.7939,109.3601 71.9609,113.5881 73.1119,113.5881 L73.7009,113.5881 C74.8519,113.5881 77.0189,109.3601 78.1749,106.9511 C78.8059,106.0261 79.1749,104.8501 79.1749,103.6461" id="Fill-41" fill="#792762"></path>
                <path d="M114.1749,89.6461 C114.1749,86.4601 111.5919,83.8771 108.4059,83.8771 C105.2199,83.8771 102.6379,86.4601 102.6379,89.6461 C102.6379,90.8501 103.0069,92.0261 103.6369,92.9511 C104.7939,95.3601 106.9609,99.5881 108.1119,99.5881 L108.7009,99.5881 C109.8519,99.5881 112.0189,95.3601 113.1749,92.9511 C113.8059,92.0261 114.1749,90.8501 114.1749,89.6461" id="Fill-43" fill="#792762"></path>
                <path d="M137.1749,129.6461 C137.1749,126.4601 134.5919,123.8771 131.4059,123.8771 C128.2199,123.8771 125.6379,126.4601 125.6379,129.6461 C125.6379,130.8501 126.0069,132.0261 126.6369,132.9511 C127.7939,135.3601 129.9609,139.5881 131.1119,139.5881 L131.7009,139.5881 C132.8519,139.5881 135.0189,135.3601 136.1749,132.9511 C136.8059,132.0261 137.1749,130.8501 137.1749,129.6461" id="Fill-45" fill="#792762"></path>
                <path d="M167.1749,195.6461 C167.1749,192.4601 164.5919,189.8771 161.4059,189.8771 C158.2199,189.8771 155.6379,192.4601 155.6379,195.6461 C155.6379,196.8501 156.0069,198.0261 156.6369,198.9511 C157.7939,201.3601 159.9609,205.5881 161.1119,205.5881 L161.7009,205.5881 C162.8519,205.5881 165.0189,201.3601 166.1749,198.9511 C166.8059,198.0261 167.1749,196.8501 167.1749,195.6461" id="Fill-47" fill="#792762"></path>
                <path d="M162.1749,239.6461 C162.1749,236.4601 159.5919,233.8771 156.4059,233.8771 C153.2199,233.8771 150.6379,236.4601 150.6379,239.6461 C150.6379,240.8501 151.0069,242.0261 151.6369,242.9511 C152.7939,245.3601 154.9609,249.5881 156.1119,249.5881 L156.7009,249.5881 C157.8519,249.5881 160.0189,245.3601 161.1749,242.9511 C161.8059,242.0261 162.1749,240.8501 162.1749,239.6461" id="Fill-49" fill="#792762"></path>
                <path d="M111.1749,168.6461 C111.1749,165.4601 108.5919,162.8771 105.4059,162.8771 C102.2199,162.8771 99.6379,165.4601 99.6379,168.6461 C99.6379,169.8501 100.0069,171.0261 100.6369,171.9511 C101.7939,174.3601 103.9609,178.5881 105.1119,178.5881 L105.7009,178.5881 C106.8519,178.5881 109.0189,174.3601 110.1749,171.9511 C110.8059,171.0261 111.1749,169.8501 111.1749,168.6461" id="Fill-51" fill="#792762"></path>
                <path d="M131.1749,174.6461 C131.1749,171.4601 128.5919,168.8771 125.4059,168.8771 C122.2199,168.8771 119.6379,171.4601 119.6379,174.6461 C119.6379,175.8501 120.0069,177.0261 120.6369,177.9511 C121.7939,180.3601 123.9609,184.5881 125.1119,184.5881 L125.7009,184.5881 C126.8519,184.5881 129.0189,180.3601 130.1749,177.9511 C130.8059,177.0261 131.1749,175.8501 131.1749,174.6461" id="Fill-53" fill="#792762"></path>
                <path d="M161.1749,154.6461 C161.1749,151.4601 158.5919,148.8771 155.4059,148.8771 C152.2199,148.8771 149.6379,151.4601 149.6379,154.6461 C149.6379,155.8501 150.0069,157.0261 150.6369,157.9511 C151.7939,160.3601 153.9609,164.5881 155.1119,164.5881 L155.7009,164.5881 C156.8519,164.5881 159.0189,160.3601 160.1749,157.9511 C160.8059,157.0261 161.1749,155.8501 161.1749,154.6461" id="Fill-55" fill="#792762"></path>
                <path d="M441.1749,255.6461 C441.1749,252.4601 438.5919,249.8771 435.4059,249.8771 C432.2199,249.8771 429.6379,252.4601 429.6379,255.6461 C429.6379,256.8501 430.0069,258.0261 430.6369,258.9511 C431.7939,261.3601 433.9609,265.5881 435.1119,265.5881 L435.7009,265.5881 C436.8519,265.5881 439.0189,261.3601 440.1749,258.9511 C440.8059,258.0261 441.1749,256.8501 441.1749,255.6461" id="Fill-57" fill="#792762"></path>
                <path d="M607.1749,202.6461 C607.1749,199.4601 604.5919,196.8771 601.4059,196.8771 C598.2199,196.8771 595.6379,199.4601 595.6379,202.6461 C595.6379,203.8501 596.0069,205.0261 596.6369,205.9511 C597.7939,208.3601 599.9609,212.5881 601.1119,212.5881 L601.7009,212.5881 C602.8519,212.5881 605.0189,208.3601 606.1749,205.9511 C606.8059,205.0261 607.1749,203.8501 607.1749,202.6461" id="Fill-59" fill="#792762"></path>
                <path d="M299.1749,33.6461 C299.1749,30.4601 296.5919,27.8771 293.4059,27.8771 C290.2199,27.8771 287.6379,30.4601 287.6379,33.6461 C287.6379,34.8501 288.0069,36.0261 288.6369,36.9511 C289.7939,39.3601 291.9609,43.5881 293.1119,43.5881 L293.7009,43.5881 C294.8519,43.5881 297.0189,39.3601 298.1749,36.9511 C298.8059,36.0261 299.1749,34.8501 299.1749,33.6461" id="Fill-61" fill="#792762"></path>
                <path d="M332.1749,71.6461 C332.1749,68.4601 329.5919,65.8771 326.4059,65.8771 C323.2199,65.8771 320.6379,68.4601 320.6379,71.6461 C320.6379,72.8501 321.0069,74.0261 321.6369,74.9511 C322.7939,77.3601 324.9609,81.5881 326.1119,81.5881 L326.7009,81.5881 C327.8519,81.5881 330.0189,77.3601 331.1749,74.9511 C331.8059,74.0261 332.1749,72.8501 332.1749,71.6461" id="Fill-63" fill="#E9C056"></path>
                <path d="M189.1749,253.6461 C189.1749,250.4601 186.5919,247.8771 183.4059,247.8771 C180.2199,247.8771 177.6379,250.4601 177.6379,253.6461 C177.6379,254.8501 178.0069,256.0261 178.6369,256.9511 C179.7939,259.3601 181.9609,263.5881 183.1119,263.5881 L183.7009,263.5881 C184.8519,263.5881 187.0189,259.3601 188.1749,256.9511 C188.8059,256.0261 189.1749,254.8501 189.1749,253.6461" id="Fill-65" fill="#792762"></path>
                <path d="M194.1749,234.6461 C194.1749,231.4601 191.5919,228.8771 188.4059,228.8771 C185.2199,228.8771 182.6379,231.4601 182.6379,234.6461 C182.6379,235.8501 183.0069,237.0261 183.6369,237.9511 C184.7939,240.3601 186.9609,244.5881 188.1119,244.5881 L188.7009,244.5881 C189.8519,244.5881 192.0189,240.3601 193.1749,237.9511 C193.8059,237.0261 194.1749,235.8501 194.1749,234.6461" id="Fill-67" fill="#792762"></path>
                <path d="M377.1749,197.6461 C377.1749,194.4601 374.5919,191.8771 371.4059,191.8771 C368.2199,191.8771 365.6379,194.4601 365.6379,197.6461 C365.6379,198.8501 366.0069,200.0261 366.6369,200.9511 C367.7939,203.3601 369.9609,207.5881 371.1119,207.5881 L371.7009,207.5881 C372.8519,207.5881 375.0189,203.3601 376.1749,200.9511 C376.8059,200.0261 377.1749,198.8501 377.1749,197.6461" id="Fill-69" fill="#792762"></path>
                <path d="M357.1749,169.6461 C357.1749,166.4601 354.5919,163.8771 351.4059,163.8771 C348.2199,163.8771 345.6379,166.4601 345.6379,169.6461 C345.6379,170.8501 346.0069,172.0261 346.6369,172.9511 C347.7939,175.3601 349.9609,179.5881 351.1119,179.5881 L351.7009,179.5881 C352.8519,179.5881 355.0189,175.3601 356.1749,172.9511 C356.8059,172.0261 357.1749,170.8501 357.1749,169.6461" id="Fill-71" fill="#792762"></path>
                <path d="M384.1749,162.6461 C384.1749,159.4601 381.5919,156.8771 378.4059,156.8771 C375.2199,156.8771 372.6379,159.4601 372.6379,162.6461 C372.6379,163.8501 373.0069,165.0261 373.6369,165.9511 C374.7939,168.3601 376.9609,172.5881 378.1119,172.5881 L378.7009,172.5881 C379.8519,172.5881 382.0189,168.3601 383.1749,165.9511 C383.8059,165.0261 384.1749,163.8501 384.1749,162.6461" id="Fill-73" fill="#792762"></path>
                <path d="M418.1749,151.6461 C418.1749,148.4601 415.5919,145.8771 412.4059,145.8771 C409.2199,145.8771 406.6379,148.4601 406.6379,151.6461 C406.6379,152.8501 407.0069,154.0261 407.6369,154.9511 C408.7939,157.3601 410.9609,161.5881 412.1119,161.5881 L412.7009,161.5881 C413.8519,161.5881 416.0189,157.3601 417.1749,154.9511 C417.8059,154.0261 418.1749,152.8501 418.1749,151.6461" id="Fill-75" fill="#792762"></path>
                <path d="M435.1749,114.6461 C435.1749,111.4601 432.5919,108.8771 429.4059,108.8771 C426.2199,108.8771 423.6379,111.4601 423.6379,114.6461 C423.6379,115.8501 424.0069,117.0261 424.6369,117.9511 C425.7939,120.3601 427.9609,124.5881 429.1119,124.5881 L429.7009,124.5881 C430.8519,124.5881 433.0189,120.3601 434.1749,117.9511 C434.8059,117.0261 435.1749,115.8501 435.1749,114.6461" id="Fill-77" fill="#792762"></path>
                <path d="M488.1749,136.6461 C488.1749,133.4601 485.5919,130.8771 482.4059,130.8771 C479.2199,130.8771 476.6379,133.4601 476.6379,136.6461 C476.6379,137.8501 477.0069,139.0261 477.6369,139.9511 C478.7939,142.3601 480.9609,146.5881 482.1119,146.5881 L482.7009,146.5881 C483.8519,146.5881 486.0189,142.3601 487.1749,139.9511 C487.8059,139.0261 488.1749,137.8501 488.1749,136.6461" id="Fill-79" fill="#792762"></path>
                <path d="M522.1749,156.6461 C522.1749,153.4601 519.5919,150.8771 516.4059,150.8771 C513.2199,150.8771 510.6379,153.4601 510.6379,156.6461 C510.6379,157.8501 511.0069,159.0261 511.6369,159.9511 C512.7939,162.3601 514.9609,166.5881 516.1119,166.5881 L516.7009,166.5881 C517.8519,166.5881 520.0189,162.3601 521.1749,159.9511 C521.8059,159.0261 522.1749,157.8501 522.1749,156.6461" id="Fill-81" fill="#792762"></path>
                <path d="M567.1749,132.6461 C567.1749,129.4601 564.5919,126.8771 561.4059,126.8771 C558.2199,126.8771 555.6379,129.4601 555.6379,132.6461 C555.6379,133.8501 556.0069,135.0261 556.6369,135.9511 C557.7939,138.3601 559.9609,142.5881 561.1119,142.5881 L561.7009,142.5881 C562.8519,142.5881 565.0189,138.3601 566.1749,135.9511 C566.8059,135.0261 567.1749,133.8501 567.1749,132.6461" id="Fill-83" fill="#792762"></path>
                <path d="M576.1749,154.6461 C576.1749,151.4601 573.5919,148.8771 570.4059,148.8771 C567.2199,148.8771 564.6379,151.4601 564.6379,154.6461 C564.6379,155.8501 565.0069,157.0261 565.6369,157.9511 C566.7939,160.3601 568.9609,164.5881 570.1119,164.5881 L570.7009,164.5881 C571.8519,164.5881 574.0189,160.3601 575.1749,157.9511 C575.8059,157.0261 576.1749,155.8501 576.1749,154.6461" id="Fill-85" fill="#792762"></path>
                <path d="M585.1749,179.6461 C585.1749,176.4601 582.5919,173.8771 579.4059,173.8771 C576.2199,173.8771 573.6379,176.4601 573.6379,179.6461 C573.6379,180.8501 574.0069,182.0261 574.6369,182.9511 C575.7939,185.3601 577.9609,189.5881 579.1119,189.5881 L579.7009,189.5881 C580.8519,189.5881 583.0189,185.3601 584.1749,182.9511 C584.8059,182.0261 585.1749,180.8501 585.1749,179.6461" id="Fill-87" fill="#792762"></path>
                <path d="M644.1749,265.6461 C644.1749,262.4601 641.5919,259.8771 638.4059,259.8771 C635.2199,259.8771 632.6379,262.4601 632.6379,265.6461 C632.6379,266.8501 633.0069,268.0261 633.6369,268.9511 C634.7939,271.3601 636.9609,275.5881 638.1119,275.5881 L638.7009,275.5881 C639.8519,275.5881 642.0189,271.3601 643.1749,268.9511 C643.8059,268.0261 644.1749,266.8501 644.1749,265.6461" id="Fill-89" fill="#792762"></path>
                <path d="M611.1749,129.6461 C611.1749,126.4601 608.5919,123.8771 605.4059,123.8771 C602.2199,123.8771 599.6379,126.4601 599.6379,129.6461 C599.6379,130.8501 600.0069,132.0261 600.6369,132.9511 C601.7939,135.3601 603.9609,139.5881 605.1119,139.5881 L605.7009,139.5881 C606.8519,139.5881 609.0189,135.3601 610.1749,132.9511 C610.8059,132.0261 611.1749,130.8501 611.1749,129.6461" id="Fill-91" fill="#792762"></path>
                <path d="M635.1749,118.6461 C635.1749,115.4601 632.5919,112.8771 629.4059,112.8771 C626.2199,112.8771 623.6379,115.4601 623.6379,118.6461 C623.6379,119.8501 624.0069,121.0261 624.6369,121.9511 C625.7939,124.3601 627.9609,128.5881 629.1119,128.5881 L629.7009,128.5881 C630.8519,128.5881 633.0189,124.3601 634.1749,121.9511 C634.8059,121.0261 635.1749,119.8501 635.1749,118.6461" id="Fill-93" fill="#792762"></path>
                <path d="M258.1749,16.6461 C258.1749,13.4601 255.5919,10.8771 252.4059,10.8771 C249.2199,10.8771 246.6379,13.4601 246.6379,16.6461 C246.6379,17.8501 247.0069,19.0261 247.6369,19.9511 C248.7939,22.3601 250.9609,26.5881 252.1119,26.5881 L252.7009,26.5881 C253.8519,26.5881 256.0189,22.3601 257.1749,19.9511 C257.8059,19.0261 258.1749,17.8501 258.1749,16.6461" id="Fill-95" fill="#792762"></path>
                <path d="M396.1749,47.6461 C396.1749,44.4601 393.5919,41.8771 390.4059,41.8771 C387.2199,41.8771 384.6379,44.4601 384.6379,47.6461 C384.6379,48.8501 385.0069,50.0261 385.6369,50.9511 C386.7939,53.3601 388.9609,57.5881 390.1119,57.5881 L390.7009,57.5881 C391.8519,57.5881 394.0189,53.3601 395.1749,50.9511 C395.8059,50.0261 396.1749,48.8501 396.1749,47.6461" id="Fill-97" fill="#792762"></path>
                <path d="M363.1749,79.6461 C363.1749,76.4601 360.5919,73.8771 357.4059,73.8771 C354.2199,73.8771 351.6379,76.4601 351.6379,79.6461 C351.6379,80.8501 352.0069,82.0261 352.6369,82.9511 C353.7939,85.3601 355.9609,89.5881 357.1119,89.5881 L357.7009,89.5881 C358.8519,89.5881 361.0189,85.3601 362.1749,82.9511 C362.8059,82.0261 363.1749,80.8501 363.1749,79.6461" id="Fill-99" fill="#792762"></path>
                <path d="M351.1749,105.6461 C351.1749,102.4601 348.5919,99.8771 345.4059,99.8771 C342.2199,99.8771 339.6379,102.4601 339.6379,105.6461 C339.6379,106.8501 340.0069,108.0261 340.6369,108.9511 C341.7939,111.3601 343.9609,115.5881 345.1119,115.5881 L345.7009,115.5881 C346.8519,115.5881 349.0189,111.3601 350.1749,108.9511 C350.8059,108.0261 351.1749,106.8501 351.1749,105.6461" id="Fill-101" fill="#792762"></path>
                <path d="M375.1749,98.6461 C375.1749,95.4601 372.5919,92.8771 369.4059,92.8771 C366.2199,92.8771 363.6379,95.4601 363.6379,98.6461 C363.6379,99.8501 364.0069,101.0261 364.6369,101.9511 C365.7939,104.3601 367.9609,108.5881 369.1119,108.5881 L369.7009,108.5881 C370.8519,108.5881 373.0189,104.3601 374.1749,101.9511 C374.8059,101.0261 375.1749,99.8501 375.1749,98.6461" id="Fill-103" fill="#792762"></path>
                <path d="M352.1749,91.6461 C352.1749,88.4601 349.5919,85.8771 346.4059,85.8771 C343.2199,85.8771 340.6379,88.4601 340.6379,91.6461 C340.6379,92.8501 341.0069,94.0261 341.6369,94.9511 C342.7939,97.3601 344.9609,101.5881 346.1119,101.5881 L346.7009,101.5881 C347.8519,101.5881 350.0189,97.3601 351.1749,94.9511 C351.8059,94.0261 352.1749,92.8501 352.1749,91.6461" id="Fill-105" fill="#792762"></path>
                <path d="M325.1749,102.6461 C325.1749,99.4601 322.5919,96.8771 319.4059,96.8771 C316.2199,96.8771 313.6379,99.4601 313.6379,102.6461 C313.6379,103.8501 314.0069,105.0261 314.6369,105.9511 C315.7939,108.3601 317.9609,112.5881 319.1119,112.5881 L319.7009,112.5881 C320.8519,112.5881 323.0189,108.3601 324.1749,105.9511 C324.8059,105.0261 325.1749,103.8501 325.1749,102.6461" id="Fill-107" fill="#792762"></path>
                <path d="M313.1749,93.6461 C313.1749,90.4601 310.5919,87.8771 307.4059,87.8771 C304.2199,87.8771 301.6379,90.4601 301.6379,93.6461 C301.6379,94.8501 302.0069,96.0261 302.6369,96.9511 C303.7939,99.3601 305.9609,103.5881 307.1119,103.5881 L307.7009,103.5881 C308.8519,103.5881 311.0189,99.3601 312.1749,96.9511 C312.8059,96.0261 313.1749,94.8501 313.1749,93.6461" id="Fill-109" fill="#792762"></path>
                <path d="M318.1749,145.6461 C318.1749,142.4601 315.5919,139.8771 312.4059,139.8771 C309.2199,139.8771 306.6379,142.4601 306.6379,145.6461 C306.6379,146.8501 307.0069,148.0261 307.6369,148.9511 C308.7939,151.3601 310.9609,155.5881 312.1119,155.5881 L312.7009,155.5881 C313.8519,155.5881 316.0189,151.3601 317.1749,148.9511 C317.8059,148.0261 318.1749,146.8501 318.1749,145.6461" id="Fill-111" fill="#792762"></path>
                <path d="M362.1749,52.6461 C362.1749,49.4601 359.5919,46.8771 356.4059,46.8771 C353.2199,46.8771 350.6379,49.4601 350.6379,52.6461 C350.6379,53.8501 351.0069,55.0261 351.6369,55.9511 C352.7939,58.3601 354.9609,62.5881 356.1119,62.5881 L356.7009,62.5881 C357.8519,62.5881 360.0189,58.3601 361.1749,55.9511 C361.8059,55.0261 362.1749,53.8501 362.1749,52.6461" id="Fill-113" fill="#792762"></path>
                <path d="M55.1749,113.6461 C55.1749,110.4601 52.5919,107.8771 49.4059,107.8771 C46.2199,107.8771 43.6379,110.4601 43.6379,113.6461 C43.6379,114.8501 44.0069,116.0261 44.6369,116.9511 C45.7939,119.3601 47.9609,123.5881 49.1119,123.5881 L49.7009,123.5881 C50.8519,123.5881 53.0189,119.3601 54.1749,116.9511 C54.8059,116.0261 55.1749,114.8501 55.1749,113.6461" id="Fill-115" fill="#792762"></path>
                <path d="M166.1749,94.6461 C166.1749,91.4601 163.5919,88.8771 160.4059,88.8771 C157.2199,88.8771 154.6379,91.4601 154.6379,94.6461 C154.6379,95.8501 155.0069,97.0261 155.6369,97.9511 C156.7939,100.3601 158.9609,104.5881 160.1119,104.5881 L160.7009,104.5881 C161.8519,104.5881 164.0189,100.3601 165.1749,97.9511 C165.8059,97.0261 166.1749,95.8501 166.1749,94.6461" id="Fill-117" fill="#792762"></path>
                <path d="M106.1749,43.6461 C106.1749,40.4601 103.5919,37.8771 100.4059,37.8771 C97.2199,37.8771 94.6379,40.4601 94.6379,43.6461 C94.6379,44.8501 95.0069,46.0261 95.6369,46.9511 C96.7939,49.3601 98.9609,53.5881 100.1119,53.5881 L100.7009,53.5881 C101.8519,53.5881 104.0189,49.3601 105.1749,46.9511 C105.8059,46.0261 106.1749,44.8501 106.1749,43.6461" id="Fill-119" fill="#792762"></path>
                <path d="M37.1749,49.6461 C37.1749,46.4601 34.5919,43.8771 31.4059,43.8771 C28.2199,43.8771 25.6379,46.4601 25.6379,49.6461 C25.6379,50.8501 26.0069,52.0261 26.6369,52.9511 C27.7939,55.3601 29.9609,59.5881 31.1119,59.5881 L31.7009,59.5881 C32.8519,59.5881 35.0189,55.3601 36.1749,52.9511 C36.8059,52.0261 37.1749,50.8501 37.1749,49.6461" id="Fill-121" fill="#792762"></path>
                <path d="M185.1749,336.6461 C185.1749,333.4601 182.5919,330.8771 179.4059,330.8771 C176.2199,330.8771 173.6379,333.4601 173.6379,336.6461 C173.6379,337.8501 174.0069,339.0261 174.6369,339.9511 C175.7939,342.3601 177.9609,346.5881 179.1119,346.5881 L179.7009,346.5881 C180.8519,346.5881 183.0189,342.3601 184.1749,339.9511 C184.8059,339.0261 185.1749,337.8501 185.1749,336.6461" id="Fill-123" fill="#792762"></path>
                <path d="M667.1749,278.6461 C667.1749,275.4601 664.5919,272.8771 661.4059,272.8771 C658.2199,272.8771 655.6379,275.4601 655.6379,278.6461 C655.6379,279.8501 656.0069,281.0261 656.6369,281.9511 C657.7939,284.3601 659.9609,288.5881 661.1119,288.5881 L661.7009,288.5881 C662.8519,288.5881 665.0189,284.3601 666.1749,281.9511 C666.8059,281.0261 667.1749,279.8501 667.1749,278.6461" id="Fill-125" fill="#792762"></path>
            </g>
        </g>
    </g>
</svg>