<svg xmlns="http://www.w3.org/2000/svg" width="626.57" height="113.34" viewBox="0 0 626.57 113.34"><title>second</title><g id="95960c11-b6e8-4ef8-a1c6-a52819f84b59" data-name="Ebene 2"><g id="7f2f5569-1e68-48bd-8e8f-62ff706ce140" data-name="Layer 9"><path d="M369.57,25a43.91,43.91,0,0,1,8.76,14.24,47.22,47.22,0,0,1,2.92,12.84,2.54,2.54,0,0,0,2.53,2.34h8.66A2.54,2.54,0,0,0,395,51.7,58.59,58.59,0,0,0,391,34a53.07,53.07,0,0,0-11.73-18A54.38,54.38,0,0,0,361.42,4.27,57,57,0,0,0,343,.13a2.53,2.53,0,0,0-2.67,2.54V9.52a2.55,2.55,0,0,0,2.36,2.53A40.75,40.75,0,0,1,369.57,25Z" style="fill:#bcbcbc"/><rect x="532.26" y="2.61" width="12.7" height="38.59" rx="2.54" ry="2.54" style="fill:#bcbcbc"/><rect x="415.97" y="72.18" width="12.7" height="38.59" rx="2.54" ry="2.54" style="fill:#bcbcbc"/><rect x="123.46" y="98.59" width="38.09" height="12.19" rx="2.54" ry="2.54" style="fill:#bcbcbc"/><path d="M255.53,90.29a30.52,30.52,0,0,1-10.59,8,36.5,36.5,0,0,1-11.52,3.1,2.52,2.52,0,0,0-2.3,2.5v6.91a2.55,2.55,0,0,0,2.72,2.53,56.33,56.33,0,0,0,17.28-3.84,38.5,38.5,0,0,0,15.23-10.79,2.55,2.55,0,0,0-.41-3.74l-7-5.08A2.53,2.53,0,0,0,255.53,90.29Z" style="fill:#bcbcbc"/><path d="M47.38.63C45.83.36,44.32.15,42.79,0a3.81,3.81,0,0,0-4.13,3.8V8.28A3.79,3.79,0,0,0,41.85,12a29.88,29.88,0,0,1,8.58,2.69A22.6,22.6,0,0,1,58,20.61a3.8,3.8,0,0,0,5.34.51l5-4.06a3.79,3.79,0,0,0,.49-5.41,26.83,26.83,0,0,0-4.19-3.85,36.66,36.66,0,0,0-8.15-4.57A45.44,45.44,0,0,0,47.38.63Z" style="fill:#bcbcbc"/><path d="M626.57,56.71A59.82,59.82,0,0,0,624.14,39a51.46,51.46,0,0,0-6.55-13.87,46.16,46.16,0,0,0-9.52-10.29,54.92,54.92,0,0,0-11.27-7A55.5,55.5,0,0,0,585,3.92a56.44,56.44,0,0,0-11.27-1.31H552.57A2.54,2.54,0,0,0,550,5.15v7.11a2.54,2.54,0,0,0,2.54,2.54h16.87a58.29,58.29,0,0,1,17.21,2.37,36.65,36.65,0,0,1,13.71,7.47,35.45,35.45,0,0,1,9.14,13q3.35,7.92,3.35,19t-3.35,19a35.42,35.42,0,0,1-9.14,13,36.76,36.76,0,0,1-13.71,7.5,58.37,58.37,0,0,1-17.21,2.35H545V48.82a2.54,2.54,0,0,0-2.54-2.54H534.8a2.54,2.54,0,0,0-2.54,2.54v59.41a2.54,2.54,0,0,0,2.54,2.54h38.91A56.51,56.51,0,0,0,585,109.49a55.85,55.85,0,0,0,11.81-3.95,55,55,0,0,0,11.27-6.93,46.22,46.22,0,0,0,9.52-10.28,51.5,51.5,0,0,0,6.55-13.86A59.85,59.85,0,0,0,626.57,56.71Z" style="fill:#daddd6"/><path d="M298.34,97.27a54.34,54.34,0,0,0,17.82,11.81,62.13,62.13,0,0,0,45.25,0,54.34,54.34,0,0,0,17.82-11.81A53,53,0,0,0,391,79.3a58.41,58.41,0,0,0,4-17.08,2.54,2.54,0,0,0-2.53-2.73h-8.68a2.55,2.55,0,0,0-2.53,2.31,47,47,0,0,1-2.87,12.32,43.86,43.86,0,0,1-8.76,14.24A40.8,40.8,0,0,1,356.08,98a44.42,44.42,0,0,1-34.58,0A40.75,40.75,0,0,1,308,88.36a43.77,43.77,0,0,1-8.76-14.24,48.31,48.31,0,0,1-3.12-17.44,48.32,48.32,0,0,1,3.12-17.44A43.82,43.82,0,0,1,308,25a40.82,40.82,0,0,1,13.48-9.6A39.13,39.13,0,0,1,333,12.24a2.53,2.53,0,0,0,2.21-2.52V2.83A2.53,2.53,0,0,0,332.46.3a57.48,57.48,0,0,0-16.29,4,54.38,54.38,0,0,0-17.82,11.81,53,53,0,0,0-11.73,18,60.14,60.14,0,0,0-4.19,22.62,60.12,60.12,0,0,0,4.19,22.62A53,53,0,0,0,298.34,97.27Z" style="fill:#daddd6"/><path d="M115.85,98.59H103.66V60.5h49.26A2.54,2.54,0,0,0,155.46,58V50.85a2.54,2.54,0,0,0-2.54-2.54H103.66V14.8h52.81A2.54,2.54,0,0,0,159,12.26V5.15a2.54,2.54,0,0,0-2.54-2.54h-63A2.54,2.54,0,0,0,91,5.15V108.24a2.54,2.54,0,0,0,2.54,2.54h22.34a2.54,2.54,0,0,0,2.54-2.54v-7.11A2.54,2.54,0,0,0,115.85,98.59Z" style="fill:#daddd6"/><path d="M179.36,34.09a60,60,0,0,0-4.19,22.7,60.7,60.7,0,0,0,4,22.24,53.13,53.13,0,0,0,28.72,30,51.59,51.59,0,0,0,15.33,4.05,2.53,2.53,0,0,0,2.79-2.53v-6.94a2.55,2.55,0,0,0-2.2-2.52,35.45,35.45,0,0,1-10.36-3.2,41.42,41.42,0,0,1-13-9.83,45.1,45.1,0,0,1-8.53-14.32,48.09,48.09,0,0,1-3-17,49.81,49.81,0,0,1,3-17.6A44,44,0,0,1,200.39,25a39.64,39.64,0,0,1,12.95-9.52,39.13,39.13,0,0,1,46.3,9.66,2.55,2.55,0,0,0,3.55.28L269,20.59A2.53,2.53,0,0,0,269.3,17,43.73,43.73,0,0,0,253.25,4.69,56.63,56.63,0,0,0,230,.12a54.84,54.84,0,0,0-21.63,4.27,53.22,53.22,0,0,0-17.44,11.81A54.35,54.35,0,0,0,179.36,34.09Z" style="fill:#daddd6"/><path d="M504.84,2.61h-7.62a2.54,2.54,0,0,0-2.54,2.54V92.49h-.34L432.94,4.14A3.55,3.55,0,0,0,430,2.61H418.51A2.54,2.54,0,0,0,416,5.15V64.56a2.54,2.54,0,0,0,2.54,2.54h7.62a2.54,2.54,0,0,0,2.54-2.54V20.89h.17l61.7,88.79a2.54,2.54,0,0,0,2.09,1.09h12.22a2.54,2.54,0,0,0,2.54-2.54V5.15A2.54,2.54,0,0,0,504.84,2.61Z" style="fill:#daddd6"/><path d="M61,62.33a32.69,32.69,0,0,0-8.46-5.79A78.73,78.73,0,0,0,41.9,52.35L29.4,48.09A40,40,0,0,1,20.57,44a15,15,0,0,1-5.18-5.41,17.22,17.22,0,0,1-1.68-8.15,15.22,15.22,0,0,1,2.13-8.07,19.52,19.52,0,0,1,5.48-5.87,25.17,25.17,0,0,1,7.54-3.58c.6-.17,1.2-.33,1.79-.46a3.78,3.78,0,0,0,2.92-3.7V4.26A3.81,3.81,0,0,0,29.15.5a50.84,50.84,0,0,0-5.38,1.2A36.65,36.65,0,0,0,11.65,7.49,29.33,29.33,0,0,0,3.2,17.31a29.14,29.14,0,0,0-3.2,14A29,29,0,0,0,2.67,44.51a25.72,25.72,0,0,0,7.16,8.76,40.9,40.9,0,0,0,10.36,5.79q5.87,2.29,12.11,4.27a96.33,96.33,0,0,1,10.82,4,27.66,27.66,0,0,1,7,4.27,13.62,13.62,0,0,1,3.73,5.1A17.12,17.12,0,0,1,55,83.12a16.44,16.44,0,0,1-2,8.23A16,16,0,0,1,47.76,97a24.89,24.89,0,0,1-7.39,3.2A33.31,33.31,0,0,1,32,101.25a27.2,27.2,0,0,1-11.12-2.36,18.48,18.48,0,0,1-6.3-4.55A3.8,3.8,0,0,0,9.26,94L4.81,97.9a3.81,3.81,0,0,0-.15,5.61,31.12,31.12,0,0,0,10.65,6.81A47.34,47.34,0,0,0,32,113.14a47.16,47.16,0,0,0,13.71-2,37.4,37.4,0,0,0,11.73-5.87A27.77,27.77,0,0,0,68.71,82.06a29.1,29.1,0,0,0-2.06-11.5A24.72,24.72,0,0,0,61,62.33Z" style="fill:#daddd6"/></g></g></svg>