<svg xmlns="http://www.w3.org/2000/svg" width="435.09" height="108.18" viewBox="0 0 435.09 108.18"><title>third</title><g id="e80bf85d-3399-4000-a280-5321edb8cda0" data-name="Ebene 2"><g id="1699affd-9d93-412f-96ca-c3a5317d5b73" data-name="Layer 9"><rect x="100.07" y="77.57" width="12.7" height="30.59" rx="2.54" ry="2.54" style="fill:#bcbcbc"/><rect x="249.37" y="74.57" width="12.7" height="33.59" rx="3.81" ry="3.81" style="fill:#bcbcbc"/><rect x="340.78" width="12.7" height="38.59" rx="2.54" ry="2.54" style="fill:#bcbcbc"/><rect x="35.55" y="76.59" width="12.7" height="31.59" rx="3.81" ry="3.81" style="fill:#bcbcbc"/><rect x="210.28" y="0.02" width="12.7" height="38.59" rx="2.54" ry="2.54" style="fill:#bcbcbc"/><path d="M100.07,2.54V70a2.54,2.54,0,0,0,2.54,2.54h7.62A2.54,2.54,0,0,0,112.77,70V60.43a2.54,2.54,0,0,1,2.54-2.54h52.81a2.54,2.54,0,0,1,2.54,2.54v45.2a2.54,2.54,0,0,0,2.54,2.54h7.62a2.54,2.54,0,0,0,2.54-2.54V2.54A2.54,2.54,0,0,0,180.81,0H173.2a2.54,2.54,0,0,0-2.54,2.54V43.16a2.54,2.54,0,0,1-2.54,2.54H115.31a2.54,2.54,0,0,1-2.54-2.54V2.54A2.54,2.54,0,0,0,110.23,0h-7.62A2.54,2.54,0,0,0,100.07,2.54Z" style="fill:#daddd6"/><path d="M293.79,60a1.27,1.27,0,0,1,.84-1.91c7.56-1.47,13.56-4.5,18-9q7.16-7.31,7.16-19.22,0-10.05-3.81-15.93A25,25,0,0,0,306.06,5a41.45,41.45,0,0,0-13.79-3.67A130.88,130.88,0,0,0,276.81.72H253.18c-2.1,0-3.14,1-3.14,3.09V65.68c0,2.1,1,4,3.14,4h5.08A3.78,3.78,0,0,0,262,66.55c0-.2,0-5.4,0-5.6a1.24,1.24,0,0,1,1.27-1.23h13a3.68,3.68,0,0,1,3.27,1.7l26.12,43.46a3.8,3.8,0,0,0,5.32,1.21l4.8-3.1A3.82,3.82,0,0,0,317,97.77ZM273.46,47.72H263.33A1.27,1.27,0,0,1,262,46.47v-33c0-.7.59-.74,1.29-.74H280a72.23,72.23,0,0,1,9.37.26,25.56,25.56,0,0,1,8.38,2.34,15.25,15.25,0,0,1,6,5.32c1.52,2.34,2.29,5.39,2.29,9.25,0,4.47-1,7.88-3.12,10.26A18.26,18.26,0,0,1,295,45.39a37.79,37.79,0,0,1-10.51,2C280.7,47.59,277,47.72,273.46,47.72Z" style="fill:#daddd6"/><path d="M435.09,54.1a59.82,59.82,0,0,0-2.44-17.75,51.46,51.46,0,0,0-6.55-13.87,46.16,46.16,0,0,0-9.52-10.29,54.92,54.92,0,0,0-11.27-7A55.5,55.5,0,0,0,393.5,1.31,56.44,56.44,0,0,0,382.23,0H361.09a2.54,2.54,0,0,0-2.54,2.54V9.65a2.54,2.54,0,0,0,2.54,2.54H378a58.29,58.29,0,0,1,17.21,2.37A36.65,36.65,0,0,1,408.89,22a35.45,35.45,0,0,1,9.14,13q3.35,7.92,3.35,19t-3.35,19a35.42,35.42,0,0,1-9.14,13,36.76,36.76,0,0,1-13.71,7.5A58.37,58.37,0,0,1,378,96H353.47V46.21a2.54,2.54,0,0,0-2.54-2.54h-7.62a2.54,2.54,0,0,0-2.54,2.54v59.41a2.54,2.54,0,0,0,2.54,2.54h38.91a56.51,56.51,0,0,0,11.27-1.28,55.85,55.85,0,0,0,11.81-3.95A55,55,0,0,0,416.58,96a46.22,46.22,0,0,0,9.52-10.28,51.5,51.5,0,0,0,6.55-13.86A59.85,59.85,0,0,0,435.09,54.1Z" style="fill:#daddd6"/><path d="M39.36,71.51h5.08a3.81,3.81,0,0,0,3.81-3.81V12.21H80A3.81,3.81,0,0,0,83.79,8.4V3.83A3.81,3.81,0,0,0,80,0H3.81A3.81,3.81,0,0,0,0,3.83V8.4a3.81,3.81,0,0,0,3.81,3.81H35.55V67.7A3.81,3.81,0,0,0,39.36,71.51Z" style="fill:#daddd6"/><rect x="210.28" y="43.69" width="12.7" height="64.49" rx="2.54" ry="2.54" style="fill:#daddd6"/></g></g></svg>